<svg width="360" height="390" viewBox="0 0 360 390" fill="none" xmlns="http://www.w3.org/2000/svg">
<path fill-rule="evenodd" clip-rule="evenodd" d="M320.258 299.334C292.443 343.848 250.193 383.904 197.885 388.621C145.447 393.35 97.794 360.318 60.8861 322.724C27.6046 288.824 10.0649 243.424 8.74673 195.968C7.50821 151.381 25.2992 109.624 54.0198 75.5276C82.7074 41.4708 120.719 16.1995 164.916 10.5699C210.953 4.70602 260.255 13.4599 294.427 44.9057C327.518 75.3559 331.294 123.137 335.833 167.849C340.468 213.508 344.562 260.438 320.258 299.334Z" fill="#1A00E1"/>
<path fill-rule="evenodd" clip-rule="evenodd" d="M314.181 293.256C286.366 337.771 244.116 377.826 191.808 382.543C139.37 387.272 91.7169 354.24 54.809 316.647C21.5275 282.747 3.98775 237.347 2.66956 189.891C1.43109 145.303 19.222 103.546 47.9427 69.4499C76.6302 35.3932 114.642 10.1219 158.839 4.49228C204.876 -1.37162 254.178 7.38227 288.35 38.8281C321.441 69.2783 325.216 117.06 329.756 161.772C334.391 207.43 338.485 254.36 314.181 293.256Z" fill="white" stroke="#FF0090" stroke-width="4"/>
<path d="M94.2811 87.367C94.2811 88.356 95.0631 89.138 96.0521 89.138C97.0411 89.138 97.8231 88.356 97.8231 87.367V84.17H100.514C104.125 84.17 107.023 82.238 107.023 78.512V78.466C107.023 75.177 104.7 72.9 100.859 72.9H96.0521C95.0631 72.9 94.2811 73.682 94.2811 74.671V87.367ZM97.8231 81.019V76.097H100.56C102.331 76.097 103.435 76.948 103.435 78.535V78.581C103.435 79.961 102.4 81.019 100.629 81.019H97.8231ZM109.644 87.367C109.644 88.356 110.426 89.138 111.415 89.138C112.404 89.138 113.186 88.356 113.186 87.367V83.848H116.015L119.465 88.218C119.879 88.747 120.408 89.138 121.213 89.138C122.064 89.138 122.892 88.494 122.892 87.505C122.892 86.953 122.662 86.585 122.317 86.148L119.856 83.158C121.811 82.353 123.076 80.789 123.076 78.259V78.213C123.076 76.695 122.593 75.43 121.696 74.533C120.638 73.475 119.051 72.9 117.004 72.9H111.415C110.426 72.9 109.644 73.682 109.644 74.671V87.367ZM113.186 80.72V76.097H116.705C118.43 76.097 119.488 76.879 119.488 78.397V78.443C119.488 79.8 118.499 80.72 116.774 80.72H113.186ZM128.036 89H137.075C137.949 89 138.662 88.31 138.662 87.436C138.662 86.562 137.949 85.849 137.075 85.849H129.784V82.468H135.925C136.799 82.468 137.512 81.778 137.512 80.904C137.512 80.03 136.799 79.317 135.925 79.317H129.784V76.051H136.96C137.834 76.051 138.547 75.361 138.547 74.487C138.547 73.613 137.834 72.9 136.96 72.9H128.036C127.047 72.9 126.265 73.682 126.265 74.671V87.229C126.265 88.218 127.047 89 128.036 89ZM141.674 87.39C141.674 88.356 142.456 89.138 143.422 89.138C144.388 89.138 145.17 88.356 145.17 87.39V78.765L152.254 88.057C152.737 88.678 153.243 89.092 154.094 89.092H154.209C155.198 89.092 155.98 88.31 155.98 87.321V74.51C155.98 73.544 155.198 72.762 154.232 72.762C153.266 72.762 152.484 73.544 152.484 74.51V82.813L145.653 73.843C145.17 73.222 144.664 72.808 143.813 72.808H143.445C142.456 72.808 141.674 73.59 141.674 74.579V87.39ZM161.616 89H170.655C171.529 89 172.242 88.31 172.242 87.436C172.242 86.562 171.529 85.849 170.655 85.849H163.364V82.468H169.505C170.379 82.468 171.092 81.778 171.092 80.904C171.092 80.03 170.379 79.317 169.505 79.317H163.364V76.051H170.54C171.414 76.051 172.127 75.361 172.127 74.487C172.127 73.613 171.414 72.9 170.54 72.9H161.616C160.627 72.9 159.845 73.682 159.845 74.671V87.229C159.845 88.218 160.627 89 161.616 89ZM176.196 89H186.753C187.604 89 188.317 88.31 188.317 87.459C188.317 86.608 187.604 85.895 186.753 85.895H179.324L187.673 76.189C188.087 75.683 188.317 75.154 188.317 74.533V74.464C188.317 73.613 187.604 72.9 186.753 72.9H176.472C175.621 72.9 174.908 73.613 174.908 74.464C174.908 75.315 175.621 76.005 176.472 76.005H183.625L175.276 85.711C174.862 86.194 174.632 86.746 174.632 87.367V87.436C174.632 88.287 175.345 89 176.196 89ZM204.159 89.23C207.632 89.23 210.07 87.436 210.07 84.239V84.193C210.07 81.387 208.23 80.214 204.964 79.363C202.181 78.65 201.491 78.305 201.491 77.247V77.201C201.491 76.419 202.204 75.798 203.561 75.798C204.665 75.798 205.769 76.189 206.942 76.879C207.218 77.04 207.494 77.132 207.839 77.132C208.759 77.132 209.495 76.419 209.495 75.499C209.495 74.809 209.104 74.326 208.713 74.096C207.264 73.176 205.562 72.67 203.607 72.67C200.318 72.67 197.972 74.602 197.972 77.523V77.569C197.972 80.766 200.065 81.663 203.308 82.491C205.999 83.181 206.551 83.641 206.551 84.538V84.584C206.551 85.527 205.677 86.102 204.228 86.102C202.664 86.102 201.33 85.55 200.111 84.653C199.881 84.492 199.559 84.331 199.099 84.331C198.179 84.331 197.443 85.044 197.443 85.964C197.443 86.516 197.719 87.022 198.11 87.298C199.904 88.586 202.043 89.23 204.159 89.23ZM220.964 89.276C225.932 89.276 229.543 85.527 229.543 80.95V80.904C229.543 76.327 225.978 72.624 221.01 72.624C216.042 72.624 212.431 76.373 212.431 80.95V80.996C212.431 85.573 215.996 89.276 220.964 89.276ZM221.01 86.01C218.158 86.01 216.134 83.71 216.134 80.95V80.904C216.134 78.144 218.112 75.89 220.964 75.89C223.816 75.89 225.84 78.19 225.84 80.95V80.996C225.84 83.756 223.862 86.01 221.01 86.01ZM232.846 87.367C232.846 88.356 233.628 89.138 234.617 89.138C235.606 89.138 236.388 88.356 236.388 87.367V74.533C236.388 73.544 235.606 72.762 234.617 72.762C233.628 72.762 232.846 73.544 232.846 74.533V87.367ZM240.412 87.39C240.412 88.356 241.194 89.138 242.16 89.138C243.126 89.138 243.908 88.356 243.908 87.39V78.765L250.992 88.057C251.475 88.678 251.981 89.092 252.832 89.092H252.947C253.936 89.092 254.718 88.31 254.718 87.321V74.51C254.718 73.544 253.936 72.762 252.97 72.762C252.004 72.762 251.222 73.544 251.222 74.51V82.813L244.391 73.843C243.908 73.222 243.402 72.808 242.551 72.808H242.183C241.194 72.808 240.412 73.59 240.412 74.579V87.39ZM115.237 115.229C115.237 116.218 116.019 117 117.008 117H121.516C126.576 117 130.072 113.481 130.072 108.95V108.904C130.072 104.373 126.576 100.9 121.516 100.9H117.008C116.019 100.9 115.237 101.682 115.237 102.671V115.229ZM118.779 113.803V104.097H121.516C124.414 104.097 126.369 106.098 126.369 108.95V108.996C126.369 111.848 124.414 113.803 121.516 113.803H118.779ZM134.999 117H144.038C144.912 117 145.625 116.31 145.625 115.436C145.625 114.562 144.912 113.849 144.038 113.849H136.747V110.468H142.888C143.762 110.468 144.475 109.778 144.475 108.904C144.475 108.03 143.762 107.317 142.888 107.317H136.747V104.051H143.923C144.797 104.051 145.51 103.361 145.51 102.487C145.51 101.613 144.797 100.9 143.923 100.9H134.999C134.01 100.9 133.228 101.682 133.228 102.671V115.229C133.228 116.218 134.01 117 134.999 117ZM161.834 117.253H162.064C163.03 117.253 163.697 116.724 164.065 115.85L169.332 103.246C169.424 103.039 169.516 102.74 169.516 102.464C169.516 101.498 168.734 100.762 167.768 100.762C166.917 100.762 166.296 101.314 166.066 101.889L161.995 112.423L157.97 102.004C157.694 101.291 157.096 100.762 156.176 100.762C155.187 100.762 154.405 101.521 154.405 102.51C154.405 102.809 154.497 103.085 154.612 103.361L159.833 115.85C160.201 116.724 160.868 117.253 161.834 117.253ZM179.457 117.276C184.425 117.276 188.036 113.527 188.036 108.95V108.904C188.036 104.327 184.471 100.624 179.503 100.624C174.535 100.624 170.924 104.373 170.924 108.95V108.996C170.924 113.573 174.489 117.276 179.457 117.276ZM179.503 114.01C176.651 114.01 174.627 111.71 174.627 108.95V108.904C174.627 106.144 176.605 103.89 179.457 103.89C182.309 103.89 184.333 106.19 184.333 108.95V108.996C184.333 111.756 182.355 114.01 179.503 114.01ZM197.894 117.253C202.218 117.253 204.955 114.861 204.955 109.985V102.533C204.955 101.544 204.173 100.762 203.184 100.762C202.195 100.762 201.413 101.544 201.413 102.533V110.123C201.413 112.676 200.102 113.987 197.94 113.987C195.778 113.987 194.467 112.63 194.467 110.008V102.533C194.467 101.544 193.685 100.762 192.696 100.762C191.707 100.762 190.925 101.544 190.925 102.533V110.1C190.925 114.838 193.57 117.253 197.894 117.253ZM214.289 117.23C217.762 117.23 220.2 115.436 220.2 112.239V112.193C220.2 109.387 218.36 108.214 215.094 107.363C212.311 106.65 211.621 106.305 211.621 105.247V105.201C211.621 104.419 212.334 103.798 213.691 103.798C214.795 103.798 215.899 104.189 217.072 104.879C217.348 105.04 217.624 105.132 217.969 105.132C218.889 105.132 219.625 104.419 219.625 103.499C219.625 102.809 219.234 102.326 218.843 102.096C217.394 101.176 215.692 100.67 213.737 100.67C210.448 100.67 208.102 102.602 208.102 105.523V105.569C208.102 108.766 210.195 109.663 213.438 110.491C216.129 111.181 216.681 111.641 216.681 112.538V112.584C216.681 113.527 215.807 114.102 214.358 114.102C212.794 114.102 211.46 113.55 210.241 112.653C210.011 112.492 209.689 112.331 209.229 112.331C208.309 112.331 207.573 113.044 207.573 113.964C207.573 114.516 207.849 115.022 208.24 115.298C210.034 116.586 212.173 117.23 214.289 117.23ZM230.906 110.652C230.975 111.273 231.389 111.664 231.964 111.664C232.539 111.664 232.953 111.273 233.022 110.652L234.011 102.004C234.08 101.337 233.712 100.831 233.091 100.831H230.837C230.216 100.831 229.848 101.337 229.917 102.004L230.906 110.652ZM229.963 115.137V115.183C229.963 116.287 230.814 117.138 231.964 117.138C233.114 117.138 233.965 116.287 233.965 115.183V115.137C233.965 114.033 233.114 113.182 231.964 113.182C230.814 113.182 229.963 114.033 229.963 115.137Z" fill="#FF0090"/>
<path d="M73.4721 159.151C74.7641 159.151 75.8805 159.395 76.8211 159.882C77.7731 160.358 78.4985 161.044 78.9971 161.939C79.5071 162.834 79.7621 163.888 79.7621 165.101C79.7621 166.314 79.5071 167.368 78.9971 168.263C78.4985 169.147 77.7731 169.827 76.8211 170.303C75.8805 170.768 74.7641 171 73.4721 171H69.7831V159.151H73.4721ZM73.4721 169.725C75.0021 169.725 76.1695 169.323 76.9741 168.518C77.7788 167.702 78.1811 166.563 78.1811 165.101C78.1811 163.628 77.7731 162.477 76.9571 161.65C76.1525 160.823 74.9908 160.409 73.4721 160.409H71.3301V169.725H73.4721ZM82.6017 160.171C82.307 160.171 82.0577 160.069 81.8537 159.865C81.6497 159.661 81.5477 159.412 81.5477 159.117C81.5477 158.822 81.6497 158.573 81.8537 158.369C82.0577 158.165 82.307 158.063 82.6017 158.063C82.885 158.063 83.123 158.165 83.3157 158.369C83.5197 158.573 83.6217 158.822 83.6217 159.117C83.6217 159.412 83.5197 159.661 83.3157 159.865C83.123 160.069 82.885 160.171 82.6017 160.171ZM83.3497 161.684V171H81.8027V161.684H83.3497ZM87.5332 163.197C87.8052 162.664 88.1906 162.251 88.6892 161.956C89.1992 161.661 89.8169 161.514 90.5422 161.514V163.112H90.1342C88.4002 163.112 87.5332 164.053 87.5332 165.934V171H85.9862V161.684H87.5332V163.197ZM100.828 165.985C100.828 166.28 100.811 166.591 100.777 166.92H93.331C93.3877 167.838 93.6994 168.558 94.266 169.079C94.844 169.589 95.541 169.844 96.357 169.844C97.0257 169.844 97.581 169.691 98.023 169.385C98.4764 169.068 98.7937 168.648 98.975 168.127H100.641C100.392 169.022 99.893 169.753 99.145 170.32C98.397 170.875 97.4677 171.153 96.357 171.153C95.473 171.153 94.6797 170.955 93.977 170.558C93.2857 170.161 92.7417 169.6 92.345 168.875C91.9484 168.138 91.75 167.288 91.75 166.325C91.75 165.362 91.9427 164.517 92.328 163.792C92.7134 163.067 93.2517 162.511 93.943 162.126C94.6457 161.729 95.4504 161.531 96.357 161.531C97.241 161.531 98.023 161.724 98.703 162.109C99.383 162.494 99.9044 163.027 100.267 163.707C100.641 164.376 100.828 165.135 100.828 165.985ZM99.23 165.662C99.23 165.073 99.0997 164.568 98.839 164.149C98.5784 163.718 98.2214 163.395 97.768 163.18C97.326 162.953 96.833 162.84 96.289 162.84C95.507 162.84 94.8384 163.089 94.283 163.588C93.739 164.087 93.4274 164.778 93.348 165.662H99.23ZM102.292 166.325C102.292 165.362 102.485 164.523 102.87 163.809C103.255 163.084 103.788 162.523 104.468 162.126C105.159 161.729 105.947 161.531 106.831 161.531C107.976 161.531 108.916 161.809 109.653 162.364C110.401 162.919 110.894 163.69 111.132 164.676H109.466C109.307 164.109 108.996 163.662 108.531 163.333C108.078 163.004 107.511 162.84 106.831 162.84C105.947 162.84 105.233 163.146 104.689 163.758C104.145 164.359 103.873 165.214 103.873 166.325C103.873 167.447 104.145 168.314 104.689 168.926C105.233 169.538 105.947 169.844 106.831 169.844C107.511 169.844 108.078 169.685 108.531 169.368C108.984 169.051 109.296 168.597 109.466 168.008H111.132C110.883 168.96 110.384 169.725 109.636 170.303C108.888 170.87 107.953 171.153 106.831 171.153C105.947 171.153 105.159 170.955 104.468 170.558C103.788 170.161 103.255 169.6 102.87 168.875C102.485 168.15 102.292 167.3 102.292 166.325ZM115.083 162.959V168.45C115.083 168.903 115.18 169.226 115.372 169.419C115.565 169.6 115.899 169.691 116.375 169.691H117.514V171H116.12C115.259 171 114.613 170.802 114.182 170.405C113.752 170.008 113.536 169.357 113.536 168.45V162.959H112.329V161.684H113.536V159.338H115.083V161.684H117.514V162.959H115.083ZM120.188 160.171C119.893 160.171 119.644 160.069 119.44 159.865C119.236 159.661 119.134 159.412 119.134 159.117C119.134 158.822 119.236 158.573 119.44 158.369C119.644 158.165 119.893 158.063 120.188 158.063C120.471 158.063 120.709 158.165 120.902 158.369C121.106 158.573 121.208 158.822 121.208 159.117C121.208 159.412 121.106 159.661 120.902 159.865C120.709 160.069 120.471 160.171 120.188 160.171ZM120.936 161.684V171H119.389V161.684H120.936ZM127.635 171.153C126.763 171.153 125.969 170.955 125.255 170.558C124.553 170.161 123.997 169.6 123.589 168.875C123.193 168.138 122.994 167.288 122.994 166.325C122.994 165.373 123.198 164.534 123.606 163.809C124.026 163.072 124.592 162.511 125.306 162.126C126.02 161.729 126.819 161.531 127.703 161.531C128.587 161.531 129.386 161.729 130.1 162.126C130.814 162.511 131.375 163.067 131.783 163.792C132.203 164.517 132.412 165.362 132.412 166.325C132.412 167.288 132.197 168.138 131.766 168.875C131.347 169.6 130.775 170.161 130.049 170.558C129.324 170.955 128.519 171.153 127.635 171.153ZM127.635 169.793C128.191 169.793 128.712 169.663 129.199 169.402C129.687 169.141 130.078 168.75 130.372 168.229C130.678 167.708 130.831 167.073 130.831 166.325C130.831 165.577 130.684 164.942 130.389 164.421C130.095 163.9 129.709 163.514 129.233 163.265C128.757 163.004 128.242 162.874 127.686 162.874C127.12 162.874 126.598 163.004 126.122 163.265C125.658 163.514 125.284 163.9 125 164.421C124.717 164.942 124.575 165.577 124.575 166.325C124.575 167.084 124.711 167.725 124.983 168.246C125.267 168.767 125.641 169.158 126.105 169.419C126.57 169.668 127.08 169.793 127.635 169.793ZM138.985 161.514C140.119 161.514 141.037 161.86 141.739 162.551C142.442 163.231 142.793 164.217 142.793 165.509V171H141.263V165.73C141.263 164.801 141.031 164.092 140.566 163.605C140.102 163.106 139.467 162.857 138.662 162.857C137.846 162.857 137.195 163.112 136.707 163.622C136.231 164.132 135.993 164.874 135.993 165.849V171H134.446V161.684H135.993V163.01C136.299 162.534 136.713 162.166 137.234 161.905C137.767 161.644 138.351 161.514 138.985 161.514ZM151.399 158.42V171H149.852V158.42H151.399ZM153.458 166.308C153.458 165.356 153.651 164.523 154.036 163.809C154.421 163.084 154.948 162.523 155.617 162.126C156.297 161.729 157.051 161.531 157.878 161.531C158.694 161.531 159.402 161.707 160.003 162.058C160.604 162.409 161.051 162.851 161.346 163.384V161.684H162.91V171H161.346V169.266C161.04 169.81 160.581 170.263 159.969 170.626C159.368 170.977 158.666 171.153 157.861 171.153C157.034 171.153 156.286 170.949 155.617 170.541C154.948 170.133 154.421 169.561 154.036 168.824C153.651 168.087 153.458 167.249 153.458 166.308ZM161.346 166.325C161.346 165.622 161.204 165.01 160.921 164.489C160.638 163.968 160.252 163.571 159.765 163.299C159.289 163.016 158.762 162.874 158.184 162.874C157.606 162.874 157.079 163.01 156.603 163.282C156.127 163.554 155.747 163.951 155.464 164.472C155.181 164.993 155.039 165.605 155.039 166.308C155.039 167.022 155.181 167.645 155.464 168.178C155.747 168.699 156.127 169.102 156.603 169.385C157.079 169.657 157.606 169.793 158.184 169.793C158.762 169.793 159.289 169.657 159.765 169.385C160.252 169.102 160.638 168.699 160.921 168.178C161.204 167.645 161.346 167.028 161.346 166.325ZM173.355 171.153C172.641 171.153 172 171.034 171.434 170.796C170.867 170.547 170.419 170.207 170.091 169.776C169.762 169.334 169.581 168.83 169.547 168.263H171.145C171.19 168.728 171.405 169.107 171.791 169.402C172.187 169.697 172.703 169.844 173.338 169.844C173.927 169.844 174.392 169.714 174.732 169.453C175.072 169.192 175.242 168.864 175.242 168.467C175.242 168.059 175.06 167.759 174.698 167.566C174.335 167.362 173.774 167.164 173.015 166.971C172.323 166.79 171.757 166.608 171.315 166.427C170.884 166.234 170.51 165.957 170.193 165.594C169.887 165.22 169.734 164.733 169.734 164.132C169.734 163.656 169.875 163.22 170.159 162.823C170.442 162.426 170.844 162.115 171.366 161.888C171.887 161.65 172.482 161.531 173.151 161.531C174.182 161.531 175.015 161.792 175.65 162.313C176.284 162.834 176.624 163.548 176.67 164.455H175.123C175.089 163.968 174.89 163.577 174.528 163.282C174.176 162.987 173.7 162.84 173.1 162.84C172.544 162.84 172.102 162.959 171.774 163.197C171.445 163.435 171.281 163.747 171.281 164.132C171.281 164.438 171.377 164.693 171.57 164.897C171.774 165.09 172.023 165.248 172.318 165.373C172.624 165.486 173.043 165.617 173.576 165.764C174.244 165.945 174.788 166.127 175.208 166.308C175.627 166.478 175.984 166.739 176.279 167.09C176.585 167.441 176.743 167.9 176.755 168.467C176.755 168.977 176.613 169.436 176.33 169.844C176.046 170.252 175.644 170.575 175.123 170.813C174.613 171.04 174.023 171.153 173.355 171.153ZM178.36 166.308C178.36 165.356 178.553 164.523 178.938 163.809C179.324 163.084 179.851 162.523 180.519 162.126C181.199 161.729 181.953 161.531 182.78 161.531C183.596 161.531 184.305 161.707 184.905 162.058C185.506 162.409 185.954 162.851 186.248 163.384V161.684H187.812V171H186.248V169.266C185.942 169.81 185.483 170.263 184.871 170.626C184.271 170.977 183.568 171.153 182.763 171.153C181.936 171.153 181.188 170.949 180.519 170.541C179.851 170.133 179.324 169.561 178.938 168.824C178.553 168.087 178.36 167.249 178.36 166.308ZM186.248 166.325C186.248 165.622 186.107 165.01 185.823 164.489C185.54 163.968 185.155 163.571 184.667 163.299C184.191 163.016 183.664 162.874 183.086 162.874C182.508 162.874 181.981 163.01 181.505 163.282C181.029 163.554 180.65 163.951 180.366 164.472C180.083 164.993 179.941 165.605 179.941 166.308C179.941 167.022 180.083 167.645 180.366 168.178C180.65 168.699 181.029 169.102 181.505 169.385C181.981 169.657 182.508 169.793 183.086 169.793C183.664 169.793 184.191 169.657 184.667 169.385C185.155 169.102 185.54 168.699 185.823 168.178C186.107 167.645 186.248 167.028 186.248 166.325ZM191.974 158.42V171H190.427V158.42H191.974ZM196.157 158.42V171H194.61V158.42H196.157ZM207.294 165.985C207.294 166.28 207.277 166.591 207.243 166.92H199.797C199.854 167.838 200.165 168.558 200.732 169.079C201.31 169.589 202.007 169.844 202.823 169.844C203.492 169.844 204.047 169.691 204.489 169.385C204.942 169.068 205.26 168.648 205.441 168.127H207.107C206.858 169.022 206.359 169.753 205.611 170.32C204.863 170.875 203.934 171.153 202.823 171.153C201.939 171.153 201.146 170.955 200.443 170.558C199.752 170.161 199.208 169.6 198.811 168.875C198.414 168.138 198.216 167.288 198.216 166.325C198.216 165.362 198.409 164.517 198.794 163.792C199.179 163.067 199.718 162.511 200.409 162.126C201.112 161.729 201.916 161.531 202.823 161.531C203.707 161.531 204.489 161.724 205.169 162.109C205.849 162.494 206.37 163.027 206.733 163.707C207.107 164.376 207.294 165.135 207.294 165.985ZM205.696 165.662C205.696 165.073 205.566 164.568 205.305 164.149C205.044 163.718 204.687 163.395 204.234 163.18C203.792 162.953 203.299 162.84 202.755 162.84C201.973 162.84 201.304 163.089 200.749 163.588C200.205 164.087 199.893 164.778 199.814 165.662H205.696ZM213.29 166.308C213.29 165.356 213.483 164.523 213.868 163.809C214.253 163.084 214.78 162.523 215.449 162.126C216.129 161.729 216.888 161.531 217.727 161.531C218.452 161.531 219.127 161.701 219.75 162.041C220.373 162.37 220.849 162.806 221.178 163.35V158.42H222.742V171H221.178V169.249C220.872 169.804 220.419 170.263 219.818 170.626C219.217 170.977 218.515 171.153 217.71 171.153C216.883 171.153 216.129 170.949 215.449 170.541C214.78 170.133 214.253 169.561 213.868 168.824C213.483 168.087 213.29 167.249 213.29 166.308ZM221.178 166.325C221.178 165.622 221.036 165.01 220.753 164.489C220.47 163.968 220.084 163.571 219.597 163.299C219.121 163.016 218.594 162.874 218.016 162.874C217.438 162.874 216.911 163.01 216.435 163.282C215.959 163.554 215.579 163.951 215.296 164.472C215.013 164.993 214.871 165.605 214.871 166.308C214.871 167.022 215.013 167.645 215.296 168.178C215.579 168.699 215.959 169.102 216.435 169.385C216.911 169.657 217.438 169.793 218.016 169.793C218.594 169.793 219.121 169.657 219.597 169.385C220.084 169.102 220.47 168.699 220.753 168.178C221.036 167.645 221.178 167.028 221.178 166.325ZM233.856 165.985C233.856 166.28 233.839 166.591 233.805 166.92H226.359C226.416 167.838 226.728 168.558 227.294 169.079C227.872 169.589 228.569 169.844 229.385 169.844C230.054 169.844 230.609 169.691 231.051 169.385C231.505 169.068 231.822 168.648 232.003 168.127H233.669C233.42 169.022 232.921 169.753 232.173 170.32C231.425 170.875 230.496 171.153 229.385 171.153C228.501 171.153 227.708 170.955 227.005 170.558C226.314 170.161 225.77 169.6 225.373 168.875C224.977 168.138 224.778 167.288 224.778 166.325C224.778 165.362 224.971 164.517 225.356 163.792C225.742 163.067 226.28 162.511 226.971 162.126C227.674 161.729 228.479 161.531 229.385 161.531C230.269 161.531 231.051 161.724 231.731 162.109C232.411 162.494 232.933 163.027 233.295 163.707C233.669 164.376 233.856 165.135 233.856 165.985ZM232.258 165.662C232.258 165.073 232.128 164.568 231.867 164.149C231.607 163.718 231.25 163.395 230.796 163.18C230.354 162.953 229.861 162.84 229.317 162.84C228.535 162.84 227.867 163.089 227.311 163.588C226.767 164.087 226.456 164.778 226.376 165.662H232.258ZM241.978 163.418C242.295 162.863 242.76 162.409 243.372 162.058C243.984 161.707 244.681 161.531 245.463 161.531C246.301 161.531 247.055 161.729 247.724 162.126C248.392 162.523 248.919 163.084 249.305 163.809C249.69 164.523 249.883 165.356 249.883 166.308C249.883 167.249 249.69 168.087 249.305 168.824C248.919 169.561 248.387 170.133 247.707 170.541C247.038 170.949 246.29 171.153 245.463 171.153C244.658 171.153 243.95 170.977 243.338 170.626C242.737 170.275 242.284 169.827 241.978 169.283V171H240.431V158.42H241.978V163.418ZM248.302 166.308C248.302 165.605 248.16 164.993 247.877 164.472C247.593 163.951 247.208 163.554 246.721 163.282C246.245 163.01 245.718 162.874 245.14 162.874C244.573 162.874 244.046 163.016 243.559 163.299C243.083 163.571 242.697 163.973 242.403 164.506C242.119 165.027 241.978 165.634 241.978 166.325C241.978 167.028 242.119 167.645 242.403 168.178C242.697 168.699 243.083 169.102 243.559 169.385C244.046 169.657 244.573 169.793 245.14 169.793C245.718 169.793 246.245 169.657 246.721 169.385C247.208 169.102 247.593 168.699 247.877 168.178C248.16 167.645 248.302 167.022 248.302 166.308ZM251.341 166.308C251.341 165.356 251.534 164.523 251.919 163.809C252.304 163.084 252.831 162.523 253.5 162.126C254.18 161.729 254.934 161.531 255.761 161.531C256.577 161.531 257.285 161.707 257.886 162.058C258.487 162.409 258.934 162.851 259.229 163.384V161.684H260.793V171H259.229V169.266C258.923 169.81 258.464 170.263 257.852 170.626C257.251 170.977 256.549 171.153 255.744 171.153C254.917 171.153 254.169 170.949 253.5 170.541C252.831 170.133 252.304 169.561 251.919 168.824C251.534 168.087 251.341 167.249 251.341 166.308ZM259.229 166.325C259.229 165.622 259.087 165.01 258.804 164.489C258.521 163.968 258.135 163.571 257.648 163.299C257.172 163.016 256.645 162.874 256.067 162.874C255.489 162.874 254.962 163.01 254.486 163.282C254.01 163.554 253.63 163.951 253.347 164.472C253.064 164.993 252.922 165.605 252.922 166.308C252.922 167.022 253.064 167.645 253.347 168.178C253.63 168.699 254.01 169.102 254.486 169.385C254.962 169.657 255.489 169.793 256.067 169.793C256.645 169.793 257.172 169.657 257.648 169.385C258.135 169.102 258.521 168.699 258.804 168.178C259.087 167.645 259.229 167.028 259.229 166.325ZM264.206 160.171C263.911 160.171 263.662 160.069 263.458 159.865C263.254 159.661 263.152 159.412 263.152 159.117C263.152 158.822 263.254 158.573 263.458 158.369C263.662 158.165 263.911 158.063 264.206 158.063C264.489 158.063 264.727 158.165 264.92 158.369C265.124 158.573 265.226 158.822 265.226 159.117C265.226 159.412 265.124 159.661 264.92 159.865C264.727 160.069 264.489 160.171 264.206 160.171ZM264.954 161.684V171H263.407V161.684H264.954ZM272.13 161.514C273.263 161.514 274.181 161.86 274.884 162.551C275.586 163.231 275.938 164.217 275.938 165.509V171H274.408V165.73C274.408 164.801 274.175 164.092 273.711 163.605C273.246 163.106 272.611 162.857 271.807 162.857C270.991 162.857 270.339 163.112 269.852 163.622C269.376 164.132 269.138 164.874 269.138 165.849V171H267.591V161.684H269.138V163.01C269.444 162.534 269.857 162.166 270.379 161.905C270.911 161.644 271.495 161.514 272.13 161.514ZM280.063 168.858L278.159 173.431H277.122L278.363 168.858H280.063ZM102.638 193.985C102.638 194.28 102.621 194.591 102.587 194.92H95.1406C95.1973 195.838 95.5089 196.558 96.0756 197.079C96.6536 197.589 97.3506 197.844 98.1666 197.844C98.8353 197.844 99.3906 197.691 99.8326 197.385C100.286 197.068 100.603 196.648 100.785 196.127H102.451C102.201 197.022 101.703 197.753 100.955 198.32C100.207 198.875 99.2773 199.153 98.1666 199.153C97.2826 199.153 96.4893 198.955 95.7866 198.558C95.0953 198.161 94.5513 197.6 94.1546 196.875C93.7579 196.138 93.5596 195.288 93.5596 194.325C93.5596 193.362 93.7523 192.517 94.1376 191.792C94.5229 191.067 95.0613 190.511 95.7526 190.126C96.4553 189.729 97.2599 189.531 98.1666 189.531C99.0506 189.531 99.8326 189.724 100.513 190.109C101.193 190.494 101.714 191.027 102.077 191.707C102.451 192.376 102.638 193.135 102.638 193.985ZM101.04 193.662C101.04 193.073 100.909 192.568 100.649 192.149C100.388 191.718 100.031 191.395 99.5776 191.18C99.1356 190.953 98.6426 190.84 98.0986 190.84C97.3166 190.84 96.6479 191.089 96.0926 191.588C95.5486 192.087 95.2369 192.778 95.1576 193.662H101.04ZM106.567 190.959V196.45C106.567 196.903 106.663 197.226 106.856 197.419C107.048 197.6 107.383 197.691 107.859 197.691H108.998V199H107.604C106.742 199 106.096 198.802 105.666 198.405C105.235 198.008 105.02 197.357 105.02 196.45V190.959H103.813V189.684H105.02V187.338H106.567V189.684H108.998V190.959H106.567ZM116.951 191.401C117.257 190.868 117.711 190.426 118.311 190.075C118.923 189.712 119.632 189.531 120.436 189.531C121.264 189.531 122.012 189.729 122.68 190.126C123.36 190.523 123.893 191.084 124.278 191.809C124.664 192.523 124.856 193.356 124.856 194.308C124.856 195.249 124.664 196.087 124.278 196.824C123.893 197.561 123.36 198.133 122.68 198.541C122.012 198.949 121.264 199.153 120.436 199.153C119.643 199.153 118.94 198.977 118.328 198.626C117.728 198.263 117.269 197.816 116.951 197.283V203.42H115.404V189.684H116.951V191.401ZM123.275 194.308C123.275 193.605 123.134 192.993 122.85 192.472C122.567 191.951 122.182 191.554 121.694 191.282C121.218 191.01 120.691 190.874 120.113 190.874C119.547 190.874 119.02 191.016 118.532 191.299C118.056 191.571 117.671 191.973 117.376 192.506C117.093 193.027 116.951 193.634 116.951 194.325C116.951 195.028 117.093 195.645 117.376 196.178C117.671 196.699 118.056 197.102 118.532 197.385C119.02 197.657 119.547 197.793 120.113 197.793C120.691 197.793 121.218 197.657 121.694 197.385C122.182 197.102 122.567 196.699 122.85 196.178C123.134 195.645 123.275 195.022 123.275 194.308ZM128.439 191.197C128.711 190.664 129.097 190.251 129.595 189.956C130.105 189.661 130.723 189.514 131.448 189.514V191.112H131.04C129.306 191.112 128.439 192.053 128.439 193.934V199H126.892V189.684H128.439V191.197ZM141.734 193.985C141.734 194.28 141.717 194.591 141.683 194.92H134.237C134.294 195.838 134.606 196.558 135.172 197.079C135.75 197.589 136.447 197.844 137.263 197.844C137.932 197.844 138.487 197.691 138.929 197.385C139.383 197.068 139.7 196.648 139.881 196.127H141.547C141.298 197.022 140.799 197.753 140.051 198.32C139.303 198.875 138.374 199.153 137.263 199.153C136.379 199.153 135.586 198.955 134.883 198.558C134.192 198.161 133.648 197.6 133.251 196.875C132.855 196.138 132.656 195.288 132.656 194.325C132.656 193.362 132.849 192.517 133.234 191.792C133.62 191.067 134.158 190.511 134.849 190.126C135.552 189.729 136.357 189.531 137.263 189.531C138.147 189.531 138.929 189.724 139.609 190.109C140.289 190.494 140.811 191.027 141.173 191.707C141.547 192.376 141.734 193.135 141.734 193.985ZM140.136 193.662C140.136 193.073 140.006 192.568 139.745 192.149C139.485 191.718 139.128 191.395 138.674 191.18C138.232 190.953 137.739 190.84 137.195 190.84C136.413 190.84 135.745 191.089 135.189 191.588C134.645 192.087 134.334 192.778 134.254 193.662H140.136ZM148.315 189.514C149.449 189.514 150.367 189.86 151.069 190.551C151.772 191.231 152.123 192.217 152.123 193.509V199H150.593V193.73C150.593 192.801 150.361 192.092 149.896 191.605C149.432 191.106 148.797 190.857 147.992 190.857C147.176 190.857 146.525 191.112 146.037 191.622C145.561 192.132 145.323 192.874 145.323 193.849V199H143.776V189.684H145.323V191.01C145.629 190.534 146.043 190.166 146.564 189.905C147.097 189.644 147.681 189.514 148.315 189.514ZM163.15 193.985C163.15 194.28 163.133 194.591 163.099 194.92H155.653C155.71 195.838 156.022 196.558 156.588 197.079C157.166 197.589 157.863 197.844 158.679 197.844C159.348 197.844 159.903 197.691 160.345 197.385C160.799 197.068 161.116 196.648 161.297 196.127H162.963C162.714 197.022 162.215 197.753 161.467 198.32C160.719 198.875 159.79 199.153 158.679 199.153C157.795 199.153 157.002 198.955 156.299 198.558C155.608 198.161 155.064 197.6 154.667 196.875C154.271 196.138 154.072 195.288 154.072 194.325C154.072 193.362 154.265 192.517 154.65 191.792C155.036 191.067 155.574 190.511 156.265 190.126C156.968 189.729 157.773 189.531 158.679 189.531C159.563 189.531 160.345 189.724 161.025 190.109C161.705 190.494 162.227 191.027 162.589 191.707C162.963 192.376 163.15 193.135 163.15 193.985ZM161.552 193.662C161.552 193.073 161.422 192.568 161.161 192.149C160.901 191.718 160.544 191.395 160.09 191.18C159.648 190.953 159.155 190.84 158.611 190.84C157.829 190.84 157.161 191.089 156.605 191.588C156.061 192.087 155.75 192.778 155.67 193.662H161.552ZM166.348 197.725H170.921V199H164.58V197.725L169.102 190.942H164.614V189.684H170.887V190.942L166.348 197.725ZM176.883 194.325C176.883 193.362 177.076 192.523 177.461 191.809C177.846 191.084 178.379 190.523 179.059 190.126C179.75 189.729 180.538 189.531 181.422 189.531C182.567 189.531 183.507 189.809 184.244 190.364C184.992 190.919 185.485 191.69 185.723 192.676H184.057C183.898 192.109 183.587 191.662 183.122 191.333C182.669 191.004 182.102 190.84 181.422 190.84C180.538 190.84 179.824 191.146 179.28 191.758C178.736 192.359 178.464 193.214 178.464 194.325C178.464 195.447 178.736 196.314 179.28 196.926C179.824 197.538 180.538 197.844 181.422 197.844C182.102 197.844 182.669 197.685 183.122 197.368C183.575 197.051 183.887 196.597 184.057 196.008H185.723C185.474 196.96 184.975 197.725 184.227 198.303C183.479 198.87 182.544 199.153 181.422 199.153C180.538 199.153 179.75 198.955 179.059 198.558C178.379 198.161 177.846 197.6 177.461 196.875C177.076 196.15 176.883 195.3 176.883 194.325ZM196.287 193.985C196.287 194.28 196.27 194.591 196.236 194.92H188.79C188.847 195.838 189.158 196.558 189.725 197.079C190.303 197.589 191 197.844 191.816 197.844C192.485 197.844 193.04 197.691 193.482 197.385C193.935 197.068 194.253 196.648 194.434 196.127H196.1C195.851 197.022 195.352 197.753 194.604 198.32C193.856 198.875 192.927 199.153 191.816 199.153C190.932 199.153 190.139 198.955 189.436 198.558C188.745 198.161 188.201 197.6 187.804 196.875C187.407 196.138 187.209 195.288 187.209 194.325C187.209 193.362 187.402 192.517 187.787 191.792C188.172 191.067 188.711 190.511 189.402 190.126C190.105 189.729 190.909 189.531 191.816 189.531C192.7 189.531 193.482 189.724 194.162 190.109C194.842 190.494 195.363 191.027 195.726 191.707C196.1 192.376 196.287 193.135 196.287 193.985ZM194.689 193.662C194.689 193.073 194.559 192.568 194.298 192.149C194.037 191.718 193.68 191.395 193.227 191.18C192.785 190.953 192.292 190.84 191.748 190.84C190.966 190.84 190.297 191.089 189.742 191.588C189.198 192.087 188.886 192.778 188.807 193.662H194.689ZM204.748 190.959V196.45C204.748 196.903 204.845 197.226 205.037 197.419C205.23 197.6 205.564 197.691 206.04 197.691H207.179V199H205.785C204.924 199 204.278 198.802 203.847 198.405C203.417 198.008 203.201 197.357 203.201 196.45V190.959H201.994V189.684H203.201V187.338H204.748V189.684H207.179V190.959H204.748ZM217.554 193.985C217.554 194.28 217.537 194.591 217.503 194.92H210.057C210.113 195.838 210.425 196.558 210.992 197.079C211.57 197.589 212.267 197.844 213.083 197.844C213.751 197.844 214.307 197.691 214.749 197.385C215.202 197.068 215.519 196.648 215.701 196.127H217.367C217.117 197.022 216.619 197.753 215.871 198.32C215.123 198.875 214.193 199.153 213.083 199.153C212.199 199.153 211.405 198.955 210.703 198.558C210.011 198.161 209.467 197.6 209.071 196.875C208.674 196.138 208.476 195.288 208.476 194.325C208.476 193.362 208.668 192.517 209.054 191.792C209.439 191.067 209.977 190.511 210.669 190.126C211.371 189.729 212.176 189.531 213.083 189.531C213.967 189.531 214.749 189.724 215.429 190.109C216.109 190.494 216.63 191.027 216.993 191.707C217.367 192.376 217.554 193.135 217.554 193.985ZM215.956 193.662C215.956 193.073 215.825 192.568 215.565 192.149C215.304 191.718 214.947 191.395 214.494 191.18C214.052 190.953 213.559 190.84 213.015 190.84C212.233 190.84 211.564 191.089 211.009 191.588C210.465 192.087 210.153 192.778 210.074 193.662H215.956ZM230.799 189.514C231.524 189.514 232.17 189.667 232.737 189.973C233.303 190.268 233.751 190.715 234.08 191.316C234.408 191.917 234.573 192.648 234.573 193.509V199H233.043V193.73C233.043 192.801 232.81 192.092 232.346 191.605C231.892 191.106 231.275 190.857 230.493 190.857C229.688 190.857 229.048 191.118 228.572 191.639C228.096 192.149 227.858 192.891 227.858 193.866V199H226.328V193.73C226.328 192.801 226.095 192.092 225.631 191.605C225.177 191.106 224.56 190.857 223.778 190.857C222.973 190.857 222.333 191.118 221.857 191.639C221.381 192.149 221.143 192.891 221.143 193.866V199H219.596V189.684H221.143V191.027C221.449 190.54 221.857 190.166 222.367 189.905C222.888 189.644 223.46 189.514 224.084 189.514C224.866 189.514 225.557 189.69 226.158 190.041C226.758 190.392 227.206 190.908 227.501 191.588C227.761 190.931 228.192 190.421 228.793 190.058C229.393 189.695 230.062 189.514 230.799 189.514ZM238.657 191.401C238.963 190.868 239.417 190.426 240.017 190.075C240.629 189.712 241.338 189.531 242.142 189.531C242.97 189.531 243.718 189.729 244.386 190.126C245.066 190.523 245.599 191.084 245.984 191.809C246.37 192.523 246.562 193.356 246.562 194.308C246.562 195.249 246.37 196.087 245.984 196.824C245.599 197.561 245.066 198.133 244.386 198.541C243.718 198.949 242.97 199.153 242.142 199.153C241.349 199.153 240.646 198.977 240.034 198.626C239.434 198.263 238.975 197.816 238.657 197.283V203.42H237.11V189.684H238.657V191.401ZM244.981 194.308C244.981 193.605 244.84 192.993 244.556 192.472C244.273 191.951 243.888 191.554 243.4 191.282C242.924 191.01 242.397 190.874 241.819 190.874C241.253 190.874 240.726 191.016 240.238 191.299C239.762 191.571 239.377 191.973 239.082 192.506C238.799 193.027 238.657 193.634 238.657 194.325C238.657 195.028 238.799 195.645 239.082 196.178C239.377 196.699 239.762 197.102 240.238 197.385C240.726 197.657 241.253 197.793 241.819 197.793C242.397 197.793 242.924 197.657 243.4 197.385C243.888 197.102 244.273 196.699 244.556 196.178C244.84 195.645 244.981 195.022 244.981 194.308ZM251.897 199.153C251.183 199.153 250.542 199.034 249.976 198.796C249.409 198.547 248.961 198.207 248.633 197.776C248.304 197.334 248.123 196.83 248.089 196.263H249.687C249.732 196.728 249.947 197.107 250.333 197.402C250.729 197.697 251.245 197.844 251.88 197.844C252.469 197.844 252.934 197.714 253.274 197.453C253.614 197.192 253.784 196.864 253.784 196.467C253.784 196.059 253.602 195.759 253.24 195.566C252.877 195.362 252.316 195.164 251.557 194.971C250.865 194.79 250.299 194.608 249.857 194.427C249.426 194.234 249.052 193.957 248.735 193.594C248.429 193.22 248.276 192.733 248.276 192.132C248.276 191.656 248.417 191.22 248.701 190.823C248.984 190.426 249.386 190.115 249.908 189.888C250.429 189.65 251.024 189.531 251.693 189.531C252.724 189.531 253.557 189.792 254.192 190.313C254.826 190.834 255.166 191.548 255.212 192.455H253.665C253.631 191.968 253.432 191.577 253.07 191.282C252.718 190.987 252.242 190.84 251.642 190.84C251.086 190.84 250.644 190.959 250.316 191.197C249.987 191.435 249.823 191.747 249.823 192.132C249.823 192.438 249.919 192.693 250.112 192.897C250.316 193.09 250.565 193.248 250.86 193.373C251.166 193.486 251.585 193.617 252.118 193.764C252.786 193.945 253.33 194.127 253.75 194.308C254.169 194.478 254.526 194.739 254.821 195.09C255.127 195.441 255.285 195.9 255.297 196.467C255.297 196.977 255.155 197.436 254.872 197.844C254.588 198.252 254.186 198.575 253.665 198.813C253.155 199.04 252.565 199.153 251.897 199.153ZM89.4835 227.153C88.7695 227.153 88.1291 227.034 87.5625 226.796C86.9958 226.547 86.5481 226.207 86.2195 225.776C85.8908 225.334 85.7095 224.83 85.6755 224.263H87.2735C87.3188 224.728 87.5341 225.107 87.9195 225.402C88.3161 225.697 88.8318 225.844 89.4665 225.844C90.0558 225.844 90.5205 225.714 90.8605 225.453C91.2005 225.192 91.3705 224.864 91.3705 224.467C91.3705 224.059 91.1891 223.759 90.8265 223.566C90.4638 223.362 89.9028 223.164 89.1435 222.971C88.4521 222.79 87.8855 222.608 87.4435 222.427C87.0128 222.234 86.6388 221.957 86.3215 221.594C86.0155 221.22 85.8625 220.733 85.8625 220.132C85.8625 219.656 86.0041 219.22 86.2875 218.823C86.5708 218.426 86.9731 218.115 87.4945 217.888C88.0158 217.65 88.6108 217.531 89.2795 217.531C90.3108 217.531 91.1438 217.792 91.7785 218.313C92.4131 218.834 92.7531 219.548 92.7985 220.455H91.2515C91.2175 219.968 91.0191 219.577 90.6565 219.282C90.3051 218.987 89.8291 218.84 89.2285 218.84C88.6731 218.84 88.2311 218.959 87.9025 219.197C87.5738 219.435 87.4095 219.747 87.4095 220.132C87.4095 220.438 87.5058 220.693 87.6985 220.897C87.9025 221.09 88.1518 221.248 88.4465 221.373C88.7525 221.486 89.1718 221.617 89.7045 221.764C90.3731 221.945 90.9171 222.127 91.3365 222.308C91.7558 222.478 92.1128 222.739 92.4075 223.09C92.7135 223.441 92.8721 223.9 92.8835 224.467C92.8835 224.977 92.7418 225.436 92.4585 225.844C92.1751 226.252 91.7728 226.575 91.2515 226.813C90.7415 227.04 90.1521 227.153 89.4835 227.153ZM103.329 217.684V227H101.782V225.623C101.488 226.099 101.074 226.473 100.541 226.745C100.02 227.006 99.442 227.136 98.8073 227.136C98.082 227.136 97.4303 226.989 96.8523 226.694C96.2743 226.388 95.8153 225.935 95.4753 225.334C95.1466 224.733 94.9823 224.002 94.9823 223.141V217.684H96.5123V222.937C96.5123 223.855 96.7446 224.563 97.2093 225.062C97.674 225.549 98.3086 225.793 99.1133 225.793C99.9406 225.793 100.592 225.538 101.068 225.028C101.544 224.518 101.782 223.776 101.782 222.801V217.684H103.329ZM107.488 219.401C107.794 218.868 108.248 218.426 108.848 218.075C109.46 217.712 110.169 217.531 110.973 217.531C111.801 217.531 112.549 217.729 113.217 218.126C113.897 218.523 114.43 219.084 114.815 219.809C115.201 220.523 115.393 221.356 115.393 222.308C115.393 223.249 115.201 224.087 114.815 224.824C114.43 225.561 113.897 226.133 113.217 226.541C112.549 226.949 111.801 227.153 110.973 227.153C110.18 227.153 109.477 226.977 108.865 226.626C108.265 226.263 107.806 225.816 107.488 225.283V231.42H105.941V217.684H107.488V219.401ZM113.812 222.308C113.812 221.605 113.671 220.993 113.387 220.472C113.104 219.951 112.719 219.554 112.231 219.282C111.755 219.01 111.228 218.874 110.65 218.874C110.084 218.874 109.557 219.016 109.069 219.299C108.593 219.571 108.208 219.973 107.913 220.506C107.63 221.027 107.488 221.634 107.488 222.325C107.488 223.028 107.63 223.645 107.913 224.178C108.208 224.699 108.593 225.102 109.069 225.385C109.557 225.657 110.084 225.793 110.65 225.793C111.228 225.793 111.755 225.657 112.231 225.385C112.719 225.102 113.104 224.699 113.387 224.178C113.671 223.645 113.812 223.022 113.812 222.308ZM118.977 219.401C119.283 218.868 119.736 218.426 120.337 218.075C120.949 217.712 121.657 217.531 122.462 217.531C123.289 217.531 124.037 217.729 124.706 218.126C125.386 218.523 125.918 219.084 126.304 219.809C126.689 220.523 126.882 221.356 126.882 222.308C126.882 223.249 126.689 224.087 126.304 224.824C125.918 225.561 125.386 226.133 124.706 226.541C124.037 226.949 123.289 227.153 122.462 227.153C121.668 227.153 120.966 226.977 120.354 226.626C119.753 226.263 119.294 225.816 118.977 225.283V231.42H117.43V217.684H118.977V219.401ZM125.301 222.308C125.301 221.605 125.159 220.993 124.876 220.472C124.592 219.951 124.207 219.554 123.72 219.282C123.244 219.01 122.717 218.874 122.139 218.874C121.572 218.874 121.045 219.016 120.558 219.299C120.082 219.571 119.696 219.973 119.402 220.506C119.118 221.027 118.977 221.634 118.977 222.325C118.977 223.028 119.118 223.645 119.402 224.178C119.696 224.699 120.082 225.102 120.558 225.385C121.045 225.657 121.572 225.793 122.139 225.793C122.717 225.793 123.244 225.657 123.72 225.385C124.207 225.102 124.592 224.699 124.876 224.178C125.159 223.645 125.301 223.022 125.301 222.308ZM130.465 214.42V227H128.918V214.42H130.465ZM141.601 221.985C141.601 222.28 141.584 222.591 141.55 222.92H134.104C134.161 223.838 134.473 224.558 135.039 225.079C135.617 225.589 136.314 225.844 137.13 225.844C137.799 225.844 138.354 225.691 138.796 225.385C139.25 225.068 139.567 224.648 139.748 224.127H141.414C141.165 225.022 140.666 225.753 139.918 226.32C139.17 226.875 138.241 227.153 137.13 227.153C136.246 227.153 135.453 226.955 134.75 226.558C134.059 226.161 133.515 225.6 133.118 224.875C132.722 224.138 132.523 223.288 132.523 222.325C132.523 221.362 132.716 220.517 133.101 219.792C133.487 219.067 134.025 218.511 134.716 218.126C135.419 217.729 136.224 217.531 137.13 217.531C138.014 217.531 138.796 217.724 139.476 218.109C140.156 218.494 140.678 219.027 141.04 219.707C141.414 220.376 141.601 221.135 141.601 221.985ZM140.003 221.662C140.003 221.073 139.873 220.568 139.612 220.149C139.352 219.718 138.995 219.395 138.541 219.18C138.099 218.953 137.606 218.84 137.062 218.84C136.28 218.84 135.612 219.089 135.056 219.588C134.512 220.087 134.201 220.778 134.121 221.662H140.003ZM138.728 215.049L135.107 216.987V215.831L138.728 213.706V215.049ZM154.846 217.514C155.572 217.514 156.218 217.667 156.784 217.973C157.351 218.268 157.799 218.715 158.127 219.316C158.456 219.917 158.62 220.648 158.62 221.509V227H157.09V221.73C157.09 220.801 156.858 220.092 156.393 219.605C155.94 219.106 155.322 218.857 154.54 218.857C153.736 218.857 153.095 219.118 152.619 219.639C152.143 220.149 151.905 220.891 151.905 221.866V227H150.375V221.73C150.375 220.801 150.143 220.092 149.678 219.605C149.225 219.106 148.607 218.857 147.825 218.857C147.021 218.857 146.38 219.118 145.904 219.639C145.428 220.149 145.19 220.891 145.19 221.866V227H143.643V217.684H145.19V219.027C145.496 218.54 145.904 218.166 146.414 217.905C146.936 217.644 147.508 217.514 148.131 217.514C148.913 217.514 149.605 217.69 150.205 218.041C150.806 218.392 151.254 218.908 151.548 219.588C151.809 218.931 152.24 218.421 152.84 218.058C153.441 217.695 154.11 217.514 154.846 217.514ZM169.658 221.985C169.658 222.28 169.641 222.591 169.607 222.92H162.161C162.218 223.838 162.529 224.558 163.096 225.079C163.674 225.589 164.371 225.844 165.187 225.844C165.856 225.844 166.411 225.691 166.853 225.385C167.306 225.068 167.624 224.648 167.805 224.127H169.471C169.222 225.022 168.723 225.753 167.975 226.32C167.227 226.875 166.298 227.153 165.187 227.153C164.303 227.153 163.51 226.955 162.807 226.558C162.116 226.161 161.572 225.6 161.175 224.875C160.778 224.138 160.58 223.288 160.58 222.325C160.58 221.362 160.773 220.517 161.158 219.792C161.543 219.067 162.082 218.511 162.773 218.126C163.476 217.729 164.28 217.531 165.187 217.531C166.071 217.531 166.853 217.724 167.533 218.109C168.213 218.494 168.734 219.027 169.097 219.707C169.471 220.376 169.658 221.135 169.658 221.985ZM168.06 221.662C168.06 221.073 167.93 220.568 167.669 220.149C167.408 219.718 167.051 219.395 166.598 219.18C166.156 218.953 165.663 218.84 165.119 218.84C164.337 218.84 163.668 219.089 163.113 219.588C162.569 220.087 162.257 220.778 162.178 221.662H168.06ZM176.239 217.514C177.372 217.514 178.29 217.86 178.993 218.551C179.696 219.231 180.047 220.217 180.047 221.509V227H178.517V221.73C178.517 220.801 178.285 220.092 177.82 219.605C177.355 219.106 176.721 218.857 175.916 218.857C175.1 218.857 174.448 219.112 173.961 219.622C173.485 220.132 173.247 220.874 173.247 221.849V227H171.7V217.684H173.247V219.01C173.553 218.534 173.967 218.166 174.488 217.905C175.021 217.644 175.604 217.514 176.239 217.514ZM184.461 218.959V224.45C184.461 224.903 184.557 225.226 184.75 225.419C184.943 225.6 185.277 225.691 185.753 225.691H186.892V227H185.498C184.637 227 183.991 226.802 183.56 226.405C183.129 226.008 182.914 225.357 182.914 224.45V218.959H181.707V217.684H182.914V215.338H184.461V217.684H186.892V218.959H184.461ZM188.189 222.308C188.189 221.356 188.381 220.523 188.767 219.809C189.152 219.084 189.679 218.523 190.348 218.126C191.028 217.729 191.781 217.531 192.609 217.531C193.425 217.531 194.133 217.707 194.734 218.058C195.334 218.409 195.782 218.851 196.077 219.384V217.684H197.641V227H196.077V225.266C195.771 225.81 195.312 226.263 194.7 226.626C194.099 226.977 193.396 227.153 192.592 227.153C191.764 227.153 191.016 226.949 190.348 226.541C189.679 226.133 189.152 225.561 188.767 224.824C188.381 224.087 188.189 223.249 188.189 222.308ZM196.077 222.325C196.077 221.622 195.935 221.01 195.652 220.489C195.368 219.968 194.983 219.571 194.496 219.299C194.02 219.016 193.493 218.874 192.915 218.874C192.337 218.874 191.81 219.01 191.334 219.282C190.858 219.554 190.478 219.951 190.195 220.472C189.911 220.993 189.77 221.605 189.77 222.308C189.77 223.022 189.911 223.645 190.195 224.178C190.478 224.699 190.858 225.102 191.334 225.385C191.81 225.657 192.337 225.793 192.915 225.793C193.493 225.793 194.02 225.657 194.496 225.385C194.983 225.102 195.368 224.699 195.652 224.178C195.935 223.645 196.077 223.028 196.077 222.325ZM201.054 216.171C200.759 216.171 200.51 216.069 200.306 215.865C200.102 215.661 200 215.412 200 215.117C200 214.822 200.102 214.573 200.306 214.369C200.51 214.165 200.759 214.063 201.054 214.063C201.337 214.063 201.575 214.165 201.768 214.369C201.972 214.573 202.074 214.822 202.074 215.117C202.074 215.412 201.972 215.661 201.768 215.865C201.575 216.069 201.337 216.171 201.054 216.171ZM201.802 217.684V227H200.255V217.684H201.802ZM205.985 219.197C206.257 218.664 206.643 218.251 207.141 217.956C207.651 217.661 208.269 217.514 208.994 217.514V219.112H208.586C206.852 219.112 205.985 220.053 205.985 221.934V227H204.438V217.684H205.985V219.197ZM219.28 221.985C219.28 222.28 219.263 222.591 219.229 222.92H211.783C211.84 223.838 212.152 224.558 212.718 225.079C213.296 225.589 213.993 225.844 214.809 225.844C215.478 225.844 216.033 225.691 216.475 225.385C216.929 225.068 217.246 224.648 217.427 224.127H219.093C218.844 225.022 218.345 225.753 217.597 226.32C216.849 226.875 215.92 227.153 214.809 227.153C213.925 227.153 213.132 226.955 212.429 226.558C211.738 226.161 211.194 225.6 210.797 224.875C210.401 224.138 210.202 223.288 210.202 222.325C210.202 221.362 210.395 220.517 210.78 219.792C211.166 219.067 211.704 218.511 212.395 218.126C213.098 217.729 213.903 217.531 214.809 217.531C215.693 217.531 216.475 217.724 217.155 218.109C217.835 218.494 218.357 219.027 218.719 219.707C219.093 220.376 219.28 221.135 219.28 221.985ZM217.682 221.662C217.682 221.073 217.552 220.568 217.291 220.149C217.031 219.718 216.674 219.395 216.22 219.18C215.778 218.953 215.285 218.84 214.741 218.84C213.959 218.84 213.291 219.089 212.735 219.588C212.191 220.087 211.88 220.778 211.8 221.662H217.682ZM227.401 219.401C227.707 218.868 228.161 218.426 228.761 218.075C229.373 217.712 230.082 217.531 230.886 217.531C231.714 217.531 232.462 217.729 233.13 218.126C233.81 218.523 234.343 219.084 234.728 219.809C235.114 220.523 235.306 221.356 235.306 222.308C235.306 223.249 235.114 224.087 234.728 224.824C234.343 225.561 233.81 226.133 233.13 226.541C232.462 226.949 231.714 227.153 230.886 227.153C230.093 227.153 229.39 226.977 228.778 226.626C228.178 226.263 227.719 225.816 227.401 225.283V231.42H225.854V217.684H227.401V219.401ZM233.725 222.308C233.725 221.605 233.584 220.993 233.3 220.472C233.017 219.951 232.632 219.554 232.144 219.282C231.668 219.01 231.141 218.874 230.563 218.874C229.997 218.874 229.47 219.016 228.982 219.299C228.506 219.571 228.121 219.973 227.826 220.506C227.543 221.027 227.401 221.634 227.401 222.325C227.401 223.028 227.543 223.645 227.826 224.178C228.121 224.699 228.506 225.102 228.982 225.385C229.47 225.657 229.997 225.793 230.563 225.793C231.141 225.793 231.668 225.657 232.144 225.385C232.632 225.102 233.017 224.699 233.3 224.178C233.584 223.645 233.725 223.022 233.725 222.308ZM241.406 227.153C240.533 227.153 239.74 226.955 239.026 226.558C238.323 226.161 237.768 225.6 237.36 224.875C236.963 224.138 236.765 223.288 236.765 222.325C236.765 221.373 236.969 220.534 237.377 219.809C237.796 219.072 238.363 218.511 239.077 218.126C239.791 217.729 240.59 217.531 241.474 217.531C242.358 217.531 243.157 217.729 243.871 218.126C244.585 218.511 245.146 219.067 245.554 219.792C245.973 220.517 246.183 221.362 246.183 222.325C246.183 223.288 245.967 224.138 245.537 224.875C245.117 225.6 244.545 226.161 243.82 226.558C243.094 226.955 242.29 227.153 241.406 227.153ZM241.406 225.793C241.961 225.793 242.482 225.663 242.97 225.402C243.457 225.141 243.848 224.75 244.143 224.229C244.449 223.708 244.602 223.073 244.602 222.325C244.602 221.577 244.454 220.942 244.16 220.421C243.865 219.9 243.48 219.514 243.004 219.265C242.528 219.004 242.012 218.874 241.457 218.874C240.89 218.874 240.369 219.004 239.893 219.265C239.428 219.514 239.054 219.9 238.771 220.421C238.487 220.942 238.346 221.577 238.346 222.325C238.346 223.084 238.482 223.725 238.754 224.246C239.037 224.767 239.411 225.158 239.876 225.419C240.34 225.668 240.85 225.793 241.406 225.793ZM256.479 217.684V227H254.932V225.623C254.637 226.099 254.223 226.473 253.691 226.745C253.169 227.006 252.591 227.136 251.957 227.136C251.231 227.136 250.58 226.989 250.002 226.694C249.424 226.388 248.965 225.935 248.625 225.334C248.296 224.733 248.132 224.002 248.132 223.141V217.684H249.662V222.937C249.662 223.855 249.894 224.563 250.359 225.062C250.823 225.549 251.458 225.793 252.263 225.793C253.09 225.793 253.742 225.538 254.218 225.028C254.694 224.518 254.932 223.776 254.932 222.801V217.684H256.479ZM260.638 219.197C260.91 218.664 261.295 218.251 261.794 217.956C262.304 217.661 262.921 217.514 263.647 217.514V219.112H263.239C261.505 219.112 260.638 220.053 260.638 221.934V227H259.091V217.684H260.638V219.197ZM66.7017 245.582L70.1697 255H73.0597L76.5447 245.582H74.0117L71.6317 252.807L69.2517 245.582H66.7017ZM86.9765 250.291C86.9765 247.316 84.8515 245.429 82.1315 245.429C79.4115 245.429 77.2865 247.316 77.2865 250.291C77.2865 253.249 79.3435 255.153 82.0635 255.153C84.8005 255.153 86.9765 253.249 86.9765 250.291ZM79.7005 250.291C79.7005 248.404 80.8395 247.503 82.0975 247.503C83.3555 247.503 84.5285 248.404 84.5285 250.291C84.5285 252.161 83.3215 253.079 82.0635 253.079C80.7885 253.079 79.7005 252.161 79.7005 250.291ZM97.6133 245.582H95.2163V250.767C95.2163 252.28 94.4003 253.096 93.1083 253.096C91.8503 253.096 91.0173 252.28 91.0173 250.767V245.582H88.6373V251.107C88.6373 253.691 90.2183 255.119 92.4113 255.119C93.5843 255.119 94.6213 254.609 95.2163 253.81V255H97.6133V245.582ZM107.272 252.314C107.204 248.863 101.985 249.934 101.985 248.217C101.985 247.673 102.444 247.316 103.328 247.316C104.263 247.316 104.841 247.809 104.909 248.54H107.187C107.051 246.67 105.674 245.429 103.396 245.429C101.067 245.429 99.6726 246.687 99.6726 248.251C99.6726 251.702 104.994 250.631 104.994 252.314C104.994 252.858 104.484 253.283 103.549 253.283C102.597 253.283 101.934 252.739 101.849 252.025H99.4516C99.5536 253.776 101.203 255.153 103.566 255.153C105.861 255.153 107.272 253.929 107.272 252.314ZM115.656 246.942V245.582H113.276V259.488H115.656V253.657C116.234 254.422 117.288 255.153 118.767 255.153C121.181 255.153 123.068 253.198 123.068 250.257C123.068 247.316 121.181 245.429 118.767 245.429C117.305 245.429 116.217 246.143 115.656 246.942ZM120.637 250.257C120.637 252.042 119.43 253.062 118.138 253.062C116.863 253.062 115.656 252.076 115.656 250.291C115.656 248.506 116.863 247.52 118.138 247.52C119.43 247.52 120.637 248.472 120.637 250.257ZM127.178 250.308C127.178 248.489 128.028 247.945 129.439 247.945H130.068V245.446C128.759 245.446 127.773 246.075 127.178 247.044V245.582H124.798V255H127.178V250.308ZM135.717 247.384C136.941 247.384 137.927 248.166 137.961 249.407H133.49C133.677 248.115 134.578 247.384 135.717 247.384ZM140.188 252.042H137.621C137.315 252.671 136.754 253.181 135.734 253.181C134.544 253.181 133.592 252.399 133.473 251.005H140.358C140.409 250.699 140.426 250.393 140.426 250.087C140.426 247.282 138.505 245.429 135.785 245.429C132.997 245.429 131.059 247.316 131.059 250.291C131.059 253.249 133.048 255.153 135.785 255.153C138.114 255.153 139.678 253.776 140.188 252.042ZM133.694 243.185V244.885L137.604 243.1V241.162L133.694 243.185ZM144.543 246.942V245.582H142.163V259.488H144.543V253.657C145.121 254.422 146.175 255.153 147.654 255.153C150.068 255.153 151.955 253.198 151.955 250.257C151.955 247.316 150.068 245.429 147.654 245.429C146.192 245.429 145.104 246.143 144.543 246.942ZM149.524 250.257C149.524 252.042 148.317 253.062 147.025 253.062C145.75 253.062 144.543 252.076 144.543 250.291C144.543 248.506 145.75 247.52 147.025 247.52C148.317 247.52 149.524 248.472 149.524 250.257ZM153.072 250.257C153.072 253.198 154.976 255.153 157.356 255.153C158.852 255.153 159.923 254.439 160.484 253.623V255H162.881V245.582H160.484V246.925C159.923 246.143 158.886 245.429 157.373 245.429C154.976 245.429 153.072 247.316 153.072 250.257ZM160.484 250.291C160.484 252.076 159.294 253.062 157.985 253.062C156.71 253.062 155.503 252.042 155.503 250.257C155.503 248.472 156.71 247.52 157.985 247.52C159.294 247.52 160.484 248.506 160.484 250.291ZM167.586 250.308C167.586 248.489 168.436 247.945 169.847 247.945H170.476V245.446C169.167 245.446 168.181 246.075 167.586 247.044V245.582H165.206V255H167.586V250.308ZM176.125 247.384C177.349 247.384 178.335 248.166 178.369 249.407H173.898C174.085 248.115 174.986 247.384 176.125 247.384ZM180.596 252.042H178.029C177.723 252.671 177.162 253.181 176.142 253.181C174.952 253.181 174 252.399 173.881 251.005H180.766C180.817 250.699 180.834 250.393 180.834 250.087C180.834 247.282 178.913 245.429 176.193 245.429C173.405 245.429 171.467 247.316 171.467 250.291C171.467 253.249 173.456 255.153 176.193 255.153C178.522 255.153 180.086 253.776 180.596 252.042ZM184.951 250.308C184.951 248.489 185.801 247.945 187.212 247.945H187.841V245.446C186.532 245.446 185.546 246.075 184.951 247.044V245.582H182.571V255H184.951V250.308ZM197.541 247.384C198.765 247.384 199.751 248.166 199.785 249.407H195.314C195.501 248.115 196.402 247.384 197.541 247.384ZM202.012 252.042H199.445C199.139 252.671 198.578 253.181 197.558 253.181C196.368 253.181 195.416 252.399 195.297 251.005H202.182C202.233 250.699 202.25 250.393 202.25 250.087C202.25 247.282 200.329 245.429 197.609 245.429C194.821 245.429 192.883 247.316 192.883 250.291C192.883 253.249 194.872 255.153 197.609 255.153C199.938 255.153 201.502 253.776 202.012 252.042ZM204.361 252.076C204.361 254.235 205.568 255 207.37 255H208.866V252.994H207.761C207.013 252.994 206.758 252.722 206.758 252.093V247.537H208.866V245.582H206.758V243.253H204.361V245.582H203.239V247.537H204.361V252.076ZM217.009 246.942V245.582H214.629V259.488H217.009V253.657C217.587 254.422 218.641 255.153 220.12 255.153C222.534 255.153 224.421 253.198 224.421 250.257C224.421 247.316 222.534 245.429 220.12 245.429C218.658 245.429 217.57 246.143 217.009 246.942ZM221.99 250.257C221.99 252.042 220.783 253.062 219.491 253.062C218.216 253.062 217.009 252.076 217.009 250.291C217.009 248.506 218.216 247.52 219.491 247.52C220.783 247.52 221.99 248.472 221.99 250.257ZM228.53 250.308C228.53 248.489 229.38 247.945 230.791 247.945H231.42V245.446C230.111 245.446 229.125 246.075 228.53 247.044V245.582H226.15V255H228.53V250.308ZM237.069 247.384C238.293 247.384 239.279 248.166 239.313 249.407H234.842C235.029 248.115 235.93 247.384 237.069 247.384ZM241.54 252.042H238.973C238.667 252.671 238.106 253.181 237.086 253.181C235.896 253.181 234.944 252.399 234.825 251.005H241.71C241.761 250.699 241.778 250.393 241.778 250.087C241.778 247.282 239.857 245.429 237.137 245.429C234.349 245.429 232.411 247.316 232.411 250.291C232.411 253.249 234.4 255.153 237.137 255.153C239.466 255.153 241.03 253.776 241.54 252.042ZM250.111 255H252.491V249.475C252.491 246.874 250.927 245.446 248.734 245.446C247.527 245.446 246.507 245.956 245.895 246.755V245.582H243.515V255H245.895V249.798C245.895 248.285 246.728 247.469 248.02 247.469C249.278 247.469 250.111 248.285 250.111 249.798V255ZM254.143 250.257C254.143 253.198 256.047 255.153 258.444 255.153C259.923 255.153 260.977 254.473 261.538 253.606V255H263.952V242.42H261.538V246.891C260.892 246.007 259.702 245.429 258.461 245.429C256.047 245.429 254.143 247.316 254.143 250.257ZM261.555 250.291C261.555 252.076 260.365 253.062 259.056 253.062C257.781 253.062 256.574 252.042 256.574 250.257C256.574 248.472 257.781 247.52 259.056 247.52C260.365 247.52 261.555 248.506 261.555 250.291ZM268.656 250.308C268.656 248.489 269.506 247.945 270.917 247.945H271.546V245.446C270.237 245.446 269.251 246.075 268.656 247.044V245.582H266.276V255H268.656V250.308ZM277.195 247.384C278.419 247.384 279.405 248.166 279.439 249.407H274.968C275.155 248.115 276.056 247.384 277.195 247.384ZM281.666 252.042H279.099C278.793 252.671 278.232 253.181 277.212 253.181C276.022 253.181 275.07 252.399 274.951 251.005H281.836C281.887 250.699 281.904 250.393 281.904 250.087C281.904 247.282 279.983 245.429 277.263 245.429C274.475 245.429 272.537 247.316 272.537 250.291C272.537 253.249 274.526 255.153 277.263 255.153C279.592 255.153 281.156 253.776 281.666 252.042ZM76.5172 280.314C76.4492 276.863 71.2302 277.934 71.2302 276.217C71.2302 275.673 71.6892 275.316 72.5732 275.316C73.5082 275.316 74.0862 275.809 74.1542 276.54H76.4322C76.2962 274.67 74.9192 273.429 72.6412 273.429C70.3122 273.429 68.9182 274.687 68.9182 276.251C68.9182 279.702 74.2392 278.631 74.2392 280.314C74.2392 280.858 73.7292 281.283 72.7942 281.283C71.8422 281.283 71.1792 280.739 71.0942 280.025H68.6972C68.7992 281.776 70.4482 283.153 72.8112 283.153C75.1062 283.153 76.5172 281.929 76.5172 280.314ZM87.5659 278.291C87.5659 275.316 85.4409 273.429 82.7209 273.429C80.0009 273.429 77.8759 275.316 77.8759 278.291C77.8759 281.249 79.9329 283.153 82.6529 283.153C85.3899 283.153 87.5659 281.249 87.5659 278.291ZM80.2899 278.291C80.2899 276.404 81.4289 275.503 82.6869 275.503C83.9449 275.503 85.1179 276.404 85.1179 278.291C85.1179 280.161 83.9109 281.079 82.6529 281.079C81.3779 281.079 80.2899 280.161 80.2899 278.291ZM89.3117 283H91.6917V273.582H89.3117V283ZM90.5187 272.46C91.3517 272.46 91.9807 271.848 91.9807 271.066C91.9807 270.284 91.3517 269.672 90.5187 269.672C89.6687 269.672 89.0567 270.284 89.0567 271.066C89.0567 271.848 89.6687 272.46 90.5187 272.46ZM100.639 283H103.019V277.475C103.019 274.874 101.455 273.446 99.2621 273.446C98.0551 273.446 97.0351 273.956 96.4231 274.755V273.582H94.0431V283H96.4231V277.798C96.4231 276.285 97.2561 275.469 98.5481 275.469C99.8061 275.469 100.639 276.285 100.639 277.798V283ZM108.721 278.257C108.721 281.198 110.625 283.153 113.022 283.153C114.501 283.153 115.555 282.473 116.116 281.606V283H118.53V270.42H116.116V274.891C115.47 274.007 114.28 273.429 113.039 273.429C110.625 273.429 108.721 275.316 108.721 278.257ZM116.133 278.291C116.133 280.076 114.943 281.062 113.634 281.062C112.359 281.062 111.152 280.042 111.152 278.257C111.152 276.472 112.359 275.52 113.634 275.52C114.943 275.52 116.133 276.506 116.133 278.291ZM124.901 275.384C126.125 275.384 127.111 276.166 127.145 277.407H122.674C122.861 276.115 123.762 275.384 124.901 275.384ZM129.372 280.042H126.805C126.499 280.671 125.938 281.181 124.918 281.181C123.728 281.181 122.776 280.399 122.657 279.005H129.542C129.593 278.699 129.61 278.393 129.61 278.087C129.61 275.282 127.689 273.429 124.969 273.429C122.181 273.429 120.243 275.316 120.243 278.291C120.243 281.249 122.232 283.153 124.969 283.153C127.298 283.153 128.862 281.776 129.372 280.042ZM134.395 273.582L137.863 283H140.753L144.238 273.582H141.705L139.325 280.807L136.945 273.582H134.395ZM154.669 278.291C154.669 275.316 152.544 273.429 149.824 273.429C147.104 273.429 144.979 275.316 144.979 278.291C144.979 281.249 147.036 283.153 149.756 283.153C152.493 283.153 154.669 281.249 154.669 278.291ZM147.393 278.291C147.393 276.404 148.532 275.503 149.79 275.503C151.048 275.503 152.221 276.404 152.221 278.291C152.221 280.161 151.014 281.079 149.756 281.079C148.481 281.079 147.393 280.161 147.393 278.291ZM165.306 273.582H162.909V278.767C162.909 280.28 162.093 281.096 160.801 281.096C159.543 281.096 158.71 280.28 158.71 278.767V273.582H156.33V279.107C156.33 281.691 157.911 283.119 160.104 283.119C161.277 283.119 162.314 282.609 162.909 281.81V283H165.306V273.582ZM174.964 280.314C174.896 276.863 169.677 277.934 169.677 276.217C169.677 275.673 170.136 275.316 171.02 275.316C171.955 275.316 172.533 275.809 172.601 276.54H174.879C174.743 274.67 173.366 273.429 171.088 273.429C168.759 273.429 167.365 274.687 167.365 276.251C167.365 279.702 172.686 278.631 172.686 280.314C172.686 280.858 172.176 281.283 171.241 281.283C170.289 281.283 169.626 280.739 169.541 280.025H167.144C167.246 281.776 168.895 283.153 171.258 283.153C173.553 283.153 174.964 281.929 174.964 280.314ZM182.079 283.102C181.785 283.102 181.535 283 181.331 282.796C181.127 282.592 181.025 282.343 181.025 282.048C181.025 281.753 181.127 281.504 181.331 281.3C181.535 281.096 181.785 280.994 182.079 280.994C182.363 280.994 182.601 281.096 182.793 281.3C182.997 281.504 183.099 281.753 183.099 282.048C183.099 282.343 182.997 282.592 182.793 282.796C182.601 283 182.363 283.102 182.079 283.102ZM182.079 275.826C181.785 275.826 181.535 275.724 181.331 275.52C181.127 275.316 181.025 275.067 181.025 274.772C181.025 274.477 181.127 274.228 181.331 274.024C181.535 273.82 181.785 273.718 182.079 273.718C182.363 273.718 182.601 273.82 182.793 274.024C182.997 274.228 183.099 274.477 183.099 274.772C183.099 275.067 182.997 275.316 182.793 275.52C182.601 275.724 182.363 275.826 182.079 275.826ZM200.941 273.514C201.666 273.514 202.312 273.667 202.879 273.973C203.445 274.268 203.893 274.715 204.222 275.316C204.55 275.917 204.715 276.648 204.715 277.509V283H203.185V277.73C203.185 276.801 202.952 276.092 202.488 275.605C202.034 275.106 201.417 274.857 200.635 274.857C199.83 274.857 199.19 275.118 198.714 275.639C198.238 276.149 198 276.891 198 277.866V283H196.47V277.73C196.47 276.801 196.237 276.092 195.773 275.605C195.319 275.106 194.702 274.857 193.92 274.857C193.115 274.857 192.475 275.118 191.999 275.639C191.523 276.149 191.285 276.891 191.285 277.866V283H189.738V273.684H191.285V275.027C191.591 274.54 191.999 274.166 192.509 273.905C193.03 273.644 193.602 273.514 194.226 273.514C195.008 273.514 195.699 273.69 196.3 274.041C196.9 274.392 197.348 274.908 197.643 275.588C197.903 274.931 198.334 274.421 198.935 274.058C199.535 273.695 200.204 273.514 200.941 273.514ZM206.674 278.308C206.674 277.356 206.867 276.523 207.252 275.809C207.638 275.084 208.165 274.523 208.833 274.126C209.513 273.729 210.267 273.531 211.094 273.531C211.91 273.531 212.619 273.707 213.219 274.058C213.82 274.409 214.268 274.851 214.562 275.384V273.684H216.126V283H214.562V281.266C214.256 281.81 213.797 282.263 213.185 282.626C212.585 282.977 211.882 283.153 211.077 283.153C210.25 283.153 209.502 282.949 208.833 282.541C208.165 282.133 207.638 281.561 207.252 280.824C206.867 280.087 206.674 279.249 206.674 278.308ZM214.562 278.325C214.562 277.622 214.421 277.01 214.137 276.489C213.854 275.968 213.469 275.571 212.981 275.299C212.505 275.016 211.978 274.874 211.4 274.874C210.822 274.874 210.295 275.01 209.819 275.282C209.343 275.554 208.964 275.951 208.68 276.472C208.397 276.993 208.255 277.605 208.255 278.308C208.255 279.022 208.397 279.645 208.68 280.178C208.964 280.699 209.343 281.102 209.819 281.385C210.295 281.657 210.822 281.793 211.4 281.793C211.978 281.793 212.505 281.657 212.981 281.385C213.469 281.102 213.854 280.699 214.137 280.178C214.421 279.645 214.562 279.028 214.562 278.325ZM222.039 283.153C221.325 283.153 220.684 283.034 220.118 282.796C219.551 282.547 219.103 282.207 218.775 281.776C218.446 281.334 218.265 280.83 218.231 280.263H219.829C219.874 280.728 220.089 281.107 220.475 281.402C220.871 281.697 221.387 281.844 222.022 281.844C222.611 281.844 223.076 281.714 223.416 281.453C223.756 281.192 223.926 280.864 223.926 280.467C223.926 280.059 223.744 279.759 223.382 279.566C223.019 279.362 222.458 279.164 221.699 278.971C221.007 278.79 220.441 278.608 219.999 278.427C219.568 278.234 219.194 277.957 218.877 277.594C218.571 277.22 218.418 276.733 218.418 276.132C218.418 275.656 218.559 275.22 218.843 274.823C219.126 274.426 219.528 274.115 220.05 273.888C220.571 273.65 221.166 273.531 221.835 273.531C222.866 273.531 223.699 273.792 224.334 274.313C224.968 274.834 225.308 275.548 225.354 276.455H223.807C223.773 275.968 223.574 275.577 223.212 275.282C222.86 274.987 222.384 274.84 221.784 274.84C221.228 274.84 220.786 274.959 220.458 275.197C220.129 275.435 219.965 275.747 219.965 276.132C219.965 276.438 220.061 276.693 220.254 276.897C220.458 277.09 220.707 277.248 221.002 277.373C221.308 277.486 221.727 277.617 222.26 277.764C222.928 277.945 223.472 278.127 223.892 278.308C224.311 278.478 224.668 278.739 224.963 279.09C225.269 279.441 225.427 279.9 225.439 280.467C225.439 280.977 225.297 281.436 225.014 281.844C224.73 282.252 224.328 282.575 223.807 282.813C223.297 283.04 222.707 283.153 222.039 283.153ZM230.92 283.153C230.206 283.153 229.566 283.034 228.999 282.796C228.433 282.547 227.985 282.207 227.656 281.776C227.328 281.334 227.146 280.83 227.112 280.263H228.71C228.756 280.728 228.971 281.107 229.356 281.402C229.753 281.697 230.269 281.844 230.903 281.844C231.493 281.844 231.957 281.714 232.297 281.453C232.637 281.192 232.807 280.864 232.807 280.467C232.807 280.059 232.626 279.759 232.263 279.566C231.901 279.362 231.34 279.164 230.58 278.971C229.889 278.79 229.322 278.608 228.88 278.427C228.45 278.234 228.076 277.957 227.758 277.594C227.452 277.22 227.299 276.733 227.299 276.132C227.299 275.656 227.441 275.22 227.724 274.823C228.008 274.426 228.41 274.115 228.931 273.888C229.453 273.65 230.048 273.531 230.716 273.531C231.748 273.531 232.581 273.792 233.215 274.313C233.85 274.834 234.19 275.548 234.235 276.455H232.688C232.654 275.968 232.456 275.577 232.093 275.282C231.742 274.987 231.266 274.84 230.665 274.84C230.11 274.84 229.668 274.959 229.339 275.197C229.011 275.435 228.846 275.747 228.846 276.132C228.846 276.438 228.943 276.693 229.135 276.897C229.339 277.09 229.589 277.248 229.883 277.373C230.189 277.486 230.609 277.617 231.141 277.764C231.81 277.945 232.354 278.127 232.773 278.308C233.193 278.478 233.55 278.739 233.844 279.09C234.15 279.441 234.309 279.9 234.32 280.467C234.32 280.977 234.179 281.436 233.895 281.844C233.612 282.252 233.21 282.575 232.688 282.813C232.178 283.04 231.589 283.153 230.92 283.153ZM235.926 278.308C235.926 277.356 236.119 276.523 236.504 275.809C236.89 275.084 237.417 274.523 238.085 274.126C238.765 273.729 239.519 273.531 240.346 273.531C241.162 273.531 241.871 273.707 242.471 274.058C243.072 274.409 243.52 274.851 243.814 275.384V273.684H245.378V283H243.814V281.266C243.508 281.81 243.049 282.263 242.437 282.626C241.837 282.977 241.134 283.153 240.329 283.153C239.502 283.153 238.754 282.949 238.085 282.541C237.417 282.133 236.89 281.561 236.504 280.824C236.119 280.087 235.926 279.249 235.926 278.308ZM243.814 278.325C243.814 277.622 243.673 277.01 243.389 276.489C243.106 275.968 242.721 275.571 242.233 275.299C241.757 275.016 241.23 274.874 240.652 274.874C240.074 274.874 239.547 275.01 239.071 275.282C238.595 275.554 238.216 275.951 237.932 276.472C237.649 276.993 237.507 277.605 237.507 278.308C237.507 279.022 237.649 279.645 237.932 280.178C238.216 280.699 238.595 281.102 239.071 281.385C239.547 281.657 240.074 281.793 240.652 281.793C241.23 281.793 241.757 281.657 242.233 281.385C242.721 281.102 243.106 280.699 243.389 280.178C243.673 279.645 243.814 279.028 243.814 278.325ZM251.835 273.531C252.639 273.531 253.342 273.707 253.943 274.058C254.555 274.409 255.008 274.851 255.303 275.384V273.684H256.867V283.204C256.867 284.054 256.685 284.808 256.323 285.465C255.96 286.134 255.439 286.655 254.759 287.029C254.09 287.403 253.308 287.59 252.413 287.59C251.189 287.59 250.169 287.301 249.353 286.723C248.537 286.145 248.055 285.357 247.908 284.36H249.438C249.608 284.927 249.959 285.38 250.492 285.72C251.024 286.071 251.665 286.247 252.413 286.247C253.263 286.247 253.954 285.981 254.487 285.448C255.031 284.915 255.303 284.167 255.303 283.204V281.249C254.997 281.793 254.543 282.246 253.943 282.609C253.342 282.972 252.639 283.153 251.835 283.153C251.007 283.153 250.254 282.949 249.574 282.541C248.905 282.133 248.378 281.561 247.993 280.824C247.607 280.087 247.415 279.249 247.415 278.308C247.415 277.356 247.607 276.523 247.993 275.809C248.378 275.084 248.905 274.523 249.574 274.126C250.254 273.729 251.007 273.531 251.835 273.531ZM255.303 278.325C255.303 277.622 255.161 277.01 254.878 276.489C254.594 275.968 254.209 275.571 253.722 275.299C253.246 275.016 252.719 274.874 252.141 274.874C251.563 274.874 251.036 275.01 250.56 275.282C250.084 275.554 249.704 275.951 249.421 276.472C249.137 276.993 248.996 277.605 248.996 278.308C248.996 279.022 249.137 279.645 249.421 280.178C249.704 280.699 250.084 281.102 250.56 281.385C251.036 281.657 251.563 281.793 252.141 281.793C252.719 281.793 253.246 281.657 253.722 281.385C254.209 281.102 254.594 280.699 254.878 280.178C255.161 279.645 255.303 279.028 255.303 278.325ZM267.981 277.985C267.981 278.28 267.964 278.591 267.93 278.92H260.484C260.541 279.838 260.852 280.558 261.419 281.079C261.997 281.589 262.694 281.844 263.51 281.844C264.179 281.844 264.734 281.691 265.176 281.385C265.629 281.068 265.947 280.648 266.128 280.127H267.794C267.545 281.022 267.046 281.753 266.298 282.32C265.55 282.875 264.621 283.153 263.51 283.153C262.626 283.153 261.833 282.955 261.13 282.558C260.439 282.161 259.895 281.6 259.498 280.875C259.101 280.138 258.903 279.288 258.903 278.325C258.903 277.362 259.096 276.517 259.481 275.792C259.866 275.067 260.405 274.511 261.096 274.126C261.799 273.729 262.603 273.531 263.51 273.531C264.394 273.531 265.176 273.724 265.856 274.109C266.536 274.494 267.057 275.027 267.42 275.707C267.794 276.376 267.981 277.135 267.981 277.985ZM266.383 277.662C266.383 277.073 266.253 276.568 265.992 276.149C265.731 275.718 265.374 275.395 264.921 275.18C264.479 274.953 263.986 274.84 263.442 274.84C262.66 274.84 261.991 275.089 261.436 275.588C260.892 276.087 260.58 276.778 260.501 277.662H266.383ZM273.321 283.153C272.607 283.153 271.967 283.034 271.4 282.796C270.833 282.547 270.386 282.207 270.057 281.776C269.728 281.334 269.547 280.83 269.513 280.263H271.111C271.156 280.728 271.372 281.107 271.757 281.402C272.154 281.697 272.669 281.844 273.304 281.844C273.893 281.844 274.358 281.714 274.698 281.453C275.038 281.192 275.208 280.864 275.208 280.467C275.208 280.059 275.027 279.759 274.664 279.566C274.301 279.362 273.74 279.164 272.981 278.971C272.29 278.79 271.723 278.608 271.281 278.427C270.85 278.234 270.476 277.957 270.159 277.594C269.853 277.22 269.7 276.733 269.7 276.132C269.7 275.656 269.842 275.22 270.125 274.823C270.408 274.426 270.811 274.115 271.332 273.888C271.853 273.65 272.448 273.531 273.117 273.531C274.148 273.531 274.981 273.792 275.616 274.313C276.251 274.834 276.591 275.548 276.636 276.455H275.089C275.055 275.968 274.857 275.577 274.494 275.282C274.143 274.987 273.667 274.84 273.066 274.84C272.511 274.84 272.069 274.959 271.74 275.197C271.411 275.435 271.247 275.747 271.247 276.132C271.247 276.438 271.343 276.693 271.536 276.897C271.74 277.09 271.989 277.248 272.284 277.373C272.59 277.486 273.009 277.617 273.542 277.764C274.211 277.945 274.755 278.127 275.174 278.308C275.593 278.478 275.95 278.739 276.245 279.09C276.551 279.441 276.71 279.9 276.721 280.467C276.721 280.977 276.579 281.436 276.296 281.844C276.013 282.252 275.61 282.575 275.089 282.813C274.579 283.04 273.99 283.153 273.321 283.153ZM280.503 280.858L278.599 285.431H277.562L278.803 280.858H280.503ZM141.823 301.514C142.548 301.514 143.194 301.667 143.761 301.973C144.327 302.268 144.775 302.715 145.104 303.316C145.432 303.917 145.597 304.648 145.597 305.509V311H144.067V305.73C144.067 304.801 143.834 304.092 143.37 303.605C142.916 303.106 142.299 302.857 141.517 302.857C140.712 302.857 140.072 303.118 139.596 303.639C139.12 304.149 138.882 304.891 138.882 305.866V311H137.352V305.73C137.352 304.801 137.119 304.092 136.655 303.605C136.201 303.106 135.584 302.857 134.802 302.857C133.997 302.857 133.357 303.118 132.881 303.639C132.405 304.149 132.167 304.891 132.167 305.866V311H130.62V301.684H132.167V303.027C132.473 302.54 132.881 302.166 133.391 301.905C133.912 301.644 134.484 301.514 135.108 301.514C135.89 301.514 136.581 301.69 137.182 302.041C137.782 302.392 138.23 302.908 138.525 303.588C138.785 302.931 139.216 302.421 139.817 302.058C140.417 301.695 141.086 301.514 141.823 301.514ZM147.556 306.308C147.556 305.356 147.749 304.523 148.134 303.809C148.52 303.084 149.047 302.523 149.715 302.126C150.395 301.729 151.149 301.531 151.976 301.531C152.792 301.531 153.501 301.707 154.101 302.058C154.702 302.409 155.15 302.851 155.444 303.384V301.684H157.008V311H155.444V309.266C155.138 309.81 154.679 310.263 154.067 310.626C153.467 310.977 152.764 311.153 151.959 311.153C151.132 311.153 150.384 310.949 149.715 310.541C149.047 310.133 148.52 309.561 148.134 308.824C147.749 308.087 147.556 307.249 147.556 306.308ZM155.444 306.325C155.444 305.622 155.303 305.01 155.019 304.489C154.736 303.968 154.351 303.571 153.863 303.299C153.387 303.016 152.86 302.874 152.282 302.874C151.704 302.874 151.177 303.01 150.701 303.282C150.225 303.554 149.846 303.951 149.562 304.472C149.279 304.993 149.137 305.605 149.137 306.308C149.137 307.022 149.279 307.645 149.562 308.178C149.846 308.699 150.225 309.102 150.701 309.385C151.177 309.657 151.704 309.793 152.282 309.793C152.86 309.793 153.387 309.657 153.863 309.385C154.351 309.102 154.736 308.699 155.019 308.178C155.303 307.645 155.444 307.028 155.444 306.325ZM162.92 311.153C162.206 311.153 161.566 311.034 160.999 310.796C160.433 310.547 159.985 310.207 159.656 309.776C159.328 309.334 159.146 308.83 159.112 308.263H160.71C160.756 308.728 160.971 309.107 161.356 309.402C161.753 309.697 162.269 309.844 162.903 309.844C163.493 309.844 163.957 309.714 164.297 309.453C164.637 309.192 164.807 308.864 164.807 308.467C164.807 308.059 164.626 307.759 164.263 307.566C163.901 307.362 163.34 307.164 162.58 306.971C161.889 306.79 161.322 306.608 160.88 306.427C160.45 306.234 160.076 305.957 159.758 305.594C159.452 305.22 159.299 304.733 159.299 304.132C159.299 303.656 159.441 303.22 159.724 302.823C160.008 302.426 160.41 302.115 160.931 301.888C161.453 301.65 162.048 301.531 162.716 301.531C163.748 301.531 164.581 301.792 165.215 302.313C165.85 302.834 166.19 303.548 166.235 304.455H164.688C164.654 303.968 164.456 303.577 164.093 303.282C163.742 302.987 163.266 302.84 162.665 302.84C162.11 302.84 161.668 302.959 161.339 303.197C161.011 303.435 160.846 303.747 160.846 304.132C160.846 304.438 160.943 304.693 161.135 304.897C161.339 305.09 161.589 305.248 161.883 305.373C162.189 305.486 162.609 305.617 163.141 305.764C163.81 305.945 164.354 306.127 164.773 306.308C165.193 306.478 165.55 306.739 165.844 307.09C166.15 307.441 166.309 307.9 166.32 308.467C166.32 308.977 166.179 309.436 165.895 309.844C165.612 310.252 165.21 310.575 164.688 310.813C164.178 311.04 163.589 311.153 162.92 311.153ZM167.926 306.308C167.926 305.356 168.119 304.523 168.504 303.809C168.89 303.084 169.417 302.523 170.085 302.126C170.765 301.729 171.525 301.531 172.363 301.531C173.168 301.531 173.871 301.712 174.471 302.075C175.083 302.426 175.531 302.863 175.814 303.384V301.684H177.378V315.42H175.814V309.283C175.52 309.804 175.066 310.246 174.454 310.609C173.842 310.972 173.128 311.153 172.312 311.153C171.496 311.153 170.754 310.949 170.085 310.541C169.417 310.133 168.89 309.561 168.504 308.824C168.119 308.087 167.926 307.249 167.926 306.308ZM175.814 306.325C175.814 305.622 175.673 305.01 175.389 304.489C175.106 303.968 174.721 303.571 174.233 303.299C173.757 303.016 173.23 302.874 172.652 302.874C172.074 302.874 171.547 303.01 171.071 303.282C170.595 303.554 170.216 303.951 169.932 304.472C169.649 304.993 169.507 305.605 169.507 306.308C169.507 307.022 169.649 307.645 169.932 308.178C170.216 308.699 170.595 309.102 171.071 309.385C171.547 309.657 172.074 309.793 172.652 309.793C173.23 309.793 173.757 309.657 174.233 309.385C174.721 309.102 175.106 308.699 175.389 308.178C175.673 307.645 175.814 307.028 175.814 306.325ZM188.255 301.684V311H186.708V309.623C186.413 310.099 185.999 310.473 185.467 310.745C184.945 311.006 184.367 311.136 183.733 311.136C183.007 311.136 182.356 310.989 181.778 310.694C181.2 310.388 180.741 309.935 180.401 309.334C180.072 308.733 179.908 308.002 179.908 307.141V301.684H181.438V306.937C181.438 307.855 181.67 308.563 182.135 309.062C182.599 309.549 183.234 309.793 184.039 309.793C184.866 309.793 185.518 309.538 185.994 309.028C186.47 308.518 186.708 307.776 186.708 306.801V301.684H188.255ZM199.367 305.985C199.367 306.28 199.35 306.591 199.316 306.92H191.87C191.926 307.838 192.238 308.558 192.805 309.079C193.383 309.589 194.08 309.844 194.896 309.844C195.564 309.844 196.12 309.691 196.562 309.385C197.015 309.068 197.332 308.648 197.514 308.127H199.18C198.93 309.022 198.432 309.753 197.684 310.32C196.936 310.875 196.006 311.153 194.896 311.153C194.012 311.153 193.218 310.955 192.516 310.558C191.824 310.161 191.28 309.6 190.884 308.875C190.487 308.138 190.289 307.288 190.289 306.325C190.289 305.362 190.481 304.517 190.867 303.792C191.252 303.067 191.79 302.511 192.482 302.126C193.184 301.729 193.989 301.531 194.896 301.531C195.78 301.531 196.562 301.724 197.242 302.109C197.922 302.494 198.443 303.027 198.806 303.707C199.18 304.376 199.367 305.135 199.367 305.985ZM197.769 305.662C197.769 305.073 197.638 304.568 197.378 304.149C197.117 303.718 196.76 303.395 196.307 303.18C195.865 302.953 195.372 302.84 194.828 302.84C194.046 302.84 193.377 303.089 192.822 303.588C192.278 304.087 191.966 304.778 191.887 305.662H197.769ZM204.707 311.153C203.993 311.153 203.352 311.034 202.786 310.796C202.219 310.547 201.771 310.207 201.443 309.776C201.114 309.334 200.933 308.83 200.899 308.263H202.497C202.542 308.728 202.757 309.107 203.143 309.402C203.539 309.697 204.055 309.844 204.69 309.844C205.279 309.844 205.744 309.714 206.084 309.453C206.424 309.192 206.594 308.864 206.594 308.467C206.594 308.059 206.412 307.759 206.05 307.566C205.687 307.362 205.126 307.164 204.367 306.971C203.675 306.79 203.109 306.608 202.667 306.427C202.236 306.234 201.862 305.957 201.545 305.594C201.239 305.22 201.086 304.733 201.086 304.132C201.086 303.656 201.227 303.22 201.511 302.823C201.794 302.426 202.196 302.115 202.718 301.888C203.239 301.65 203.834 301.531 204.503 301.531C205.534 301.531 206.367 301.792 207.002 302.313C207.636 302.834 207.976 303.548 208.022 304.455H206.475C206.441 303.968 206.242 303.577 205.88 303.282C205.528 302.987 205.052 302.84 204.452 302.84C203.896 302.84 203.454 302.959 203.126 303.197C202.797 303.435 202.633 303.747 202.633 304.132C202.633 304.438 202.729 304.693 202.922 304.897C203.126 305.09 203.375 305.248 203.67 305.373C203.976 305.486 204.395 305.617 204.928 305.764C205.596 305.945 206.14 306.127 206.56 306.308C206.979 306.478 207.336 306.739 207.631 307.09C207.937 307.441 208.095 307.9 208.107 308.467C208.107 308.977 207.965 309.436 207.682 309.844C207.398 310.252 206.996 310.575 206.475 310.813C205.965 311.04 205.375 311.153 204.707 311.153ZM210.783 311.102C210.489 311.102 210.239 311 210.035 310.796C209.831 310.592 209.729 310.343 209.729 310.048C209.729 309.753 209.831 309.504 210.035 309.3C210.239 309.096 210.489 308.994 210.783 308.994C211.067 308.994 211.305 309.096 211.497 309.3C211.701 309.504 211.803 309.753 211.803 310.048C211.803 310.343 211.701 310.592 211.497 310.796C211.305 311 211.067 311.102 210.783 311.102ZM214.353 311.102C214.058 311.102 213.809 311 213.605 310.796C213.401 310.592 213.299 310.343 213.299 310.048C213.299 309.753 213.401 309.504 213.605 309.3C213.809 309.096 214.058 308.994 214.353 308.994C214.636 308.994 214.874 309.096 215.067 309.3C215.271 309.504 215.373 309.753 215.373 310.048C215.373 310.343 215.271 310.592 215.067 310.796C214.874 311 214.636 311.102 214.353 311.102ZM217.922 311.102C217.627 311.102 217.378 311 217.174 310.796C216.97 310.592 216.868 310.343 216.868 310.048C216.868 309.753 216.97 309.504 217.174 309.3C217.378 309.096 217.627 308.994 217.922 308.994C218.205 308.994 218.443 309.096 218.636 309.3C218.84 309.504 218.942 309.753 218.942 310.048C218.942 310.343 218.84 310.592 218.636 310.796C218.443 311 218.205 311.102 217.922 311.102Z" fill="#1A00E1"/>
</svg>
