<svg width="357" height="392" viewBox="0 0 357 392" fill="none" xmlns="http://www.w3.org/2000/svg">
<path fill-rule="evenodd" clip-rule="evenodd" d="M149.271 6.82567C232.801 3.20165 287.815 85.5116 310.954 165.726C331.448 236.771 310.018 313.292 250.278 356.979C189.824 401.188 105.521 405.454 46.9455 358.791C-5.54487 316.976 7.01528 242.488 25.7343 178.101C47.4513 103.402 71.4385 10.2025 149.271 6.82567Z" fill="#1A00E1"/>
<path fill-rule="evenodd" clip-rule="evenodd" d="M141.735 2.11546C225.265 -1.50856 280.279 80.8014 303.418 161.016C323.912 232.061 302.482 308.582 242.742 352.269C182.288 396.478 97.9846 400.743 39.4094 354.081C-13.081 312.266 -0.520858 237.777 18.1982 173.39C39.9152 98.6915 63.9023 5.49233 141.735 2.11546Z" fill="white" stroke="#FF0090" stroke-width="4"/>
<path d="M79.9064 92.253H80.1364C81.1024 92.253 81.7694 91.724 82.1374 90.85L87.4044 78.246C87.4964 78.039 87.5884 77.74 87.5884 77.464C87.5884 76.498 86.8064 75.762 85.8404 75.762C84.9894 75.762 84.3684 76.314 84.1384 76.889L80.0674 87.423L76.0424 77.004C75.7664 76.291 75.1684 75.762 74.2484 75.762C73.2594 75.762 72.4774 76.521 72.4774 77.51C72.4774 77.809 72.5694 78.085 72.6844 78.361L77.9054 90.85C78.2734 91.724 78.9404 92.253 79.9064 92.253ZM90.4538 90.367C90.4538 91.356 91.2358 92.138 92.2248 92.138C93.2138 92.138 93.9958 91.356 93.9958 90.367V77.533C93.9958 76.544 93.2138 75.762 92.2248 75.762C91.2358 75.762 90.4538 76.544 90.4538 77.533V90.367ZM104.321 92.253H104.551C105.517 92.253 106.184 91.724 106.552 90.85L111.819 78.246C111.911 78.039 112.003 77.74 112.003 77.464C112.003 76.498 111.221 75.762 110.255 75.762C109.404 75.762 108.783 76.314 108.553 76.889L104.482 87.423L100.457 77.004C100.181 76.291 99.5834 75.762 98.6634 75.762C97.6744 75.762 96.8924 76.521 96.8924 77.51C96.8924 77.809 96.9844 78.085 97.0994 78.361L102.32 90.85C102.688 91.724 103.355 92.253 104.321 92.253ZM116.479 92H125.518C126.392 92 127.105 91.31 127.105 90.436C127.105 89.562 126.392 88.849 125.518 88.849H118.227V85.468H124.368C125.242 85.468 125.955 84.778 125.955 83.904C125.955 83.03 125.242 82.317 124.368 82.317H118.227V79.051H125.403C126.277 79.051 126.99 78.361 126.99 77.487C126.99 76.613 126.277 75.9 125.403 75.9H116.479C115.49 75.9 114.708 76.682 114.708 77.671V90.229C114.708 91.218 115.49 92 116.479 92ZM137.012 90.229C137.012 91.218 137.794 92 138.783 92H147.109C148.006 92 148.719 91.287 148.719 90.39C148.719 89.493 148.006 88.78 147.109 88.78H140.554V77.533C140.554 76.544 139.772 75.762 138.783 75.762C137.794 75.762 137.012 76.544 137.012 77.533V90.229ZM153.023 92H162.062C162.936 92 163.649 91.31 163.649 90.436C163.649 89.562 162.936 88.849 162.062 88.849H154.771V85.468H160.912C161.786 85.468 162.499 84.778 162.499 83.904C162.499 83.03 161.786 82.317 160.912 82.317H154.771V79.051H161.947C162.821 79.051 163.534 78.361 163.534 77.487C163.534 76.613 162.821 75.9 161.947 75.9H153.023C152.034 75.9 151.252 76.682 151.252 77.671V90.229C151.252 91.218 152.034 92 153.023 92ZM172.387 92.23C175.86 92.23 178.298 90.436 178.298 87.239V87.193C178.298 84.387 176.458 83.214 173.192 82.363C170.409 81.65 169.719 81.305 169.719 80.247V80.201C169.719 79.419 170.432 78.798 171.789 78.798C172.893 78.798 173.997 79.189 175.17 79.879C175.446 80.04 175.722 80.132 176.067 80.132C176.987 80.132 177.723 79.419 177.723 78.499C177.723 77.809 177.332 77.326 176.941 77.096C175.492 76.176 173.79 75.67 171.835 75.67C168.546 75.67 166.2 77.602 166.2 80.523V80.569C166.2 83.766 168.293 84.663 171.536 85.491C174.227 86.181 174.779 86.641 174.779 87.538V87.584C174.779 88.527 173.905 89.102 172.456 89.102C170.892 89.102 169.558 88.55 168.339 87.653C168.109 87.492 167.787 87.331 167.327 87.331C166.407 87.331 165.671 88.044 165.671 88.964C165.671 89.516 165.947 90.022 166.338 90.298C168.132 91.586 170.271 92.23 172.387 92.23ZM191.924 92.23C193.672 92.23 195.121 91.724 196.11 90.735C197.076 89.769 197.628 88.343 197.628 86.434V77.533C197.628 76.544 196.846 75.762 195.857 75.762C194.868 75.762 194.086 76.544 194.086 77.533V86.273C194.086 88.136 193.258 88.941 191.878 88.941C191.073 88.941 190.452 88.665 189.739 88.136C189.394 87.883 189.118 87.768 188.681 87.768C187.738 87.768 187.002 88.527 187.002 89.47C187.002 90.022 187.301 90.551 187.669 90.827C188.681 91.609 190.084 92.23 191.924 92.23ZM203.021 92H212.06C212.934 92 213.647 91.31 213.647 90.436C213.647 89.562 212.934 88.849 212.06 88.849H204.769V85.468H210.91C211.784 85.468 212.497 84.778 212.497 83.904C212.497 83.03 211.784 82.317 210.91 82.317H204.769V79.051H211.945C212.819 79.051 213.532 78.361 213.532 77.487C213.532 76.613 212.819 75.9 211.945 75.9H203.021C202.032 75.9 201.25 76.682 201.25 77.671V90.229C201.25 91.218 202.032 92 203.021 92ZM223.374 92.253C227.698 92.253 230.435 89.861 230.435 84.985V77.533C230.435 76.544 229.653 75.762 228.664 75.762C227.675 75.762 226.893 76.544 226.893 77.533V85.123C226.893 87.676 225.582 88.987 223.42 88.987C221.258 88.987 219.947 87.63 219.947 85.008V77.533C219.947 76.544 219.165 75.762 218.176 75.762C217.187 75.762 216.405 76.544 216.405 77.533V85.1C216.405 89.838 219.05 92.253 223.374 92.253ZM233.057 90.505C233.057 91.517 233.885 92.138 234.667 92.138C235.449 92.138 235.909 91.793 236.392 91.172L240.118 86.319L243.89 91.264C244.327 91.839 244.764 92.138 245.523 92.138C246.535 92.138 247.271 91.379 247.271 90.39C247.271 89.884 247.018 89.424 246.742 89.079L242.418 83.766L246.512 78.752C246.857 78.315 247.041 77.901 247.041 77.395C247.041 76.383 246.213 75.762 245.431 75.762C244.649 75.762 244.189 76.107 243.706 76.728L240.21 81.328L236.691 76.636C236.254 76.061 235.817 75.762 235.058 75.762C234.046 75.762 233.31 76.521 233.31 77.51C233.31 78.016 233.563 78.476 233.839 78.821L237.933 83.812L233.586 89.148C233.241 89.585 233.057 89.999 233.057 90.505ZM82.2631 118.229C82.2631 119.218 83.0451 120 84.0341 120H88.5421C93.6021 120 97.0981 116.481 97.0981 111.95V111.904C97.0981 107.373 93.6021 103.9 88.5421 103.9H84.0341C83.0451 103.9 82.2631 104.682 82.2631 105.671V118.229ZM85.8051 116.803V107.097H88.5421C91.4401 107.097 93.3951 109.098 93.3951 111.95V111.996C93.3951 114.848 91.4401 116.803 88.5421 116.803H85.8051ZM102.025 120H111.064C111.938 120 112.651 119.31 112.651 118.436C112.651 117.562 111.938 116.849 111.064 116.849H103.773V113.468H109.914C110.788 113.468 111.501 112.778 111.501 111.904C111.501 111.03 110.788 110.317 109.914 110.317H103.773V107.051H110.949C111.823 107.051 112.536 106.361 112.536 105.487C112.536 104.613 111.823 103.9 110.949 103.9H102.025C101.036 103.9 100.254 104.682 100.254 105.671V118.229C100.254 119.218 101.036 120 102.025 120ZM128.285 120.23C131.758 120.23 134.196 118.436 134.196 115.239V115.193C134.196 112.387 132.356 111.214 129.09 110.363C126.307 109.65 125.617 109.305 125.617 108.247V108.201C125.617 107.419 126.33 106.798 127.687 106.798C128.791 106.798 129.895 107.189 131.068 107.879C131.344 108.04 131.62 108.132 131.965 108.132C132.885 108.132 133.621 107.419 133.621 106.499C133.621 105.809 133.23 105.326 132.839 105.096C131.39 104.176 129.688 103.67 127.733 103.67C124.444 103.67 122.098 105.602 122.098 108.523V108.569C122.098 111.766 124.191 112.663 127.434 113.491C130.125 114.181 130.677 114.641 130.677 115.538V115.584C130.677 116.527 129.803 117.102 128.354 117.102C126.79 117.102 125.456 116.55 124.237 115.653C124.007 115.492 123.685 115.331 123.225 115.331C122.305 115.331 121.569 116.044 121.569 116.964C121.569 117.516 121.845 118.022 122.236 118.298C124.03 119.586 126.169 120.23 128.285 120.23ZM145.09 120.276C150.058 120.276 153.669 116.527 153.669 111.95V111.904C153.669 107.327 150.104 103.624 145.136 103.624C140.168 103.624 136.557 107.373 136.557 111.95V111.996C136.557 116.573 140.122 120.276 145.09 120.276ZM145.136 117.01C142.284 117.01 140.26 114.71 140.26 111.95V111.904C140.26 109.144 142.238 106.89 145.09 106.89C147.942 106.89 149.966 109.19 149.966 111.95V111.996C149.966 114.756 147.988 117.01 145.136 117.01ZM164.355 120.276C166.931 120.276 168.633 119.517 170.082 118.252C170.404 117.976 170.68 117.539 170.68 116.987C170.68 116.09 169.921 115.354 169.024 115.354C168.61 115.354 168.242 115.515 167.966 115.745C166.954 116.55 165.965 117.01 164.47 117.01C161.71 117.01 159.801 114.71 159.801 111.95V111.904C159.801 109.144 161.756 106.89 164.47 106.89C165.735 106.89 166.77 107.304 167.759 108.04C168.012 108.201 168.334 108.385 168.817 108.385C169.783 108.385 170.565 107.626 170.565 106.66C170.565 106.039 170.243 105.533 169.875 105.257C168.541 104.268 166.908 103.624 164.493 103.624C159.548 103.624 156.098 107.373 156.098 111.95V111.996C156.098 116.619 159.617 120.276 164.355 120.276ZM173.952 118.367C173.952 119.356 174.734 120.138 175.723 120.138C176.712 120.138 177.494 119.356 177.494 118.367V105.533C177.494 104.544 176.712 103.762 175.723 103.762C174.734 103.762 173.952 104.544 173.952 105.533V118.367ZM183.289 120H192.328C193.202 120 193.915 119.31 193.915 118.436C193.915 117.562 193.202 116.849 192.328 116.849H185.037V113.468H191.178C192.052 113.468 192.765 112.778 192.765 111.904C192.765 111.03 192.052 110.317 191.178 110.317H185.037V107.051H192.213C193.087 107.051 193.8 106.361 193.8 105.487C193.8 104.613 193.087 103.9 192.213 103.9H183.289C182.3 103.9 181.518 104.682 181.518 105.671V118.229C181.518 119.218 182.3 120 183.289 120ZM187.544 102.773C188.326 102.773 188.878 102.635 189.545 102.014L190.971 100.68C191.247 100.427 191.431 100.174 191.431 99.852C191.431 99.323 190.327 98.794 189.476 98.794C188.901 98.794 188.464 99.093 188.165 99.576L186.9 101.554C186.785 101.738 186.67 101.968 186.67 102.175C186.67 102.543 187.038 102.773 187.544 102.773ZM200.675 118.367C200.675 119.356 201.457 120.138 202.446 120.138C203.435 120.138 204.217 119.356 204.217 118.367V107.166H207.621C208.518 107.166 209.254 106.43 209.254 105.533C209.254 104.636 208.518 103.9 207.621 103.9H197.271C196.374 103.9 195.638 104.636 195.638 105.533C195.638 106.43 196.374 107.166 197.271 107.166H200.675V118.367ZM213.611 120H222.65C223.524 120 224.237 119.31 224.237 118.436C224.237 117.562 223.524 116.849 222.65 116.849H215.359V113.468H221.5C222.374 113.468 223.087 112.778 223.087 111.904C223.087 111.03 222.374 110.317 221.5 110.317H215.359V107.051H222.535C223.409 107.051 224.122 106.361 224.122 105.487C224.122 104.613 223.409 103.9 222.535 103.9H213.611C212.622 103.9 211.84 104.682 211.84 105.671V118.229C211.84 119.218 212.622 120 213.611 120ZM217.866 102.773C218.648 102.773 219.2 102.635 219.867 102.014L221.293 100.68C221.569 100.427 221.753 100.174 221.753 99.852C221.753 99.323 220.649 98.794 219.798 98.794C219.223 98.794 218.786 99.093 218.487 99.576L217.222 101.554C217.107 101.738 216.992 101.968 216.992 102.175C216.992 102.543 217.36 102.773 217.866 102.773ZM234.88 113.652C234.949 114.273 235.363 114.664 235.938 114.664C236.513 114.664 236.927 114.273 236.996 113.652L237.985 105.004C238.054 104.337 237.686 103.831 237.065 103.831H234.811C234.19 103.831 233.822 104.337 233.891 105.004L234.88 113.652ZM233.937 118.137V118.183C233.937 119.287 234.788 120.138 235.938 120.138C237.088 120.138 237.939 119.287 237.939 118.183V118.137C237.939 117.033 237.088 116.182 235.938 116.182C234.788 116.182 233.937 117.033 233.937 118.137Z" fill="#FF0090"/>
<path d="M91.2573 176.244L88.8943 173.881C88.3163 174.04 87.727 174.119 87.1263 174.119C86.027 174.119 85.024 173.864 84.1173 173.354C83.2106 172.833 82.491 172.113 81.9583 171.195C81.437 170.266 81.1763 169.223 81.1763 168.067C81.1763 166.911 81.437 165.874 81.9583 164.956C82.491 164.027 83.2106 163.307 84.1173 162.797C85.024 162.276 86.027 162.015 87.1263 162.015C88.237 162.015 89.2456 162.276 90.1523 162.797C91.059 163.307 91.773 164.021 92.2943 164.939C92.8156 165.857 93.0763 166.9 93.0763 168.067C93.0763 169.2 92.827 170.22 92.3283 171.127C91.8296 172.034 91.144 172.748 90.2713 173.269L93.2633 176.244H91.2573ZM82.7573 168.067C82.7573 169.008 82.9443 169.835 83.3183 170.549C83.7036 171.263 84.225 171.813 84.8823 172.198C85.551 172.583 86.299 172.776 87.1263 172.776C87.9536 172.776 88.696 172.583 89.3533 172.198C90.022 171.813 90.5433 171.263 90.9173 170.549C91.3026 169.835 91.4953 169.008 91.4953 168.067C91.4953 167.115 91.3026 166.288 90.9173 165.585C90.5433 164.871 90.0276 164.321 89.3703 163.936C88.713 163.551 87.965 163.358 87.1263 163.358C86.2876 163.358 85.5396 163.551 84.8823 163.936C84.225 164.321 83.7036 164.871 83.3183 165.585C82.9443 166.288 82.7573 167.115 82.7573 168.067ZM103.414 164.684V174H101.867V172.623C101.572 173.099 101.158 173.473 100.626 173.745C100.104 174.006 99.5264 174.136 98.8918 174.136C98.1664 174.136 97.5148 173.989 96.9368 173.694C96.3588 173.388 95.8998 172.935 95.5598 172.334C95.2311 171.733 95.0668 171.002 95.0668 170.141V164.684H96.5968V169.937C96.5968 170.855 96.8291 171.563 97.2938 172.062C97.7584 172.549 98.3931 172.793 99.1978 172.793C100.025 172.793 100.677 172.538 101.153 172.028C101.629 171.518 101.867 170.776 101.867 169.801V164.684H103.414ZM110.089 174.153C109.216 174.153 108.423 173.955 107.709 173.558C107.006 173.161 106.451 172.6 106.043 171.875C105.646 171.138 105.448 170.288 105.448 169.325C105.448 168.373 105.652 167.534 106.06 166.809C106.479 166.072 107.046 165.511 107.76 165.126C108.474 164.729 109.273 164.531 110.157 164.531C111.041 164.531 111.84 164.729 112.554 165.126C113.268 165.511 113.829 166.067 114.237 166.792C114.656 167.517 114.866 168.362 114.866 169.325C114.866 170.288 114.65 171.138 114.22 171.875C113.8 172.6 113.228 173.161 112.503 173.558C111.777 173.955 110.973 174.153 110.089 174.153ZM110.089 172.793C110.644 172.793 111.165 172.663 111.653 172.402C112.14 172.141 112.531 171.75 112.826 171.229C113.132 170.708 113.285 170.073 113.285 169.325C113.285 168.577 113.137 167.942 112.843 167.421C112.548 166.9 112.163 166.514 111.687 166.265C111.211 166.004 110.695 165.874 110.14 165.874C109.573 165.874 109.052 166.004 108.576 166.265C108.111 166.514 107.737 166.9 107.454 167.421C107.17 167.942 107.029 168.577 107.029 169.325C107.029 170.084 107.165 170.725 107.437 171.246C107.72 171.767 108.094 172.158 108.559 172.419C109.023 172.668 109.533 172.793 110.089 172.793ZM117.699 163.171C117.404 163.171 117.155 163.069 116.951 162.865C116.747 162.661 116.645 162.412 116.645 162.117C116.645 161.822 116.747 161.573 116.951 161.369C117.155 161.165 117.404 161.063 117.699 161.063C117.982 161.063 118.22 161.165 118.413 161.369C118.617 161.573 118.719 161.822 118.719 162.117C118.719 162.412 118.617 162.661 118.413 162.865C118.22 163.069 117.982 163.171 117.699 163.171ZM118.447 164.684V174H116.9V164.684H118.447ZM125.038 169.308C125.038 168.356 125.23 167.523 125.616 166.809C126.001 166.084 126.528 165.523 127.197 165.126C127.877 164.729 128.636 164.531 129.475 164.531C130.2 164.531 130.874 164.701 131.498 165.041C132.121 165.37 132.597 165.806 132.926 166.35V161.42H134.49V174H132.926V172.249C132.62 172.804 132.166 173.263 131.566 173.626C130.965 173.977 130.262 174.153 129.458 174.153C128.63 174.153 127.877 173.949 127.197 173.541C126.528 173.133 126.001 172.561 125.616 171.824C125.23 171.087 125.038 170.249 125.038 169.308ZM132.926 169.325C132.926 168.622 132.784 168.01 132.501 167.489C132.217 166.968 131.832 166.571 131.345 166.299C130.869 166.016 130.342 165.874 129.764 165.874C129.186 165.874 128.659 166.01 128.183 166.282C127.707 166.554 127.327 166.951 127.044 167.472C126.76 167.993 126.619 168.605 126.619 169.308C126.619 170.022 126.76 170.645 127.044 171.178C127.327 171.699 127.707 172.102 128.183 172.385C128.659 172.657 129.186 172.793 129.764 172.793C130.342 172.793 130.869 172.657 131.345 172.385C131.832 172.102 132.217 171.699 132.501 171.178C132.784 170.645 132.926 170.028 132.926 169.325ZM145.604 168.985C145.604 169.28 145.587 169.591 145.553 169.92H138.107C138.164 170.838 138.475 171.558 139.042 172.079C139.62 172.589 140.317 172.844 141.133 172.844C141.802 172.844 142.357 172.691 142.799 172.385C143.252 172.068 143.57 171.648 143.751 171.127H145.417C145.168 172.022 144.669 172.753 143.921 173.32C143.173 173.875 142.244 174.153 141.133 174.153C140.249 174.153 139.456 173.955 138.753 173.558C138.062 173.161 137.518 172.6 137.121 171.875C136.724 171.138 136.526 170.288 136.526 169.325C136.526 168.362 136.719 167.517 137.104 166.792C137.489 166.067 138.028 165.511 138.719 165.126C139.422 164.729 140.226 164.531 141.133 164.531C142.017 164.531 142.799 164.724 143.479 165.109C144.159 165.494 144.68 166.027 145.043 166.707C145.417 167.376 145.604 168.135 145.604 168.985ZM144.006 168.662C144.006 168.073 143.876 167.568 143.615 167.149C143.354 166.718 142.997 166.395 142.544 166.18C142.102 165.953 141.609 165.84 141.065 165.84C140.283 165.84 139.614 166.089 139.059 166.588C138.515 167.087 138.203 167.778 138.124 168.662H144.006ZM163.381 164.514C164.106 164.514 164.752 164.667 165.319 164.973C165.886 165.268 166.333 165.715 166.662 166.316C166.991 166.917 167.155 167.648 167.155 168.509V174H165.625V168.73C165.625 167.801 165.393 167.092 164.928 166.605C164.475 166.106 163.857 165.857 163.075 165.857C162.27 165.857 161.63 166.118 161.154 166.639C160.678 167.149 160.44 167.891 160.44 168.866V174H158.91V168.73C158.91 167.801 158.678 167.092 158.213 166.605C157.76 166.106 157.142 165.857 156.36 165.857C155.555 165.857 154.915 166.118 154.439 166.639C153.963 167.149 153.725 167.891 153.725 168.866V174H152.178V164.684H153.725V166.027C154.031 165.54 154.439 165.166 154.949 164.905C155.47 164.644 156.043 164.514 156.666 164.514C157.448 164.514 158.139 164.69 158.74 165.041C159.341 165.392 159.788 165.908 160.083 166.588C160.344 165.931 160.774 165.421 161.375 165.058C161.976 164.695 162.644 164.514 163.381 164.514ZM170.492 163.171C170.197 163.171 169.948 163.069 169.744 162.865C169.54 162.661 169.438 162.412 169.438 162.117C169.438 161.822 169.54 161.573 169.744 161.369C169.948 161.165 170.197 161.063 170.492 161.063C170.775 161.063 171.013 161.165 171.206 161.369C171.41 161.573 171.512 161.822 171.512 162.117C171.512 162.412 171.41 162.661 171.206 162.865C171.013 163.069 170.775 163.171 170.492 163.171ZM171.24 164.684V174H169.693V164.684H171.24ZM182.376 168.985C182.376 169.28 182.359 169.591 182.325 169.92H174.879C174.936 170.838 175.248 171.558 175.814 172.079C176.392 172.589 177.089 172.844 177.905 172.844C178.574 172.844 179.129 172.691 179.571 172.385C180.025 172.068 180.342 171.648 180.523 171.127H182.189C181.94 172.022 181.441 172.753 180.693 173.32C179.945 173.875 179.016 174.153 177.905 174.153C177.021 174.153 176.228 173.955 175.525 173.558C174.834 173.161 174.29 172.6 173.893 171.875C173.497 171.138 173.298 170.288 173.298 169.325C173.298 168.362 173.491 167.517 173.876 166.792C174.262 166.067 174.8 165.511 175.491 165.126C176.194 164.729 176.999 164.531 177.905 164.531C178.789 164.531 179.571 164.724 180.251 165.109C180.931 165.494 181.453 166.027 181.815 166.707C182.189 167.376 182.376 168.135 182.376 168.985ZM180.778 168.662C180.778 168.073 180.648 167.568 180.387 167.149C180.127 166.718 179.77 166.395 179.316 166.18C178.874 165.953 178.381 165.84 177.837 165.84C177.055 165.84 176.387 166.089 175.831 166.588C175.287 167.087 174.976 167.778 174.896 168.662H180.778ZM192.68 164.684V174H191.133V172.623C190.839 173.099 190.425 173.473 189.892 173.745C189.371 174.006 188.793 174.136 188.158 174.136C187.433 174.136 186.781 173.989 186.203 173.694C185.625 173.388 185.166 172.935 184.826 172.334C184.498 171.733 184.333 171.002 184.333 170.141V164.684H185.863V169.937C185.863 170.855 186.096 171.563 186.56 172.062C187.025 172.549 187.66 172.793 188.464 172.793C189.292 172.793 189.943 172.538 190.419 172.028C190.895 171.518 191.133 170.776 191.133 169.801V164.684H192.68ZM200.154 174L197.944 170.532L195.819 174H194.204L197.213 169.376L194.204 164.684H195.955L198.165 168.135L200.273 164.684H201.888L198.896 169.291L201.905 174H200.154ZM207.381 169.308C207.381 168.356 207.574 167.523 207.959 166.809C208.345 166.084 208.872 165.523 209.54 165.126C210.22 164.729 210.98 164.531 211.818 164.531C212.623 164.531 213.326 164.712 213.926 165.075C214.538 165.426 214.986 165.863 215.269 166.384V164.684H216.833V178.42H215.269V172.283C214.975 172.804 214.521 173.246 213.909 173.609C213.297 173.972 212.583 174.153 211.767 174.153C210.951 174.153 210.209 173.949 209.54 173.541C208.872 173.133 208.345 172.561 207.959 171.824C207.574 171.087 207.381 170.249 207.381 169.308ZM215.269 169.325C215.269 168.622 215.128 168.01 214.844 167.489C214.561 166.968 214.176 166.571 213.688 166.299C213.212 166.016 212.685 165.874 212.107 165.874C211.529 165.874 211.002 166.01 210.526 166.282C210.05 166.554 209.671 166.951 209.387 167.472C209.104 167.993 208.962 168.605 208.962 169.308C208.962 170.022 209.104 170.645 209.387 171.178C209.671 171.699 210.05 172.102 210.526 172.385C211.002 172.657 211.529 172.793 212.107 172.793C212.685 172.793 213.212 172.657 213.688 172.385C214.176 172.102 214.561 171.699 214.844 171.178C215.128 170.645 215.269 170.028 215.269 169.325ZM227.71 164.684V174H226.163V172.623C225.868 173.099 225.454 173.473 224.922 173.745C224.4 174.006 223.822 174.136 223.188 174.136C222.462 174.136 221.811 173.989 221.233 173.694C220.655 173.388 220.196 172.935 219.856 172.334C219.527 171.733 219.363 171.002 219.363 170.141V164.684H220.893V169.937C220.893 170.855 221.125 171.563 221.59 172.062C222.054 172.549 222.689 172.793 223.494 172.793C224.321 172.793 224.973 172.538 225.449 172.028C225.925 171.518 226.163 170.776 226.163 169.801V164.684H227.71ZM238.822 168.985C238.822 169.28 238.805 169.591 238.771 169.92H231.325C231.381 170.838 231.693 171.558 232.26 172.079C232.838 172.589 233.535 172.844 234.351 172.844C235.019 172.844 235.575 172.691 236.017 172.385C236.47 172.068 236.787 171.648 236.969 171.127H238.635C238.385 172.022 237.887 172.753 237.139 173.32C236.391 173.875 235.461 174.153 234.351 174.153C233.467 174.153 232.673 173.955 231.971 173.558C231.279 173.161 230.735 172.6 230.339 171.875C229.942 171.138 229.744 170.288 229.744 169.325C229.744 168.362 229.936 167.517 230.322 166.792C230.707 166.067 231.245 165.511 231.937 165.126C232.639 164.729 233.444 164.531 234.351 164.531C235.235 164.531 236.017 164.724 236.697 165.109C237.377 165.494 237.898 166.027 238.261 166.707C238.635 167.376 238.822 168.135 238.822 168.985ZM237.224 168.662C237.224 168.073 237.093 167.568 236.833 167.149C236.572 166.718 236.215 166.395 235.762 166.18C235.32 165.953 234.827 165.84 234.283 165.84C233.501 165.84 232.832 166.089 232.277 166.588C231.733 167.087 231.421 167.778 231.342 168.662H237.224ZM59.499 197.274C59.499 200.164 61.454 202.136 63.834 202.136C65.262 202.136 66.333 201.456 66.911 200.708V206.488H69.308V192.582H66.911V193.806C66.333 193.075 65.296 192.446 63.885 192.446C61.454 192.446 59.499 194.384 59.499 197.274ZM66.911 197.291C66.911 199.11 65.653 200.062 64.412 200.062C63.188 200.062 61.93 199.093 61.93 197.274C61.93 195.455 63.188 194.52 64.412 194.52C65.653 194.52 66.911 195.472 66.911 197.291ZM80.5235 192.582H78.1265V197.767C78.1265 199.28 77.3105 200.096 76.0185 200.096C74.7605 200.096 73.9275 199.28 73.9275 197.767V192.582H71.5475V198.107C71.5475 200.691 73.1285 202.119 75.3215 202.119C76.4945 202.119 77.5315 201.609 78.1265 200.81V202H80.5235V192.582ZM86.9177 194.384C88.1417 194.384 89.1277 195.166 89.1617 196.407H84.6907C84.8777 195.115 85.7787 194.384 86.9177 194.384ZM91.3887 199.042H88.8217C88.5157 199.671 87.9547 200.181 86.9347 200.181C85.7447 200.181 84.7927 199.399 84.6737 198.005H91.5587C91.6097 197.699 91.6267 197.393 91.6267 197.087C91.6267 194.282 89.7057 192.429 86.9857 192.429C84.1977 192.429 82.2597 194.316 82.2597 197.291C82.2597 200.249 84.2487 202.153 86.9857 202.153C89.3147 202.153 90.8787 200.776 91.3887 199.042ZM93.3639 202H95.7439V189.42H93.3639V202ZM97.4834 197.274C97.4834 200.164 99.4384 202.136 101.818 202.136C103.246 202.136 104.317 201.456 104.895 200.708V206.488H107.292V192.582H104.895V193.806C104.317 193.075 103.28 192.446 101.869 192.446C99.4384 192.446 97.4834 194.384 97.4834 197.274ZM104.895 197.291C104.895 199.11 103.637 200.062 102.396 200.062C101.172 200.062 99.9144 199.093 99.9144 197.274C99.9144 195.455 101.172 194.52 102.396 194.52C103.637 194.52 104.895 195.472 104.895 197.291ZM118.508 192.582H116.111V197.767C116.111 199.28 115.295 200.096 114.003 200.096C112.745 200.096 111.912 199.28 111.912 197.767V192.582H109.532V198.107C109.532 200.691 111.113 202.119 113.306 202.119C114.479 202.119 115.516 201.609 116.111 200.81V202H118.508V192.582ZM124.902 194.384C126.126 194.384 127.112 195.166 127.146 196.407H122.675C122.862 195.115 123.763 194.384 124.902 194.384ZM129.373 199.042H126.806C126.5 199.671 125.939 200.181 124.919 200.181C123.729 200.181 122.777 199.399 122.658 198.005H129.543C129.594 197.699 129.611 197.393 129.611 197.087C129.611 194.282 127.69 192.429 124.97 192.429C122.182 192.429 120.244 194.316 120.244 197.291C120.244 200.249 122.233 202.153 124.97 202.153C127.299 202.153 128.863 200.776 129.373 199.042ZM138.658 199.314C138.59 195.863 133.371 196.934 133.371 195.217C133.371 194.673 133.83 194.316 134.714 194.316C135.649 194.316 136.227 194.809 136.295 195.54H138.573C138.437 193.67 137.06 192.429 134.782 192.429C132.453 192.429 131.059 193.687 131.059 195.251C131.059 198.702 136.38 197.631 136.38 199.314C136.38 199.858 135.87 200.283 134.935 200.283C133.983 200.283 133.32 199.739 133.235 199.025H130.838C130.94 200.776 132.589 202.153 134.952 202.153C137.247 202.153 138.658 200.929 138.658 199.314ZM147.043 193.942V192.582H144.663V206.488H147.043V200.657C147.621 201.422 148.675 202.153 150.154 202.153C152.568 202.153 154.455 200.198 154.455 197.257C154.455 194.316 152.568 192.429 150.154 192.429C148.692 192.429 147.604 193.143 147.043 193.942ZM152.024 197.257C152.024 199.042 150.817 200.062 149.525 200.062C148.25 200.062 147.043 199.076 147.043 197.291C147.043 195.506 148.25 194.52 149.525 194.52C150.817 194.52 152.024 195.472 152.024 197.257ZM155.572 197.257C155.572 200.198 157.476 202.153 159.856 202.153C161.352 202.153 162.423 201.439 162.984 200.623V202H165.381V192.582H162.984V193.925C162.423 193.143 161.386 192.429 159.873 192.429C157.476 192.429 155.572 194.316 155.572 197.257ZM162.984 197.291C162.984 199.076 161.794 200.062 160.485 200.062C159.21 200.062 158.003 199.042 158.003 197.257C158.003 195.472 159.21 194.52 160.485 194.52C161.794 194.52 162.984 195.506 162.984 197.291ZM170.086 197.308C170.086 195.489 170.936 194.945 172.347 194.945H172.976V192.446C171.667 192.446 170.681 193.075 170.086 194.044V192.582H167.706V202H170.086V197.308ZM174.953 199.076C174.953 201.235 176.16 202 177.962 202H179.458V199.994H178.353C177.605 199.994 177.35 199.722 177.35 199.093V194.537H179.458V192.582H177.35V190.253H174.953V192.582H173.831V194.537H174.953V199.076ZM181.17 202H183.55V192.582H181.17V202ZM182.377 191.46C183.21 191.46 183.839 190.848 183.839 190.066C183.839 189.284 183.21 188.672 182.377 188.672C181.527 188.672 180.915 189.284 180.915 190.066C180.915 190.848 181.527 191.46 182.377 191.46ZM189.947 194.384C191.171 194.384 192.157 195.166 192.191 196.407H187.72C187.907 195.115 188.808 194.384 189.947 194.384ZM194.418 199.042H191.851C191.545 199.671 190.984 200.181 189.964 200.181C188.774 200.181 187.822 199.399 187.703 198.005H194.588C194.639 197.699 194.656 197.393 194.656 197.087C194.656 194.282 192.735 192.429 190.015 192.429C187.227 192.429 185.289 194.316 185.289 197.291C185.289 200.249 187.278 202.153 190.015 202.153C192.344 202.153 193.908 200.776 194.418 199.042ZM203.703 199.314C203.635 195.863 198.416 196.934 198.416 195.217C198.416 194.673 198.875 194.316 199.759 194.316C200.694 194.316 201.272 194.809 201.34 195.54H203.618C203.482 193.67 202.105 192.429 199.827 192.429C197.498 192.429 196.104 193.687 196.104 195.251C196.104 198.702 201.425 197.631 201.425 199.314C201.425 199.858 200.915 200.283 199.98 200.283C199.028 200.283 198.365 199.739 198.28 199.025H195.883C195.985 200.776 197.634 202.153 199.997 202.153C202.292 202.153 203.703 200.929 203.703 199.314ZM209.096 197.257C209.096 200.198 211 202.153 213.397 202.153C214.876 202.153 215.93 201.473 216.491 200.606V202H218.905V189.42H216.491V193.891C215.845 193.007 214.655 192.429 213.414 192.429C211 192.429 209.096 194.316 209.096 197.257ZM216.508 197.291C216.508 199.076 215.318 200.062 214.009 200.062C212.734 200.062 211.527 199.042 211.527 197.257C211.527 195.472 212.734 194.52 214.009 194.52C215.318 194.52 216.508 195.506 216.508 197.291ZM225.275 194.384C226.499 194.384 227.485 195.166 227.519 196.407H223.048C223.235 195.115 224.136 194.384 225.275 194.384ZM229.746 199.042H227.179C226.873 199.671 226.312 200.181 225.292 200.181C224.102 200.181 223.15 199.399 223.031 198.005H229.916C229.967 197.699 229.984 197.393 229.984 197.087C229.984 194.282 228.063 192.429 225.343 192.429C222.555 192.429 220.617 194.316 220.617 197.291C220.617 200.249 222.606 202.153 225.343 202.153C227.672 202.153 229.236 200.776 229.746 199.042ZM236.979 191.46C237.812 191.46 238.424 190.848 238.424 190.066C238.424 189.284 237.812 188.672 236.979 188.672C236.112 188.672 235.5 189.284 235.5 190.066C235.5 190.848 236.112 191.46 236.979 191.46ZM235.772 192.582V203.564C235.772 204.193 235.517 204.465 234.786 204.465H234.106V206.488H235.16C236.979 206.488 238.152 205.723 238.152 203.547V192.582H235.772ZM244.55 194.384C245.774 194.384 246.76 195.166 246.794 196.407H242.323C242.51 195.115 243.411 194.384 244.55 194.384ZM249.021 199.042H246.454C246.148 199.671 245.587 200.181 244.567 200.181C243.377 200.181 242.425 199.399 242.306 198.005H249.191C249.242 197.699 249.259 197.393 249.259 197.087C249.259 194.282 247.338 192.429 244.618 192.429C241.83 192.429 239.892 194.316 239.892 197.291C239.892 200.249 241.881 202.153 244.618 202.153C246.947 202.153 248.511 200.776 249.021 199.042ZM259.887 192.582H257.49V197.767C257.49 199.28 256.674 200.096 255.382 200.096C254.124 200.096 253.291 199.28 253.291 197.767V192.582H250.911V198.107C250.911 200.691 252.492 202.119 254.685 202.119C255.858 202.119 256.895 201.609 257.49 200.81V202H259.887V192.582ZM62.4873 225.257C62.4873 228.198 64.3913 230.153 66.7883 230.153C68.2673 230.153 69.3213 229.473 69.8823 228.606V230H72.2963V217.42H69.8823V221.891C69.2363 221.007 68.0463 220.429 66.8053 220.429C64.3913 220.429 62.4873 222.316 62.4873 225.257ZM69.8993 225.291C69.8993 227.076 68.7093 228.062 67.4003 228.062C66.1253 228.062 64.9183 227.042 64.9183 225.257C64.9183 223.472 66.1253 222.52 67.4003 222.52C68.7093 222.52 69.8993 223.506 69.8993 225.291ZM78.6668 222.384C79.8908 222.384 80.8768 223.166 80.9108 224.407H76.4398C76.6268 223.115 77.5278 222.384 78.6668 222.384ZM83.1378 227.042H80.5708C80.2648 227.671 79.7038 228.181 78.6838 228.181C77.4938 228.181 76.5418 227.399 76.4228 226.005H83.3078C83.3588 225.699 83.3758 225.393 83.3758 225.087C83.3758 222.282 81.4548 220.429 78.7348 220.429C75.9468 220.429 74.0088 222.316 74.0088 225.291C74.0088 228.249 75.9978 230.153 78.7348 230.153C81.0638 230.153 82.6278 228.776 83.1378 227.042ZM96.4737 227.314C96.4057 223.863 91.1867 224.934 91.1867 223.217C91.1867 222.673 91.6457 222.316 92.5297 222.316C93.4647 222.316 94.0427 222.809 94.1107 223.54H96.3887C96.2527 221.67 94.8757 220.429 92.5977 220.429C90.2687 220.429 88.8747 221.687 88.8747 223.251C88.8747 226.702 94.1957 225.631 94.1957 227.314C94.1957 227.858 93.6857 228.283 92.7507 228.283C91.7987 228.283 91.1357 227.739 91.0507 227.025H88.6537C88.7557 228.776 90.4047 230.153 92.7677 230.153C95.0627 230.153 96.4737 228.929 96.4737 227.314ZM107.522 225.291C107.522 222.316 105.397 220.429 102.677 220.429C99.9574 220.429 97.8324 222.316 97.8324 225.291C97.8324 228.249 99.8894 230.153 102.609 230.153C105.346 230.153 107.522 228.249 107.522 225.291ZM100.246 225.291C100.246 223.404 101.385 222.503 102.643 222.503C103.901 222.503 105.074 223.404 105.074 225.291C105.074 227.161 103.867 228.079 102.609 228.079C101.334 228.079 100.246 227.161 100.246 225.291ZM108.656 225.291C108.656 228.249 110.594 230.153 113.314 230.153C115.66 230.153 117.241 228.827 117.751 226.821H115.184C114.895 227.671 114.283 228.113 113.297 228.113C111.971 228.113 111.087 227.127 111.087 225.291C111.087 223.455 111.971 222.452 113.297 222.452C114.283 222.452 114.912 222.962 115.184 223.761H117.751C117.241 221.653 115.66 220.429 113.314 220.429C110.594 220.429 108.656 222.333 108.656 225.291ZM119.495 230H121.875V220.582H119.495V230ZM120.702 219.46C121.535 219.46 122.164 218.848 122.164 218.066C122.164 217.284 121.535 216.672 120.702 216.672C119.852 216.672 119.24 217.284 119.24 218.066C119.24 218.848 119.852 219.46 120.702 219.46ZM128.272 222.384C129.496 222.384 130.482 223.166 130.516 224.407H126.045C126.232 223.115 127.133 222.384 128.272 222.384ZM132.743 227.042H130.176C129.87 227.671 129.309 228.181 128.289 228.181C127.099 228.181 126.147 227.399 126.028 226.005H132.913C132.964 225.699 132.981 225.393 132.981 225.087C132.981 222.282 131.06 220.429 128.34 220.429C125.552 220.429 123.614 222.316 123.614 225.291C123.614 228.249 125.603 230.153 128.34 230.153C130.669 230.153 132.233 228.776 132.743 227.042ZM126.249 218.185V219.885L130.159 218.1V216.162L126.249 218.185ZM135.092 227.076C135.092 229.235 136.299 230 138.101 230H139.597V227.994H138.492C137.744 227.994 137.489 227.722 137.489 227.093V222.537H139.597V220.582H137.489V218.253H135.092V220.582H133.97V222.537H135.092V227.076ZM145.355 222.384C146.579 222.384 147.565 223.166 147.599 224.407H143.128C143.315 223.115 144.216 222.384 145.355 222.384ZM149.826 227.042H147.259C146.953 227.671 146.392 228.181 145.372 228.181C144.182 228.181 143.23 227.399 143.111 226.005H149.996C150.047 225.699 150.064 225.393 150.064 225.087C150.064 222.282 148.143 220.429 145.423 220.429C142.635 220.429 140.697 222.316 140.697 225.291C140.697 228.249 142.686 230.153 145.423 230.153C147.752 230.153 149.316 228.776 149.826 227.042ZM143.332 218.185V219.885L147.242 218.1V216.162L143.332 218.185ZM155.41 225.308C155.41 224.356 155.603 223.523 155.988 222.809C156.374 222.084 156.901 221.523 157.569 221.126C158.249 220.729 159.003 220.531 159.83 220.531C160.646 220.531 161.355 220.707 161.955 221.058C162.556 221.409 163.004 221.851 163.298 222.384V220.684H164.862V230H163.298V228.266C162.992 228.81 162.533 229.263 161.921 229.626C161.321 229.977 160.618 230.153 159.813 230.153C158.986 230.153 158.238 229.949 157.569 229.541C156.901 229.133 156.374 228.561 155.988 227.824C155.603 227.087 155.41 226.249 155.41 225.308ZM163.298 225.325C163.298 224.622 163.157 224.01 162.873 223.489C162.59 222.968 162.205 222.571 161.717 222.299C161.241 222.016 160.714 221.874 160.136 221.874C159.558 221.874 159.031 222.01 158.555 222.282C158.079 222.554 157.7 222.951 157.416 223.472C157.133 223.993 156.991 224.605 156.991 225.308C156.991 226.022 157.133 226.645 157.416 227.178C157.7 227.699 158.079 228.102 158.555 228.385C159.031 228.657 159.558 228.793 160.136 228.793C160.714 228.793 161.241 228.657 161.717 228.385C162.205 228.102 162.59 227.699 162.873 227.178C163.157 226.645 163.298 226.028 163.298 225.325ZM171.267 221.959H169.312V230H167.765V221.959H166.558V220.684H167.765V220.021C167.765 218.978 168.032 218.219 168.564 217.743C169.108 217.256 169.975 217.012 171.165 217.012V218.304C170.485 218.304 170.004 218.44 169.72 218.712C169.448 218.973 169.312 219.409 169.312 220.021V220.684H171.267V221.959ZM173.87 219.171C173.576 219.171 173.326 219.069 173.122 218.865C172.918 218.661 172.816 218.412 172.816 218.117C172.816 217.822 172.918 217.573 173.122 217.369C173.326 217.165 173.576 217.063 173.87 217.063C174.154 217.063 174.392 217.165 174.584 217.369C174.788 217.573 174.89 217.822 174.89 218.117C174.89 218.412 174.788 218.661 174.584 218.865C174.392 219.069 174.154 219.171 173.87 219.171ZM174.618 220.684V230H173.071V220.684H174.618ZM181.794 220.514C182.927 220.514 183.845 220.86 184.548 221.551C185.25 222.231 185.602 223.217 185.602 224.509V230H184.072V224.73C184.072 223.801 183.839 223.092 183.375 222.605C182.91 222.106 182.275 221.857 181.471 221.857C180.655 221.857 180.003 222.112 179.516 222.622C179.04 223.132 178.802 223.874 178.802 224.849V230H177.255V220.684H178.802V222.01C179.108 221.534 179.521 221.166 180.043 220.905C180.575 220.644 181.159 220.514 181.794 220.514ZM192.083 225.308C192.083 224.356 192.276 223.523 192.661 222.809C193.046 222.084 193.573 221.523 194.242 221.126C194.922 220.729 195.681 220.531 196.52 220.531C197.245 220.531 197.92 220.701 198.543 221.041C199.166 221.37 199.642 221.806 199.971 222.35V217.42H201.535V230H199.971V228.249C199.665 228.804 199.212 229.263 198.611 229.626C198.01 229.977 197.308 230.153 196.503 230.153C195.676 230.153 194.922 229.949 194.242 229.541C193.573 229.133 193.046 228.561 192.661 227.824C192.276 227.087 192.083 226.249 192.083 225.308ZM199.971 225.325C199.971 224.622 199.829 224.01 199.546 223.489C199.263 222.968 198.877 222.571 198.39 222.299C197.914 222.016 197.387 221.874 196.809 221.874C196.231 221.874 195.704 222.01 195.228 222.282C194.752 222.554 194.372 222.951 194.089 223.472C193.806 223.993 193.664 224.605 193.664 225.308C193.664 226.022 193.806 226.645 194.089 227.178C194.372 227.699 194.752 228.102 195.228 228.385C195.704 228.657 196.231 228.793 196.809 228.793C197.387 228.793 197.914 228.657 198.39 228.385C198.877 228.102 199.263 227.699 199.546 227.178C199.829 226.645 199.971 226.028 199.971 225.325ZM212.649 224.985C212.649 225.28 212.632 225.591 212.598 225.92H205.152C205.209 226.838 205.521 227.558 206.087 228.079C206.665 228.589 207.362 228.844 208.178 228.844C208.847 228.844 209.402 228.691 209.844 228.385C210.298 228.068 210.615 227.648 210.796 227.127H212.462C212.213 228.022 211.714 228.753 210.966 229.32C210.218 229.875 209.289 230.153 208.178 230.153C207.294 230.153 206.501 229.955 205.798 229.558C205.107 229.161 204.563 228.6 204.166 227.875C203.77 227.138 203.571 226.288 203.571 225.325C203.571 224.362 203.764 223.517 204.149 222.792C204.535 222.067 205.073 221.511 205.764 221.126C206.467 220.729 207.272 220.531 208.178 220.531C209.062 220.531 209.844 220.724 210.524 221.109C211.204 221.494 211.726 222.027 212.088 222.707C212.462 223.376 212.649 224.135 212.649 224.985ZM211.051 224.662C211.051 224.073 210.921 223.568 210.66 223.149C210.4 222.718 210.043 222.395 209.589 222.18C209.147 221.953 208.654 221.84 208.11 221.84C207.328 221.84 206.66 222.089 206.104 222.588C205.56 223.087 205.249 223.778 205.169 224.662H211.051ZM222.692 228.572L225.582 220.684H227.231L223.576 230H221.774L218.119 220.684H219.785L222.692 228.572ZM232.816 230.153C231.943 230.153 231.15 229.955 230.436 229.558C229.733 229.161 229.178 228.6 228.77 227.875C228.373 227.138 228.175 226.288 228.175 225.325C228.175 224.373 228.379 223.534 228.787 222.809C229.206 222.072 229.773 221.511 230.487 221.126C231.201 220.729 232 220.531 232.884 220.531C233.768 220.531 234.567 220.729 235.281 221.126C235.995 221.511 236.556 222.067 236.964 222.792C237.383 223.517 237.593 224.362 237.593 225.325C237.593 226.288 237.378 227.138 236.947 227.875C236.528 228.6 235.955 229.161 235.23 229.558C234.505 229.955 233.7 230.153 232.816 230.153ZM232.816 228.793C233.371 228.793 233.893 228.663 234.38 228.402C234.867 228.141 235.258 227.75 235.553 227.229C235.859 226.708 236.012 226.073 236.012 225.325C236.012 224.577 235.865 223.942 235.57 223.421C235.275 222.9 234.89 222.514 234.414 222.265C233.938 222.004 233.422 221.874 232.867 221.874C232.3 221.874 231.779 222.004 231.303 222.265C230.838 222.514 230.464 222.9 230.181 223.421C229.898 223.942 229.756 224.577 229.756 225.325C229.756 226.084 229.892 226.725 230.164 227.246C230.447 227.767 230.821 228.158 231.286 228.419C231.751 228.668 232.261 228.793 232.816 228.793ZM247.889 220.684V230H246.342V228.623C246.047 229.099 245.634 229.473 245.101 229.745C244.58 230.006 244.002 230.136 243.367 230.136C242.642 230.136 241.99 229.989 241.412 229.694C240.834 229.388 240.375 228.935 240.035 228.334C239.706 227.733 239.542 227.002 239.542 226.141V220.684H241.072V225.937C241.072 226.855 241.304 227.563 241.769 228.062C242.234 228.549 242.868 228.793 243.673 228.793C244.5 228.793 245.152 228.538 245.628 228.028C246.104 227.518 246.342 226.776 246.342 225.801V220.684H247.889ZM253.799 230.153C253.085 230.153 252.445 230.034 251.878 229.796C251.311 229.547 250.864 229.207 250.535 228.776C250.206 228.334 250.025 227.83 249.991 227.263H251.589C251.634 227.728 251.85 228.107 252.235 228.402C252.632 228.697 253.147 228.844 253.782 228.844C254.371 228.844 254.836 228.714 255.176 228.453C255.516 228.192 255.686 227.864 255.686 227.467C255.686 227.059 255.505 226.759 255.142 226.566C254.779 226.362 254.218 226.164 253.459 225.971C252.768 225.79 252.201 225.608 251.759 225.427C251.328 225.234 250.954 224.957 250.637 224.594C250.331 224.22 250.178 223.733 250.178 223.132C250.178 222.656 250.32 222.22 250.603 221.823C250.886 221.426 251.289 221.115 251.81 220.888C252.331 220.65 252.926 220.531 253.595 220.531C254.626 220.531 255.459 220.792 256.094 221.313C256.729 221.834 257.069 222.548 257.114 223.455H255.567C255.533 222.968 255.335 222.577 254.972 222.282C254.621 221.987 254.145 221.84 253.544 221.84C252.989 221.84 252.547 221.959 252.218 222.197C251.889 222.435 251.725 222.747 251.725 223.132C251.725 223.438 251.821 223.693 252.014 223.897C252.218 224.09 252.467 224.248 252.762 224.373C253.068 224.486 253.487 224.617 254.02 224.764C254.689 224.945 255.233 225.127 255.652 225.308C256.071 225.478 256.428 225.739 256.723 226.09C257.029 226.441 257.188 226.9 257.199 227.467C257.199 227.977 257.057 228.436 256.774 228.844C256.491 229.252 256.088 229.575 255.567 229.813C255.057 230.04 254.468 230.153 253.799 230.153ZM67.0567 250.401C67.3627 249.868 67.816 249.426 68.4167 249.075C69.0287 248.712 69.737 248.531 70.5417 248.531C71.369 248.531 72.117 248.729 72.7857 249.126C73.4657 249.523 73.9984 250.084 74.3837 250.809C74.769 251.523 74.9617 252.356 74.9617 253.308C74.9617 254.249 74.769 255.087 74.3837 255.824C73.9984 256.561 73.4657 257.133 72.7857 257.541C72.117 257.949 71.369 258.153 70.5417 258.153C69.7484 258.153 69.0457 257.977 68.4337 257.626C67.833 257.263 67.374 256.816 67.0567 256.283V262.42H65.5097V248.684H67.0567V250.401ZM73.3807 253.308C73.3807 252.605 73.239 251.993 72.9557 251.472C72.6724 250.951 72.287 250.554 71.7997 250.282C71.3237 250.01 70.7967 249.874 70.2187 249.874C69.652 249.874 69.125 250.016 68.6377 250.299C68.1617 250.571 67.7764 250.973 67.4817 251.506C67.1984 252.027 67.0567 252.634 67.0567 253.325C67.0567 254.028 67.1984 254.645 67.4817 255.178C67.7764 255.699 68.1617 256.102 68.6377 256.385C69.125 256.657 69.652 256.793 70.2187 256.793C70.7967 256.793 71.3237 256.657 71.7997 256.385C72.287 256.102 72.6724 255.699 72.9557 255.178C73.239 254.645 73.3807 254.022 73.3807 253.308ZM81.061 258.153C80.1883 258.153 79.395 257.955 78.681 257.558C77.9783 257.161 77.423 256.6 77.015 255.875C76.6183 255.138 76.42 254.288 76.42 253.325C76.42 252.373 76.624 251.534 77.032 250.809C77.4513 250.072 78.018 249.511 78.732 249.126C79.446 248.729 80.245 248.531 81.129 248.531C82.013 248.531 82.812 248.729 83.526 249.126C84.24 249.511 84.801 250.067 85.209 250.792C85.6283 251.517 85.838 252.362 85.838 253.325C85.838 254.288 85.6226 255.138 85.192 255.875C84.7726 256.6 84.2003 257.161 83.475 257.558C82.7496 257.955 81.945 258.153 81.061 258.153ZM81.061 256.793C81.6163 256.793 82.1376 256.663 82.625 256.402C83.1123 256.141 83.5033 255.75 83.798 255.229C84.104 254.708 84.257 254.073 84.257 253.325C84.257 252.577 84.1096 251.942 83.815 251.421C83.5203 250.9 83.135 250.514 82.659 250.265C82.183 250.004 81.6673 249.874 81.112 249.874C80.5453 249.874 80.024 250.004 79.548 250.265C79.0833 250.514 78.7093 250.9 78.426 251.421C78.1426 251.942 78.001 252.577 78.001 253.325C78.001 254.084 78.137 254.725 78.409 255.246C78.6923 255.767 79.0663 256.158 79.531 256.419C79.9956 256.668 80.5056 256.793 81.061 256.793ZM91.17 258.153C90.456 258.153 89.8157 258.034 89.249 257.796C88.6823 257.547 88.2347 257.207 87.906 256.776C87.5773 256.334 87.396 255.83 87.362 255.263H88.96C89.0053 255.728 89.2207 256.107 89.606 256.402C90.0027 256.697 90.5183 256.844 91.153 256.844C91.7423 256.844 92.207 256.714 92.547 256.453C92.887 256.192 93.057 255.864 93.057 255.467C93.057 255.059 92.8757 254.759 92.513 254.566C92.1503 254.362 91.5893 254.164 90.83 253.971C90.1387 253.79 89.572 253.608 89.13 253.427C88.6993 253.234 88.3253 252.957 88.008 252.594C87.702 252.22 87.549 251.733 87.549 251.132C87.549 250.656 87.6907 250.22 87.974 249.823C88.2573 249.426 88.6597 249.115 89.181 248.888C89.7023 248.65 90.2973 248.531 90.966 248.531C91.9973 248.531 92.8303 248.792 93.465 249.313C94.0997 249.834 94.4397 250.548 94.485 251.455H92.938C92.904 250.968 92.7057 250.577 92.343 250.282C91.9917 249.987 91.5157 249.84 90.915 249.84C90.3597 249.84 89.9177 249.959 89.589 250.197C89.2603 250.435 89.096 250.747 89.096 251.132C89.096 251.438 89.1923 251.693 89.385 251.897C89.589 252.09 89.8383 252.248 90.133 252.373C90.439 252.486 90.8583 252.617 91.391 252.764C92.0597 252.945 92.6037 253.127 93.023 253.308C93.4423 253.478 93.7993 253.739 94.094 254.09C94.4 254.441 94.5587 254.9 94.57 255.467C94.57 255.977 94.4283 256.436 94.145 256.844C93.8617 257.252 93.4593 257.575 92.938 257.813C92.428 258.04 91.8387 258.153 91.17 258.153ZM105.254 252.985C105.254 253.28 105.237 253.591 105.203 253.92H97.7568C97.8135 254.838 98.1252 255.558 98.6918 256.079C99.2698 256.589 99.9668 256.844 100.783 256.844C101.451 256.844 102.007 256.691 102.449 256.385C102.902 256.068 103.219 255.648 103.401 255.127H105.067C104.817 256.022 104.319 256.753 103.571 257.32C102.823 257.875 101.893 258.153 100.783 258.153C99.8988 258.153 99.1055 257.955 98.4028 257.558C97.7115 257.161 97.1675 256.6 96.7708 255.875C96.3742 255.138 96.1758 254.288 96.1758 253.325C96.1758 252.362 96.3685 251.517 96.7538 250.792C97.1392 250.067 97.6775 249.511 98.3688 249.126C99.0715 248.729 99.8762 248.531 100.783 248.531C101.667 248.531 102.449 248.724 103.129 249.109C103.809 249.494 104.33 250.027 104.693 250.707C105.067 251.376 105.254 252.135 105.254 252.985ZM103.656 252.662C103.656 252.073 103.525 251.568 103.265 251.149C103.004 250.718 102.647 250.395 102.194 250.18C101.752 249.953 101.259 249.84 100.715 249.84C99.9328 249.84 99.2642 250.089 98.7088 250.588C98.1648 251.087 97.8532 251.778 97.7738 252.662H103.656ZM108.843 250.197C109.115 249.664 109.5 249.251 109.999 248.956C110.509 248.661 111.126 248.514 111.852 248.514V250.112H111.444C109.71 250.112 108.843 251.053 108.843 252.934V258H107.296V248.684H108.843V250.197ZM119.717 245.42V258H118.17V245.42H119.717ZM122.591 246.151H124.308L122.676 250.01H121.588L122.591 246.151ZM134.572 252.985C134.572 253.28 134.555 253.591 134.521 253.92H127.075C127.132 254.838 127.444 255.558 128.01 256.079C128.588 256.589 129.285 256.844 130.101 256.844C130.77 256.844 131.325 256.691 131.767 256.385C132.221 256.068 132.538 255.648 132.719 255.127H134.385C134.136 256.022 133.637 256.753 132.889 257.32C132.141 257.875 131.212 258.153 130.101 258.153C129.217 258.153 128.424 257.955 127.721 257.558C127.03 257.161 126.486 256.6 126.089 255.875C125.693 255.138 125.494 254.288 125.494 253.325C125.494 252.362 125.687 251.517 126.072 250.792C126.458 250.067 126.996 249.511 127.687 249.126C128.39 248.729 129.195 248.531 130.101 248.531C130.985 248.531 131.767 248.724 132.447 249.109C133.127 249.494 133.649 250.027 134.011 250.707C134.385 251.376 134.572 252.135 134.572 252.985ZM132.974 252.662C132.974 252.073 132.844 251.568 132.583 251.149C132.323 250.718 131.966 250.395 131.512 250.18C131.07 249.953 130.577 249.84 130.033 249.84C129.251 249.84 128.583 250.089 128.027 250.588C127.483 251.087 127.172 251.778 127.092 252.662H132.974ZM139.912 258.153C139.198 258.153 138.558 258.034 137.991 257.796C137.425 257.547 136.977 257.207 136.648 256.776C136.32 256.334 136.138 255.83 136.104 255.263H137.702C137.748 255.728 137.963 256.107 138.348 256.402C138.745 256.697 139.261 256.844 139.895 256.844C140.485 256.844 140.949 256.714 141.289 256.453C141.629 256.192 141.799 255.864 141.799 255.467C141.799 255.059 141.618 254.759 141.255 254.566C140.893 254.362 140.332 254.164 139.572 253.971C138.881 253.79 138.314 253.608 137.872 253.427C137.442 253.234 137.068 252.957 136.75 252.594C136.444 252.22 136.291 251.733 136.291 251.132C136.291 250.656 136.433 250.22 136.716 249.823C137 249.426 137.402 249.115 137.923 248.888C138.445 248.65 139.04 248.531 139.708 248.531C140.74 248.531 141.573 248.792 142.207 249.313C142.842 249.834 143.182 250.548 143.227 251.455H141.68C141.646 250.968 141.448 250.577 141.085 250.282C140.734 249.987 140.258 249.84 139.657 249.84C139.102 249.84 138.66 249.959 138.331 250.197C138.003 250.435 137.838 250.747 137.838 251.132C137.838 251.438 137.935 251.693 138.127 251.897C138.331 252.09 138.581 252.248 138.875 252.373C139.181 252.486 139.601 252.617 140.133 252.764C140.802 252.945 141.346 253.127 141.765 253.308C142.185 253.478 142.542 253.739 142.836 254.09C143.142 254.441 143.301 254.9 143.312 255.467C143.312 255.977 143.171 256.436 142.887 256.844C142.604 257.252 142.202 257.575 141.68 257.813C141.17 258.04 140.581 258.153 139.912 258.153ZM147.043 250.401C147.349 249.868 147.802 249.426 148.403 249.075C149.015 248.712 149.723 248.531 150.528 248.531C151.355 248.531 152.103 248.729 152.772 249.126C153.452 249.523 153.985 250.084 154.37 250.809C154.755 251.523 154.948 252.356 154.948 253.308C154.948 254.249 154.755 255.087 154.37 255.824C153.985 256.561 153.452 257.133 152.772 257.541C152.103 257.949 151.355 258.153 150.528 258.153C149.735 258.153 149.032 257.977 148.42 257.626C147.819 257.263 147.36 256.816 147.043 256.283V262.42H145.496V248.684H147.043V250.401ZM153.367 253.308C153.367 252.605 153.225 251.993 152.942 251.472C152.659 250.951 152.273 250.554 151.786 250.282C151.31 250.01 150.783 249.874 150.205 249.874C149.638 249.874 149.111 250.016 148.624 250.299C148.148 250.571 147.763 250.973 147.468 251.506C147.185 252.027 147.043 252.634 147.043 253.325C147.043 254.028 147.185 254.645 147.468 255.178C147.763 255.699 148.148 256.102 148.624 256.385C149.111 256.657 149.638 256.793 150.205 256.793C150.783 256.793 151.31 256.657 151.786 256.385C152.273 256.102 152.659 255.699 152.942 255.178C153.225 254.645 153.367 254.022 153.367 253.308ZM158.531 250.197C158.803 249.664 159.189 249.251 159.687 248.956C160.197 248.661 160.815 248.514 161.54 248.514V250.112H161.132C159.398 250.112 158.531 251.053 158.531 252.934V258H156.984V248.684H158.531V250.197ZM164.125 247.171C163.83 247.171 163.581 247.069 163.377 246.865C163.173 246.661 163.071 246.412 163.071 246.117C163.071 245.822 163.173 245.573 163.377 245.369C163.581 245.165 163.83 245.063 164.125 245.063C164.408 245.063 164.646 245.165 164.839 245.369C165.043 245.573 165.145 245.822 165.145 246.117C165.145 246.412 165.043 246.661 164.839 246.865C164.646 247.069 164.408 247.171 164.125 247.171ZM164.873 248.684V258H163.326V248.684H164.873ZM169.397 249.959V255.45C169.397 255.903 169.493 256.226 169.686 256.419C169.878 256.6 170.213 256.691 170.689 256.691H171.828V258H170.434C169.572 258 168.926 257.802 168.496 257.405C168.065 257.008 167.85 256.357 167.85 255.45V249.959H166.643V248.684H167.85V246.338H169.397V248.684H171.828V249.959H169.397ZM177.656 253.308C177.656 252.356 177.849 251.523 178.234 250.809C178.62 250.084 179.147 249.523 179.815 249.126C180.495 248.729 181.255 248.531 182.093 248.531C182.898 248.531 183.601 248.712 184.201 249.075C184.813 249.426 185.261 249.863 185.544 250.384V248.684H187.108V262.42H185.544V256.283C185.25 256.804 184.796 257.246 184.184 257.609C183.572 257.972 182.858 258.153 182.042 258.153C181.226 258.153 180.484 257.949 179.815 257.541C179.147 257.133 178.62 256.561 178.234 255.824C177.849 255.087 177.656 254.249 177.656 253.308ZM185.544 253.325C185.544 252.622 185.403 252.01 185.119 251.489C184.836 250.968 184.451 250.571 183.963 250.299C183.487 250.016 182.96 249.874 182.382 249.874C181.804 249.874 181.277 250.01 180.801 250.282C180.325 250.554 179.946 250.951 179.662 251.472C179.379 251.993 179.237 252.605 179.237 253.308C179.237 254.022 179.379 254.645 179.662 255.178C179.946 255.699 180.325 256.102 180.801 256.385C181.277 256.657 181.804 256.793 182.382 256.793C182.96 256.793 183.487 256.657 183.963 256.385C184.451 256.102 184.836 255.699 185.119 255.178C185.403 254.645 185.544 254.028 185.544 253.325ZM197.985 248.684V258H196.438V256.623C196.143 257.099 195.729 257.473 195.197 257.745C194.675 258.006 194.097 258.136 193.463 258.136C192.737 258.136 192.086 257.989 191.508 257.694C190.93 257.388 190.471 256.935 190.131 256.334C189.802 255.733 189.638 255.002 189.638 254.141V248.684H191.168V253.937C191.168 254.855 191.4 255.563 191.865 256.062C192.329 256.549 192.964 256.793 193.769 256.793C194.596 256.793 195.248 256.538 195.724 256.028C196.2 255.518 196.438 254.776 196.438 253.801V248.684H197.985ZM209.097 252.985C209.097 253.28 209.08 253.591 209.046 253.92H201.6C201.656 254.838 201.968 255.558 202.535 256.079C203.113 256.589 203.81 256.844 204.626 256.844C205.294 256.844 205.85 256.691 206.292 256.385C206.745 256.068 207.062 255.648 207.244 255.127H208.91C208.66 256.022 208.162 256.753 207.414 257.32C206.666 257.875 205.736 258.153 204.626 258.153C203.742 258.153 202.948 257.955 202.246 257.558C201.554 257.161 201.01 256.6 200.614 255.875C200.217 255.138 200.019 254.288 200.019 253.325C200.019 252.362 200.211 251.517 200.597 250.792C200.982 250.067 201.52 249.511 202.212 249.126C202.914 248.729 203.719 248.531 204.626 248.531C205.51 248.531 206.292 248.724 206.972 249.109C207.652 249.494 208.173 250.027 208.536 250.707C208.91 251.376 209.097 252.135 209.097 252.985ZM207.499 252.662C207.499 252.073 207.368 251.568 207.108 251.149C206.847 250.718 206.49 250.395 206.037 250.18C205.595 249.953 205.102 249.84 204.558 249.84C203.776 249.84 203.107 250.089 202.552 250.588C202.008 251.087 201.696 251.778 201.617 252.662H207.499ZM212.686 245.42V258H211.139V245.42H212.686ZM214.744 253.308C214.744 252.356 214.937 251.523 215.322 250.809C215.708 250.084 216.235 249.523 216.903 249.126C217.583 248.729 218.343 248.531 219.181 248.531C219.986 248.531 220.689 248.712 221.289 249.075C221.901 249.426 222.349 249.863 222.632 250.384V248.684H224.196V262.42H222.632V256.283C222.338 256.804 221.884 257.246 221.272 257.609C220.66 257.972 219.946 258.153 219.13 258.153C218.314 258.153 217.572 257.949 216.903 257.541C216.235 257.133 215.708 256.561 215.322 255.824C214.937 255.087 214.744 254.249 214.744 253.308ZM222.632 253.325C222.632 252.622 222.491 252.01 222.207 251.489C221.924 250.968 221.539 250.571 221.051 250.299C220.575 250.016 220.048 249.874 219.47 249.874C218.892 249.874 218.365 250.01 217.889 250.282C217.413 250.554 217.034 250.951 216.75 251.472C216.467 251.993 216.325 252.605 216.325 253.308C216.325 254.022 216.467 254.645 216.75 255.178C217.034 255.699 217.413 256.102 217.889 256.385C218.365 256.657 218.892 256.793 219.47 256.793C220.048 256.793 220.575 256.657 221.051 256.385C221.539 256.102 221.924 255.699 222.207 255.178C222.491 254.645 222.632 254.028 222.632 253.325ZM235.072 248.684V258H233.525V256.623C233.231 257.099 232.817 257.473 232.284 257.745C231.763 258.006 231.185 258.136 230.55 258.136C229.825 258.136 229.173 257.989 228.595 257.694C228.017 257.388 227.558 256.935 227.218 256.334C226.89 255.733 226.725 255.002 226.725 254.141V248.684H228.255V253.937C228.255 254.855 228.488 255.563 228.952 256.062C229.417 256.549 230.052 256.793 230.856 256.793C231.684 256.793 232.335 256.538 232.811 256.028C233.287 255.518 233.525 254.776 233.525 253.801V248.684H235.072ZM246.184 252.985C246.184 253.28 246.167 253.591 246.133 253.92H238.687C238.744 254.838 239.056 255.558 239.622 256.079C240.2 256.589 240.897 256.844 241.713 256.844C242.382 256.844 242.937 256.691 243.379 256.385C243.833 256.068 244.15 255.648 244.331 255.127H245.997C245.748 256.022 245.249 256.753 244.501 257.32C243.753 257.875 242.824 258.153 241.713 258.153C240.829 258.153 240.036 257.955 239.333 257.558C238.642 257.161 238.098 256.6 237.701 255.875C237.305 255.138 237.106 254.288 237.106 253.325C237.106 252.362 237.299 251.517 237.684 250.792C238.07 250.067 238.608 249.511 239.299 249.126C240.002 248.729 240.807 248.531 241.713 248.531C242.597 248.531 243.379 248.724 244.059 249.109C244.739 249.494 245.261 250.027 245.623 250.707C245.997 251.376 246.184 252.135 246.184 252.985ZM244.586 252.662C244.586 252.073 244.456 251.568 244.195 251.149C243.935 250.718 243.578 250.395 243.124 250.18C242.682 249.953 242.189 249.84 241.645 249.84C240.863 249.84 240.195 250.089 239.639 250.588C239.095 251.087 238.784 251.778 238.704 252.662H244.586ZM251.524 258.153C250.81 258.153 250.17 258.034 249.603 257.796C249.037 257.547 248.589 257.207 248.26 256.776C247.932 256.334 247.75 255.83 247.716 255.263H249.314C249.36 255.728 249.575 256.107 249.96 256.402C250.357 256.697 250.873 256.844 251.507 256.844C252.097 256.844 252.561 256.714 252.901 256.453C253.241 256.192 253.411 255.864 253.411 255.467C253.411 255.059 253.23 254.759 252.867 254.566C252.505 254.362 251.944 254.164 251.184 253.971C250.493 253.79 249.926 253.608 249.484 253.427C249.054 253.234 248.68 252.957 248.362 252.594C248.056 252.22 247.903 251.733 247.903 251.132C247.903 250.656 248.045 250.22 248.328 249.823C248.612 249.426 249.014 249.115 249.535 248.888C250.057 248.65 250.652 248.531 251.32 248.531C252.352 248.531 253.185 248.792 253.819 249.313C254.454 249.834 254.794 250.548 254.839 251.455H253.292C253.258 250.968 253.06 250.577 252.697 250.282C252.346 249.987 251.87 249.84 251.269 249.84C250.714 249.84 250.272 249.959 249.943 250.197C249.615 250.435 249.45 250.747 249.45 251.132C249.45 251.438 249.547 251.693 249.739 251.897C249.943 252.09 250.193 252.248 250.487 252.373C250.793 252.486 251.213 252.617 251.745 252.764C252.414 252.945 252.958 253.127 253.377 253.308C253.797 253.478 254.154 253.739 254.448 254.09C254.754 254.441 254.913 254.9 254.924 255.467C254.924 255.977 254.783 256.436 254.499 256.844C254.216 257.252 253.814 257.575 253.292 257.813C252.782 258.04 252.193 258.153 251.524 258.153ZM131.257 276.514C131.982 276.514 132.628 276.667 133.195 276.973C133.762 277.268 134.209 277.715 134.538 278.316C134.867 278.917 135.031 279.648 135.031 280.509V286H133.501V280.73C133.501 279.801 133.269 279.092 132.804 278.605C132.351 278.106 131.733 277.857 130.951 277.857C130.146 277.857 129.506 278.118 129.03 278.639C128.554 279.149 128.316 279.891 128.316 280.866V286H126.786V280.73C126.786 279.801 126.554 279.092 126.089 278.605C125.636 278.106 125.018 277.857 124.236 277.857C123.431 277.857 122.791 278.118 122.315 278.639C121.839 279.149 121.601 279.891 121.601 280.866V286H120.054V276.684H121.601V278.027C121.907 277.54 122.315 277.166 122.825 276.905C123.346 276.644 123.919 276.514 124.542 276.514C125.324 276.514 126.015 276.69 126.616 277.041C127.217 277.392 127.664 277.908 127.959 278.588C128.22 277.931 128.65 277.421 129.251 277.058C129.852 276.695 130.52 276.514 131.257 276.514ZM138.368 275.171C138.073 275.171 137.824 275.069 137.62 274.865C137.416 274.661 137.314 274.412 137.314 274.117C137.314 273.822 137.416 273.573 137.62 273.369C137.824 273.165 138.073 273.063 138.368 273.063C138.651 273.063 138.889 273.165 139.082 273.369C139.286 273.573 139.388 273.822 139.388 274.117C139.388 274.412 139.286 274.661 139.082 274.865C138.889 275.069 138.651 275.171 138.368 275.171ZM139.116 276.684V286H137.569V276.684H139.116ZM146.291 276.514C147.425 276.514 148.343 276.86 149.045 277.551C149.748 278.231 150.099 279.217 150.099 280.509V286H148.569V280.73C148.569 279.801 148.337 279.092 147.872 278.605C147.408 278.106 146.773 277.857 145.968 277.857C145.152 277.857 144.501 278.112 144.013 278.622C143.537 279.132 143.299 279.874 143.299 280.849V286H141.752V276.684H143.299V278.01C143.605 277.534 144.019 277.166 144.54 276.905C145.073 276.644 145.657 276.514 146.291 276.514ZM160.888 276.684V286H159.341V284.623C159.047 285.099 158.633 285.473 158.1 285.745C157.579 286.006 157.001 286.136 156.366 286.136C155.641 286.136 154.989 285.989 154.411 285.694C153.833 285.388 153.374 284.935 153.034 284.334C152.706 283.733 152.541 283.002 152.541 282.141V276.684H154.071V281.937C154.071 282.855 154.304 283.563 154.768 284.062C155.233 284.549 155.868 284.793 156.672 284.793C157.5 284.793 158.151 284.538 158.627 284.028C159.103 283.518 159.341 282.776 159.341 281.801V276.684H160.888ZM165.387 277.959V283.45C165.387 283.903 165.484 284.226 165.676 284.419C165.869 284.6 166.203 284.691 166.679 284.691H167.818V286H166.424C165.563 286 164.917 285.802 164.486 285.405C164.056 285.008 163.84 284.357 163.84 283.45V277.959H162.633V276.684H163.84V274.338H165.387V276.684H167.818V277.959H165.387ZM178.193 280.985C178.193 281.28 178.176 281.591 178.142 281.92H170.696C170.752 282.838 171.064 283.558 171.631 284.079C172.209 284.589 172.906 284.844 173.722 284.844C174.39 284.844 174.946 284.691 175.388 284.385C175.841 284.068 176.158 283.648 176.34 283.127H178.006C177.756 284.022 177.258 284.753 176.51 285.32C175.762 285.875 174.832 286.153 173.722 286.153C172.838 286.153 172.044 285.955 171.342 285.558C170.65 285.161 170.106 284.6 169.71 283.875C169.313 283.138 169.115 282.288 169.115 281.325C169.115 280.362 169.307 279.517 169.693 278.792C170.078 278.067 170.616 277.511 171.308 277.126C172.01 276.729 172.815 276.531 173.722 276.531C174.606 276.531 175.388 276.724 176.068 277.109C176.748 277.494 177.269 278.027 177.632 278.707C178.006 279.376 178.193 280.135 178.193 280.985ZM176.595 280.662C176.595 280.073 176.464 279.568 176.204 279.149C175.943 278.718 175.586 278.395 175.133 278.18C174.691 277.953 174.198 277.84 173.654 277.84C172.872 277.84 172.203 278.089 171.648 278.588C171.104 279.087 170.792 279.778 170.713 280.662H176.595ZM183.533 286.153C182.819 286.153 182.178 286.034 181.612 285.796C181.045 285.547 180.597 285.207 180.269 284.776C179.94 284.334 179.759 283.83 179.725 283.263H181.323C181.368 283.728 181.583 284.107 181.969 284.402C182.365 284.697 182.881 284.844 183.516 284.844C184.105 284.844 184.57 284.714 184.91 284.453C185.25 284.192 185.42 283.864 185.42 283.467C185.42 283.059 185.238 282.759 184.876 282.566C184.513 282.362 183.952 282.164 183.193 281.971C182.501 281.79 181.935 281.608 181.493 281.427C181.062 281.234 180.688 280.957 180.371 280.594C180.065 280.22 179.912 279.733 179.912 279.132C179.912 278.656 180.053 278.22 180.337 277.823C180.62 277.426 181.022 277.115 181.544 276.888C182.065 276.65 182.66 276.531 183.329 276.531C184.36 276.531 185.193 276.792 185.828 277.313C186.462 277.834 186.802 278.548 186.848 279.455H185.301C185.267 278.968 185.068 278.577 184.706 278.282C184.354 277.987 183.878 277.84 183.278 277.84C182.722 277.84 182.28 277.959 181.952 278.197C181.623 278.435 181.459 278.747 181.459 279.132C181.459 279.438 181.555 279.693 181.748 279.897C181.952 280.09 182.201 280.248 182.496 280.373C182.802 280.486 183.221 280.617 183.754 280.764C184.422 280.945 184.966 281.127 185.386 281.308C185.805 281.478 186.162 281.739 186.457 282.09C186.763 282.441 186.921 282.9 186.933 283.467C186.933 283.977 186.791 284.436 186.508 284.844C186.224 285.252 185.822 285.575 185.301 285.813C184.791 286.04 184.201 286.153 183.533 286.153ZM196.675 273.998C197.797 273.998 198.704 274.315 199.395 274.95C200.086 275.585 200.432 276.435 200.432 277.5C200.432 278.69 200.064 279.574 199.327 280.152C198.59 280.719 197.593 281.002 196.335 281.002L196.284 282.617H194.941L194.873 279.931H195.366C196.488 279.931 197.366 279.761 198.001 279.421C198.636 279.081 198.953 278.441 198.953 277.5C198.953 276.82 198.749 276.282 198.341 275.885C197.933 275.488 197.383 275.29 196.692 275.29C195.989 275.29 195.434 275.483 195.026 275.868C194.629 276.242 194.431 276.758 194.431 277.415H192.969C192.969 276.735 193.122 276.14 193.428 275.63C193.734 275.109 194.165 274.706 194.72 274.423C195.287 274.14 195.938 273.998 196.675 273.998ZM195.604 286.102C195.309 286.102 195.06 286 194.856 285.796C194.652 285.592 194.55 285.343 194.55 285.048C194.55 284.753 194.652 284.504 194.856 284.3C195.06 284.096 195.309 283.994 195.604 283.994C195.887 283.994 196.125 284.096 196.318 284.3C196.522 284.504 196.624 284.753 196.624 285.048C196.624 285.343 196.522 285.592 196.318 285.796C196.125 286 195.887 286.102 195.604 286.102Z" fill="#1A00E1"/>
</svg>
