<svg width="360" height="390" viewBox="0 0 360 390" fill="none" xmlns="http://www.w3.org/2000/svg">
<path fill-rule="evenodd" clip-rule="evenodd" d="M320.258 299.334C292.443 343.849 250.193 383.904 197.885 388.621C145.447 393.35 97.794 360.318 60.8861 322.724C27.6046 288.824 10.0649 243.425 8.74673 195.969C7.50821 151.381 25.2992 109.624 54.0198 75.5278C82.7074 41.4711 120.719 16.1997 164.916 10.5702C210.953 4.70627 260.255 13.4602 294.427 44.906C327.518 75.3562 331.294 123.137 335.833 167.85C340.468 213.508 344.562 260.438 320.258 299.334Z" fill="#1A00E1"/>
<path fill-rule="evenodd" clip-rule="evenodd" d="M314.181 293.257C286.366 337.771 244.116 377.826 191.808 382.544C139.37 387.272 91.7169 354.24 54.809 316.647C21.5275 282.747 3.98775 237.347 2.66956 189.891C1.43109 145.303 19.222 103.546 47.9427 69.4502C76.6302 35.3934 114.642 10.1221 158.839 4.49252C204.876 -1.37137 254.178 7.38252 288.35 38.8283C321.441 69.2785 325.216 117.06 329.756 161.772C334.391 207.43 338.485 254.36 314.181 293.257Z" fill="white" stroke="#FF0090" stroke-width="4"/>
<path d="M119.696 87.413C119.696 88.379 120.455 89.138 121.421 89.138C122.387 89.138 123.169 88.379 123.169 87.413V79.409L126.228 84.124C126.596 84.676 127.056 85.021 127.7 85.021C128.344 85.021 128.804 84.676 129.172 84.124L132.277 79.34V87.367C132.277 88.333 133.059 89.138 134.025 89.138C135.014 89.138 135.796 88.356 135.796 87.367V74.579C135.796 73.59 135.014 72.808 134.025 72.808H133.634C132.921 72.808 132.415 73.107 132.047 73.705L127.746 80.697L123.468 73.728C123.146 73.199 122.617 72.808 121.858 72.808H121.467C120.478 72.808 119.696 73.59 119.696 74.579V87.413ZM141.434 89H150.473C151.347 89 152.06 88.31 152.06 87.436C152.06 86.562 151.347 85.849 150.473 85.849H143.182V82.468H149.323C150.197 82.468 150.91 81.778 150.91 80.904C150.91 80.03 150.197 79.317 149.323 79.317H143.182V76.051H150.358C151.232 76.051 151.945 75.361 151.945 74.487C151.945 73.613 151.232 72.9 150.358 72.9H141.434C140.445 72.9 139.663 73.682 139.663 74.671V87.229C139.663 88.218 140.445 89 141.434 89ZM158.821 87.367C158.821 88.356 159.603 89.138 160.592 89.138C161.581 89.138 162.363 88.356 162.363 87.367V76.166H165.767C166.664 76.166 167.4 75.43 167.4 74.533C167.4 73.636 166.664 72.9 165.767 72.9H155.417C154.52 72.9 153.784 73.636 153.784 74.533C153.784 75.43 154.52 76.166 155.417 76.166H158.821V87.367ZM175.376 89.23C178.849 89.23 181.287 87.436 181.287 84.239V84.193C181.287 81.387 179.447 80.214 176.181 79.363C173.398 78.65 172.708 78.305 172.708 77.247V77.201C172.708 76.419 173.421 75.798 174.778 75.798C175.882 75.798 176.986 76.189 178.159 76.879C178.435 77.04 178.711 77.132 179.056 77.132C179.976 77.132 180.712 76.419 180.712 75.499C180.712 74.809 180.321 74.326 179.93 74.096C178.481 73.176 176.779 72.67 174.824 72.67C171.535 72.67 169.189 74.602 169.189 77.523V77.569C169.189 80.766 171.282 81.663 174.525 82.491C177.216 83.181 177.768 83.641 177.768 84.538V84.584C177.768 85.527 176.894 86.102 175.445 86.102C173.881 86.102 172.547 85.55 171.328 84.653C171.098 84.492 170.776 84.331 170.316 84.331C169.396 84.331 168.66 85.044 168.66 85.964C168.66 86.516 168.936 87.022 169.327 87.298C171.121 88.586 173.26 89.23 175.376 89.23ZM185.12 83.549H189.122C190.042 83.549 190.801 82.79 190.801 81.87C190.801 80.95 190.042 80.191 189.122 80.191H185.12C184.2 80.191 183.441 80.95 183.441 81.87C183.441 82.79 184.2 83.549 185.12 83.549ZM195.432 87.367C195.432 88.356 196.214 89.138 197.203 89.138C198.192 89.138 198.974 88.356 198.974 87.367V76.166H202.378C203.275 76.166 204.011 75.43 204.011 74.533C204.011 73.636 203.275 72.9 202.378 72.9H192.028C191.131 72.9 190.395 73.636 190.395 74.533C190.395 75.43 191.131 76.166 192.028 76.166H195.432V87.367ZM213.721 89.276C218.689 89.276 222.3 85.527 222.3 80.95V80.904C222.3 76.327 218.735 72.624 213.767 72.624C208.799 72.624 205.188 76.373 205.188 80.95V80.996C205.188 85.573 208.753 89.276 213.721 89.276ZM213.767 86.01C210.915 86.01 208.891 83.71 208.891 80.95V80.904C208.891 78.144 210.869 75.89 213.721 75.89C216.573 75.89 218.597 78.19 218.597 80.95V80.996C218.597 83.756 216.619 86.01 213.767 86.01ZM225.603 87.367C225.603 88.356 226.385 89.138 227.374 89.138C228.363 89.138 229.145 88.356 229.145 87.367V74.533C229.145 73.544 228.363 72.762 227.374 72.762C226.385 72.762 225.603 73.544 225.603 74.533V87.367ZM112.269 115.482C112.269 116.402 112.982 117.138 113.902 117.138C114.638 117.138 115.236 116.724 115.535 116.034L116.662 113.389H123.746L124.827 115.919C125.149 116.655 125.701 117.138 126.529 117.138C127.472 117.138 128.208 116.379 128.208 115.436C128.208 115.206 128.139 114.976 128.024 114.723L122.412 102.05C122.021 101.176 121.331 100.647 120.365 100.647H120.158C119.192 100.647 118.479 101.176 118.088 102.05L112.476 114.723C112.361 114.976 112.269 115.229 112.269 115.482ZM117.973 110.261L120.204 104.948L122.435 110.261H117.973ZM137.361 117.253C141.685 117.253 144.422 114.861 144.422 109.985V102.533C144.422 101.544 143.64 100.762 142.651 100.762C141.662 100.762 140.88 101.544 140.88 102.533V110.123C140.88 112.676 139.569 113.987 137.407 113.987C135.245 113.987 133.934 112.63 133.934 110.008V102.533C133.934 101.544 133.152 100.762 132.163 100.762C131.174 100.762 130.392 101.544 130.392 102.533V110.1C130.392 114.838 133.037 117.253 137.361 117.253ZM159.135 115.367C159.135 116.356 159.917 117.138 160.906 117.138C161.895 117.138 162.677 116.356 162.677 115.367V110.721L167.875 103.706C168.105 103.384 168.335 102.947 168.335 102.464C168.335 101.498 167.691 100.739 166.61 100.739C165.874 100.739 165.345 101.153 164.908 101.797L160.929 107.478L157.019 101.843C156.582 101.199 156.076 100.762 155.271 100.762C154.282 100.762 153.5 101.521 153.5 102.464C153.5 102.97 153.684 103.384 153.937 103.729L159.135 110.79V115.367ZM177.772 117.276C182.74 117.276 186.351 113.527 186.351 108.95V108.904C186.351 104.327 182.786 100.624 177.818 100.624C172.85 100.624 169.239 104.373 169.239 108.95V108.996C169.239 113.573 172.804 117.276 177.772 117.276ZM177.818 114.01C174.966 114.01 172.942 111.71 172.942 108.95V108.904C172.942 106.144 174.92 103.89 177.772 103.89C180.624 103.89 182.648 106.19 182.648 108.95V108.996C182.648 111.756 180.67 114.01 177.818 114.01ZM197.244 117.276C199.659 117.276 201.568 116.471 202.879 115.666C203.73 115.16 204.121 114.447 204.121 113.412V109.502C204.121 108.513 203.339 107.731 202.35 107.731H198.302C197.451 107.731 196.761 108.421 196.761 109.272C196.761 110.123 197.451 110.79 198.302 110.79H200.694V113.09C199.797 113.734 198.647 114.056 197.359 114.056C194.507 114.056 192.483 111.894 192.483 108.95V108.904C192.483 106.167 194.53 103.89 197.106 103.89C198.624 103.89 199.659 104.304 200.625 104.994C200.878 105.178 201.2 105.362 201.706 105.362C202.672 105.362 203.454 104.58 203.454 103.614C203.454 102.924 203.063 102.441 202.718 102.188C201.269 101.176 199.659 100.624 197.221 100.624C192.345 100.624 188.78 104.373 188.78 108.95V108.996C188.78 113.757 192.23 117.276 197.244 117.276ZM206.425 115.482C206.425 116.402 207.138 117.138 208.058 117.138C208.794 117.138 209.392 116.724 209.691 116.034L210.818 113.389H217.902L218.983 115.919C219.305 116.655 219.857 117.138 220.685 117.138C221.628 117.138 222.364 116.379 222.364 115.436C222.364 115.206 222.295 114.976 222.18 114.723L216.568 102.05C216.177 101.176 215.487 100.647 214.521 100.647H214.314C213.348 100.647 212.635 101.176 212.244 102.05L206.632 114.723C206.517 114.976 206.425 115.229 206.425 115.482ZM212.129 110.261L214.36 104.948L216.591 110.261H212.129ZM232.77 110.652C232.839 111.273 233.253 111.664 233.828 111.664C234.403 111.664 234.817 111.273 234.886 110.652L235.875 102.004C235.944 101.337 235.576 100.831 234.955 100.831H232.701C232.08 100.831 231.712 101.337 231.781 102.004L232.77 110.652ZM231.827 115.137V115.183C231.827 116.287 232.678 117.138 233.828 117.138C234.978 117.138 235.829 116.287 235.829 115.183V115.137C235.829 114.033 234.978 113.182 233.828 113.182C232.678 113.182 231.827 114.033 231.827 115.137Z" fill="#FF0090"/>
<path d="M90.4424 173.244L88.0794 170.881C87.5014 171.04 86.912 171.119 86.3114 171.119C85.212 171.119 84.209 170.864 83.3024 170.354C82.3957 169.833 81.676 169.113 81.1434 168.195C80.622 167.266 80.3614 166.223 80.3614 165.067C80.3614 163.911 80.622 162.874 81.1434 161.956C81.676 161.027 82.3957 160.307 83.3024 159.797C84.209 159.276 85.212 159.015 86.3114 159.015C87.422 159.015 88.4307 159.276 89.3374 159.797C90.244 160.307 90.958 161.021 91.4794 161.939C92.0007 162.857 92.2614 163.9 92.2614 165.067C92.2614 166.2 92.012 167.22 91.5134 168.127C91.0147 169.034 90.329 169.748 89.4564 170.269L92.4484 173.244H90.4424ZM81.9424 165.067C81.9424 166.008 82.1294 166.835 82.5034 167.549C82.8887 168.263 83.41 168.813 84.0674 169.198C84.736 169.583 85.484 169.776 86.3114 169.776C87.1387 169.776 87.881 169.583 88.5384 169.198C89.207 168.813 89.7284 168.263 90.1024 167.549C90.4877 166.835 90.6804 166.008 90.6804 165.067C90.6804 164.115 90.4877 163.288 90.1024 162.585C89.7284 161.871 89.2127 161.321 88.5554 160.936C87.898 160.551 87.15 160.358 86.3114 160.358C85.4727 160.358 84.7247 160.551 84.0674 160.936C83.41 161.321 82.8887 161.871 82.5034 162.585C82.1294 163.288 81.9424 164.115 81.9424 165.067ZM102.599 161.684V171H101.052V169.623C100.757 170.099 100.343 170.473 99.8108 170.745C99.2895 171.006 98.7115 171.136 98.0768 171.136C97.3515 171.136 96.6998 170.989 96.1218 170.694C95.5438 170.388 95.0848 169.935 94.7448 169.334C94.4162 168.733 94.2518 168.002 94.2518 167.141V161.684H95.7818V166.937C95.7818 167.855 96.0142 168.563 96.4788 169.062C96.9435 169.549 97.5782 169.793 98.3828 169.793C99.2102 169.793 99.8618 169.538 100.338 169.028C100.814 168.518 101.052 167.776 101.052 166.801V161.684H102.599ZM109.274 171.153C108.401 171.153 107.608 170.955 106.894 170.558C106.191 170.161 105.636 169.6 105.228 168.875C104.831 168.138 104.633 167.288 104.633 166.325C104.633 165.373 104.837 164.534 105.245 163.809C105.664 163.072 106.231 162.511 106.945 162.126C107.659 161.729 108.458 161.531 109.342 161.531C110.226 161.531 111.025 161.729 111.739 162.126C112.453 162.511 113.014 163.067 113.422 163.792C113.841 164.517 114.051 165.362 114.051 166.325C114.051 167.288 113.836 168.138 113.405 168.875C112.986 169.6 112.413 170.161 111.688 170.558C110.963 170.955 110.158 171.153 109.274 171.153ZM109.274 169.793C109.829 169.793 110.351 169.663 110.838 169.402C111.325 169.141 111.716 168.75 112.011 168.229C112.317 167.708 112.47 167.073 112.47 166.325C112.47 165.577 112.323 164.942 112.028 164.421C111.733 163.9 111.348 163.514 110.872 163.265C110.396 163.004 109.88 162.874 109.325 162.874C108.758 162.874 108.237 163.004 107.761 163.265C107.296 163.514 106.922 163.9 106.639 164.421C106.356 164.942 106.214 165.577 106.214 166.325C106.214 167.084 106.35 167.725 106.622 168.246C106.905 168.767 107.279 169.158 107.744 169.419C108.209 169.668 108.719 169.793 109.274 169.793ZM116.884 160.171C116.589 160.171 116.34 160.069 116.136 159.865C115.932 159.661 115.83 159.412 115.83 159.117C115.83 158.822 115.932 158.573 116.136 158.369C116.34 158.165 116.589 158.063 116.884 158.063C117.167 158.063 117.405 158.165 117.598 158.369C117.802 158.573 117.904 158.822 117.904 159.117C117.904 159.412 117.802 159.661 117.598 159.865C117.405 160.069 117.167 160.171 116.884 160.171ZM117.632 161.684V171H116.085V161.684H117.632ZM124.223 166.308C124.223 165.356 124.415 164.523 124.801 163.809C125.186 163.084 125.713 162.523 126.382 162.126C127.062 161.729 127.821 161.531 128.66 161.531C129.385 161.531 130.059 161.701 130.683 162.041C131.306 162.37 131.782 162.806 132.111 163.35V158.42H133.675V171H132.111V169.249C131.805 169.804 131.351 170.263 130.751 170.626C130.15 170.977 129.447 171.153 128.643 171.153C127.815 171.153 127.062 170.949 126.382 170.541C125.713 170.133 125.186 169.561 124.801 168.824C124.415 168.087 124.223 167.249 124.223 166.308ZM132.111 166.325C132.111 165.622 131.969 165.01 131.686 164.489C131.402 163.968 131.017 163.571 130.53 163.299C130.054 163.016 129.527 162.874 128.949 162.874C128.371 162.874 127.844 163.01 127.368 163.282C126.892 163.554 126.512 163.951 126.229 164.472C125.945 164.993 125.804 165.605 125.804 166.308C125.804 167.022 125.945 167.645 126.229 168.178C126.512 168.699 126.892 169.102 127.368 169.385C127.844 169.657 128.371 169.793 128.949 169.793C129.527 169.793 130.054 169.657 130.53 169.385C131.017 169.102 131.402 168.699 131.686 168.178C131.969 167.645 132.111 167.028 132.111 166.325ZM144.789 165.985C144.789 166.28 144.772 166.591 144.738 166.92H137.292C137.349 167.838 137.66 168.558 138.227 169.079C138.805 169.589 139.502 169.844 140.318 169.844C140.987 169.844 141.542 169.691 141.984 169.385C142.437 169.068 142.755 168.648 142.936 168.127H144.602C144.353 169.022 143.854 169.753 143.106 170.32C142.358 170.875 141.429 171.153 140.318 171.153C139.434 171.153 138.641 170.955 137.938 170.558C137.247 170.161 136.703 169.6 136.306 168.875C135.909 168.138 135.711 167.288 135.711 166.325C135.711 165.362 135.904 164.517 136.289 163.792C136.674 163.067 137.213 162.511 137.904 162.126C138.607 161.729 139.411 161.531 140.318 161.531C141.202 161.531 141.984 161.724 142.664 162.109C143.344 162.494 143.865 163.027 144.228 163.707C144.602 164.376 144.789 165.135 144.789 165.985ZM143.191 165.662C143.191 165.073 143.061 164.568 142.8 164.149C142.539 163.718 142.182 163.395 141.729 163.18C141.287 162.953 140.794 162.84 140.25 162.84C139.468 162.84 138.799 163.089 138.244 163.588C137.7 164.087 137.388 164.778 137.309 165.662H143.191ZM162.566 161.514C163.292 161.514 163.938 161.667 164.504 161.973C165.071 162.268 165.519 162.715 165.847 163.316C166.176 163.917 166.34 164.648 166.34 165.509V171H164.81V165.73C164.81 164.801 164.578 164.092 164.113 163.605C163.66 163.106 163.042 162.857 162.26 162.857C161.456 162.857 160.815 163.118 160.339 163.639C159.863 164.149 159.625 164.891 159.625 165.866V171H158.095V165.73C158.095 164.801 157.863 164.092 157.398 163.605C156.945 163.106 156.327 162.857 155.545 162.857C154.741 162.857 154.1 163.118 153.624 163.639C153.148 164.149 152.91 164.891 152.91 165.866V171H151.363V161.684H152.91V163.027C153.216 162.54 153.624 162.166 154.134 161.905C154.656 161.644 155.228 161.514 155.851 161.514C156.633 161.514 157.325 161.69 157.925 162.041C158.526 162.392 158.974 162.908 159.268 163.588C159.529 162.931 159.96 162.421 160.56 162.058C161.161 161.695 161.83 161.514 162.566 161.514ZM169.677 160.171C169.382 160.171 169.133 160.069 168.929 159.865C168.725 159.661 168.623 159.412 168.623 159.117C168.623 158.822 168.725 158.573 168.929 158.369C169.133 158.165 169.382 158.063 169.677 158.063C169.96 158.063 170.198 158.165 170.391 158.369C170.595 158.573 170.697 158.822 170.697 159.117C170.697 159.412 170.595 159.661 170.391 159.865C170.198 160.069 169.96 160.171 169.677 160.171ZM170.425 161.684V171H168.878V161.684H170.425ZM181.561 165.985C181.561 166.28 181.544 166.591 181.51 166.92H174.064C174.121 167.838 174.433 168.558 174.999 169.079C175.577 169.589 176.274 169.844 177.09 169.844C177.759 169.844 178.314 169.691 178.756 169.385C179.21 169.068 179.527 168.648 179.708 168.127H181.374C181.125 169.022 180.626 169.753 179.878 170.32C179.13 170.875 178.201 171.153 177.09 171.153C176.206 171.153 175.413 170.955 174.71 170.558C174.019 170.161 173.475 169.6 173.078 168.875C172.682 168.138 172.483 167.288 172.483 166.325C172.483 165.362 172.676 164.517 173.061 163.792C173.447 163.067 173.985 162.511 174.676 162.126C175.379 161.729 176.184 161.531 177.09 161.531C177.974 161.531 178.756 161.724 179.436 162.109C180.116 162.494 180.638 163.027 181 163.707C181.374 164.376 181.561 165.135 181.561 165.985ZM179.963 165.662C179.963 165.073 179.833 164.568 179.572 164.149C179.312 163.718 178.955 163.395 178.501 163.18C178.059 162.953 177.566 162.84 177.022 162.84C176.24 162.84 175.572 163.089 175.016 163.588C174.472 164.087 174.161 164.778 174.081 165.662H179.963ZM191.865 161.684V171H190.318V169.623C190.024 170.099 189.61 170.473 189.077 170.745C188.556 171.006 187.978 171.136 187.343 171.136C186.618 171.136 185.966 170.989 185.388 170.694C184.81 170.388 184.351 169.935 184.011 169.334C183.683 168.733 183.518 168.002 183.518 167.141V161.684H185.048V166.937C185.048 167.855 185.281 168.563 185.745 169.062C186.21 169.549 186.845 169.793 187.649 169.793C188.477 169.793 189.128 169.538 189.604 169.028C190.08 168.518 190.318 167.776 190.318 166.801V161.684H191.865ZM199.339 171L197.129 167.532L195.004 171H193.389L196.398 166.376L193.389 161.684H195.14L197.35 165.135L199.458 161.684H201.073L198.081 166.291L201.09 171H199.339ZM208.691 163.401C208.997 162.868 209.451 162.426 210.051 162.075C210.663 161.712 211.372 161.531 212.176 161.531C213.004 161.531 213.752 161.729 214.42 162.126C215.1 162.523 215.633 163.084 216.018 163.809C216.404 164.523 216.596 165.356 216.596 166.308C216.596 167.249 216.404 168.087 216.018 168.824C215.633 169.561 215.1 170.133 214.42 170.541C213.752 170.949 213.004 171.153 212.176 171.153C211.383 171.153 210.68 170.977 210.068 170.626C209.468 170.263 209.009 169.816 208.691 169.283V175.42H207.144V161.684H208.691V163.401ZM215.015 166.308C215.015 165.605 214.874 164.993 214.59 164.472C214.307 163.951 213.922 163.554 213.434 163.282C212.958 163.01 212.431 162.874 211.853 162.874C211.287 162.874 210.76 163.016 210.272 163.299C209.796 163.571 209.411 163.973 209.116 164.506C208.833 165.027 208.691 165.634 208.691 166.325C208.691 167.028 208.833 167.645 209.116 168.178C209.411 168.699 209.796 169.102 210.272 169.385C210.76 169.657 211.287 169.793 211.853 169.793C212.431 169.793 212.958 169.657 213.434 169.385C213.922 169.102 214.307 168.699 214.59 168.178C214.874 167.645 215.015 167.022 215.015 166.308ZM222.696 171.153C221.823 171.153 221.03 170.955 220.316 170.558C219.613 170.161 219.058 169.6 218.65 168.875C218.253 168.138 218.055 167.288 218.055 166.325C218.055 165.373 218.259 164.534 218.667 163.809C219.086 163.072 219.653 162.511 220.367 162.126C221.081 161.729 221.88 161.531 222.764 161.531C223.648 161.531 224.447 161.729 225.161 162.126C225.875 162.511 226.436 163.067 226.844 163.792C227.263 164.517 227.473 165.362 227.473 166.325C227.473 167.288 227.257 168.138 226.827 168.875C226.407 169.6 225.835 170.161 225.11 170.558C224.384 170.955 223.58 171.153 222.696 171.153ZM222.696 169.793C223.251 169.793 223.772 169.663 224.26 169.402C224.747 169.141 225.138 168.75 225.433 168.229C225.739 167.708 225.892 167.073 225.892 166.325C225.892 165.577 225.744 164.942 225.45 164.421C225.155 163.9 224.77 163.514 224.294 163.265C223.818 163.004 223.302 162.874 222.747 162.874C222.18 162.874 221.659 163.004 221.183 163.265C220.718 163.514 220.344 163.9 220.061 164.421C219.777 164.942 219.636 165.577 219.636 166.325C219.636 167.084 219.772 167.725 220.044 168.246C220.327 168.767 220.701 169.158 221.166 169.419C221.63 169.668 222.14 169.793 222.696 169.793ZM237.769 161.684V171H236.222V169.623C235.927 170.099 235.513 170.473 234.981 170.745C234.459 171.006 233.881 171.136 233.247 171.136C232.521 171.136 231.87 170.989 231.292 170.694C230.714 170.388 230.255 169.935 229.915 169.334C229.586 168.733 229.422 168.002 229.422 167.141V161.684H230.952V166.937C230.952 167.855 231.184 168.563 231.649 169.062C232.113 169.549 232.748 169.793 233.553 169.793C234.38 169.793 235.032 169.538 235.508 169.028C235.984 168.518 236.222 167.776 236.222 166.801V161.684H237.769ZM241.928 163.197C242.2 162.664 242.585 162.251 243.084 161.956C243.594 161.661 244.211 161.514 244.937 161.514V163.112H244.529C242.795 163.112 241.928 164.053 241.928 165.934V171H240.381V161.684H241.928V163.197ZM254.553 171.153C253.839 171.153 253.198 171.034 252.632 170.796C252.065 170.547 251.617 170.207 251.289 169.776C250.96 169.334 250.779 168.83 250.745 168.263H252.343C252.388 168.728 252.603 169.107 252.989 169.402C253.385 169.697 253.901 169.844 254.536 169.844C255.125 169.844 255.59 169.714 255.93 169.453C256.27 169.192 256.44 168.864 256.44 168.467C256.44 168.059 256.258 167.759 255.896 167.566C255.533 167.362 254.972 167.164 254.213 166.971C253.521 166.79 252.955 166.608 252.513 166.427C252.082 166.234 251.708 165.957 251.391 165.594C251.085 165.22 250.932 164.733 250.932 164.132C250.932 163.656 251.073 163.22 251.357 162.823C251.64 162.426 252.042 162.115 252.564 161.888C253.085 161.65 253.68 161.531 254.349 161.531C255.38 161.531 256.213 161.792 256.848 162.313C257.482 162.834 257.822 163.548 257.868 164.455H256.321C256.287 163.968 256.088 163.577 255.726 163.282C255.374 162.987 254.898 162.84 254.298 162.84C253.742 162.84 253.3 162.959 252.972 163.197C252.643 163.435 252.479 163.747 252.479 164.132C252.479 164.438 252.575 164.693 252.768 164.897C252.972 165.09 253.221 165.248 253.516 165.373C253.822 165.486 254.241 165.617 254.774 165.764C255.442 165.945 255.986 166.127 256.406 166.308C256.825 166.478 257.182 166.739 257.477 167.09C257.783 167.441 257.941 167.9 257.953 168.467C257.953 168.977 257.811 169.436 257.528 169.844C257.244 170.252 256.842 170.575 256.321 170.813C255.811 171.04 255.221 171.153 254.553 171.153ZM268.637 165.985C268.637 166.28 268.62 166.591 268.586 166.92H261.14C261.196 167.838 261.508 168.558 262.075 169.079C262.653 169.589 263.35 169.844 264.166 169.844C264.834 169.844 265.39 169.691 265.832 169.385C266.285 169.068 266.602 168.648 266.784 168.127H268.45C268.2 169.022 267.702 169.753 266.954 170.32C266.206 170.875 265.276 171.153 264.166 171.153C263.282 171.153 262.488 170.955 261.786 170.558C261.094 170.161 260.55 169.6 260.154 168.875C259.757 168.138 259.559 167.288 259.559 166.325C259.559 165.362 259.751 164.517 260.137 163.792C260.522 163.067 261.06 162.511 261.752 162.126C262.454 161.729 263.259 161.531 264.166 161.531C265.05 161.531 265.832 161.724 266.512 162.109C267.192 162.494 267.713 163.027 268.076 163.707C268.45 164.376 268.637 165.135 268.637 165.985ZM267.039 165.662C267.039 165.073 266.908 164.568 266.648 164.149C266.387 163.718 266.03 163.395 265.577 163.18C265.135 162.953 264.642 162.84 264.098 162.84C263.316 162.84 262.647 163.089 262.092 163.588C261.548 164.087 261.236 164.778 261.157 165.662H267.039ZM102.557 199.153C101.843 199.153 101.203 199.034 100.636 198.796C100.07 198.547 99.6219 198.207 99.2932 197.776C98.9645 197.334 98.7832 196.83 98.7492 196.263H100.347C100.393 196.728 100.608 197.107 100.993 197.402C101.39 197.697 101.906 197.844 102.54 197.844C103.13 197.844 103.594 197.714 103.934 197.453C104.274 197.192 104.444 196.864 104.444 196.467C104.444 196.059 104.263 195.759 103.9 195.566C103.538 195.362 102.977 195.164 102.217 194.971C101.526 194.79 100.959 194.608 100.517 194.427C100.087 194.234 99.7125 193.957 99.3952 193.594C99.0892 193.22 98.9362 192.733 98.9362 192.132C98.9362 191.656 99.0779 191.22 99.3612 190.823C99.6445 190.426 100.047 190.115 100.568 189.888C101.09 189.65 101.685 189.531 102.353 189.531C103.385 189.531 104.218 189.792 104.852 190.313C105.487 190.834 105.827 191.548 105.872 192.455H104.325C104.291 191.968 104.093 191.577 103.73 191.282C103.379 190.987 102.903 190.84 102.302 190.84C101.747 190.84 101.305 190.959 100.976 191.197C100.648 191.435 100.483 191.747 100.483 192.132C100.483 192.438 100.58 192.693 100.772 192.897C100.976 193.09 101.226 193.248 101.52 193.373C101.826 193.486 102.246 193.617 102.778 193.764C103.447 193.945 103.991 194.127 104.41 194.308C104.83 194.478 105.187 194.739 105.481 195.09C105.787 195.441 105.946 195.9 105.957 196.467C105.957 196.977 105.816 197.436 105.532 197.844C105.249 198.252 104.847 198.575 104.325 198.813C103.815 199.04 103.226 199.153 102.557 199.153ZM116.641 193.985C116.641 194.28 116.624 194.591 116.59 194.92H109.144C109.201 195.838 109.512 196.558 110.079 197.079C110.657 197.589 111.354 197.844 112.17 197.844C112.839 197.844 113.394 197.691 113.836 197.385C114.289 197.068 114.607 196.648 114.788 196.127H116.454C116.205 197.022 115.706 197.753 114.958 198.32C114.21 198.875 113.281 199.153 112.17 199.153C111.286 199.153 110.493 198.955 109.79 198.558C109.099 198.161 108.555 197.6 108.158 196.875C107.761 196.138 107.563 195.288 107.563 194.325C107.563 193.362 107.756 192.517 108.141 191.792C108.526 191.067 109.065 190.511 109.756 190.126C110.459 189.729 111.263 189.531 112.17 189.531C113.054 189.531 113.836 189.724 114.516 190.109C115.196 190.494 115.717 191.027 116.08 191.707C116.454 192.376 116.641 193.135 116.641 193.985ZM115.043 193.662C115.043 193.073 114.913 192.568 114.652 192.149C114.391 191.718 114.034 191.395 113.581 191.18C113.139 190.953 112.646 190.84 112.102 190.84C111.32 190.84 110.651 191.089 110.096 191.588C109.552 192.087 109.24 192.778 109.161 193.662H115.043ZM123.222 189.514C124.355 189.514 125.273 189.86 125.976 190.551C126.679 191.231 127.03 192.217 127.03 193.509V199H125.5V193.73C125.5 192.801 125.268 192.092 124.803 191.605C124.338 191.106 123.704 190.857 122.899 190.857C122.083 190.857 121.431 191.112 120.944 191.622C120.468 192.132 120.23 192.874 120.23 193.849V199H118.683V189.684H120.23V191.01C120.536 190.534 120.95 190.166 121.471 189.905C122.004 189.644 122.587 189.514 123.222 189.514ZM131.444 190.959V196.45C131.444 196.903 131.54 197.226 131.733 197.419C131.926 197.6 132.26 197.691 132.736 197.691H133.875V199H132.481C131.62 199 130.974 198.802 130.543 198.405C130.112 198.008 129.897 197.357 129.897 196.45V190.959H128.69V189.684H129.897V187.338H131.444V189.684H133.875V190.959H131.444ZM136.548 188.171C136.254 188.171 136.004 188.069 135.8 187.865C135.596 187.661 135.494 187.412 135.494 187.117C135.494 186.822 135.596 186.573 135.8 186.369C136.004 186.165 136.254 186.063 136.548 186.063C136.832 186.063 137.07 186.165 137.262 186.369C137.466 186.573 137.568 186.822 137.568 187.117C137.568 187.412 137.466 187.661 137.262 187.865C137.07 188.069 136.832 188.171 136.548 188.171ZM137.296 189.684V199H135.749V189.684H137.296ZM141.48 191.197C141.752 190.664 142.137 190.251 142.636 189.956C143.146 189.661 143.764 189.514 144.489 189.514V191.112H144.081C142.347 191.112 141.48 192.053 141.48 193.934V199H139.933V189.684H141.48V191.197ZM152.354 191.418C152.671 190.863 153.136 190.409 153.748 190.058C154.36 189.707 155.057 189.531 155.839 189.531C156.678 189.531 157.431 189.729 158.1 190.126C158.769 190.523 159.296 191.084 159.681 191.809C160.066 192.523 160.259 193.356 160.259 194.308C160.259 195.249 160.066 196.087 159.681 196.824C159.296 197.561 158.763 198.133 158.083 198.541C157.414 198.949 156.666 199.153 155.839 199.153C155.034 199.153 154.326 198.977 153.714 198.626C153.113 198.275 152.66 197.827 152.354 197.283V199H150.807V186.42H152.354V191.418ZM158.678 194.308C158.678 193.605 158.536 192.993 158.253 192.472C157.97 191.951 157.584 191.554 157.097 191.282C156.621 191.01 156.094 190.874 155.516 190.874C154.949 190.874 154.422 191.016 153.935 191.299C153.459 191.571 153.074 191.973 152.779 192.506C152.496 193.027 152.354 193.634 152.354 194.325C152.354 195.028 152.496 195.645 152.779 196.178C153.074 196.699 153.459 197.102 153.935 197.385C154.422 197.657 154.949 197.793 155.516 197.793C156.094 197.793 156.621 197.657 157.097 197.385C157.584 197.102 157.97 196.699 158.253 196.178C158.536 195.645 158.678 195.022 158.678 194.308ZM163.094 188.171C162.8 188.171 162.55 188.069 162.346 187.865C162.142 187.661 162.04 187.412 162.04 187.117C162.04 186.822 162.142 186.573 162.346 186.369C162.55 186.165 162.8 186.063 163.094 186.063C163.378 186.063 163.616 186.165 163.808 186.369C164.012 186.573 164.114 186.822 164.114 187.117C164.114 187.412 164.012 187.661 163.808 187.865C163.616 188.069 163.378 188.171 163.094 188.171ZM163.842 189.684V199H162.295V189.684H163.842ZM174.979 193.985C174.979 194.28 174.962 194.591 174.928 194.92H167.482C167.539 195.838 167.85 196.558 168.417 197.079C168.995 197.589 169.692 197.844 170.508 197.844C171.177 197.844 171.732 197.691 172.174 197.385C172.627 197.068 172.945 196.648 173.126 196.127H174.792C174.543 197.022 174.044 197.753 173.296 198.32C172.548 198.875 171.619 199.153 170.508 199.153C169.624 199.153 168.831 198.955 168.128 198.558C167.437 198.161 166.893 197.6 166.496 196.875C166.099 196.138 165.901 195.288 165.901 194.325C165.901 193.362 166.094 192.517 166.479 191.792C166.864 191.067 167.403 190.511 168.094 190.126C168.797 189.729 169.601 189.531 170.508 189.531C171.392 189.531 172.174 189.724 172.854 190.109C173.534 190.494 174.055 191.027 174.418 191.707C174.792 192.376 174.979 193.135 174.979 193.985ZM173.381 193.662C173.381 193.073 173.251 192.568 172.99 192.149C172.729 191.718 172.372 191.395 171.919 191.18C171.477 190.953 170.984 190.84 170.44 190.84C169.658 190.84 168.989 191.089 168.434 191.588C167.89 192.087 167.578 192.778 167.499 193.662H173.381ZM181.56 189.514C182.693 189.514 183.611 189.86 184.314 190.551C185.017 191.231 185.368 192.217 185.368 193.509V199H183.838V193.73C183.838 192.801 183.606 192.092 183.141 191.605C182.676 191.106 182.042 190.857 181.237 190.857C180.421 190.857 179.769 191.112 179.282 191.622C178.806 192.132 178.568 192.874 178.568 193.849V199H177.021V189.684H178.568V191.01C178.874 190.534 179.288 190.166 179.809 189.905C180.342 189.644 180.925 189.514 181.56 189.514ZM191.198 194.274C191.198 197.164 193.153 199.136 195.533 199.136C196.961 199.136 198.032 198.456 198.61 197.708V203.488H201.007V189.582H198.61V190.806C198.032 190.075 196.995 189.446 195.584 189.446C193.153 189.446 191.198 191.384 191.198 194.274ZM198.61 194.291C198.61 196.11 197.352 197.062 196.111 197.062C194.887 197.062 193.629 196.093 193.629 194.274C193.629 192.455 194.887 191.52 196.111 191.52C197.352 191.52 198.61 192.472 198.61 194.291ZM212.222 189.582H209.825V194.767C209.825 196.28 209.009 197.096 207.717 197.096C206.459 197.096 205.626 196.28 205.626 194.767V189.582H203.246V195.107C203.246 197.691 204.827 199.119 207.02 199.119C208.193 199.119 209.23 198.609 209.825 197.81V199H212.222V189.582ZM215.709 191.418L217.545 187.134H215.046L214.077 191.418H215.709ZM228.143 189.582H225.746V194.767C225.746 196.28 224.93 197.096 223.638 197.096C222.38 197.096 221.547 196.28 221.547 194.767V189.582H219.167V195.107C219.167 197.691 220.748 199.119 222.941 199.119C224.114 199.119 225.151 198.609 225.746 197.81V199H228.143V189.582ZM237.087 199H239.467V193.475C239.467 190.874 237.903 189.446 235.71 189.446C234.503 189.446 233.483 189.956 232.871 190.755V189.582H230.491V199H232.871V193.798C232.871 192.285 233.704 191.469 234.996 191.469C236.254 191.469 237.087 192.285 237.087 193.798V199ZM245.777 191.384C247.001 191.384 247.987 192.166 248.021 193.407H243.55C243.737 192.115 244.638 191.384 245.777 191.384ZM250.248 196.042H247.681C247.375 196.671 246.814 197.181 245.794 197.181C244.604 197.181 243.652 196.399 243.533 195.005H250.418C250.469 194.699 250.486 194.393 250.486 194.087C250.486 191.282 248.565 189.429 245.845 189.429C243.057 189.429 241.119 191.316 241.119 194.291C241.119 197.249 243.108 199.153 245.845 199.153C248.174 199.153 249.738 197.776 250.248 196.042ZM97.5348 224.314C97.4668 220.863 92.2478 221.934 92.2478 220.217C92.2478 219.673 92.7068 219.316 93.5908 219.316C94.5258 219.316 95.1038 219.809 95.1718 220.54H97.4498C97.3138 218.67 95.9368 217.429 93.6588 217.429C91.3298 217.429 89.9358 218.687 89.9358 220.251C89.9358 223.702 95.2568 222.631 95.2568 224.314C95.2568 224.858 94.7468 225.283 93.8118 225.283C92.8598 225.283 92.1968 224.739 92.1118 224.025H89.7148C89.8168 225.776 91.4658 227.153 93.8288 227.153C96.1238 227.153 97.5348 225.929 97.5348 224.314ZM103.534 219.384C104.758 219.384 105.744 220.166 105.778 221.407H101.307C101.494 220.115 102.395 219.384 103.534 219.384ZM108.005 224.042H105.438C105.132 224.671 104.571 225.181 103.551 225.181C102.361 225.181 101.409 224.399 101.29 223.005H108.175C108.226 222.699 108.243 222.393 108.243 222.087C108.243 219.282 106.322 217.429 103.602 217.429C100.814 217.429 98.8764 219.316 98.8764 222.291C98.8764 225.249 100.865 227.153 103.602 227.153C105.931 227.153 107.495 225.776 108.005 224.042ZM101.511 215.185V216.885L105.421 215.1V213.162L101.511 215.185ZM109.369 222.257C109.369 225.198 111.273 227.153 113.653 227.153C115.149 227.153 116.22 226.439 116.781 225.623V227H119.178V217.582H116.781V218.925C116.22 218.143 115.183 217.429 113.67 217.429C111.273 217.429 109.369 219.316 109.369 222.257ZM116.781 222.291C116.781 224.076 115.591 225.062 114.282 225.062C113.007 225.062 111.8 224.042 111.8 222.257C111.8 220.472 113.007 219.52 114.282 219.52C115.591 219.52 116.781 220.506 116.781 222.291ZM128.098 227H130.478V221.475C130.478 218.874 128.914 217.446 126.721 217.446C125.514 217.446 124.494 217.956 123.882 218.755V217.582H121.502V227H123.882V221.798C123.882 220.285 124.715 219.469 126.007 219.469C127.265 219.469 128.098 220.285 128.098 221.798V227ZM132.129 222.291C132.129 225.249 134.067 227.153 136.787 227.153C139.133 227.153 140.714 225.827 141.224 223.821H138.657C138.368 224.671 137.756 225.113 136.77 225.113C135.444 225.113 134.56 224.127 134.56 222.291C134.56 220.455 135.444 219.452 136.77 219.452C137.756 219.452 138.385 219.962 138.657 220.761H141.224C140.714 218.653 139.133 217.429 136.787 217.429C134.067 217.429 132.129 219.333 132.129 222.291ZM147.014 219.384C148.238 219.384 149.224 220.166 149.258 221.407H144.787C144.974 220.115 145.875 219.384 147.014 219.384ZM151.485 224.042H148.918C148.612 224.671 148.051 225.181 147.031 225.181C145.841 225.181 144.889 224.399 144.77 223.005H151.655C151.706 222.699 151.723 222.393 151.723 222.087C151.723 219.282 149.802 217.429 147.082 217.429C144.294 217.429 142.356 219.316 142.356 222.291C142.356 225.249 144.345 227.153 147.082 227.153C149.411 227.153 150.975 225.776 151.485 224.042ZM156.899 222.257C156.899 225.198 158.803 227.153 161.2 227.153C162.679 227.153 163.733 226.473 164.294 225.606V227H166.708V214.42H164.294V218.891C163.648 218.007 162.458 217.429 161.217 217.429C158.803 217.429 156.899 219.316 156.899 222.257ZM164.311 222.291C164.311 224.076 163.121 225.062 161.812 225.062C160.537 225.062 159.33 224.042 159.33 222.257C159.33 220.472 160.537 219.52 161.812 219.52C163.121 219.52 164.311 220.506 164.311 222.291ZM173.078 219.384C174.302 219.384 175.288 220.166 175.322 221.407H170.851C171.038 220.115 171.939 219.384 173.078 219.384ZM177.549 224.042H174.982C174.676 224.671 174.115 225.181 173.095 225.181C171.905 225.181 170.953 224.399 170.834 223.005H177.719C177.77 222.699 177.787 222.393 177.787 222.087C177.787 219.282 175.866 217.429 173.146 217.429C170.358 217.429 168.42 219.316 168.42 222.291C168.42 225.249 170.409 227.153 173.146 227.153C175.475 227.153 177.039 225.776 177.549 224.042ZM187.587 224.161L185.156 217.582H182.487L186.261 226.762L184.221 231.454H186.754L192.585 217.582H190.052L187.587 224.161ZM202.963 222.291C202.963 219.316 200.838 217.429 198.118 217.429C195.398 217.429 193.273 219.316 193.273 222.291C193.273 225.249 195.33 227.153 198.05 227.153C200.787 227.153 202.963 225.249 202.963 222.291ZM195.687 222.291C195.687 220.404 196.826 219.503 198.084 219.503C199.342 219.503 200.515 220.404 200.515 222.291C200.515 224.161 199.308 225.079 198.05 225.079C196.775 225.079 195.687 224.161 195.687 222.291ZM204.097 222.257C204.097 225.198 206.001 227.153 208.398 227.153C209.877 227.153 210.948 226.422 211.509 225.606V227.068C211.509 228.819 210.489 229.567 209.18 229.567C207.99 229.567 207.106 229.006 206.868 228.156H204.505C204.743 230.315 206.596 231.641 209.248 231.641C212.342 231.641 213.906 229.618 213.906 227.068V217.582H211.509V218.925C210.948 218.109 209.877 217.429 208.398 217.429C206.001 217.429 204.097 219.316 204.097 222.257ZM211.509 222.291C211.509 224.076 210.319 225.062 209.01 225.062C207.735 225.062 206.528 224.042 206.528 222.257C206.528 220.472 207.735 219.52 209.01 219.52C210.319 219.52 211.509 220.506 211.509 222.291ZM215.619 222.257C215.619 225.198 217.523 227.153 219.903 227.153C221.399 227.153 222.47 226.439 223.031 225.623V227H225.428V217.582H223.031V218.925C222.47 218.143 221.433 217.429 219.92 217.429C217.523 217.429 215.619 219.316 215.619 222.257ZM223.031 222.291C223.031 224.076 221.841 225.062 220.532 225.062C219.257 225.062 218.05 224.042 218.05 222.257C218.05 220.472 219.257 219.52 220.532 219.52C221.841 219.52 223.031 220.506 223.031 222.291ZM231.225 218.313H233.469C233.469 217.31 234.081 216.715 235.118 216.715C236.121 216.715 236.733 217.327 236.733 218.313C236.75 219.843 235.424 220.166 233.656 220.166H232.891L232.976 223.056H235.067L235.135 221.747C237.396 221.747 239.045 220.625 239.045 218.33C239.045 216.035 237.43 214.726 235.118 214.726C232.636 214.726 231.191 216.256 231.225 218.313ZM235.458 225.725C235.458 224.943 234.846 224.331 234.013 224.331C233.146 224.331 232.534 224.943 232.534 225.725C232.534 226.507 233.146 227.119 234.013 227.119C234.846 227.119 235.458 226.507 235.458 225.725ZM244.474 216.12V214.709H247.67V227H246.106V216.12H244.474ZM250.327 220.727C250.327 218.778 250.645 217.259 251.279 216.171C251.914 215.072 253.025 214.522 254.611 214.522C256.187 214.522 257.292 215.072 257.926 216.171C258.561 217.259 258.878 218.778 258.878 220.727C258.878 222.71 258.561 224.252 257.926 225.351C257.292 226.45 256.187 227 254.611 227C253.025 227 251.914 226.45 251.279 225.351C250.645 224.252 250.327 222.71 250.327 220.727ZM257.348 220.727C257.348 219.741 257.28 218.908 257.144 218.228C257.02 217.537 256.753 216.981 256.345 216.562C255.949 216.143 255.371 215.933 254.611 215.933C253.841 215.933 253.251 216.143 252.843 216.562C252.447 216.981 252.18 217.537 252.044 218.228C251.92 218.908 251.857 219.741 251.857 220.727C251.857 221.747 251.92 222.603 252.044 223.294C252.18 223.985 252.447 224.541 252.843 224.96C253.251 225.379 253.841 225.589 254.611 225.589C255.371 225.589 255.949 225.379 256.345 224.96C256.753 224.541 257.02 223.985 257.144 223.294C257.28 222.603 257.348 221.747 257.348 220.727ZM93.097 245.514C93.8223 245.514 94.4683 245.667 95.035 245.973C95.6016 246.268 96.0493 246.715 96.378 247.316C96.7066 247.917 96.871 248.648 96.871 249.509V255H95.341V249.73C95.341 248.801 95.1086 248.092 94.644 247.605C94.1906 247.106 93.573 246.857 92.791 246.857C91.9863 246.857 91.346 247.118 90.87 247.639C90.394 248.149 90.156 248.891 90.156 249.866V255H88.626V249.73C88.626 248.801 88.3936 248.092 87.929 247.605C87.4756 247.106 86.858 246.857 86.076 246.857C85.2713 246.857 84.631 247.118 84.155 247.639C83.679 248.149 83.441 248.891 83.441 249.866V255H81.894V245.684H83.441V247.027C83.747 246.54 84.155 246.166 84.665 245.905C85.1863 245.644 85.7586 245.514 86.382 245.514C87.164 245.514 87.8553 245.69 88.456 246.041C89.0566 246.392 89.5043 246.908 89.799 247.588C90.0596 246.931 90.4903 246.421 91.091 246.058C91.6916 245.695 92.3603 245.514 93.097 245.514ZM100.208 244.171C99.9129 244.171 99.6636 244.069 99.4596 243.865C99.2556 243.661 99.1536 243.412 99.1536 243.117C99.1536 242.822 99.2556 242.573 99.4596 242.369C99.6636 242.165 99.9129 242.063 100.208 242.063C100.491 242.063 100.729 242.165 100.922 242.369C101.126 242.573 101.228 242.822 101.228 243.117C101.228 243.412 101.126 243.661 100.922 243.865C100.729 244.069 100.491 244.171 100.208 244.171ZM100.956 245.684V255H99.4086V245.684H100.956ZM108.131 245.514C109.265 245.514 110.183 245.86 110.885 246.551C111.588 247.231 111.939 248.217 111.939 249.509V255H110.409V249.73C110.409 248.801 110.177 248.092 109.712 247.605C109.248 247.106 108.613 246.857 107.808 246.857C106.992 246.857 106.341 247.112 105.853 247.622C105.377 248.132 105.139 248.874 105.139 249.849V255H103.592V245.684H105.139V247.01C105.445 246.534 105.859 246.166 106.38 245.905C106.913 245.644 107.497 245.514 108.131 245.514ZM122.728 245.684V255H121.181V253.623C120.887 254.099 120.473 254.473 119.94 254.745C119.419 255.006 118.841 255.136 118.206 255.136C117.481 255.136 116.829 254.989 116.251 254.694C115.673 254.388 115.214 253.935 114.874 253.334C114.546 252.733 114.381 252.002 114.381 251.141V245.684H115.911V250.937C115.911 251.855 116.144 252.563 116.608 253.062C117.073 253.549 117.708 253.793 118.512 253.793C119.34 253.793 119.991 253.538 120.467 253.028C120.943 252.518 121.181 251.776 121.181 250.801V245.684H122.728ZM127.227 246.959V252.45C127.227 252.903 127.324 253.226 127.516 253.419C127.709 253.6 128.043 253.691 128.519 253.691H129.658V255H128.264C127.403 255 126.757 254.802 126.326 254.405C125.896 254.008 125.68 253.357 125.68 252.45V246.959H124.473V245.684H125.68V243.338H127.227V245.684H129.658V246.959H127.227ZM140.033 249.985C140.033 250.28 140.016 250.591 139.982 250.92H132.536C132.592 251.838 132.904 252.558 133.471 253.079C134.049 253.589 134.746 253.844 135.562 253.844C136.23 253.844 136.786 253.691 137.228 253.385C137.681 253.068 137.998 252.648 138.18 252.127H139.846C139.596 253.022 139.098 253.753 138.35 254.32C137.602 254.875 136.672 255.153 135.562 255.153C134.678 255.153 133.884 254.955 133.182 254.558C132.49 254.161 131.946 253.6 131.55 252.875C131.153 252.138 130.955 251.288 130.955 250.325C130.955 249.362 131.147 248.517 131.533 247.792C131.918 247.067 132.456 246.511 133.148 246.126C133.85 245.729 134.655 245.531 135.562 245.531C136.446 245.531 137.228 245.724 137.908 246.109C138.588 246.494 139.109 247.027 139.472 247.707C139.846 248.376 140.033 249.135 140.033 249.985ZM138.435 249.662C138.435 249.073 138.304 248.568 138.044 248.149C137.783 247.718 137.426 247.395 136.973 247.18C136.531 246.953 136.038 246.84 135.494 246.84C134.712 246.84 134.043 247.089 133.488 247.588C132.944 248.087 132.632 248.778 132.553 249.662H138.435ZM145.373 255.153C144.659 255.153 144.018 255.034 143.452 254.796C142.885 254.547 142.437 254.207 142.109 253.776C141.78 253.334 141.599 252.83 141.565 252.263H143.163C143.208 252.728 143.423 253.107 143.809 253.402C144.205 253.697 144.721 253.844 145.356 253.844C145.945 253.844 146.41 253.714 146.75 253.453C147.09 253.192 147.26 252.864 147.26 252.467C147.26 252.059 147.078 251.759 146.716 251.566C146.353 251.362 145.792 251.164 145.033 250.971C144.341 250.79 143.775 250.608 143.333 250.427C142.902 250.234 142.528 249.957 142.211 249.594C141.905 249.22 141.752 248.733 141.752 248.132C141.752 247.656 141.893 247.22 142.177 246.823C142.46 246.426 142.862 246.115 143.384 245.888C143.905 245.65 144.5 245.531 145.169 245.531C146.2 245.531 147.033 245.792 147.668 246.313C148.302 246.834 148.642 247.548 148.688 248.455H147.141C147.107 247.968 146.908 247.577 146.546 247.282C146.194 246.987 145.718 246.84 145.118 246.84C144.562 246.84 144.12 246.959 143.792 247.197C143.463 247.435 143.299 247.747 143.299 248.132C143.299 248.438 143.395 248.693 143.588 248.897C143.792 249.09 144.041 249.248 144.336 249.373C144.642 249.486 145.061 249.617 145.594 249.764C146.262 249.945 146.806 250.127 147.226 250.308C147.645 250.478 148.002 250.739 148.297 251.09C148.603 251.441 148.761 251.9 148.773 252.467C148.773 252.977 148.631 253.436 148.348 253.844C148.064 254.252 147.662 254.575 147.141 254.813C146.631 255.04 146.041 255.153 145.373 255.153ZM154.911 250.308C154.911 249.356 155.103 248.523 155.489 247.809C155.874 247.084 156.401 246.523 157.07 246.126C157.75 245.729 158.509 245.531 159.348 245.531C160.073 245.531 160.747 245.701 161.371 246.041C161.994 246.37 162.47 246.806 162.799 247.35V242.42H164.363V255H162.799V253.249C162.493 253.804 162.039 254.263 161.439 254.626C160.838 254.977 160.135 255.153 159.331 255.153C158.503 255.153 157.75 254.949 157.07 254.541C156.401 254.133 155.874 253.561 155.489 252.824C155.103 252.087 154.911 251.249 154.911 250.308ZM162.799 250.325C162.799 249.622 162.657 249.01 162.374 248.489C162.09 247.968 161.705 247.571 161.218 247.299C160.742 247.016 160.215 246.874 159.637 246.874C159.059 246.874 158.532 247.01 158.056 247.282C157.58 247.554 157.2 247.951 156.917 248.472C156.633 248.993 156.492 249.605 156.492 250.308C156.492 251.022 156.633 251.645 156.917 252.178C157.2 252.699 157.58 253.102 158.056 253.385C158.532 253.657 159.059 253.793 159.637 253.793C160.215 253.793 160.742 253.657 161.218 253.385C161.705 253.102 162.09 252.699 162.374 252.178C162.657 251.645 162.799 251.028 162.799 250.325ZM175.477 249.985C175.477 250.28 175.46 250.591 175.426 250.92H167.98C168.037 251.838 168.348 252.558 168.915 253.079C169.493 253.589 170.19 253.844 171.006 253.844C171.675 253.844 172.23 253.691 172.672 253.385C173.125 253.068 173.443 252.648 173.624 252.127H175.29C175.041 253.022 174.542 253.753 173.794 254.32C173.046 254.875 172.117 255.153 171.006 255.153C170.122 255.153 169.329 254.955 168.626 254.558C167.935 254.161 167.391 253.6 166.994 252.875C166.597 252.138 166.399 251.288 166.399 250.325C166.399 249.362 166.592 248.517 166.977 247.792C167.362 247.067 167.901 246.511 168.592 246.126C169.295 245.729 170.099 245.531 171.006 245.531C171.89 245.531 172.672 245.724 173.352 246.109C174.032 246.494 174.553 247.027 174.916 247.707C175.29 248.376 175.477 249.135 175.477 249.985ZM173.879 249.662C173.879 249.073 173.749 248.568 173.488 248.149C173.227 247.718 172.87 247.395 172.417 247.18C171.975 246.953 171.482 246.84 170.938 246.84C170.156 246.84 169.487 247.089 168.932 247.588C168.388 248.087 168.076 248.778 167.997 249.662H173.879ZM183.598 247.197C183.87 246.664 184.256 246.251 184.754 245.956C185.264 245.661 185.882 245.514 186.607 245.514V247.112H186.199C184.465 247.112 183.598 248.053 183.598 249.934V255H182.051V245.684H183.598V247.197ZM196.893 249.985C196.893 250.28 196.876 250.591 196.842 250.92H189.396C189.453 251.838 189.764 252.558 190.331 253.079C190.909 253.589 191.606 253.844 192.422 253.844C193.091 253.844 193.646 253.691 194.088 253.385C194.541 253.068 194.859 252.648 195.04 252.127H196.706C196.457 253.022 195.958 253.753 195.21 254.32C194.462 254.875 193.533 255.153 192.422 255.153C191.538 255.153 190.745 254.955 190.042 254.558C189.351 254.161 188.807 253.6 188.41 252.875C188.013 252.138 187.815 251.288 187.815 250.325C187.815 249.362 188.008 248.517 188.393 247.792C188.778 247.067 189.317 246.511 190.008 246.126C190.711 245.729 191.515 245.531 192.422 245.531C193.306 245.531 194.088 245.724 194.768 246.109C195.448 246.494 195.969 247.027 196.332 247.707C196.706 248.376 196.893 249.135 196.893 249.985ZM195.295 249.662C195.295 249.073 195.165 248.568 194.904 248.149C194.643 247.718 194.286 247.395 193.833 247.18C193.391 246.953 192.898 246.84 192.354 246.84C191.572 246.84 190.903 247.089 190.348 247.588C189.804 248.087 189.492 248.778 189.413 249.662H195.295ZM200.482 242.42V255H198.935V242.42H200.482ZM202.541 250.308C202.541 249.356 202.733 248.523 203.119 247.809C203.504 247.084 204.031 246.523 204.7 246.126C205.38 245.729 206.133 245.531 206.961 245.531C207.777 245.531 208.485 245.707 209.086 246.058C209.686 246.409 210.134 246.851 210.429 247.384V245.684H211.993V255H210.429V253.266C210.123 253.81 209.664 254.263 209.052 254.626C208.451 254.977 207.748 255.153 206.944 255.153C206.116 255.153 205.368 254.949 204.7 254.541C204.031 254.133 203.504 253.561 203.119 252.824C202.733 252.087 202.541 251.249 202.541 250.308ZM210.429 250.325C210.429 249.622 210.287 249.01 210.004 248.489C209.72 247.968 209.335 247.571 208.848 247.299C208.372 247.016 207.845 246.874 207.267 246.874C206.689 246.874 206.162 247.01 205.686 247.282C205.21 247.554 204.83 247.951 204.547 248.472C204.263 248.993 204.122 249.605 204.122 250.308C204.122 251.022 204.263 251.645 204.547 252.178C204.83 252.699 205.21 253.102 205.686 253.385C206.162 253.657 206.689 253.793 207.267 253.793C207.845 253.793 208.372 253.657 208.848 253.385C209.335 253.102 209.72 252.699 210.004 252.178C210.287 251.645 210.429 251.028 210.429 250.325ZM219.469 255L217.259 251.532L215.134 255H213.519L216.528 250.376L213.519 245.684H215.27L217.48 249.135L219.588 245.684H221.203L218.211 250.291L221.22 255H219.469ZM222.164 250.308C222.164 249.356 222.356 248.523 222.742 247.809C223.127 247.084 223.654 246.523 224.323 246.126C225.003 245.729 225.756 245.531 226.584 245.531C227.4 245.531 228.108 245.707 228.709 246.058C229.309 246.409 229.757 246.851 230.052 247.384V245.684H231.616V255H230.052V253.266C229.746 253.81 229.287 254.263 228.675 254.626C228.074 254.977 227.371 255.153 226.567 255.153C225.739 255.153 224.991 254.949 224.323 254.541C223.654 254.133 223.127 253.561 222.742 252.824C222.356 252.087 222.164 251.249 222.164 250.308ZM230.052 250.325C230.052 249.622 229.91 249.01 229.627 248.489C229.343 247.968 228.958 247.571 228.471 247.299C227.995 247.016 227.468 246.874 226.89 246.874C226.312 246.874 225.785 247.01 225.309 247.282C224.833 247.554 224.453 247.951 224.17 248.472C223.886 248.993 223.745 249.605 223.745 250.308C223.745 251.022 223.886 251.645 224.17 252.178C224.453 252.699 224.833 253.102 225.309 253.385C225.785 253.657 226.312 253.793 226.89 253.793C227.468 253.793 227.995 253.657 228.471 253.385C228.958 253.102 229.343 252.699 229.627 252.178C229.91 251.645 230.052 251.028 230.052 250.325ZM236.117 246.959V252.45C236.117 252.903 236.213 253.226 236.406 253.419C236.599 253.6 236.933 253.691 237.409 253.691H238.548V255H237.154C236.293 255 235.647 254.802 235.216 254.405C234.785 254.008 234.57 253.357 234.57 252.45V246.959H233.363V245.684H234.57V243.338H236.117V245.684H238.548V246.959H236.117ZM241.221 244.171C240.927 244.171 240.677 244.069 240.473 243.865C240.269 243.661 240.167 243.412 240.167 243.117C240.167 242.822 240.269 242.573 240.473 242.369C240.677 242.165 240.927 242.063 241.221 242.063C241.505 242.063 241.743 242.165 241.935 242.369C242.139 242.573 242.241 242.822 242.241 243.117C242.241 243.412 242.139 243.661 241.935 243.865C241.743 244.069 241.505 244.171 241.221 244.171ZM241.969 245.684V255H240.422V245.684H241.969ZM248.669 255.153C247.796 255.153 247.003 254.955 246.289 254.558C245.586 254.161 245.031 253.6 244.623 252.875C244.226 252.138 244.028 251.288 244.028 250.325C244.028 249.373 244.232 248.534 244.64 247.809C245.059 247.072 245.626 246.511 246.34 246.126C247.054 245.729 247.853 245.531 248.737 245.531C249.621 245.531 250.42 245.729 251.134 246.126C251.848 246.511 252.409 247.067 252.817 247.792C253.236 248.517 253.446 249.362 253.446 250.325C253.446 251.288 253.231 252.138 252.8 252.875C252.381 253.6 251.808 254.161 251.083 254.558C250.358 254.955 249.553 255.153 248.669 255.153ZM248.669 253.793C249.224 253.793 249.746 253.663 250.233 253.402C250.72 253.141 251.111 252.75 251.406 252.229C251.712 251.708 251.865 251.073 251.865 250.325C251.865 249.577 251.718 248.942 251.423 248.421C251.128 247.9 250.743 247.514 250.267 247.265C249.791 247.004 249.275 246.874 248.72 246.874C248.153 246.874 247.632 247.004 247.156 247.265C246.691 247.514 246.317 247.9 246.034 248.421C245.751 248.942 245.609 249.577 245.609 250.325C245.609 251.084 245.745 251.725 246.017 252.246C246.3 252.767 246.674 253.158 247.139 253.419C247.604 253.668 248.114 253.793 248.669 253.793ZM260.019 245.514C261.152 245.514 262.07 245.86 262.773 246.551C263.476 247.231 263.827 248.217 263.827 249.509V255H262.297V249.73C262.297 248.801 262.065 248.092 261.6 247.605C261.135 247.106 260.501 246.857 259.696 246.857C258.88 246.857 258.228 247.112 257.741 247.622C257.265 248.132 257.027 248.874 257.027 249.849V255H255.48V245.684H257.027V247.01C257.333 246.534 257.747 246.166 258.268 245.905C258.801 245.644 259.384 245.514 260.019 245.514ZM267.952 252.858L266.048 257.431H265.011L266.252 252.858H267.952ZM84.4368 274.942V273.582H82.0568V287.488H84.4368V281.657C85.0148 282.422 86.0688 283.153 87.5478 283.153C89.9618 283.153 91.8488 281.198 91.8488 278.257C91.8488 275.316 89.9618 273.429 87.5478 273.429C86.0858 273.429 84.9978 274.143 84.4368 274.942ZM89.4178 278.257C89.4178 280.042 88.2108 281.062 86.9188 281.062C85.6438 281.062 84.4368 280.076 84.4368 278.291C84.4368 276.506 85.6438 275.52 86.9188 275.52C88.2108 275.52 89.4178 276.472 89.4178 278.257ZM102.673 278.291C102.673 275.316 100.548 273.429 97.8283 273.429C95.1083 273.429 92.9833 275.316 92.9833 278.291C92.9833 281.249 95.0403 283.153 97.7603 283.153C100.497 283.153 102.673 281.249 102.673 278.291ZM95.3973 278.291C95.3973 276.404 96.5363 275.503 97.7943 275.503C99.0523 275.503 100.225 276.404 100.225 278.291C100.225 280.161 99.0183 281.079 97.7603 281.079C96.4853 281.079 95.3973 280.161 95.3973 278.291ZM113.31 273.582H110.913V278.767C110.913 280.28 110.097 281.096 108.805 281.096C107.547 281.096 106.714 280.28 106.714 278.767V273.582H104.334V279.107C104.334 281.691 105.915 283.119 108.108 283.119C109.281 283.119 110.318 282.609 110.913 281.81V283H113.31V273.582ZM118.038 278.308C118.038 276.489 118.888 275.945 120.299 275.945H120.928V273.446C119.619 273.446 118.633 274.075 118.038 275.044V273.582H115.658V283H118.038V278.308ZM135.473 273.582H133.076V278.767C133.076 280.28 132.26 281.096 130.968 281.096C129.71 281.096 128.877 280.28 128.877 278.767V273.582H126.497V279.107C126.497 281.691 128.078 283.119 130.271 283.119C131.444 283.119 132.481 282.609 133.076 281.81V283H135.473V273.582ZM144.417 283H146.797V277.475C146.797 274.874 145.233 273.446 143.04 273.446C141.833 273.446 140.813 273.956 140.201 274.755V273.582H137.821V283H140.201V277.798C140.201 276.285 141.034 275.469 142.326 275.469C143.584 275.469 144.417 276.285 144.417 277.798V283ZM166.286 283H168.666V277.475C168.666 274.874 167.068 273.446 164.807 273.446C163.43 273.446 162.189 274.177 161.577 275.248C160.931 274.075 159.724 273.446 158.262 273.446C157.089 273.446 156.086 273.939 155.491 274.721V273.582H153.111V283H155.491V277.798C155.491 276.302 156.324 275.52 157.616 275.52C158.874 275.52 159.707 276.302 159.707 277.798V283H162.087V277.798C162.087 276.302 162.92 275.52 164.195 275.52C165.453 275.52 166.286 276.302 166.286 277.798V283ZM170.313 278.257C170.313 281.198 172.217 283.153 174.597 283.153C176.093 283.153 177.164 282.439 177.725 281.623V283H180.122V273.582H177.725V274.925C177.164 274.143 176.127 273.429 174.614 273.429C172.217 273.429 170.313 275.316 170.313 278.257ZM177.725 278.291C177.725 280.076 176.535 281.062 175.226 281.062C173.951 281.062 172.744 280.042 172.744 278.257C172.744 276.472 173.951 275.52 175.226 275.52C176.535 275.52 177.725 276.506 177.725 278.291ZM187.648 283H190.334L187.206 278.274L190.3 273.582H187.75L186.016 276.489L184.095 273.582H181.409L184.52 278.274L181.443 283H183.993L185.71 280.076L187.648 283ZM191.627 283H194.007V273.582H191.627V283ZM192.834 272.46C193.667 272.46 194.296 271.848 194.296 271.066C194.296 270.284 193.667 269.672 192.834 269.672C191.984 269.672 191.372 270.284 191.372 271.066C191.372 271.848 191.984 272.46 192.834 272.46ZM209.534 283H211.914V277.475C211.914 274.874 210.316 273.446 208.055 273.446C206.678 273.446 205.437 274.177 204.825 275.248C204.179 274.075 202.972 273.446 201.51 273.446C200.337 273.446 199.334 273.939 198.739 274.721V273.582H196.359V283H198.739V277.798C198.739 276.302 199.572 275.52 200.864 275.52C202.122 275.52 202.955 276.302 202.955 277.798V283H205.335V277.798C205.335 276.302 206.168 275.52 207.443 275.52C208.701 275.52 209.534 276.302 209.534 277.798V283ZM223.063 273.582H220.666V278.767C220.666 280.28 219.85 281.096 218.558 281.096C217.3 281.096 216.467 280.28 216.467 278.767V273.582H214.087V279.107C214.087 281.691 215.668 283.119 217.861 283.119C219.034 283.119 220.071 282.609 220.666 281.81V283H223.063V273.582ZM238.586 283H240.966V277.475C240.966 274.874 239.368 273.446 237.107 273.446C235.73 273.446 234.489 274.177 233.877 275.248C233.231 274.075 232.024 273.446 230.562 273.446C229.389 273.446 228.386 273.939 227.791 274.721V273.582H225.411V283H227.791V277.798C227.791 276.302 228.624 275.52 229.916 275.52C231.174 275.52 232.007 276.302 232.007 277.798V283H234.387V277.798C234.387 276.302 235.22 275.52 236.495 275.52C237.753 275.52 238.586 276.302 238.586 277.798V283ZM246.664 278.257C246.664 281.198 248.568 283.153 250.965 283.153C252.444 283.153 253.498 282.473 254.059 281.606V283H256.473V270.42H254.059V274.891C253.413 274.007 252.223 273.429 250.982 273.429C248.568 273.429 246.664 275.316 246.664 278.257ZM254.076 278.291C254.076 280.076 252.886 281.062 251.577 281.062C250.302 281.062 249.095 280.042 249.095 278.257C249.095 276.472 250.302 275.52 251.577 275.52C252.886 275.52 254.076 276.506 254.076 278.291ZM262.843 275.384C264.067 275.384 265.053 276.166 265.087 277.407H260.616C260.803 276.115 261.704 275.384 262.843 275.384ZM267.314 280.042H264.747C264.441 280.671 263.88 281.181 262.86 281.181C261.67 281.181 260.718 280.399 260.599 279.005H267.484C267.535 278.699 267.552 278.393 267.552 278.087C267.552 275.282 265.631 273.429 262.911 273.429C260.123 273.429 258.185 275.316 258.185 278.291C258.185 281.249 260.174 283.153 262.911 283.153C265.24 283.153 266.804 281.776 267.314 280.042ZM139.144 306.257C139.144 309.198 141.048 311.153 143.445 311.153C144.924 311.153 145.978 310.473 146.539 309.606V311H148.953V298.42H146.539V302.891C145.893 302.007 144.703 301.429 143.462 301.429C141.048 301.429 139.144 303.316 139.144 306.257ZM146.556 306.291C146.556 308.076 145.366 309.062 144.057 309.062C142.782 309.062 141.575 308.042 141.575 306.257C141.575 304.472 142.782 303.52 144.057 303.52C145.366 303.52 146.556 304.506 146.556 306.291ZM155.323 303.384C156.547 303.384 157.533 304.166 157.567 305.407H153.096C153.283 304.115 154.184 303.384 155.323 303.384ZM159.794 308.042H157.227C156.921 308.671 156.36 309.181 155.34 309.181C154.15 309.181 153.198 308.399 153.079 307.005H159.964C160.015 306.699 160.032 306.393 160.032 306.087C160.032 303.282 158.111 301.429 155.391 301.429C152.603 301.429 150.665 303.316 150.665 306.291C150.665 309.249 152.654 311.153 155.391 311.153C157.72 311.153 159.284 309.776 159.794 308.042ZM153.3 299.185V300.885L157.21 299.1V297.162L153.3 299.185ZM162.143 308.076C162.143 310.235 163.35 311 165.152 311H166.648V308.994H165.543C164.795 308.994 164.54 308.722 164.54 308.093V303.537H166.648V301.582H164.54V299.253H162.143V301.582H161.021V303.537H162.143V308.076ZM172.406 303.384C173.63 303.384 174.616 304.166 174.65 305.407H170.179C170.366 304.115 171.267 303.384 172.406 303.384ZM176.877 308.042H174.31C174.004 308.671 173.443 309.181 172.423 309.181C171.233 309.181 170.281 308.399 170.162 307.005H177.047C177.098 306.699 177.115 306.393 177.115 306.087C177.115 303.282 175.194 301.429 172.474 301.429C169.686 301.429 167.748 303.316 167.748 306.291C167.748 309.249 169.737 311.153 172.474 311.153C174.803 311.153 176.367 309.776 176.877 308.042ZM185.448 311H187.828V305.475C187.828 302.874 186.264 301.446 184.071 301.446C182.864 301.446 181.844 301.956 181.232 302.755V301.582H178.852V311H181.232V305.798C181.232 304.285 182.065 303.469 183.357 303.469C184.615 303.469 185.448 304.285 185.448 305.798V311ZM190.465 308.076C190.465 310.235 191.672 311 193.474 311H194.97V308.994H193.865C193.117 308.994 192.862 308.722 192.862 308.093V303.537H194.97V301.582H192.862V299.253H190.465V301.582H189.343V303.537H190.465V308.076ZM200.728 303.384C201.952 303.384 202.938 304.166 202.972 305.407H198.501C198.688 304.115 199.589 303.384 200.728 303.384ZM205.199 308.042H202.632C202.326 308.671 201.765 309.181 200.745 309.181C199.555 309.181 198.603 308.399 198.484 307.005H205.369C205.42 306.699 205.437 306.393 205.437 306.087C205.437 303.282 203.516 301.429 200.796 301.429C198.008 301.429 196.07 303.316 196.07 306.291C196.07 309.249 198.059 311.153 200.796 311.153C203.125 311.153 204.689 309.776 205.199 308.042ZM209.673 309.725C209.673 308.943 209.061 308.331 208.228 308.331C207.361 308.331 206.749 308.943 206.749 309.725C206.749 310.507 207.361 311.119 208.228 311.119C209.061 311.119 209.673 310.507 209.673 309.725Z" fill="#1A00E1"/>
</svg>
