<svg width="356" height="363" viewBox="0 0 356 363" fill="none" xmlns="http://www.w3.org/2000/svg">
<path fill-rule="evenodd" clip-rule="evenodd" d="M179.363 8.05241C272.165 7.45857 330.431 92.3711 351.829 174.073C368.254 236.783 321.985 292.752 263.598 329.669C209.209 364.059 139.042 377.07 84.1747 343.308C24.0028 306.282 -3.86081 240.001 14.2445 176.233C37.0417 95.9408 87.7379 8.63872 179.363 8.05241Z" fill="#1A00E1"/>
<path fill-rule="evenodd" clip-rule="evenodd" d="M173.303 3.0031C266.105 2.40926 324.371 87.3218 345.77 169.024C362.194 231.734 315.926 287.702 257.539 324.62C203.149 359.009 132.983 372.021 78.1151 338.259C17.9432 301.233 -9.92038 234.952 8.18497 171.184C30.9821 90.8915 81.6783 3.5894 173.303 3.0031Z" fill="white" stroke="#FF0090" stroke-width="4.03957"/>
<path d="M127.155 82.8047C127.155 83.8035 127.944 84.5933 128.943 84.5933H137.352C138.257 84.5933 138.978 83.8732 138.978 82.9673C138.978 82.0615 138.257 81.3414 137.352 81.3414H130.732V69.9832C130.732 68.9844 129.942 68.1946 128.943 68.1946C127.944 68.1946 127.155 68.9844 127.155 69.9832V82.8047ZM141.698 82.9441C141.698 83.9429 142.488 84.7326 143.487 84.7326C144.486 84.7326 145.275 83.9429 145.275 82.9441V69.9832C145.275 68.9844 144.486 68.1946 143.487 68.1946C142.488 68.1946 141.698 68.9844 141.698 69.9832V82.9441ZM149.339 82.9441C149.339 83.9429 150.129 84.7326 151.127 84.7326C152.126 84.7326 152.916 83.9429 152.916 82.9441V79.3903H155.773L159.257 83.8035C159.675 84.3378 160.209 84.7326 161.022 84.7326C161.882 84.7326 162.718 84.0823 162.718 83.0835C162.718 82.526 162.486 82.1544 162.137 81.713L159.652 78.6935C161.626 77.8805 162.904 76.301 162.904 73.746V73.6996C162.904 72.1665 162.416 70.889 161.51 69.9832C160.442 68.9147 158.839 68.334 156.772 68.334H151.127C150.129 68.334 149.339 69.1237 149.339 70.1225V82.9441ZM152.916 76.2314V71.5626H156.47C158.212 71.5626 159.28 72.3524 159.28 73.8854V73.9318C159.28 75.3023 158.281 76.2314 156.539 76.2314H152.916ZM167.913 84.5933H177.041C177.924 84.5933 178.644 83.8964 178.644 83.0138C178.644 82.1311 177.924 81.4111 177.041 81.4111H169.678V77.9966H175.88C176.763 77.9966 177.483 77.2998 177.483 76.4172C177.483 75.5345 176.763 74.8145 175.88 74.8145H169.678V71.5162H176.925C177.808 71.5162 178.528 70.8193 178.528 69.9367C178.528 69.054 177.808 68.334 176.925 68.334H167.913C166.914 68.334 166.124 69.1237 166.124 70.1225V82.8047C166.124 83.8035 166.914 84.5933 167.913 84.5933ZM195.431 84.8488C199.798 84.8488 202.562 82.4331 202.562 77.5089V69.9832C202.562 68.9844 201.772 68.1946 200.773 68.1946C199.775 68.1946 198.985 68.9844 198.985 69.9832V77.6482C198.985 80.2265 197.661 81.5505 195.478 81.5505C193.294 81.5505 191.97 80.18 191.97 77.5321V69.9832C191.97 68.9844 191.18 68.1946 190.182 68.1946C189.183 68.1946 188.393 68.9844 188.393 69.9832V77.625C188.393 82.4099 191.064 84.8488 195.431 84.8488ZM206.205 82.9673C206.205 83.9429 206.995 84.7326 207.971 84.7326C208.946 84.7326 209.736 83.9429 209.736 82.9673V74.257L216.89 83.6409C217.378 84.2681 217.889 84.6862 218.748 84.6862H218.864C219.863 84.6862 220.653 83.8964 220.653 82.8977V69.9599C220.653 68.9844 219.863 68.1946 218.888 68.1946C217.912 68.1946 217.122 68.9844 217.122 69.9599V78.3451L210.224 69.2863C209.736 68.6592 209.225 68.2411 208.366 68.2411H207.994C206.995 68.2411 206.205 69.0308 206.205 70.0296V82.9673ZM132.916 110.805C132.916 111.804 133.706 112.593 134.705 112.593H143.113C144.019 112.593 144.739 111.873 144.739 110.967C144.739 110.061 144.019 109.341 143.113 109.341H136.493V97.9832C136.493 96.9844 135.704 96.1946 134.705 96.1946C133.706 96.1946 132.916 96.9844 132.916 97.9832V110.805ZM147.46 110.944C147.46 111.943 148.25 112.733 149.248 112.733C150.247 112.733 151.037 111.943 151.037 110.944V97.9832C151.037 96.9844 150.247 96.1946 149.248 96.1946C148.25 96.1946 147.46 96.9844 147.46 97.9832V110.944ZM161.465 112.849H161.697C162.673 112.849 163.346 112.315 163.718 111.432L169.037 98.7032C169.13 98.4942 169.223 98.1922 169.223 97.9135C169.223 96.9379 168.433 96.1946 167.457 96.1946C166.598 96.1946 165.971 96.7521 165.739 97.3328L161.627 107.971L157.562 97.4489C157.284 96.7289 156.68 96.1946 155.751 96.1946C154.752 96.1946 153.962 96.9611 153.962 97.9599C153.962 98.2619 154.055 98.5406 154.171 98.8193L159.444 111.432C159.816 112.315 160.489 112.849 161.465 112.849ZM171.954 110.944C171.954 111.943 172.744 112.733 173.742 112.733C174.741 112.733 175.531 111.943 175.531 110.944V107.39H178.388L181.872 111.804C182.29 112.338 182.824 112.733 183.637 112.733C184.497 112.733 185.333 112.082 185.333 111.083C185.333 110.526 185.101 110.154 184.752 109.713L182.267 106.693C184.241 105.881 185.519 104.301 185.519 101.746V101.7C185.519 100.167 185.031 98.889 184.125 97.9832C183.057 96.9147 181.454 96.334 179.387 96.334H173.742C172.744 96.334 171.954 97.1237 171.954 98.1225V110.944ZM175.531 104.231V99.5626H179.085C180.827 99.5626 181.895 100.352 181.895 101.885V101.932C181.895 103.302 180.897 104.231 179.154 104.231H175.531ZM190.528 112.593H199.656C200.539 112.593 201.259 111.896 201.259 111.014C201.259 110.131 200.539 109.411 199.656 109.411H192.293V105.997H198.495C199.378 105.997 200.098 105.3 200.098 104.417C200.098 103.535 199.378 102.814 198.495 102.814H192.293V99.5162H199.54C200.423 99.5162 201.143 98.8193 201.143 97.9367C201.143 97.054 200.423 96.334 199.54 96.334H190.528C189.529 96.334 188.739 97.1237 188.739 98.1225V110.805C188.739 111.804 189.529 112.593 190.528 112.593ZM212.007 106.182C212.077 106.81 212.495 107.204 213.076 107.204C213.656 107.204 214.074 106.81 214.144 106.182L215.143 97.4489C215.212 96.7753 214.841 96.2643 214.214 96.2643H211.937C211.31 96.2643 210.939 96.7753 211.008 97.4489L212.007 106.182ZM211.055 110.712V110.758C211.055 111.873 211.914 112.733 213.076 112.733C214.237 112.733 215.096 111.873 215.096 110.758V110.712C215.096 109.597 214.237 108.737 213.076 108.737C211.914 108.737 211.055 109.597 211.055 110.712Z" fill="#FF0090"/>
<path d="M74.1758 154.877V166.86H80.528V164.955H76.5793V154.877H74.1758ZM82.0557 166.86H84.4592V157.349H82.0557V166.86ZM83.2746 156.216C84.1159 156.216 84.7511 155.598 84.7511 154.808C84.7511 154.019 84.1159 153.401 83.2746 153.401C82.4162 153.401 81.7982 154.019 81.7982 154.808C81.7982 155.598 82.4162 156.216 83.2746 156.216ZM94.2162 164.148C94.1476 160.663 88.8769 161.744 88.8769 160.01C88.8769 159.461 89.3405 159.1 90.2332 159.1C91.1775 159.1 91.7612 159.598 91.8299 160.336H94.1304C93.9931 158.448 92.6024 157.195 90.3019 157.195C87.9499 157.195 86.5421 158.465 86.5421 160.045C86.5421 163.53 91.9157 162.448 91.9157 164.148C91.9157 164.697 91.4007 165.126 90.4564 165.126C89.495 165.126 88.8254 164.577 88.7396 163.856H86.3189C86.4219 165.624 88.0872 167.015 90.4736 167.015C92.7913 167.015 94.2162 165.779 94.2162 164.148ZM109.259 157.349H106.838V162.585C106.838 164.113 106.014 164.938 104.709 164.938C103.439 164.938 102.598 164.113 102.598 162.585V157.349H100.194V162.929C100.194 165.538 101.791 166.981 104.006 166.981C105.19 166.981 106.237 166.465 106.838 165.659V166.86H109.259V157.349ZM118.292 166.86H120.695V161.281C120.695 158.654 119.116 157.212 116.901 157.212C115.682 157.212 114.652 157.727 114.034 158.534V157.349H111.631V166.86H114.034V161.607C114.034 160.079 114.875 159.255 116.18 159.255C117.451 159.255 118.292 160.079 118.292 161.607V166.86ZM127.072 166.86H129.475V154.156H127.072V166.86ZM131.85 166.86H134.254V157.349H131.85V166.86ZM133.069 156.216C133.91 156.216 134.545 155.598 134.545 154.808C134.545 154.019 133.91 153.401 133.069 153.401C132.211 153.401 131.593 154.019 131.593 154.808C131.593 155.598 132.211 156.216 133.069 156.216ZM135.615 157.349L139.118 166.86H142.036L145.556 157.349H142.998L140.594 164.646L138.191 157.349H135.615ZM149.309 162.122C149.309 160.285 150.168 159.736 151.593 159.736H152.228V157.212C150.906 157.212 149.91 157.847 149.309 158.826V157.349H146.906V166.86H149.309V162.122ZM157.933 159.169C159.169 159.169 160.165 159.959 160.199 161.212H155.684C155.873 159.907 156.783 159.169 157.933 159.169ZM162.448 163.873H159.856C159.547 164.508 158.98 165.023 157.95 165.023C156.748 165.023 155.787 164.234 155.667 162.826H162.62C162.671 162.517 162.688 162.208 162.688 161.899C162.688 159.066 160.748 157.195 158.001 157.195C155.186 157.195 153.229 159.1 153.229 162.105C153.229 165.092 155.237 167.015 158.001 167.015C160.354 167.015 161.933 165.624 162.448 163.873ZM169.341 162.963H171.366L171.641 154.671H169.049L169.341 162.963ZM171.864 165.573C171.864 164.783 171.246 164.165 170.405 164.165C169.529 164.165 168.911 164.783 168.911 165.573C168.911 166.362 169.529 166.981 170.405 166.981C171.246 166.981 171.864 166.362 171.864 165.573ZM180.88 156.165V160.165H185.24V161.452H180.88V165.573H185.755V166.86H179.317V154.877H185.755V156.165H180.88ZM192.703 157.281C193.848 157.281 194.775 157.63 195.484 158.328C196.194 159.014 196.549 160.01 196.549 161.315V166.86H195.004V161.538C195.004 160.6 194.769 159.884 194.3 159.392C193.831 158.889 193.19 158.637 192.377 158.637C191.553 158.637 190.895 158.894 190.403 159.409C189.922 159.924 189.682 160.674 189.682 161.658V166.86H188.119V157.452H189.682V158.791C189.991 158.311 190.408 157.939 190.935 157.675C191.473 157.412 192.062 157.281 192.703 157.281ZM205.24 154.156V166.86H203.678V154.156H205.24ZM208.71 155.924C208.412 155.924 208.16 155.821 207.954 155.615C207.748 155.409 207.645 155.157 207.645 154.86C207.645 154.562 207.748 154.31 207.954 154.104C208.16 153.898 208.412 153.795 208.71 153.795C208.996 153.795 209.236 153.898 209.431 154.104C209.637 154.31 209.74 154.562 209.74 154.86C209.74 155.157 209.637 155.409 209.431 155.615C209.236 155.821 208.996 155.924 208.71 155.924ZM209.465 157.452V166.86H207.903V157.452H209.465ZM215.459 167.015C214.737 167.015 214.091 166.895 213.519 166.654C212.946 166.403 212.494 166.059 212.162 165.624C211.83 165.178 211.647 164.669 211.613 164.096H213.227C213.272 164.566 213.49 164.949 213.879 165.247C214.28 165.544 214.8 165.693 215.441 165.693C216.037 165.693 216.506 165.561 216.849 165.298C217.192 165.035 217.364 164.703 217.364 164.302C217.364 163.89 217.181 163.587 216.815 163.392C216.449 163.186 215.882 162.986 215.115 162.791C214.417 162.608 213.845 162.425 213.398 162.242C212.963 162.048 212.586 161.767 212.265 161.401C211.956 161.023 211.802 160.531 211.802 159.924C211.802 159.444 211.945 159.003 212.231 158.602C212.517 158.202 212.923 157.887 213.45 157.658C213.976 157.418 214.577 157.298 215.252 157.298C216.294 157.298 217.135 157.561 217.776 158.087C218.417 158.614 218.761 159.335 218.806 160.251H217.244C217.21 159.758 217.009 159.364 216.643 159.066C216.288 158.768 215.808 158.62 215.201 158.62C214.64 158.62 214.194 158.74 213.862 158.98C213.53 159.221 213.364 159.535 213.364 159.924C213.364 160.233 213.461 160.491 213.656 160.697C213.862 160.892 214.114 161.052 214.411 161.178C214.72 161.292 215.144 161.424 215.682 161.573C216.357 161.756 216.906 161.939 217.33 162.122C217.753 162.294 218.114 162.557 218.411 162.912C218.72 163.266 218.881 163.73 218.892 164.302C218.892 164.817 218.749 165.281 218.463 165.693C218.177 166.105 217.77 166.431 217.244 166.672C216.729 166.9 216.134 167.015 215.459 167.015ZM220.514 162.122C220.514 161.161 220.708 160.319 221.098 159.598C221.487 158.866 222.019 158.299 222.694 157.899C223.381 157.498 224.142 157.298 224.978 157.298C225.802 157.298 226.517 157.475 227.124 157.83C227.73 158.185 228.182 158.631 228.48 159.169V157.452H230.059V166.86H228.48V165.109C228.171 165.659 227.707 166.116 227.089 166.483C226.483 166.837 225.773 167.015 224.96 167.015C224.125 167.015 223.37 166.809 222.694 166.397C222.019 165.985 221.487 165.407 221.098 164.663C220.708 163.919 220.514 163.072 220.514 162.122ZM228.48 162.139C228.48 161.429 228.337 160.811 228.051 160.285C227.765 159.758 227.375 159.358 226.883 159.083C226.403 158.797 225.87 158.654 225.287 158.654C224.703 158.654 224.171 158.791 223.69 159.066C223.209 159.341 222.826 159.741 222.54 160.268C222.254 160.794 222.111 161.412 222.111 162.122C222.111 162.843 222.254 163.472 222.54 164.01C222.826 164.537 223.209 164.943 223.69 165.229C224.171 165.504 224.703 165.641 225.287 165.641C225.87 165.641 226.403 165.504 226.883 165.229C227.375 164.943 227.765 164.537 228.051 164.01C228.337 163.472 228.48 162.849 228.48 162.139ZM237.283 157.281C238.428 157.281 239.355 157.63 240.065 158.328C240.774 159.014 241.129 160.01 241.129 161.315V166.86H239.584V161.538C239.584 160.6 239.349 159.884 238.88 159.392C238.411 158.889 237.77 158.637 236.957 158.637C236.133 158.637 235.475 158.894 234.983 159.409C234.502 159.924 234.262 160.674 234.262 161.658V166.86H232.7V157.452H234.262V158.791C234.571 158.311 234.989 157.939 235.515 157.675C236.053 157.412 236.642 157.281 237.283 157.281ZM245.587 158.74V164.285C245.587 164.743 245.684 165.069 245.879 165.264C246.073 165.447 246.411 165.538 246.892 165.538H248.042V166.86H246.634C245.764 166.86 245.112 166.66 244.677 166.259C244.242 165.859 244.024 165.201 244.024 164.285V158.74H242.806V157.452H244.024V155.083H245.587V157.452H248.042V158.74H245.587ZM263.096 161.796C263.096 162.093 263.079 162.408 263.044 162.74H255.525C255.582 163.667 255.897 164.394 256.469 164.92C257.053 165.435 257.757 165.693 258.581 165.693C259.256 165.693 259.817 165.538 260.263 165.229C260.721 164.909 261.041 164.485 261.225 163.959H262.907C262.655 164.863 262.152 165.601 261.396 166.174C260.641 166.734 259.702 167.015 258.581 167.015C257.688 167.015 256.887 166.815 256.177 166.414C255.479 166.013 254.93 165.447 254.529 164.714C254.128 163.97 253.928 163.112 253.928 162.139C253.928 161.166 254.123 160.314 254.512 159.581C254.901 158.849 255.445 158.288 256.143 157.899C256.852 157.498 257.665 157.298 258.581 157.298C259.473 157.298 260.263 157.492 260.95 157.881C261.637 158.271 262.163 158.808 262.529 159.495C262.907 160.17 263.096 160.937 263.096 161.796ZM261.482 161.47C261.482 160.874 261.35 160.365 261.087 159.942C260.824 159.507 260.463 159.18 260.006 158.963C259.559 158.734 259.061 158.62 258.512 158.62C257.722 158.62 257.047 158.871 256.486 159.375C255.937 159.879 255.622 160.577 255.542 161.47H261.482ZM269.742 157.281C270.887 157.281 271.814 157.63 272.523 158.328C273.233 159.014 273.588 160.01 273.588 161.315V166.86H272.043V161.538C272.043 160.6 271.808 159.884 271.339 159.392C270.869 158.889 270.228 158.637 269.416 158.637C268.592 158.637 267.934 158.894 267.441 159.409C266.961 159.924 266.72 160.674 266.72 161.658V166.86H265.158V157.452H266.72V158.791C267.029 158.311 267.447 157.939 267.974 157.675C268.512 157.412 269.101 157.281 269.742 157.281ZM81.0583 185.281C81.7908 185.281 82.4431 185.435 83.0154 185.744C83.5877 186.042 84.0398 186.494 84.3717 187.1C84.7036 187.707 84.8696 188.445 84.8696 189.315V194.86H83.3244V189.538C83.3244 188.6 83.0898 187.884 82.6206 187.392C82.1627 186.889 81.539 186.637 80.7492 186.637C79.9366 186.637 79.2899 186.9 78.8092 187.427C78.3285 187.942 78.0882 188.691 78.0882 189.676V194.86H76.543V189.538C76.543 188.6 76.3084 187.884 75.8391 187.392C75.3813 186.889 74.7575 186.637 73.9678 186.637C73.1552 186.637 72.5085 186.9 72.0278 187.427C71.5471 187.942 71.3067 188.691 71.3067 189.676V194.86H69.7444V185.452H71.3067V186.808C71.6158 186.316 72.0278 185.939 72.5428 185.675C73.0693 185.412 73.6473 185.281 74.2768 185.281C75.0666 185.281 75.7647 185.458 76.3713 185.813C76.9779 186.168 77.43 186.688 77.7276 187.375C77.9909 186.711 78.4258 186.196 79.0324 185.83C79.639 185.464 80.3143 185.281 81.0583 185.281ZM91.5355 195.015C90.6542 195.015 89.853 194.815 89.132 194.414C88.4224 194.013 87.8615 193.447 87.4495 192.714C87.0489 191.97 86.8486 191.112 86.8486 190.139C86.8486 189.178 87.0546 188.331 87.4667 187.598C87.8902 186.854 88.4624 186.288 89.1835 185.899C89.9046 185.498 90.7115 185.298 91.6042 185.298C92.4969 185.298 93.3038 185.498 94.0249 185.899C94.746 186.288 95.3125 186.849 95.7246 187.581C96.148 188.314 96.3598 189.166 96.3598 190.139C96.3598 191.112 96.1423 191.97 95.7074 192.714C95.2839 193.447 94.7059 194.013 93.9734 194.414C93.2409 194.815 92.4283 195.015 91.5355 195.015ZM91.5355 193.641C92.0964 193.641 92.6228 193.51 93.115 193.247C93.6072 192.983 94.002 192.588 94.2996 192.062C94.6086 191.535 94.7631 190.895 94.7631 190.139C94.7631 189.384 94.6144 188.743 94.3168 188.216C94.0192 187.69 93.63 187.301 93.1493 187.049C92.6686 186.786 92.1479 186.654 91.587 186.654C91.0148 186.654 90.4883 186.786 90.0076 187.049C89.5383 187.301 89.1606 187.69 88.8745 188.216C88.5883 188.743 88.4453 189.384 88.4453 190.139C88.4453 190.906 88.5826 191.553 88.8573 192.079C89.1434 192.606 89.5211 193 89.9904 193.264C90.4597 193.516 90.9747 193.641 91.5355 193.641ZM106.517 185.452L100.852 199.29H99.238L101.092 194.757L97.298 185.452H99.032L101.985 193.075L104.903 185.452H106.517ZM116.672 189.796C116.672 190.093 116.655 190.408 116.62 190.74H109.101C109.158 191.667 109.473 192.394 110.045 192.92C110.629 193.435 111.333 193.693 112.157 193.693C112.832 193.693 113.393 193.538 113.839 193.229C114.297 192.909 114.617 192.485 114.801 191.959H116.483C116.231 192.863 115.728 193.601 114.972 194.174C114.217 194.734 113.278 195.015 112.157 195.015C111.264 195.015 110.463 194.815 109.753 194.414C109.055 194.013 108.506 193.447 108.105 192.714C107.704 191.97 107.504 191.112 107.504 190.139C107.504 189.166 107.699 188.314 108.088 187.581C108.477 186.849 109.021 186.288 109.719 185.899C110.428 185.498 111.241 185.298 112.157 185.298C113.049 185.298 113.839 185.492 114.526 185.881C115.213 186.271 115.739 186.808 116.105 187.495C116.483 188.17 116.672 188.937 116.672 189.796ZM115.058 189.47C115.058 188.874 114.926 188.365 114.663 187.942C114.4 187.507 114.039 187.18 113.582 186.963C113.135 186.734 112.637 186.62 112.088 186.62C111.298 186.62 110.623 186.871 110.062 187.375C109.513 187.879 109.198 188.577 109.118 189.47H115.058ZM123.318 185.281C124.463 185.281 125.39 185.63 126.099 186.328C126.809 187.014 127.164 188.01 127.164 189.315V194.86H125.619V189.538C125.619 188.6 125.384 187.884 124.915 187.392C124.445 186.889 123.804 186.637 122.992 186.637C122.168 186.637 121.51 186.894 121.017 187.409C120.537 187.924 120.296 188.674 120.296 189.658V194.86H118.734V185.452H120.296V186.791C120.605 186.311 121.023 185.939 121.55 185.675C122.088 185.412 122.677 185.281 123.318 185.281ZM134.3 185.281C135.444 185.281 136.371 185.63 137.081 186.328C137.79 187.014 138.145 188.01 138.145 189.315V194.86H136.6V189.538C136.6 188.6 136.365 187.884 135.896 187.392C135.427 186.889 134.786 186.637 133.973 186.637C133.149 186.637 132.491 186.894 131.999 187.409C131.518 187.924 131.278 188.674 131.278 189.658V194.86H129.716V185.452H131.278V186.791C131.587 186.311 132.005 185.939 132.531 185.675C133.069 185.412 133.659 185.281 134.3 185.281ZM149.281 189.796C149.281 190.093 149.264 190.408 149.23 190.74H141.71C141.767 191.667 142.082 192.394 142.654 192.92C143.238 193.435 143.942 193.693 144.766 193.693C145.441 193.693 146.002 193.538 146.449 193.229C146.906 192.909 147.227 192.485 147.41 191.959H149.092C148.841 192.863 148.337 193.601 147.582 194.174C146.826 194.734 145.888 195.015 144.766 195.015C143.873 195.015 143.072 194.815 142.363 194.414C141.664 194.013 141.115 193.447 140.714 192.714C140.314 191.97 140.114 191.112 140.114 190.139C140.114 189.166 140.308 188.314 140.697 187.581C141.086 186.849 141.63 186.288 142.328 185.899C143.038 185.498 143.85 185.298 144.766 185.298C145.659 185.298 146.449 185.492 147.135 185.881C147.822 186.271 148.349 186.808 148.715 187.495C149.092 188.17 149.281 188.937 149.281 189.796ZM147.668 189.47C147.668 188.874 147.536 188.365 147.273 187.942C147.009 187.507 146.649 187.18 146.191 186.963C145.745 186.734 145.247 186.62 144.697 186.62C143.908 186.62 143.232 186.871 142.672 187.375C142.122 187.879 141.807 188.577 141.727 189.47H147.668ZM155.251 183.873V182.448H158.479V194.86H156.899V183.873H155.251ZM161.162 188.525C161.162 186.557 161.483 185.023 162.124 183.924C162.765 182.814 163.886 182.259 165.489 182.259C167.08 182.259 168.195 182.814 168.836 183.924C169.477 185.023 169.798 186.557 169.798 188.525C169.798 190.528 169.477 192.085 168.836 193.195C168.195 194.305 167.08 194.86 165.489 194.86C163.886 194.86 162.765 194.305 162.124 193.195C161.483 192.085 161.162 190.528 161.162 188.525ZM168.253 188.525C168.253 187.53 168.184 186.688 168.047 186.002C167.921 185.303 167.652 184.743 167.24 184.319C166.839 183.896 166.255 183.684 165.489 183.684C164.71 183.684 164.115 183.896 163.703 184.319C163.303 184.743 163.034 185.303 162.896 186.002C162.77 186.688 162.707 187.53 162.707 188.525C162.707 189.555 162.77 190.42 162.896 191.118C163.034 191.816 163.303 192.377 163.703 192.8C164.115 193.224 164.71 193.435 165.489 193.435C166.255 193.435 166.839 193.224 167.24 192.8C167.652 192.377 167.921 191.816 168.047 191.118C168.184 190.42 168.253 189.555 168.253 188.525ZM188.091 185.281C188.824 185.281 189.476 185.435 190.048 185.744C190.62 186.042 191.073 186.494 191.405 187.1C191.736 187.707 191.902 188.445 191.902 189.315V194.86H190.357V189.538C190.357 188.6 190.123 187.884 189.653 187.392C189.196 186.889 188.572 186.637 187.782 186.637C186.969 186.637 186.323 186.9 185.842 187.427C185.361 187.942 185.121 188.691 185.121 189.676V194.86H183.576V189.538C183.576 188.6 183.341 187.884 182.872 187.392C182.414 186.889 181.79 186.637 181.001 186.637C180.188 186.637 179.541 186.9 179.061 187.427C178.58 187.942 178.34 188.691 178.34 189.676V194.86H176.777V185.452H178.34V186.808C178.649 186.316 179.061 185.939 179.576 185.675C180.102 185.412 180.68 185.281 181.31 185.281C182.099 185.281 182.798 185.458 183.404 185.813C184.011 186.168 184.463 186.688 184.76 187.375C185.024 186.711 185.459 186.196 186.065 185.83C186.672 185.464 187.347 185.281 188.091 185.281ZM195.272 183.924C194.974 183.924 194.723 183.821 194.517 183.615C194.311 183.409 194.208 183.157 194.208 182.86C194.208 182.562 194.311 182.31 194.517 182.104C194.723 181.898 194.974 181.795 195.272 181.795C195.558 181.795 195.799 181.898 195.993 182.104C196.199 182.31 196.302 182.562 196.302 182.86C196.302 183.157 196.199 183.409 195.993 183.615C195.799 183.821 195.558 183.924 195.272 183.924ZM196.027 185.452V194.86H194.465V185.452H196.027ZM203.274 185.281C204.419 185.281 205.346 185.63 206.055 186.328C206.765 187.014 207.12 188.01 207.12 189.315V194.86H205.575V189.538C205.575 188.6 205.34 187.884 204.871 187.392C204.401 186.889 203.76 186.637 202.948 186.637C202.124 186.637 201.466 186.894 200.973 187.409C200.493 187.924 200.252 188.674 200.252 189.658V194.86H198.69V185.452H200.252V186.791C200.561 186.311 200.979 185.939 201.506 185.675C202.044 185.412 202.633 185.281 203.274 185.281ZM218.015 185.452V194.86H216.453V193.47C216.156 193.95 215.738 194.328 215.2 194.603C214.673 194.866 214.09 194.998 213.449 194.998C212.716 194.998 212.058 194.849 211.474 194.551C210.891 194.242 210.427 193.784 210.084 193.178C209.752 192.571 209.586 191.833 209.586 190.963V185.452H211.131V190.757C211.131 191.684 211.366 192.4 211.835 192.903C212.304 193.395 212.945 193.641 213.758 193.641C214.593 193.641 215.251 193.384 215.732 192.869C216.213 192.354 216.453 191.604 216.453 190.62V185.452H218.015ZM222.559 186.74V192.285C222.559 192.743 222.656 193.069 222.851 193.264C223.045 193.447 223.383 193.538 223.864 193.538H225.014V194.86H223.606C222.736 194.86 222.084 194.66 221.649 194.259C221.214 193.859 220.997 193.201 220.997 192.285V186.74H219.778V185.452H220.997V183.083H222.559V185.452H225.014V186.74H222.559ZM235.491 189.796C235.491 190.093 235.474 190.408 235.44 190.74H227.92C227.977 191.667 228.292 192.394 228.864 192.92C229.448 193.435 230.152 193.693 230.976 193.693C231.651 193.693 232.212 193.538 232.658 193.229C233.116 192.909 233.437 192.485 233.62 191.959H235.302C235.05 192.863 234.547 193.601 233.791 194.174C233.036 194.734 232.097 195.015 230.976 195.015C230.083 195.015 229.282 194.815 228.572 194.414C227.874 194.013 227.325 193.447 226.924 192.714C226.524 191.97 226.323 191.112 226.323 190.139C226.323 189.166 226.518 188.314 226.907 187.581C227.296 186.849 227.84 186.288 228.538 185.899C229.248 185.498 230.06 185.298 230.976 185.298C231.869 185.298 232.658 185.492 233.345 185.881C234.032 186.271 234.558 186.808 234.924 187.495C235.302 188.17 235.491 188.937 235.491 189.796ZM233.877 189.47C233.877 188.874 233.746 188.365 233.482 187.942C233.219 187.507 232.859 187.18 232.401 186.963C231.954 186.734 231.457 186.62 230.907 186.62C230.117 186.62 229.442 186.871 228.881 187.375C228.332 187.879 228.017 188.577 227.937 189.47H233.877ZM240.884 195.015C240.163 195.015 239.516 194.895 238.944 194.654C238.372 194.403 237.919 194.059 237.588 193.624C237.256 193.178 237.073 192.669 237.038 192.096H238.652C238.698 192.566 238.915 192.949 239.304 193.247C239.705 193.544 240.226 193.693 240.867 193.693C241.462 193.693 241.931 193.561 242.274 193.298C242.618 193.035 242.79 192.703 242.79 192.302C242.79 191.89 242.606 191.587 242.24 191.392C241.874 191.186 241.307 190.986 240.54 190.791C239.842 190.608 239.27 190.425 238.824 190.242C238.389 190.048 238.011 189.767 237.691 189.401C237.382 189.023 237.227 188.531 237.227 187.924C237.227 187.444 237.37 187.003 237.656 186.602C237.942 186.202 238.349 185.887 238.875 185.658C239.402 185.418 240.003 185.298 240.678 185.298C241.719 185.298 242.561 185.561 243.202 186.087C243.842 186.614 244.186 187.335 244.232 188.251H242.669C242.635 187.758 242.435 187.364 242.068 187.066C241.714 186.768 241.233 186.62 240.626 186.62C240.065 186.62 239.619 186.74 239.287 186.98C238.955 187.221 238.789 187.535 238.789 187.924C238.789 188.233 238.887 188.491 239.081 188.697C239.287 188.892 239.539 189.052 239.837 189.178C240.146 189.292 240.569 189.424 241.107 189.573C241.782 189.756 242.332 189.939 242.755 190.122C243.179 190.294 243.539 190.557 243.837 190.912C244.146 191.266 244.306 191.73 244.317 192.302C244.317 192.817 244.174 193.281 243.888 193.693C243.602 194.105 243.196 194.431 242.669 194.672C242.154 194.9 241.559 195.015 240.884 195.015ZM252.662 187.186C252.971 186.648 253.429 186.202 254.036 185.847C254.654 185.481 255.369 185.298 256.182 185.298C257.017 185.298 257.773 185.498 258.448 185.899C259.135 186.299 259.673 186.866 260.062 187.598C260.451 188.319 260.645 189.161 260.645 190.122C260.645 191.072 260.451 191.919 260.062 192.663C259.673 193.407 259.135 193.985 258.448 194.397C257.773 194.809 257.017 195.015 256.182 195.015C255.381 195.015 254.671 194.837 254.053 194.483C253.446 194.116 252.983 193.664 252.662 193.126V199.324H251.1V185.452H252.662V187.186ZM259.049 190.122C259.049 189.412 258.906 188.794 258.62 188.268C258.333 187.741 257.944 187.341 257.452 187.066C256.971 186.791 256.439 186.654 255.856 186.654C255.283 186.654 254.751 186.797 254.259 187.083C253.778 187.358 253.389 187.764 253.091 188.302C252.805 188.829 252.662 189.441 252.662 190.139C252.662 190.849 252.805 191.472 253.091 192.01C253.389 192.537 253.778 192.943 254.259 193.229C254.751 193.504 255.283 193.641 255.856 193.641C256.439 193.641 256.971 193.504 257.452 193.229C257.944 192.943 258.333 192.537 258.62 192.01C258.906 191.472 259.049 190.843 259.049 190.122ZM262.118 190.122C262.118 189.161 262.313 188.319 262.702 187.598C263.091 186.866 263.623 186.299 264.299 185.899C264.985 185.498 265.746 185.298 266.582 185.298C267.406 185.298 268.121 185.475 268.728 185.83C269.335 186.185 269.787 186.631 270.084 187.169V185.452H271.664V194.86H270.084V193.109C269.775 193.659 269.312 194.116 268.694 194.483C268.087 194.837 267.377 195.015 266.565 195.015C265.729 195.015 264.974 194.809 264.299 194.397C263.623 193.985 263.091 193.407 262.702 192.663C262.313 191.919 262.118 191.072 262.118 190.122ZM270.084 190.139C270.084 189.429 269.941 188.811 269.655 188.285C269.369 187.758 268.98 187.358 268.488 187.083C268.007 186.797 267.475 186.654 266.891 186.654C266.307 186.654 265.775 186.791 265.294 187.066C264.814 187.341 264.43 187.741 264.144 188.268C263.858 188.794 263.715 189.412 263.715 190.122C263.715 190.843 263.858 191.472 264.144 192.01C264.43 192.537 264.814 192.943 265.294 193.229C265.775 193.504 266.307 193.641 266.891 193.641C267.475 193.641 268.007 193.504 268.488 193.229C268.98 192.943 269.369 192.537 269.655 192.01C269.941 191.472 270.084 190.849 270.084 190.139ZM275.866 186.98C276.141 186.442 276.53 186.024 277.034 185.727C277.549 185.429 278.172 185.281 278.905 185.281V186.894H278.493C276.742 186.894 275.866 187.844 275.866 189.744V194.86H274.304V185.452H275.866V186.98ZM70.527 211.924C70.2294 211.924 69.9776 211.821 69.7716 211.615C69.577 211.409 69.4797 211.157 69.4797 210.86C69.4797 210.562 69.577 210.31 69.7716 210.104C69.9776 209.898 70.2294 209.795 70.527 209.795C70.8246 209.795 71.0706 209.898 71.2652 210.104C71.4712 210.31 71.5742 210.562 71.5742 210.86C71.5742 211.157 71.4712 211.409 71.2652 211.615C71.0706 211.821 70.8246 211.924 70.527 211.924ZM71.2995 224.903C71.2995 225.739 71.0878 226.351 70.6643 226.74C70.2408 227.13 69.6228 227.324 68.8102 227.324H67.9003V226.002H68.5526C68.9876 226.002 69.2909 225.916 69.4626 225.745C69.6457 225.573 69.7372 225.281 69.7372 224.869V213.452H71.2995V224.903ZM78.0474 223.015C77.1661 223.015 76.365 222.815 75.6439 222.414C74.9343 222.013 74.3735 221.447 73.9614 220.714C73.5608 219.97 73.3605 219.112 73.3605 218.139C73.3605 217.178 73.5666 216.331 73.9786 215.598C74.4021 214.854 74.9743 214.288 75.6954 213.899C76.4165 213.498 77.2234 213.298 78.1161 213.298C79.0089 213.298 79.8158 213.498 80.5368 213.899C81.2579 214.288 81.8244 214.849 82.2365 215.581C82.66 216.314 82.8717 217.166 82.8717 218.139C82.8717 219.112 82.6542 219.97 82.2193 220.714C81.7958 221.447 81.2178 222.013 80.4853 222.414C79.7528 222.815 78.9402 223.015 78.0474 223.015ZM78.0474 221.641C78.6083 221.641 79.1348 221.51 79.6269 221.247C80.1191 220.983 80.5139 220.588 80.8115 220.062C81.1205 219.535 81.2751 218.895 81.2751 218.139C81.2751 217.384 81.1263 216.743 80.8287 216.216C80.5311 215.69 80.142 215.301 79.6613 215.049C79.1805 214.786 78.6598 214.654 78.0989 214.654C77.5267 214.654 77.0002 214.786 76.5195 215.049C76.0502 215.301 75.6725 215.69 75.3864 216.216C75.1002 216.743 74.9572 217.384 74.9572 218.139C74.9572 218.906 75.0945 219.553 75.3692 220.079C75.6553 220.606 76.033 221 76.5023 221.264C76.9716 221.516 77.4866 221.641 78.0474 221.641ZM93.2696 213.452V222.86H91.7073V221.47C91.4097 221.95 90.9919 222.328 90.454 222.603C89.9275 222.866 89.3438 222.998 88.7028 222.998C87.9703 222.998 87.3122 222.849 86.7285 222.551C86.1448 222.242 85.6812 221.784 85.3379 221.178C85.006 220.571 84.84 219.833 84.84 218.963V213.452H86.3851V218.757C86.3851 219.684 86.6198 220.4 87.089 220.903C87.5583 221.395 88.1992 221.641 89.0119 221.641C89.8474 221.641 90.5055 221.384 90.9862 220.869C91.4669 220.354 91.7073 219.604 91.7073 218.62V213.452H93.2696ZM97.4697 214.98C97.7444 214.442 98.1336 214.024 98.6372 213.727C99.1522 213.429 99.776 213.281 100.509 213.281V214.894H100.096C98.3453 214.894 97.4697 215.844 97.4697 217.744V222.86H95.9074V213.452H97.4697V214.98ZM103.926 220.697L102.003 225.315H100.956L102.209 220.697H103.926ZM112.198 214.74V220.285C112.198 220.743 112.295 221.069 112.49 221.264C112.685 221.447 113.022 221.538 113.503 221.538H114.653V222.86H113.245C112.376 222.86 111.723 222.66 111.288 222.259C110.853 221.859 110.636 221.201 110.636 220.285V214.74H109.417V213.452H110.636V211.083H112.198V213.452H114.653V214.74H112.198ZM124.89 213.452V222.86H123.328V221.47C123.03 221.95 122.612 222.328 122.074 222.603C121.548 222.866 120.964 222.998 120.323 222.998C119.591 222.998 118.932 222.849 118.349 222.551C117.765 222.242 117.302 221.784 116.958 221.178C116.626 220.571 116.46 219.833 116.46 218.963V213.452H118.005V218.757C118.005 219.684 118.24 220.4 118.709 220.903C119.179 221.395 119.82 221.641 120.632 221.641C121.468 221.641 122.126 221.384 122.606 220.869C123.087 220.354 123.328 219.604 123.328 218.62V213.452H124.89ZM133.667 215.186C133.976 214.648 134.434 214.202 135.041 213.847C135.659 213.481 136.374 213.298 137.187 213.298C138.022 213.298 138.777 213.498 139.453 213.899C140.139 214.299 140.677 214.866 141.067 215.598C141.456 216.319 141.65 217.161 141.65 218.122C141.65 219.072 141.456 219.919 141.067 220.663C140.677 221.407 140.139 221.985 139.453 222.397C138.777 222.809 138.022 223.015 137.187 223.015C136.385 223.015 135.676 222.837 135.058 222.483C134.451 222.116 133.988 221.664 133.667 221.126V227.324H132.105V213.452H133.667V215.186ZM140.054 218.122C140.054 217.412 139.911 216.794 139.624 216.268C139.338 215.741 138.949 215.341 138.457 215.066C137.976 214.791 137.444 214.654 136.86 214.654C136.288 214.654 135.756 214.797 135.264 215.083C134.783 215.358 134.394 215.764 134.096 216.302C133.81 216.829 133.667 217.441 133.667 218.139C133.667 218.849 133.81 219.472 134.096 220.01C134.394 220.537 134.783 220.943 135.264 221.229C135.756 221.504 136.288 221.641 136.86 221.641C137.444 221.641 137.976 221.504 138.457 221.229C138.949 220.943 139.338 220.537 139.624 220.01C139.911 219.472 140.054 218.843 140.054 218.122ZM152.291 217.796C152.291 218.093 152.274 218.408 152.239 218.74H144.72C144.777 219.667 145.092 220.394 145.664 220.92C146.248 221.435 146.951 221.693 147.776 221.693C148.451 221.693 149.012 221.538 149.458 221.229C149.916 220.909 150.236 220.485 150.419 219.959H152.102C151.85 220.863 151.347 221.601 150.591 222.174C149.836 222.734 148.897 223.015 147.776 223.015C146.883 223.015 146.082 222.815 145.372 222.414C144.674 222.013 144.124 221.447 143.724 220.714C143.323 219.97 143.123 219.112 143.123 218.139C143.123 217.166 143.318 216.314 143.707 215.581C144.096 214.849 144.64 214.288 145.338 213.899C146.047 213.498 146.86 213.298 147.776 213.298C148.668 213.298 149.458 213.492 150.145 213.881C150.831 214.271 151.358 214.808 151.724 215.495C152.102 216.17 152.291 216.937 152.291 217.796ZM150.677 217.47C150.677 216.874 150.545 216.365 150.282 215.942C150.019 215.507 149.658 215.18 149.201 214.963C148.754 214.734 148.256 214.62 147.707 214.62C146.917 214.62 146.242 214.871 145.681 215.375C145.132 215.879 144.817 216.577 144.737 217.47H150.677ZM162.697 213.452V222.86H161.134V221.47C160.837 221.95 160.419 222.328 159.881 222.603C159.355 222.866 158.771 222.998 158.13 222.998C157.397 222.998 156.739 222.849 156.156 222.551C155.572 222.242 155.108 221.784 154.765 221.178C154.433 220.571 154.267 219.833 154.267 218.963V213.452H155.812V218.757C155.812 219.684 156.047 220.4 156.516 220.903C156.985 221.395 157.626 221.641 158.439 221.641C159.275 221.641 159.933 221.384 160.413 220.869C160.894 220.354 161.134 219.604 161.134 218.62V213.452H162.697ZM170.245 222.86L168.013 219.358L165.867 222.86H164.236L167.275 218.191L164.236 213.452H166.004L168.236 216.937L170.365 213.452H171.996L168.974 218.105L172.013 222.86H170.245ZM178.367 219.907C178.367 222.088 179.586 222.86 181.406 222.86H182.917V220.835H181.801C181.045 220.835 180.788 220.56 180.788 219.925V215.324H182.917V213.349H180.788V210.997H178.367V213.349H177.234V215.324H178.367V219.907ZM188.732 215.169C189.968 215.169 190.963 215.959 190.998 217.212H186.483C186.671 215.907 187.581 215.169 188.732 215.169ZM193.247 219.873H190.654C190.345 220.508 189.779 221.023 188.749 221.023C187.547 221.023 186.586 220.234 186.465 218.826H193.418C193.47 218.517 193.487 218.208 193.487 217.899C193.487 215.066 191.547 213.195 188.8 213.195C185.985 213.195 184.027 215.1 184.027 218.105C184.027 221.092 186.036 223.015 188.8 223.015C191.152 223.015 192.732 221.624 193.247 219.873ZM197.645 218.122C197.645 216.285 198.503 215.736 199.928 215.736H200.564V213.212C199.242 213.212 198.246 213.847 197.645 214.826V213.349H195.242V222.86H197.645V218.122ZM215.488 222.86H217.891V217.281C217.891 214.654 216.278 213.212 213.994 213.212C212.604 213.212 211.35 213.95 210.732 215.032C210.08 213.847 208.861 213.212 207.385 213.212C206.2 213.212 205.187 213.71 204.586 214.499V213.349H202.183V222.86H204.586V217.607C204.586 216.096 205.427 215.306 206.732 215.306C208.003 215.306 208.844 216.096 208.844 217.607V222.86H211.247V217.607C211.247 216.096 212.089 215.306 213.376 215.306C214.647 215.306 215.488 216.096 215.488 217.607V222.86ZM220.172 222.86H222.576V213.349H220.172V222.86ZM221.391 212.216C222.232 212.216 222.868 211.598 222.868 210.808C222.868 210.019 222.232 209.401 221.391 209.401C220.533 209.401 219.915 210.019 219.915 210.808C219.915 211.598 220.533 212.216 221.391 212.216ZM231.612 222.86H234.015V217.281C234.015 214.654 232.436 213.212 230.221 213.212C229.002 213.212 227.972 213.727 227.354 214.534V213.349H224.951V222.86H227.354V217.607C227.354 216.079 228.195 215.255 229.5 215.255C230.771 215.255 231.612 216.079 231.612 217.607V222.86ZM240.387 215.169C241.623 215.169 242.619 215.959 242.653 217.212H238.138C238.327 215.907 239.237 215.169 240.387 215.169ZM244.902 219.873H242.31C242.001 220.508 241.434 221.023 240.404 221.023C239.202 221.023 238.241 220.234 238.121 218.826H245.074C245.125 218.517 245.143 218.208 245.143 217.899C245.143 215.066 243.203 213.195 240.456 213.195C237.64 213.195 235.683 215.1 235.683 218.105C235.683 221.092 237.692 223.015 240.456 223.015C242.808 223.015 244.387 221.624 244.902 219.873ZM249.3 218.122C249.3 216.285 250.159 215.736 251.584 215.736H252.219V213.212C250.897 213.212 249.901 213.847 249.3 214.826V213.349H246.897V222.86H249.3V218.122ZM266.908 213.349H264.487V218.585C264.487 220.113 263.663 220.938 262.358 220.938C261.088 220.938 260.247 220.113 260.247 218.585V213.349H257.843V218.929C257.843 221.538 259.44 222.981 261.654 222.981C262.839 222.981 263.886 222.465 264.487 221.659V222.86H266.908V213.349ZM275.94 222.86H278.344V217.281C278.344 214.654 276.765 213.212 274.55 213.212C273.331 213.212 272.301 213.727 271.683 214.534V213.349H269.279V222.86H271.683V217.607C271.683 216.079 272.524 215.255 273.829 215.255C275.099 215.255 275.94 216.079 275.94 217.607V222.86ZM77.311 250.86H79.7145V238.156H77.311V250.86ZM82.0892 250.86H84.4927V241.349H82.0892V250.86ZM83.3081 240.216C84.1494 240.216 84.7846 239.598 84.7846 238.808C84.7846 238.019 84.1494 237.401 83.3081 237.401C82.4497 237.401 81.8317 238.019 81.8317 238.808C81.8317 239.598 82.4497 240.216 83.3081 240.216ZM85.8545 241.349L89.3568 250.86H92.2754L95.7949 241.349H93.2368L90.8333 248.646L88.4298 241.349H85.8545ZM99.5484 246.122C99.5484 244.285 100.407 243.736 101.832 243.736H102.467V241.212C101.145 241.212 100.149 241.847 99.5484 242.826V241.349H97.1449V250.86H99.5484V246.122ZM108.172 243.169C109.408 243.169 110.404 243.959 110.438 245.212H105.923C106.112 243.907 107.022 243.169 108.172 243.169ZM112.687 247.873H110.095C109.786 248.508 109.219 249.023 108.189 249.023C106.987 249.023 106.026 248.234 105.906 246.826H112.859C112.91 246.517 112.928 246.208 112.928 245.899C112.928 243.066 110.988 241.195 108.241 241.195C105.425 241.195 103.468 243.1 103.468 246.105C103.468 249.092 105.477 251.015 108.241 251.015C110.593 251.015 112.172 249.624 112.687 247.873ZM118.155 246.07C118.155 249.041 120.078 251.015 122.498 251.015C123.992 251.015 125.056 250.328 125.623 249.453V250.86H128.061V238.156H125.623V242.671C124.97 241.778 123.769 241.195 122.515 241.195C120.078 241.195 118.155 243.1 118.155 246.07ZM125.64 246.105C125.64 247.907 124.438 248.903 123.116 248.903C121.829 248.903 120.61 247.873 120.61 246.07C120.61 244.268 121.829 243.306 123.116 243.306C124.438 243.306 125.64 244.302 125.64 246.105ZM134.494 243.169C135.73 243.169 136.726 243.959 136.76 245.212H132.245C132.434 243.907 133.344 243.169 134.494 243.169ZM139.009 247.873H136.417C136.108 248.508 135.541 249.023 134.511 249.023C133.31 249.023 132.348 248.234 132.228 246.826H139.181C139.233 246.517 139.25 246.208 139.25 245.899C139.25 243.066 137.31 241.195 134.563 241.195C131.747 241.195 129.79 243.1 129.79 246.105C129.79 249.092 131.799 251.015 134.563 251.015C136.915 251.015 138.494 249.624 139.009 247.873ZM144.855 241.641H147.207C147.293 240.851 147.79 240.096 148.958 240.096C150.057 240.096 150.658 240.68 150.658 241.658C150.658 242.894 149.627 243.289 148.22 243.289H147.722V245.264H148.22C150.005 245.264 150.898 245.779 150.898 247.186C150.898 248.182 150.28 248.938 149.078 248.938C147.79 248.938 147.069 248.165 147.018 247.083H144.683C144.786 249.71 146.657 250.946 149.13 250.946C151.756 250.946 153.198 249.435 153.198 247.392C153.198 245.693 152.357 244.663 151.087 244.268V244.199C151.997 243.89 152.975 242.929 152.975 241.366C152.975 239.512 151.602 238.053 149.027 238.053C146.623 238.053 144.975 239.323 144.855 241.641ZM155.098 244.439C155.098 248.096 156.197 250.826 159.733 250.826C163.27 250.826 164.369 248.096 164.369 244.439C164.369 240.817 163.27 238.104 159.733 238.104C156.197 238.104 155.098 240.817 155.098 244.439ZM161.999 244.439C161.999 246.671 161.759 248.594 159.733 248.594C157.707 248.594 157.467 246.671 157.467 244.439C157.467 242.293 157.707 240.336 159.733 240.336C161.759 240.336 161.999 242.293 161.999 244.439ZM166.197 244.439C166.197 248.096 167.296 250.826 170.832 250.826C174.369 250.826 175.468 248.096 175.468 244.439C175.468 240.817 174.369 238.104 170.832 238.104C167.296 238.104 166.197 240.817 166.197 244.439ZM173.098 244.439C173.098 246.671 172.858 248.594 170.832 248.594C168.806 248.594 168.566 246.671 168.566 244.439C168.566 242.293 168.806 240.336 170.832 240.336C172.858 240.336 173.098 242.293 173.098 244.439ZM184.065 242.723V241.349H181.661V255.393H184.065V249.504C184.648 250.277 185.713 251.015 187.207 251.015C189.644 251.015 191.55 249.041 191.55 246.07C191.55 243.1 189.644 241.195 187.207 241.195C185.73 241.195 184.631 241.916 184.065 242.723ZM189.095 246.07C189.095 247.873 187.876 248.903 186.571 248.903C185.284 248.903 184.065 247.907 184.065 246.105C184.065 244.302 185.284 243.306 186.571 243.306C187.876 243.306 189.095 244.268 189.095 246.07ZM192.679 246.07C192.679 249.041 194.601 251.015 197.005 251.015C198.516 251.015 199.597 250.294 200.164 249.47V250.86H202.585V241.349H200.164V242.705C199.597 241.916 198.55 241.195 197.022 241.195C194.601 241.195 192.679 243.1 192.679 246.07ZM200.164 246.105C200.164 247.907 198.962 248.903 197.64 248.903C196.353 248.903 195.134 247.873 195.134 246.07C195.134 244.268 196.353 243.306 197.64 243.306C198.962 243.306 200.164 244.302 200.164 246.105ZM204.314 246.07C204.314 249.041 206.237 251.015 208.658 251.015C210.151 251.015 211.233 250.277 211.799 249.453V250.929C211.799 252.697 210.769 253.453 209.447 253.453C208.246 253.453 207.353 252.886 207.113 252.028H204.726C204.966 254.208 206.838 255.547 209.516 255.547C212.641 255.547 214.22 253.504 214.22 250.929V241.349H211.799V242.705C211.233 241.881 210.151 241.195 208.658 241.195C206.237 241.195 204.314 243.1 204.314 246.07ZM211.799 246.105C211.799 247.907 210.598 248.903 209.276 248.903C207.988 248.903 206.769 247.873 206.769 246.07C206.769 244.268 207.988 243.306 209.276 243.306C210.598 243.306 211.799 244.302 211.799 246.105ZM220.654 243.169C221.89 243.169 222.885 243.959 222.92 245.212H218.405C218.593 243.907 219.503 243.169 220.654 243.169ZM225.169 247.873H222.576C222.267 248.508 221.701 249.023 220.671 249.023C219.469 249.023 218.508 248.234 218.387 246.826H225.341C225.392 246.517 225.409 246.208 225.409 245.899C225.409 243.066 223.469 241.195 220.722 241.195C217.907 241.195 215.95 243.1 215.95 246.105C215.95 249.092 217.958 251.015 220.722 251.015C223.074 251.015 224.654 249.624 225.169 247.873ZM234.546 248.148C234.477 244.663 229.207 245.744 229.207 244.01C229.207 243.461 229.67 243.1 230.563 243.1C231.507 243.1 232.091 243.598 232.16 244.336H234.46C234.323 242.448 232.932 241.195 230.632 241.195C228.28 241.195 226.872 242.465 226.872 244.045C226.872 247.53 232.245 246.448 232.245 248.148C232.245 248.697 231.73 249.126 230.786 249.126C229.825 249.126 229.155 248.577 229.069 247.856H226.649C226.752 249.624 228.417 251.015 230.803 251.015C233.121 251.015 234.546 249.779 234.546 248.148ZM244.696 243.169C245.932 243.169 246.928 243.959 246.962 245.212H242.447C242.636 243.907 243.546 243.169 244.696 243.169ZM249.211 247.873H246.619C246.31 248.508 245.743 249.023 244.713 249.023C243.511 249.023 242.55 248.234 242.43 246.826H249.383C249.434 246.517 249.451 246.208 249.451 245.899C249.451 243.066 247.511 241.195 244.764 241.195C241.949 241.195 239.992 243.1 239.992 246.105C239.992 249.092 242 251.015 244.764 251.015C247.116 251.015 248.696 249.624 249.211 247.873ZM257.867 250.86H260.271V245.281C260.271 242.654 258.691 241.212 256.476 241.212C255.257 241.212 254.227 241.727 253.609 242.534V241.349H251.206V250.86H253.609V245.607C253.609 244.079 254.451 243.255 255.755 243.255C257.026 243.255 257.867 244.079 257.867 245.607V250.86ZM267.746 250.86H270.218V238.345H266.08V240.559H267.746V250.86ZM164.629 278.86H167.032V273.281C167.032 270.654 165.419 269.212 163.135 269.212C161.745 269.212 160.491 269.95 159.873 271.032C159.221 269.847 158.002 269.212 156.525 269.212C155.341 269.212 154.328 269.71 153.727 270.499V269.349H151.324V278.86H153.727V273.607C153.727 272.096 154.568 271.306 155.873 271.306C157.144 271.306 157.985 272.096 157.985 273.607V278.86H160.388V273.607C160.388 272.096 161.23 271.306 162.517 271.306C163.788 271.306 164.629 272.096 164.629 273.607V278.86ZM178.498 274.105C178.498 271.1 176.352 269.195 173.605 269.195C170.858 269.195 168.712 271.1 168.712 274.105C168.712 277.092 170.79 279.015 173.537 279.015C176.301 279.015 178.498 277.092 178.498 274.105ZM171.15 274.105C171.15 272.199 172.3 271.289 173.571 271.289C174.841 271.289 176.026 272.199 176.026 274.105C176.026 275.993 174.807 276.92 173.537 276.92C172.249 276.92 171.15 275.993 171.15 274.105ZM180.261 278.86H182.665V269.349H180.261V278.86ZM181.48 268.216C182.321 268.216 182.957 267.598 182.957 266.808C182.957 266.019 182.321 265.401 181.48 265.401C180.622 265.401 180.004 266.019 180.004 266.808C180.004 267.598 180.622 268.216 181.48 268.216ZM192.422 276.148C192.353 272.663 187.083 273.744 187.083 272.01C187.083 271.461 187.546 271.1 188.439 271.1C189.383 271.1 189.967 271.598 190.035 272.336H192.336C192.199 270.448 190.808 269.195 188.508 269.195C186.155 269.195 184.748 270.465 184.748 272.045C184.748 275.53 190.121 274.448 190.121 276.148C190.121 276.697 189.606 277.126 188.662 277.126C187.701 277.126 187.031 276.577 186.945 275.856H184.524C184.628 277.624 186.293 279.015 188.679 279.015C190.997 279.015 192.422 277.779 192.422 276.148ZM196.919 277.573C196.919 276.783 196.301 276.165 195.459 276.165C194.584 276.165 193.966 276.783 193.966 277.573C193.966 278.362 194.584 278.981 195.459 278.981C196.301 278.981 196.919 278.362 196.919 277.573Z" fill="#1A00E1"/>
</svg>
