<svg width="357" height="392" viewBox="0 0 357 392" fill="none" xmlns="http://www.w3.org/2000/svg">
<path fill-rule="evenodd" clip-rule="evenodd" d="M149.271 6.82591C232.801 3.20189 287.815 85.5119 310.954 165.726C331.448 236.771 310.018 313.292 250.278 356.979C189.824 401.188 105.521 405.454 46.9455 358.791C-5.54487 316.976 7.01528 242.488 25.7343 178.101C47.4513 103.402 71.4385 10.2028 149.271 6.82591Z" fill="#1A00E1"/>
<path fill-rule="evenodd" clip-rule="evenodd" d="M141.735 2.11546C225.265 -1.50856 280.279 80.8014 303.418 161.016C323.912 232.061 302.482 308.582 242.742 352.269C182.288 396.478 97.9846 400.743 39.4094 354.081C-13.081 312.266 -0.520858 237.777 18.1982 173.39C39.9152 98.6915 63.9023 5.49233 141.735 2.11546Z" fill="white" stroke="#FF0090" stroke-width="4"/>
<path d="M112.279 92.276C114.855 92.276 116.557 91.517 118.006 90.252C118.328 89.976 118.604 89.539 118.604 88.987C118.604 88.09 117.845 87.354 116.948 87.354C116.534 87.354 116.166 87.515 115.89 87.745C114.878 88.55 113.889 89.01 112.394 89.01C109.634 89.01 107.725 86.71 107.725 83.95V83.904C107.725 81.144 109.68 78.89 112.394 78.89C113.659 78.89 114.694 79.304 115.683 80.04C115.936 80.201 116.258 80.385 116.741 80.385C117.707 80.385 118.489 79.626 118.489 78.66C118.489 78.039 118.167 77.533 117.799 77.257C116.465 76.268 114.832 75.624 112.417 75.624C107.472 75.624 104.022 79.373 104.022 83.95V83.996C104.022 88.619 107.541 92.276 112.279 92.276ZM128.432 92.253C132.756 92.253 135.493 89.861 135.493 84.985V77.533C135.493 76.544 134.711 75.762 133.722 75.762C132.733 75.762 131.951 76.544 131.951 77.533V85.123C131.951 87.676 130.64 88.987 128.478 88.987C126.316 88.987 125.005 87.63 125.005 85.008V77.533C125.005 76.544 124.223 75.762 123.234 75.762C122.245 75.762 121.463 76.544 121.463 77.533V85.1C121.463 89.838 124.108 92.253 128.432 92.253ZM139.261 90.367C139.261 91.356 140.043 92.138 141.032 92.138C142.021 92.138 142.803 91.356 142.803 90.367V77.533C142.803 76.544 142.021 75.762 141.032 75.762C140.043 75.762 139.261 76.544 139.261 77.533V90.367ZM152.554 92.23C156.027 92.23 158.465 90.436 158.465 87.239V87.193C158.465 84.387 156.625 83.214 153.359 82.363C150.576 81.65 149.886 81.305 149.886 80.247V80.201C149.886 79.419 150.599 78.798 151.956 78.798C153.06 78.798 154.164 79.189 155.337 79.879C155.613 80.04 155.889 80.132 156.234 80.132C157.154 80.132 157.89 79.419 157.89 78.499C157.89 77.809 157.499 77.326 157.108 77.096C155.659 76.176 153.957 75.67 152.002 75.67C148.713 75.67 146.367 77.602 146.367 80.523V80.569C146.367 83.766 148.46 84.663 151.703 85.491C154.394 86.181 154.946 86.641 154.946 87.538V87.584C154.946 88.527 154.072 89.102 152.623 89.102C151.059 89.102 149.725 88.55 148.506 87.653C148.276 87.492 147.954 87.331 147.494 87.331C146.574 87.331 145.838 88.044 145.838 88.964C145.838 89.516 146.114 90.022 146.505 90.298C148.299 91.586 150.438 92.23 152.554 92.23ZM161.7 90.367C161.7 91.356 162.482 92.138 163.471 92.138C164.46 92.138 165.242 91.356 165.242 90.367V77.533C165.242 76.544 164.46 75.762 163.471 75.762C162.482 75.762 161.7 76.544 161.7 77.533V90.367ZM169.265 90.39C169.265 91.356 170.047 92.138 171.013 92.138C171.979 92.138 172.761 91.356 172.761 90.39V81.765L179.845 91.057C180.328 91.678 180.834 92.092 181.685 92.092H181.8C182.789 92.092 183.571 91.31 183.571 90.321V77.51C183.571 76.544 182.789 75.762 181.823 75.762C180.857 75.762 180.075 76.544 180.075 77.51V85.813L173.244 76.843C172.761 76.222 172.255 75.808 171.404 75.808H171.036C170.047 75.808 169.265 76.59 169.265 77.579V90.39ZM189.207 92H198.246C199.12 92 199.833 91.31 199.833 90.436C199.833 89.562 199.12 88.849 198.246 88.849H190.955V85.468H197.096C197.97 85.468 198.683 84.778 198.683 83.904C198.683 83.03 197.97 82.317 197.096 82.317H190.955V79.051H198.131C199.005 79.051 199.718 78.361 199.718 77.487C199.718 76.613 199.005 75.9 198.131 75.9H189.207C188.218 75.9 187.436 76.682 187.436 77.671V90.229C187.436 91.218 188.218 92 189.207 92ZM203.788 92H214.345C215.196 92 215.909 91.31 215.909 90.459C215.909 89.608 215.196 88.895 214.345 88.895H206.916L215.265 79.189C215.679 78.683 215.909 78.154 215.909 77.533V77.464C215.909 76.613 215.196 75.9 214.345 75.9H204.064C203.213 75.9 202.5 76.613 202.5 77.464C202.5 78.315 203.213 79.005 204.064 79.005H211.217L202.868 88.711C202.454 89.194 202.224 89.746 202.224 90.367V90.436C202.224 91.287 202.937 92 203.788 92ZM67.3716 120.253C71.6956 120.253 74.4326 117.861 74.4326 112.985V105.533C74.4326 104.544 73.6506 103.762 72.6616 103.762C71.6726 103.762 70.8906 104.544 70.8906 105.533V113.123C70.8906 115.676 69.5796 116.987 67.4176 116.987C65.2556 116.987 63.9446 115.63 63.9446 113.008V105.533C63.9446 104.544 63.1626 103.762 62.1736 103.762C61.1846 103.762 60.4026 104.544 60.4026 105.533V113.1C60.4026 117.838 63.0476 120.253 67.3716 120.253ZM78.0404 118.39C78.0404 119.356 78.8224 120.138 79.7884 120.138C80.7544 120.138 81.5364 119.356 81.5364 118.39V109.765L88.6204 119.057C89.1034 119.678 89.6094 120.092 90.4604 120.092H90.5754C91.5644 120.092 92.3464 119.31 92.3464 118.321V105.51C92.3464 104.544 91.5644 103.762 90.5984 103.762C89.6324 103.762 88.8504 104.544 88.8504 105.51V113.813L82.0194 104.843C81.5364 104.222 81.0304 103.808 80.1794 103.808H79.8114C78.8224 103.808 78.0404 104.59 78.0404 105.579V118.39ZM103.107 118.229C103.107 119.218 103.889 120 104.878 120H110.766C114.4 120 116.792 118.528 116.792 115.584V115.538C116.792 113.376 115.642 112.295 113.779 111.582C114.929 110.938 115.895 109.926 115.895 108.109V108.063C115.895 106.959 115.527 106.062 114.791 105.326C113.871 104.406 112.422 103.9 110.582 103.9H104.878C103.889 103.9 103.107 104.682 103.107 105.671V118.229ZM106.557 110.409V107.005H110.053C111.548 107.005 112.376 107.603 112.376 108.661V108.707C112.376 109.903 111.387 110.409 109.823 110.409H106.557ZM106.557 116.895V113.353H110.651C112.468 113.353 113.273 114.02 113.273 115.101V115.147C113.273 116.343 112.33 116.895 110.766 116.895H106.557ZM127.525 120.276C132.493 120.276 136.104 116.527 136.104 111.95V111.904C136.104 107.327 132.539 103.624 127.571 103.624C122.603 103.624 118.992 107.373 118.992 111.95V111.996C118.992 116.573 122.557 120.276 127.525 120.276ZM127.571 117.01C124.719 117.01 122.695 114.71 122.695 111.95V111.904C122.695 109.144 124.673 106.89 127.525 106.89C130.377 106.89 132.401 109.19 132.401 111.95V111.996C132.401 114.756 130.423 117.01 127.571 117.01ZM139.246 118.39C139.246 119.356 140.028 120.138 140.994 120.138C141.96 120.138 142.742 119.356 142.742 118.39V109.765L149.826 119.057C150.309 119.678 150.815 120.092 151.666 120.092H151.781C152.77 120.092 153.552 119.31 153.552 118.321V105.51C153.552 104.544 152.77 103.762 151.804 103.762C150.838 103.762 150.056 104.544 150.056 105.51V113.813L143.225 104.843C142.742 104.222 142.236 103.808 141.385 103.808H141.017C140.028 103.808 139.246 104.59 139.246 105.579V118.39ZM172.064 120.276C174.479 120.276 176.388 119.471 177.699 118.666C178.55 118.16 178.941 117.447 178.941 116.412V112.502C178.941 111.513 178.159 110.731 177.17 110.731H173.122C172.271 110.731 171.581 111.421 171.581 112.272C171.581 113.123 172.271 113.79 173.122 113.79H175.514V116.09C174.617 116.734 173.467 117.056 172.179 117.056C169.327 117.056 167.303 114.894 167.303 111.95V111.904C167.303 109.167 169.35 106.89 171.926 106.89C173.444 106.89 174.479 107.304 175.445 107.994C175.698 108.178 176.02 108.362 176.526 108.362C177.492 108.362 178.274 107.58 178.274 106.614C178.274 105.924 177.883 105.441 177.538 105.188C176.089 104.176 174.479 103.624 172.041 103.624C167.165 103.624 163.6 107.373 163.6 111.95V111.996C163.6 116.757 167.05 120.276 172.064 120.276ZM181.245 118.482C181.245 119.402 181.958 120.138 182.878 120.138C183.614 120.138 184.212 119.724 184.511 119.034L185.638 116.389H192.722L193.803 118.919C194.125 119.655 194.677 120.138 195.505 120.138C196.448 120.138 197.184 119.379 197.184 118.436C197.184 118.206 197.115 117.976 197 117.723L191.388 105.05C190.997 104.176 190.307 103.647 189.341 103.647H189.134C188.168 103.647 187.455 104.176 187.064 105.05L181.452 117.723C181.337 117.976 181.245 118.229 181.245 118.482ZM186.949 113.261L189.18 107.948L191.411 113.261H186.949ZM201.978 118.367C201.978 119.356 202.76 120.138 203.749 120.138C204.738 120.138 205.52 119.356 205.52 118.367V107.166H208.924C209.821 107.166 210.557 106.43 210.557 105.533C210.557 104.636 209.821 103.9 208.924 103.9H198.574C197.677 103.9 196.941 104.636 196.941 105.533C196.941 106.43 197.677 107.166 198.574 107.166H201.978V118.367ZM214.914 120H223.953C224.827 120 225.54 119.31 225.54 118.436C225.54 117.562 224.827 116.849 223.953 116.849H216.662V113.468H222.803C223.677 113.468 224.39 112.778 224.39 111.904C224.39 111.03 223.677 110.317 222.803 110.317H216.662V107.051H223.838C224.712 107.051 225.425 106.361 225.425 105.487C225.425 104.613 224.712 103.9 223.838 103.9H214.914C213.925 103.9 213.143 104.682 213.143 105.671V118.229C213.143 119.218 213.925 120 214.914 120ZM227.447 118.482C227.447 119.402 228.16 120.138 229.08 120.138C229.816 120.138 230.414 119.724 230.713 119.034L231.84 116.389H238.924L240.005 118.919C240.327 119.655 240.879 120.138 241.707 120.138C242.65 120.138 243.386 119.379 243.386 118.436C243.386 118.206 243.317 117.976 243.202 117.723L237.59 105.05C237.199 104.176 236.509 103.647 235.543 103.647H235.336C234.37 103.647 233.657 104.176 233.266 105.05L227.654 117.723C227.539 117.976 227.447 118.229 227.447 118.482ZM233.151 113.261L235.382 107.948L237.613 113.261H233.151ZM252.54 120.253C256.864 120.253 259.601 117.861 259.601 112.985V105.533C259.601 104.544 258.819 103.762 257.83 103.762C256.841 103.762 256.059 104.544 256.059 105.533V113.123C256.059 115.676 254.748 116.987 252.586 116.987C250.424 116.987 249.113 115.63 249.113 113.008V105.533C249.113 104.544 248.331 103.762 247.342 103.762C246.353 103.762 245.571 104.544 245.571 105.533V113.1C245.571 117.838 248.216 120.253 252.54 120.253Z" fill="#FF0090"/>
<path d="M67.3038 162.134V174H64.9238V166.282L61.7448 174H59.9428L56.7468 166.282V174H54.3668V162.134H57.0698L60.8438 170.957L64.6178 162.134H67.3038ZM78.4119 169.087C78.4119 169.427 78.3892 169.733 78.3439 170.005H71.4589C71.5156 170.685 71.7536 171.218 72.1729 171.603C72.5922 171.988 73.1079 172.181 73.7199 172.181C74.6039 172.181 75.2329 171.801 75.6069 171.042H78.1739C77.9019 171.949 77.3806 172.697 76.6099 173.286C75.8392 173.864 74.8929 174.153 73.7709 174.153C72.8642 174.153 72.0482 173.955 71.3229 173.558C70.6089 173.15 70.0479 172.578 69.6399 171.841C69.2432 171.104 69.0449 170.254 69.0449 169.291C69.0449 168.316 69.2432 167.461 69.6399 166.724C70.0366 165.987 70.5919 165.421 71.3059 165.024C72.0199 164.627 72.8416 164.429 73.7709 164.429C74.6662 164.429 75.4652 164.622 76.1679 165.007C76.8819 165.392 77.4316 165.942 77.8169 166.656C78.2136 167.359 78.4119 168.169 78.4119 169.087ZM75.9469 168.407C75.9356 167.795 75.7146 167.308 75.2839 166.945C74.8532 166.571 74.3262 166.384 73.7029 166.384C73.1136 166.384 72.6149 166.565 72.2069 166.928C71.8102 167.279 71.5666 167.772 71.4759 168.407H75.9469ZM82.9201 166.537V171.093C82.9201 171.41 82.9937 171.643 83.1411 171.79C83.2997 171.926 83.5604 171.994 83.9231 171.994H85.0281V174H83.5321C81.5261 174 80.5231 173.025 80.5231 171.076V166.537H79.4011V164.582H80.5231V162.253H82.9201V164.582H85.0281V166.537H82.9201ZM89.5109 166.537V171.093C89.5109 171.41 89.5846 171.643 89.7319 171.79C89.8906 171.926 90.1512 171.994 90.5139 171.994H91.6189V174H90.1229C88.1169 174 87.1139 173.025 87.1139 171.076V166.537H85.9919V164.582H87.1139V162.253H89.5109V164.582H91.6189V166.537H89.5109ZM102.086 169.087C102.086 169.427 102.063 169.733 102.018 170.005H95.1327C95.1894 170.685 95.4274 171.218 95.8467 171.603C96.266 171.988 96.7817 172.181 97.3937 172.181C98.2777 172.181 98.9067 171.801 99.2807 171.042H101.848C101.576 171.949 101.054 172.697 100.284 173.286C99.513 173.864 98.5667 174.153 97.4447 174.153C96.538 174.153 95.722 173.955 94.9967 173.558C94.2827 173.15 93.7217 172.578 93.3137 171.841C92.917 171.104 92.7187 170.254 92.7187 169.291C92.7187 168.316 92.917 167.461 93.3137 166.724C93.7104 165.987 94.2657 165.421 94.9797 165.024C95.6937 164.627 96.5154 164.429 97.4447 164.429C98.34 164.429 99.139 164.622 99.8417 165.007C100.556 165.392 101.105 165.942 101.491 166.656C101.887 167.359 102.086 168.169 102.086 169.087ZM99.6207 168.407C99.6094 167.795 99.3884 167.308 98.9577 166.945C98.527 166.571 98 166.384 97.3767 166.384C96.7874 166.384 96.2887 166.565 95.8807 166.928C95.484 167.279 95.2404 167.772 95.1497 168.407H99.6207ZM105.999 172.045H110.198V174H103.296V172.079L107.41 166.537H103.313V164.582H110.147V166.503L105.999 172.045ZM120.018 171.807L122.398 164.582H124.931L121.446 174H118.556L115.088 164.582H117.638L120.018 171.807ZM130.45 174.153C129.544 174.153 128.728 173.955 128.002 173.558C127.277 173.15 126.705 172.578 126.285 171.841C125.877 171.104 125.673 170.254 125.673 169.291C125.673 168.328 125.883 167.478 126.302 166.741C126.733 166.004 127.317 165.438 128.053 165.041C128.79 164.633 129.612 164.429 130.518 164.429C131.425 164.429 132.247 164.633 132.983 165.041C133.72 165.438 134.298 166.004 134.717 166.741C135.148 167.478 135.363 168.328 135.363 169.291C135.363 170.254 135.142 171.104 134.7 171.841C134.27 172.578 133.68 173.15 132.932 173.558C132.196 173.955 131.368 174.153 130.45 174.153ZM130.45 172.079C130.881 172.079 131.283 171.977 131.657 171.773C132.043 171.558 132.349 171.24 132.575 170.821C132.802 170.402 132.915 169.892 132.915 169.291C132.915 168.396 132.677 167.71 132.201 167.234C131.737 166.747 131.164 166.503 130.484 166.503C129.804 166.503 129.232 166.747 128.767 167.234C128.314 167.71 128.087 168.396 128.087 169.291C128.087 170.186 128.308 170.878 128.75 171.365C129.204 171.841 129.77 172.079 130.45 172.079ZM146 164.582V174H143.603V172.81C143.297 173.218 142.895 173.541 142.396 173.779C141.909 174.006 141.376 174.119 140.798 174.119C140.061 174.119 139.41 173.966 138.843 173.66C138.276 173.343 137.829 172.884 137.5 172.283C137.183 171.671 137.024 170.946 137.024 170.107V164.582H139.404V169.767C139.404 170.515 139.591 171.093 139.965 171.501C140.339 171.898 140.849 172.096 141.495 172.096C142.152 172.096 142.668 171.898 143.042 171.501C143.416 171.093 143.603 170.515 143.603 169.767V164.582H146ZM151.952 174.153C151.182 174.153 150.49 174.017 149.878 173.745C149.266 173.462 148.779 173.082 148.416 172.606C148.065 172.13 147.872 171.603 147.838 171.025H150.235C150.281 171.388 150.456 171.688 150.762 171.926C151.08 172.164 151.471 172.283 151.935 172.283C152.389 172.283 152.74 172.192 152.989 172.011C153.25 171.83 153.38 171.597 153.38 171.314C153.38 171.008 153.222 170.781 152.904 170.634C152.598 170.475 152.105 170.305 151.425 170.124C150.723 169.954 150.145 169.778 149.691 169.597C149.249 169.416 148.864 169.138 148.535 168.764C148.218 168.39 148.059 167.886 148.059 167.251C148.059 166.73 148.207 166.254 148.501 165.823C148.807 165.392 149.238 165.052 149.793 164.803C150.36 164.554 151.023 164.429 151.782 164.429C152.904 164.429 153.8 164.712 154.468 165.279C155.137 165.834 155.505 166.588 155.573 167.54H153.295C153.261 167.166 153.103 166.871 152.819 166.656C152.547 166.429 152.179 166.316 151.714 166.316C151.284 166.316 150.949 166.395 150.711 166.554C150.485 166.713 150.371 166.934 150.371 167.217C150.371 167.534 150.53 167.778 150.847 167.948C151.165 168.107 151.658 168.271 152.326 168.441C153.006 168.611 153.567 168.787 154.009 168.968C154.451 169.149 154.831 169.433 155.148 169.818C155.477 170.192 155.647 170.691 155.658 171.314C155.658 171.858 155.505 172.345 155.199 172.776C154.905 173.207 154.474 173.547 153.907 173.796C153.352 174.034 152.7 174.153 151.952 174.153ZM161.051 169.257C161.051 168.305 161.238 167.461 161.612 166.724C161.997 165.987 162.513 165.421 163.159 165.024C163.816 164.627 164.547 164.429 165.352 164.429C166.054 164.429 166.666 164.571 167.188 164.854C167.72 165.137 168.145 165.494 168.463 165.925V164.582H170.86V174H168.463V172.623C168.157 173.065 167.732 173.433 167.188 173.728C166.655 174.011 166.037 174.153 165.335 174.153C164.541 174.153 163.816 173.949 163.159 173.541C162.513 173.133 161.997 172.561 161.612 171.824C161.238 171.076 161.051 170.22 161.051 169.257ZM168.463 169.291C168.463 168.713 168.349 168.22 168.123 167.812C167.896 167.393 167.59 167.075 167.205 166.86C166.819 166.633 166.406 166.52 165.964 166.52C165.522 166.52 165.114 166.628 164.74 166.843C164.366 167.058 164.06 167.376 163.822 167.795C163.595 168.203 163.482 168.69 163.482 169.257C163.482 169.824 163.595 170.322 163.822 170.753C164.06 171.172 164.366 171.495 164.74 171.722C165.125 171.949 165.533 172.062 165.964 172.062C166.406 172.062 166.819 171.954 167.205 171.739C167.59 171.512 167.896 171.195 168.123 170.787C168.349 170.368 168.463 169.869 168.463 169.291ZM168.14 162.219V163.919L164.23 162.134V160.196L168.14 162.219ZM179.615 161.42V174H177.235V161.42H179.615ZM181.354 169.257C181.354 168.305 181.541 167.461 181.915 166.724C182.301 165.987 182.816 165.421 183.462 165.024C184.12 164.627 184.851 164.429 185.655 164.429C186.358 164.429 186.97 164.571 187.491 164.854C188.024 165.137 188.449 165.494 188.766 165.925V164.582H191.163V174H188.766V172.623C188.46 173.065 188.035 173.433 187.491 173.728C186.959 174.011 186.341 174.153 185.638 174.153C184.845 174.153 184.12 173.949 183.462 173.541C182.816 173.133 182.301 172.561 181.915 171.824C181.541 171.076 181.354 170.22 181.354 169.257ZM188.766 169.291C188.766 168.713 188.653 168.22 188.426 167.812C188.2 167.393 187.894 167.075 187.508 166.86C187.123 166.633 186.709 166.52 186.267 166.52C185.825 166.52 185.417 166.628 185.043 166.843C184.669 167.058 184.363 167.376 184.125 167.795C183.899 168.203 183.785 168.69 183.785 169.257C183.785 169.824 183.899 170.322 184.125 170.753C184.363 171.172 184.669 171.495 185.043 171.722C185.429 171.949 185.837 172.062 186.267 172.062C186.709 172.062 187.123 171.954 187.508 171.739C187.894 171.512 188.2 171.195 188.426 170.787C188.653 170.368 188.766 169.869 188.766 169.291ZM196.927 169.291C196.927 168.316 197.125 167.466 197.522 166.741C197.918 166.004 198.468 165.438 199.171 165.041C199.873 164.633 200.678 164.429 201.585 164.429C202.752 164.429 203.715 164.724 204.475 165.313C205.245 165.891 205.761 166.707 206.022 167.761H203.455C203.319 167.353 203.086 167.036 202.758 166.809C202.44 166.571 202.044 166.452 201.568 166.452C200.888 166.452 200.349 166.701 199.953 167.2C199.556 167.687 199.358 168.384 199.358 169.291C199.358 170.186 199.556 170.883 199.953 171.382C200.349 171.869 200.888 172.113 201.568 172.113C202.531 172.113 203.16 171.682 203.455 170.821H206.022C205.761 171.841 205.245 172.651 204.475 173.252C203.704 173.853 202.741 174.153 201.585 174.153C200.678 174.153 199.873 173.955 199.171 173.558C198.468 173.15 197.918 172.583 197.522 171.858C197.125 171.121 196.927 170.266 196.927 169.291ZM216.656 164.582V174H214.259V172.81C213.953 173.218 213.551 173.541 213.052 173.779C212.565 174.006 212.032 174.119 211.454 174.119C210.718 174.119 210.066 173.966 209.499 173.66C208.933 173.343 208.485 172.884 208.156 172.283C207.839 171.671 207.68 170.946 207.68 170.107V164.582H210.06V169.767C210.06 170.515 210.247 171.093 210.621 171.501C210.995 171.898 211.505 172.096 212.151 172.096C212.809 172.096 213.324 171.898 213.698 171.501C214.072 171.093 214.259 170.515 214.259 169.767V164.582H216.656ZM220.212 163.46C219.792 163.46 219.441 163.33 219.158 163.069C218.886 162.797 218.75 162.463 218.75 162.066C218.75 161.669 218.886 161.341 219.158 161.08C219.441 160.808 219.792 160.672 220.212 160.672C220.631 160.672 220.977 160.808 221.249 161.08C221.532 161.341 221.674 161.669 221.674 162.066C221.674 162.463 221.532 162.797 221.249 163.069C220.977 163.33 220.631 163.46 220.212 163.46ZM221.385 164.582V174H219.005V164.582H221.385ZM227.34 174.153C226.569 174.153 225.878 174.017 225.266 173.745C224.654 173.462 224.167 173.082 223.804 172.606C223.453 172.13 223.26 171.603 223.226 171.025H225.623C225.668 171.388 225.844 171.688 226.15 171.926C226.467 172.164 226.858 172.283 227.323 172.283C227.776 172.283 228.128 172.192 228.377 172.011C228.638 171.83 228.768 171.597 228.768 171.314C228.768 171.008 228.609 170.781 228.292 170.634C227.986 170.475 227.493 170.305 226.813 170.124C226.11 169.954 225.532 169.778 225.079 169.597C224.637 169.416 224.252 169.138 223.923 168.764C223.606 168.39 223.447 167.886 223.447 167.251C223.447 166.73 223.594 166.254 223.889 165.823C224.195 165.392 224.626 165.052 225.181 164.803C225.748 164.554 226.411 164.429 227.17 164.429C228.292 164.429 229.187 164.712 229.856 165.279C230.525 165.834 230.893 166.588 230.961 167.54H228.683C228.649 167.166 228.49 166.871 228.207 166.656C227.935 166.429 227.567 166.316 227.102 166.316C226.671 166.316 226.337 166.395 226.099 166.554C225.872 166.713 225.759 166.934 225.759 167.217C225.759 167.534 225.918 167.778 226.235 167.948C226.552 168.107 227.045 168.271 227.714 168.441C228.394 168.611 228.955 168.787 229.397 168.968C229.839 169.149 230.219 169.433 230.536 169.818C230.865 170.192 231.035 170.691 231.046 171.314C231.046 171.858 230.893 172.345 230.587 172.776C230.292 173.207 229.862 173.547 229.295 173.796C228.74 174.034 228.088 174.153 227.34 174.153ZM234.207 163.46C233.787 163.46 233.436 163.33 233.153 163.069C232.881 162.797 232.745 162.463 232.745 162.066C232.745 161.669 232.881 161.341 233.153 161.08C233.436 160.808 233.787 160.672 234.207 160.672C234.626 160.672 234.972 160.808 235.244 161.08C235.527 161.341 235.669 161.669 235.669 162.066C235.669 162.463 235.527 162.797 235.244 163.069C234.972 163.33 234.626 163.46 234.207 163.46ZM235.38 164.582V174H233V164.582H235.38ZM242.95 164.446C244.072 164.446 244.979 164.803 245.67 165.517C246.361 166.22 246.707 167.206 246.707 168.475V174H244.327V168.798C244.327 168.05 244.14 167.478 243.766 167.081C243.392 166.673 242.882 166.469 242.236 166.469C241.579 166.469 241.057 166.673 240.672 167.081C240.298 167.478 240.111 168.05 240.111 168.798V174H237.731V164.582H240.111V165.755C240.428 165.347 240.831 165.03 241.318 164.803C241.817 164.565 242.361 164.446 242.95 164.446ZM257.725 169.087C257.725 169.427 257.703 169.733 257.657 170.005H250.772C250.829 170.685 251.067 171.218 251.486 171.603C251.906 171.988 252.421 172.181 253.033 172.181C253.917 172.181 254.546 171.801 254.92 171.042H257.487C257.215 171.949 256.694 172.697 255.923 173.286C255.153 173.864 254.206 174.153 253.084 174.153C252.178 174.153 251.362 173.955 250.636 173.558C249.922 173.15 249.361 172.578 248.953 171.841C248.557 171.104 248.358 170.254 248.358 169.291C248.358 168.316 248.557 167.461 248.953 166.724C249.35 165.987 249.905 165.421 250.619 165.024C251.333 164.627 252.155 164.429 253.084 164.429C253.98 164.429 254.779 164.622 255.481 165.007C256.195 165.392 256.745 165.942 257.13 166.656C257.527 167.359 257.725 168.169 257.725 169.087ZM255.26 168.407C255.249 167.795 255.028 167.308 254.597 166.945C254.167 166.571 253.64 166.384 253.016 166.384C252.427 166.384 251.928 166.565 251.52 166.928C251.124 167.279 250.88 167.772 250.789 168.407H255.26ZM264.567 174.119C264.137 174.119 263.78 173.989 263.496 173.728C263.224 173.456 263.088 173.122 263.088 172.725C263.088 172.328 263.224 172 263.496 171.739C263.78 171.467 264.137 171.331 264.567 171.331C264.987 171.331 265.332 171.467 265.604 171.739C265.876 172 266.012 172.328 266.012 172.725C266.012 173.122 265.876 173.456 265.604 173.728C265.332 173.989 264.987 174.119 264.567 174.119ZM264.567 167.081C264.137 167.081 263.78 166.951 263.496 166.69C263.224 166.418 263.088 166.084 263.088 165.687C263.088 165.29 263.224 164.962 263.496 164.701C263.78 164.429 264.137 164.293 264.567 164.293C264.987 164.293 265.332 164.429 265.604 164.701C265.876 164.962 266.012 165.29 266.012 165.687C266.012 166.084 265.876 166.418 265.604 166.69C265.332 166.951 264.987 167.081 264.567 167.081ZM61.8355 197.308C61.8355 196.356 62.0282 195.523 62.4135 194.809C62.7988 194.084 63.3258 193.523 63.9945 193.126C64.6745 192.729 65.4338 192.531 66.2725 192.531C66.9978 192.531 67.6722 192.701 68.2955 193.041C68.9188 193.37 69.3948 193.806 69.7235 194.35V189.42H71.2875V202H69.7235V200.249C69.4175 200.804 68.9642 201.263 68.3635 201.626C67.7628 201.977 67.0602 202.153 66.2555 202.153C65.4282 202.153 64.6745 201.949 63.9945 201.541C63.3258 201.133 62.7988 200.561 62.4135 199.824C62.0282 199.087 61.8355 198.249 61.8355 197.308ZM69.7235 197.325C69.7235 196.622 69.5818 196.01 69.2985 195.489C69.0152 194.968 68.6298 194.571 68.1425 194.299C67.6665 194.016 67.1395 193.874 66.5615 193.874C65.9835 193.874 65.4565 194.01 64.9805 194.282C64.5045 194.554 64.1248 194.951 63.8415 195.472C63.5582 195.993 63.4165 196.605 63.4165 197.308C63.4165 198.022 63.5582 198.645 63.8415 199.178C64.1248 199.699 64.5045 200.102 64.9805 200.385C65.4565 200.657 65.9835 200.793 66.5615 200.793C67.1395 200.793 67.6665 200.657 68.1425 200.385C68.6298 200.102 69.0152 199.699 69.2985 199.178C69.5818 198.645 69.7235 198.028 69.7235 197.325ZM82.4018 196.985C82.4018 197.28 82.3848 197.591 82.3508 197.92H74.9048C74.9614 198.838 75.2731 199.558 75.8398 200.079C76.4178 200.589 77.1148 200.844 77.9308 200.844C78.5994 200.844 79.1548 200.691 79.5968 200.385C80.0501 200.068 80.3674 199.648 80.5488 199.127H82.2148C81.9654 200.022 81.4668 200.753 80.7188 201.32C79.9708 201.875 79.0414 202.153 77.9308 202.153C77.0468 202.153 76.2534 201.955 75.5508 201.558C74.8594 201.161 74.3154 200.6 73.9188 199.875C73.5221 199.138 73.3238 198.288 73.3238 197.325C73.3238 196.362 73.5164 195.517 73.9018 194.792C74.2871 194.067 74.8254 193.511 75.5168 193.126C76.2194 192.729 77.0241 192.531 77.9308 192.531C78.8148 192.531 79.5968 192.724 80.2768 193.109C80.9568 193.494 81.4781 194.027 81.8408 194.707C82.2148 195.376 82.4018 196.135 82.4018 196.985ZM80.8038 196.662C80.8038 196.073 80.6734 195.568 80.4128 195.149C80.1521 194.718 79.7951 194.395 79.3418 194.18C78.8998 193.953 78.4068 193.84 77.8628 193.84C77.0808 193.84 76.4121 194.089 75.8568 194.588C75.3128 195.087 75.0011 195.778 74.9218 196.662H80.8038ZM79.5288 190.049L75.9078 191.987V190.831L79.5288 188.706V190.049ZM83.8658 197.325C83.8658 196.362 84.0584 195.523 84.4438 194.809C84.8291 194.084 85.3618 193.523 86.0418 193.126C86.7331 192.729 87.5208 192.531 88.4048 192.531C89.5494 192.531 90.4901 192.809 91.2268 193.364C91.9748 193.919 92.4678 194.69 92.7058 195.676H91.0398C90.8811 195.109 90.5694 194.662 90.1048 194.333C89.6514 194.004 89.0848 193.84 88.4048 193.84C87.5208 193.84 86.8068 194.146 86.2628 194.758C85.7188 195.359 85.4468 196.214 85.4468 197.325C85.4468 198.447 85.7188 199.314 86.2628 199.926C86.8068 200.538 87.5208 200.844 88.4048 200.844C89.0848 200.844 89.6514 200.685 90.1048 200.368C90.5581 200.051 90.8698 199.597 91.0398 199.008H92.7058C92.4564 199.96 91.9578 200.725 91.2098 201.303C90.4618 201.87 89.5268 202.153 88.4048 202.153C87.5208 202.153 86.7331 201.955 86.0418 201.558C85.3618 201.161 84.8291 200.6 84.4438 199.875C84.0584 199.15 83.8658 198.3 83.8658 197.325ZM98.8329 202.153C97.9603 202.153 97.1669 201.955 96.4529 201.558C95.7503 201.161 95.1949 200.6 94.7869 199.875C94.3903 199.138 94.1919 198.288 94.1919 197.325C94.1919 196.373 94.3959 195.534 94.8039 194.809C95.2233 194.072 95.7899 193.511 96.5039 193.126C97.2179 192.729 98.0169 192.531 98.9009 192.531C99.7849 192.531 100.584 192.729 101.298 193.126C102.012 193.511 102.573 194.067 102.981 194.792C103.4 195.517 103.61 196.362 103.61 197.325C103.61 198.288 103.395 199.138 102.964 199.875C102.545 200.6 101.972 201.161 101.247 201.558C100.522 201.955 99.7169 202.153 98.8329 202.153ZM98.8329 200.793C99.3883 200.793 99.9096 200.663 100.397 200.402C100.884 200.141 101.275 199.75 101.57 199.229C101.876 198.708 102.029 198.073 102.029 197.325C102.029 196.577 101.882 195.942 101.587 195.421C101.292 194.9 100.907 194.514 100.431 194.265C99.9549 194.004 99.4393 193.874 98.8839 193.874C98.3173 193.874 97.7959 194.004 97.3199 194.265C96.8553 194.514 96.4813 194.9 96.1979 195.421C95.9146 195.942 95.7729 196.577 95.7729 197.325C95.7729 198.084 95.9089 198.725 96.1809 199.246C96.4643 199.767 96.8383 200.158 97.3029 200.419C97.7676 200.668 98.2776 200.793 98.8329 200.793ZM113.906 192.684V202H112.359V200.623C112.064 201.099 111.651 201.473 111.118 201.745C110.597 202.006 110.019 202.136 109.384 202.136C108.659 202.136 108.007 201.989 107.429 201.694C106.851 201.388 106.392 200.935 106.052 200.334C105.723 199.733 105.559 199.002 105.559 198.141V192.684H107.089V197.937C107.089 198.855 107.321 199.563 107.786 200.062C108.251 200.549 108.885 200.793 109.69 200.793C110.517 200.793 111.169 200.538 111.645 200.028C112.121 199.518 112.359 198.776 112.359 197.801V192.684H113.906ZM119.986 200.572L122.876 192.684H124.525L120.87 202H119.068L115.413 192.684H117.079L119.986 200.572ZM127.594 194.197C127.866 193.664 128.252 193.251 128.75 192.956C129.26 192.661 129.878 192.514 130.603 192.514V194.112H130.195C128.461 194.112 127.594 195.053 127.594 196.934V202H126.047V192.684H127.594V194.197ZM140.889 196.985C140.889 197.28 140.872 197.591 140.838 197.92H133.392C133.449 198.838 133.76 199.558 134.327 200.079C134.905 200.589 135.602 200.844 136.418 200.844C137.087 200.844 137.642 200.691 138.084 200.385C138.537 200.068 138.855 199.648 139.036 199.127H140.702C140.453 200.022 139.954 200.753 139.206 201.32C138.458 201.875 137.529 202.153 136.418 202.153C135.534 202.153 134.741 201.955 134.038 201.558C133.347 201.161 132.803 200.6 132.406 199.875C132.009 199.138 131.811 198.288 131.811 197.325C131.811 196.362 132.004 195.517 132.389 194.792C132.774 194.067 133.313 193.511 134.004 193.126C134.707 192.729 135.511 192.531 136.418 192.531C137.302 192.531 138.084 192.724 138.764 193.109C139.444 193.494 139.965 194.027 140.328 194.707C140.702 195.376 140.889 196.135 140.889 196.985ZM139.291 196.662C139.291 196.073 139.161 195.568 138.9 195.149C138.639 194.718 138.282 194.395 137.829 194.18C137.387 193.953 136.894 193.84 136.35 193.84C135.568 193.84 134.899 194.089 134.344 194.588C133.8 195.087 133.488 195.778 133.409 196.662H139.291ZM144.087 200.725H148.66V202H142.319V200.725L146.841 193.942H142.353V192.684H148.626V193.942L144.087 200.725ZM154.622 197.308C154.622 196.356 154.814 195.523 155.2 194.809C155.585 194.084 156.112 193.523 156.781 193.126C157.461 192.729 158.22 192.531 159.059 192.531C159.784 192.531 160.458 192.701 161.082 193.041C161.705 193.37 162.181 193.806 162.51 194.35V189.42H164.074V202H162.51V200.249C162.204 200.804 161.75 201.263 161.15 201.626C160.549 201.977 159.846 202.153 159.042 202.153C158.214 202.153 157.461 201.949 156.781 201.541C156.112 201.133 155.585 200.561 155.2 199.824C154.814 199.087 154.622 198.249 154.622 197.308ZM162.51 197.325C162.51 196.622 162.368 196.01 162.085 195.489C161.801 194.968 161.416 194.571 160.929 194.299C160.453 194.016 159.926 193.874 159.348 193.874C158.77 193.874 158.243 194.01 157.767 194.282C157.291 194.554 156.911 194.951 156.628 195.472C156.344 195.993 156.203 196.605 156.203 197.308C156.203 198.022 156.344 198.645 156.628 199.178C156.911 199.699 157.291 200.102 157.767 200.385C158.243 200.657 158.77 200.793 159.348 200.793C159.926 200.793 160.453 200.657 160.929 200.385C161.416 200.102 161.801 199.699 162.085 199.178C162.368 198.645 162.51 198.028 162.51 197.325ZM175.188 196.985C175.188 197.28 175.171 197.591 175.137 197.92H167.691C167.748 198.838 168.059 199.558 168.626 200.079C169.204 200.589 169.901 200.844 170.717 200.844C171.386 200.844 171.941 200.691 172.383 200.385C172.836 200.068 173.154 199.648 173.335 199.127H175.001C174.752 200.022 174.253 200.753 173.505 201.32C172.757 201.875 171.828 202.153 170.717 202.153C169.833 202.153 169.04 201.955 168.337 201.558C167.646 201.161 167.102 200.6 166.705 199.875C166.308 199.138 166.11 198.288 166.11 197.325C166.11 196.362 166.303 195.517 166.688 194.792C167.073 194.067 167.612 193.511 168.303 193.126C169.006 192.729 169.81 192.531 170.717 192.531C171.601 192.531 172.383 192.724 173.063 193.109C173.743 193.494 174.264 194.027 174.627 194.707C175.001 195.376 175.188 196.135 175.188 196.985ZM173.59 196.662C173.59 196.073 173.46 195.568 173.199 195.149C172.938 194.718 172.581 194.395 172.128 194.18C171.686 193.953 171.193 193.84 170.649 193.84C169.867 193.84 169.198 194.089 168.643 194.588C168.099 195.087 167.787 195.778 167.708 196.662H173.59ZM180.528 202.153C179.814 202.153 179.174 202.034 178.607 201.796C178.04 201.547 177.593 201.207 177.264 200.776C176.935 200.334 176.754 199.83 176.72 199.263H178.318C178.363 199.728 178.579 200.107 178.964 200.402C179.361 200.697 179.876 200.844 180.511 200.844C181.1 200.844 181.565 200.714 181.905 200.453C182.245 200.192 182.415 199.864 182.415 199.467C182.415 199.059 182.234 198.759 181.871 198.566C181.508 198.362 180.947 198.164 180.188 197.971C179.497 197.79 178.93 197.608 178.488 197.427C178.057 197.234 177.683 196.957 177.366 196.594C177.06 196.22 176.907 195.733 176.907 195.132C176.907 194.656 177.049 194.22 177.332 193.823C177.615 193.426 178.018 193.115 178.539 192.888C179.06 192.65 179.655 192.531 180.324 192.531C181.355 192.531 182.188 192.792 182.823 193.313C183.458 193.834 183.798 194.548 183.843 195.455H182.296C182.262 194.968 182.064 194.577 181.701 194.282C181.35 193.987 180.874 193.84 180.273 193.84C179.718 193.84 179.276 193.959 178.947 194.197C178.618 194.435 178.454 194.747 178.454 195.132C178.454 195.438 178.55 195.693 178.743 195.897C178.947 196.09 179.196 196.248 179.491 196.373C179.797 196.486 180.216 196.617 180.749 196.764C181.418 196.945 181.962 197.127 182.381 197.308C182.8 197.478 183.157 197.739 183.452 198.09C183.758 198.441 183.917 198.9 183.928 199.467C183.928 199.977 183.786 200.436 183.503 200.844C183.22 201.252 182.817 201.575 182.296 201.813C181.786 202.04 181.197 202.153 180.528 202.153ZM192.191 194.197C192.463 193.664 192.848 193.251 193.347 192.956C193.857 192.661 194.475 192.514 195.2 192.514V194.112H194.792C193.058 194.112 192.191 195.053 192.191 196.934V202H190.644V192.684H192.191V194.197ZM205.486 196.985C205.486 197.28 205.469 197.591 205.435 197.92H197.989C198.045 198.838 198.357 199.558 198.924 200.079C199.502 200.589 200.199 200.844 201.015 200.844C201.683 200.844 202.239 200.691 202.681 200.385C203.134 200.068 203.451 199.648 203.633 199.127H205.299C205.049 200.022 204.551 200.753 203.803 201.32C203.055 201.875 202.125 202.153 201.015 202.153C200.131 202.153 199.337 201.955 198.635 201.558C197.943 201.161 197.399 200.6 197.003 199.875C196.606 199.138 196.408 198.288 196.408 197.325C196.408 196.362 196.6 195.517 196.986 194.792C197.371 194.067 197.909 193.511 198.601 193.126C199.303 192.729 200.108 192.531 201.015 192.531C201.899 192.531 202.681 192.724 203.361 193.109C204.041 193.494 204.562 194.027 204.925 194.707C205.299 195.376 205.486 196.135 205.486 196.985ZM203.888 196.662C203.888 196.073 203.757 195.568 203.497 195.149C203.236 194.718 202.879 194.395 202.426 194.18C201.984 193.953 201.491 193.84 200.947 193.84C200.165 193.84 199.496 194.089 198.941 194.588C198.397 195.087 198.085 195.778 198.006 196.662H203.888ZM206.95 197.325C206.95 196.362 207.142 195.523 207.528 194.809C207.913 194.084 208.446 193.523 209.126 193.126C209.817 192.729 210.605 192.531 211.489 192.531C212.633 192.531 213.574 192.809 214.311 193.364C215.059 193.919 215.552 194.69 215.79 195.676H214.124C213.965 195.109 213.653 194.662 213.189 194.333C212.735 194.004 212.169 193.84 211.489 193.84C210.605 193.84 209.891 194.146 209.347 194.758C208.803 195.359 208.531 196.214 208.531 197.325C208.531 198.447 208.803 199.314 209.347 199.926C209.891 200.538 210.605 200.844 211.489 200.844C212.169 200.844 212.735 200.685 213.189 200.368C213.642 200.051 213.954 199.597 214.124 199.008H215.79C215.54 199.96 215.042 200.725 214.294 201.303C213.546 201.87 212.611 202.153 211.489 202.153C210.605 202.153 209.817 201.955 209.126 201.558C208.446 201.161 207.913 200.6 207.528 199.875C207.142 199.15 206.95 198.3 206.95 197.325ZM226.354 196.985C226.354 197.28 226.337 197.591 226.303 197.92H218.857C218.914 198.838 219.225 199.558 219.792 200.079C220.37 200.589 221.067 200.844 221.883 200.844C222.552 200.844 223.107 200.691 223.549 200.385C224.002 200.068 224.32 199.648 224.501 199.127H226.167C225.918 200.022 225.419 200.753 224.671 201.32C223.923 201.875 222.994 202.153 221.883 202.153C220.999 202.153 220.206 201.955 219.503 201.558C218.812 201.161 218.268 200.6 217.871 199.875C217.474 199.138 217.276 198.288 217.276 197.325C217.276 196.362 217.469 195.517 217.854 194.792C218.239 194.067 218.778 193.511 219.469 193.126C220.172 192.729 220.976 192.531 221.883 192.531C222.767 192.531 223.549 192.724 224.229 193.109C224.909 193.494 225.43 194.027 225.793 194.707C226.167 195.376 226.354 196.135 226.354 196.985ZM224.756 196.662C224.756 196.073 224.626 195.568 224.365 195.149C224.104 194.718 223.747 194.395 223.294 194.18C222.852 193.953 222.359 193.84 221.815 193.84C221.033 193.84 220.364 194.089 219.809 194.588C219.265 195.087 218.953 195.778 218.874 196.662H224.756ZM230.283 193.959V199.45C230.283 199.903 230.379 200.226 230.572 200.419C230.765 200.6 231.099 200.691 231.575 200.691H232.714V202H231.32C230.459 202 229.813 201.802 229.382 201.405C228.951 201.008 228.736 200.357 228.736 199.45V193.959H227.529V192.684H228.736V190.338H230.283V192.684H232.714V193.959H230.283ZM236.475 193.959V199.45C236.475 199.903 236.572 200.226 236.764 200.419C236.957 200.6 237.291 200.691 237.767 200.691H238.906V202H237.512C236.651 202 236.005 201.802 235.574 201.405C235.144 201.008 234.928 200.357 234.928 199.45V193.959H233.721V192.684H234.928V190.338H236.475V192.684H238.906V193.959H236.475ZM249.281 196.985C249.281 197.28 249.264 197.591 249.23 197.92H241.784C241.84 198.838 242.152 199.558 242.719 200.079C243.297 200.589 243.994 200.844 244.81 200.844C245.478 200.844 246.034 200.691 246.476 200.385C246.929 200.068 247.246 199.648 247.428 199.127H249.094C248.844 200.022 248.346 200.753 247.598 201.32C246.85 201.875 245.92 202.153 244.81 202.153C243.926 202.153 243.132 201.955 242.43 201.558C241.738 201.161 241.194 200.6 240.798 199.875C240.401 199.138 240.203 198.288 240.203 197.325C240.203 196.362 240.395 195.517 240.781 194.792C241.166 194.067 241.704 193.511 242.396 193.126C243.098 192.729 243.903 192.531 244.81 192.531C245.694 192.531 246.476 192.724 247.156 193.109C247.836 193.494 248.357 194.027 248.72 194.707C249.094 195.376 249.281 196.135 249.281 196.985ZM247.683 196.662C247.683 196.073 247.552 195.568 247.292 195.149C247.031 194.718 246.674 194.395 246.221 194.18C245.779 193.953 245.286 193.84 244.742 193.84C243.96 193.84 243.291 194.089 242.736 194.588C242.192 195.087 241.88 195.778 241.801 196.662H247.683ZM254.621 202.153C253.907 202.153 253.266 202.034 252.7 201.796C252.133 201.547 251.685 201.207 251.357 200.776C251.028 200.334 250.847 199.83 250.813 199.263H252.411C252.456 199.728 252.671 200.107 253.057 200.402C253.453 200.697 253.969 200.844 254.604 200.844C255.193 200.844 255.658 200.714 255.998 200.453C256.338 200.192 256.508 199.864 256.508 199.467C256.508 199.059 256.326 198.759 255.964 198.566C255.601 198.362 255.04 198.164 254.281 197.971C253.589 197.79 253.023 197.608 252.581 197.427C252.15 197.234 251.776 196.957 251.459 196.594C251.153 196.22 251 195.733 251 195.132C251 194.656 251.141 194.22 251.425 193.823C251.708 193.426 252.11 193.115 252.632 192.888C253.153 192.65 253.748 192.531 254.417 192.531C255.448 192.531 256.281 192.792 256.916 193.313C257.55 193.834 257.89 194.548 257.936 195.455H256.389C256.355 194.968 256.156 194.577 255.794 194.282C255.442 193.987 254.966 193.84 254.366 193.84C253.81 193.84 253.368 193.959 253.04 194.197C252.711 194.435 252.547 194.747 252.547 195.132C252.547 195.438 252.643 195.693 252.836 195.897C253.04 196.09 253.289 196.248 253.584 196.373C253.89 196.486 254.309 196.617 254.842 196.764C255.51 196.945 256.054 197.127 256.474 197.308C256.893 197.478 257.25 197.739 257.545 198.09C257.851 198.441 258.009 198.9 258.021 199.467C258.021 199.977 257.879 200.436 257.596 200.844C257.312 201.252 256.91 201.575 256.389 201.813C255.879 202.04 255.289 202.153 254.621 202.153ZM77.2662 230.153C76.5522 230.153 75.9118 230.034 75.3452 229.796C74.7785 229.547 74.3308 229.207 74.0022 228.776C73.6735 228.334 73.4922 227.83 73.4582 227.263H75.0562C75.1015 227.728 75.3168 228.107 75.7022 228.402C76.0988 228.697 76.6145 228.844 77.2492 228.844C77.8385 228.844 78.3032 228.714 78.6432 228.453C78.9832 228.192 79.1532 227.864 79.1532 227.467C79.1532 227.059 78.9718 226.759 78.6092 226.566C78.2465 226.362 77.6855 226.164 76.9262 225.971C76.2348 225.79 75.6682 225.608 75.2262 225.427C74.7955 225.234 74.4215 224.957 74.1042 224.594C73.7982 224.22 73.6452 223.733 73.6452 223.132C73.6452 222.656 73.7868 222.22 74.0702 221.823C74.3535 221.426 74.7558 221.115 75.2772 220.888C75.7985 220.65 76.3935 220.531 77.0622 220.531C78.0935 220.531 78.9265 220.792 79.5612 221.313C80.1958 221.834 80.5358 222.548 80.5812 223.455H79.0342C79.0002 222.968 78.8018 222.577 78.4392 222.282C78.0878 221.987 77.6118 221.84 77.0112 221.84C76.4558 221.84 76.0138 221.959 75.6852 222.197C75.3565 222.435 75.1922 222.747 75.1922 223.132C75.1922 223.438 75.2885 223.693 75.4812 223.897C75.6852 224.09 75.9345 224.248 76.2292 224.373C76.5352 224.486 76.9545 224.617 77.4872 224.764C78.1558 224.945 78.6998 225.127 79.1192 225.308C79.5385 225.478 79.8955 225.739 80.1902 226.09C80.4962 226.441 80.6548 226.9 80.6662 227.467C80.6662 227.977 80.5245 228.436 80.2412 228.844C79.9578 229.252 79.5555 229.575 79.0342 229.813C78.5242 230.04 77.9348 230.153 77.2662 230.153ZM83.649 219.171C83.3543 219.171 83.105 219.069 82.901 218.865C82.697 218.661 82.595 218.412 82.595 218.117C82.595 217.822 82.697 217.573 82.901 217.369C83.105 217.165 83.3543 217.063 83.649 217.063C83.9323 217.063 84.1703 217.165 84.363 217.369C84.567 217.573 84.669 217.822 84.669 218.117C84.669 218.412 84.567 218.661 84.363 218.865C84.1703 219.069 83.9323 219.171 83.649 219.171ZM84.397 220.684V230H82.85V220.684H84.397ZM98.2366 220.514C98.9619 220.514 99.6079 220.667 100.175 220.973C100.741 221.268 101.189 221.715 101.518 222.316C101.846 222.917 102.011 223.648 102.011 224.509V230H100.481V224.73C100.481 223.801 100.248 223.092 99.7836 222.605C99.3303 222.106 98.7126 221.857 97.9306 221.857C97.1259 221.857 96.4856 222.118 96.0096 222.639C95.5336 223.149 95.2956 223.891 95.2956 224.866V230H93.7656V224.73C93.7656 223.801 93.5333 223.092 93.0686 222.605C92.6153 222.106 91.9976 221.857 91.2156 221.857C90.4109 221.857 89.7706 222.118 89.2946 222.639C88.8186 223.149 88.5806 223.891 88.5806 224.866V230H87.0336V220.684H88.5806V222.027C88.8866 221.54 89.2946 221.166 89.8046 220.905C90.3259 220.644 90.8983 220.514 91.5216 220.514C92.3036 220.514 92.9949 220.69 93.5956 221.041C94.1963 221.392 94.6439 221.908 94.9386 222.588C95.1993 221.931 95.6299 221.421 96.2306 221.058C96.8313 220.695 97.4999 220.514 98.2366 220.514ZM106.095 222.401C106.401 221.868 106.855 221.426 107.455 221.075C108.067 220.712 108.776 220.531 109.58 220.531C110.408 220.531 111.156 220.729 111.824 221.126C112.504 221.523 113.037 222.084 113.422 222.809C113.808 223.523 114 224.356 114 225.308C114 226.249 113.808 227.087 113.422 227.824C113.037 228.561 112.504 229.133 111.824 229.541C111.156 229.949 110.408 230.153 109.58 230.153C108.787 230.153 108.084 229.977 107.472 229.626C106.872 229.263 106.413 228.816 106.095 228.283V234.42H104.548V220.684H106.095V222.401ZM112.419 225.308C112.419 224.605 112.278 223.993 111.994 223.472C111.711 222.951 111.326 222.554 110.838 222.282C110.362 222.01 109.835 221.874 109.257 221.874C108.691 221.874 108.164 222.016 107.676 222.299C107.2 222.571 106.815 222.973 106.52 223.506C106.237 224.027 106.095 224.634 106.095 225.325C106.095 226.028 106.237 226.645 106.52 227.178C106.815 227.699 107.2 228.102 107.676 228.385C108.164 228.657 108.691 228.793 109.257 228.793C109.835 228.793 110.362 228.657 110.838 228.385C111.326 228.102 111.711 227.699 111.994 227.178C112.278 226.645 112.419 226.022 112.419 225.308ZM117.584 217.42V230H116.037V217.42H117.584ZM128.72 224.985C128.72 225.28 128.703 225.591 128.669 225.92H121.223C121.28 226.838 121.591 227.558 122.158 228.079C122.736 228.589 123.433 228.844 124.249 228.844C124.918 228.844 125.473 228.691 125.915 228.385C126.368 228.068 126.686 227.648 126.867 227.127H128.533C128.284 228.022 127.785 228.753 127.037 229.32C126.289 229.875 125.36 230.153 124.249 230.153C123.365 230.153 122.572 229.955 121.869 229.558C121.178 229.161 120.634 228.6 120.237 227.875C119.84 227.138 119.642 226.288 119.642 225.325C119.642 224.362 119.835 223.517 120.22 222.792C120.605 222.067 121.144 221.511 121.835 221.126C122.538 220.729 123.342 220.531 124.249 220.531C125.133 220.531 125.915 220.724 126.595 221.109C127.275 221.494 127.796 222.027 128.159 222.707C128.533 223.376 128.72 224.135 128.72 224.985ZM127.122 224.662C127.122 224.073 126.992 223.568 126.731 223.149C126.47 222.718 126.113 222.395 125.66 222.18C125.218 221.953 124.725 221.84 124.181 221.84C123.399 221.84 122.73 222.089 122.175 222.588C121.631 223.087 121.319 223.778 121.24 224.662H127.122ZM134.06 230.153C133.346 230.153 132.706 230.034 132.139 229.796C131.572 229.547 131.125 229.207 130.796 228.776C130.467 228.334 130.286 227.83 130.252 227.263H131.85C131.895 227.728 132.111 228.107 132.496 228.402C132.893 228.697 133.408 228.844 134.043 228.844C134.632 228.844 135.097 228.714 135.437 228.453C135.777 228.192 135.947 227.864 135.947 227.467C135.947 227.059 135.766 226.759 135.403 226.566C135.04 226.362 134.479 226.164 133.72 225.971C133.029 225.79 132.462 225.608 132.02 225.427C131.589 225.234 131.215 224.957 130.898 224.594C130.592 224.22 130.439 223.733 130.439 223.132C130.439 222.656 130.581 222.22 130.864 221.823C131.147 221.426 131.55 221.115 132.071 220.888C132.592 220.65 133.187 220.531 133.856 220.531C134.887 220.531 135.72 220.792 136.355 221.313C136.99 221.834 137.33 222.548 137.375 223.455H135.828C135.794 222.968 135.596 222.577 135.233 222.282C134.882 221.987 134.406 221.84 133.805 221.84C133.25 221.84 132.808 221.959 132.479 222.197C132.15 222.435 131.986 222.747 131.986 223.132C131.986 223.438 132.082 223.693 132.275 223.897C132.479 224.09 132.728 224.248 133.023 224.373C133.329 224.486 133.748 224.617 134.281 224.764C134.95 224.945 135.494 225.127 135.913 225.308C136.332 225.478 136.689 225.739 136.984 226.09C137.29 226.441 137.449 226.9 137.46 227.467C137.46 227.977 137.318 228.436 137.035 228.844C136.752 229.252 136.349 229.575 135.828 229.813C135.318 230.04 134.729 230.153 134.06 230.153ZM143.598 225.308C143.598 224.356 143.791 223.523 144.176 222.809C144.562 222.084 145.089 221.523 145.757 221.126C146.437 220.729 147.191 220.531 148.018 220.531C148.834 220.531 149.543 220.707 150.143 221.058C150.744 221.409 151.192 221.851 151.486 222.384V220.684H153.05V230H151.486V228.266C151.18 228.81 150.721 229.263 150.109 229.626C149.509 229.977 148.806 230.153 148.001 230.153C147.174 230.153 146.426 229.949 145.757 229.541C145.089 229.133 144.562 228.561 144.176 227.824C143.791 227.087 143.598 226.249 143.598 225.308ZM151.486 225.325C151.486 224.622 151.345 224.01 151.061 223.489C150.778 222.968 150.393 222.571 149.905 222.299C149.429 222.016 148.902 221.874 148.324 221.874C147.746 221.874 147.219 222.01 146.743 222.282C146.267 222.554 145.888 222.951 145.604 223.472C145.321 223.993 145.179 224.605 145.179 225.308C145.179 226.022 145.321 226.645 145.604 227.178C145.888 227.699 146.267 228.102 146.743 228.385C147.219 228.657 147.746 228.793 148.324 228.793C148.902 228.793 149.429 228.657 149.905 228.385C150.393 228.102 150.778 227.699 151.061 227.178C151.345 226.645 151.486 226.028 151.486 225.325ZM150.279 218.831V219.987L146.658 218.049V216.706L150.279 218.831ZM161.744 222.197C162.016 221.664 162.401 221.251 162.9 220.956C163.41 220.661 164.027 220.514 164.753 220.514V222.112H164.345C162.611 222.112 161.744 223.053 161.744 224.934V230H160.197V220.684H161.744V222.197ZM175.038 224.985C175.038 225.28 175.021 225.591 174.987 225.92H167.541C167.598 226.838 167.91 227.558 168.476 228.079C169.054 228.589 169.751 228.844 170.567 228.844C171.236 228.844 171.791 228.691 172.233 228.385C172.687 228.068 173.004 227.648 173.185 227.127H174.851C174.602 228.022 174.103 228.753 173.355 229.32C172.607 229.875 171.678 230.153 170.567 230.153C169.683 230.153 168.89 229.955 168.187 229.558C167.496 229.161 166.952 228.6 166.555 227.875C166.159 227.138 165.96 226.288 165.96 225.325C165.96 224.362 166.153 223.517 166.538 222.792C166.924 222.067 167.462 221.511 168.153 221.126C168.856 220.729 169.661 220.531 170.567 220.531C171.451 220.531 172.233 220.724 172.913 221.109C173.593 221.494 174.115 222.027 174.477 222.707C174.851 223.376 175.038 224.135 175.038 224.985ZM173.44 224.662C173.44 224.073 173.31 223.568 173.049 223.149C172.789 222.718 172.432 222.395 171.978 222.18C171.536 221.953 171.043 221.84 170.499 221.84C169.717 221.84 169.049 222.089 168.493 222.588C167.949 223.087 167.638 223.778 167.558 224.662H173.44ZM172.165 218.049L168.544 219.987V218.831L172.165 216.706V218.049ZM176.502 225.308C176.502 224.356 176.695 223.523 177.08 222.809C177.466 222.084 177.993 221.523 178.661 221.126C179.341 220.729 180.095 220.531 180.922 220.531C181.738 220.531 182.447 220.707 183.047 221.058C183.648 221.409 184.096 221.851 184.39 222.384V220.684H185.954V230H184.39V228.266C184.084 228.81 183.625 229.263 183.013 229.626C182.413 229.977 181.71 230.153 180.905 230.153C180.078 230.153 179.33 229.949 178.661 229.541C177.993 229.133 177.466 228.561 177.08 227.824C176.695 227.087 176.502 226.249 176.502 225.308ZM184.39 225.325C184.39 224.622 184.249 224.01 183.965 223.489C183.682 222.968 183.297 222.571 182.809 222.299C182.333 222.016 181.806 221.874 181.228 221.874C180.65 221.874 180.123 222.01 179.647 222.282C179.171 222.554 178.792 222.951 178.508 223.472C178.225 223.993 178.083 224.605 178.083 225.308C178.083 226.022 178.225 226.645 178.508 227.178C178.792 227.699 179.171 228.102 179.647 228.385C180.123 228.657 180.65 228.793 181.228 228.793C181.806 228.793 182.333 228.657 182.809 228.385C183.297 228.102 183.682 227.699 183.965 227.178C184.249 226.645 184.39 226.028 184.39 225.325ZM190.116 217.42V230H188.569V217.42H190.116ZM193.551 219.171C193.257 219.171 193.007 219.069 192.803 218.865C192.599 218.661 192.497 218.412 192.497 218.117C192.497 217.822 192.599 217.573 192.803 217.369C193.007 217.165 193.257 217.063 193.551 217.063C193.835 217.063 194.073 217.165 194.265 217.369C194.469 217.573 194.571 217.822 194.571 218.117C194.571 218.412 194.469 218.661 194.265 218.865C194.073 219.069 193.835 219.171 193.551 219.171ZM194.299 220.684V230H192.752V220.684H194.299ZM200.234 230.153C199.52 230.153 198.88 230.034 198.313 229.796C197.746 229.547 197.299 229.207 196.97 228.776C196.641 228.334 196.46 227.83 196.426 227.263H198.024C198.069 227.728 198.285 228.107 198.67 228.402C199.067 228.697 199.582 228.844 200.217 228.844C200.806 228.844 201.271 228.714 201.611 228.453C201.951 228.192 202.121 227.864 202.121 227.467C202.121 227.059 201.94 226.759 201.577 226.566C201.214 226.362 200.653 226.164 199.894 225.971C199.203 225.79 198.636 225.608 198.194 225.427C197.763 225.234 197.389 224.957 197.072 224.594C196.766 224.22 196.613 223.733 196.613 223.132C196.613 222.656 196.755 222.22 197.038 221.823C197.321 221.426 197.724 221.115 198.245 220.888C198.766 220.65 199.361 220.531 200.03 220.531C201.061 220.531 201.894 220.792 202.529 221.313C203.164 221.834 203.504 222.548 203.549 223.455H202.002C201.968 222.968 201.77 222.577 201.407 222.282C201.056 221.987 200.58 221.84 199.979 221.84C199.424 221.84 198.982 221.959 198.653 222.197C198.324 222.435 198.16 222.747 198.16 223.132C198.16 223.438 198.256 223.693 198.449 223.897C198.653 224.09 198.902 224.248 199.197 224.373C199.503 224.486 199.922 224.617 200.455 224.764C201.124 224.945 201.668 225.127 202.087 225.308C202.506 225.478 202.863 225.739 203.158 226.09C203.464 226.441 203.623 226.9 203.634 227.467C203.634 227.977 203.492 228.436 203.209 228.844C202.926 229.252 202.523 229.575 202.002 229.813C201.492 230.04 200.903 230.153 200.234 230.153ZM214.318 224.985C214.318 225.28 214.301 225.591 214.267 225.92H206.821C206.877 226.838 207.189 227.558 207.756 228.079C208.334 228.589 209.031 228.844 209.847 228.844C210.515 228.844 211.071 228.691 211.513 228.385C211.966 228.068 212.283 227.648 212.465 227.127H214.131C213.881 228.022 213.383 228.753 212.635 229.32C211.887 229.875 210.957 230.153 209.847 230.153C208.963 230.153 208.169 229.955 207.467 229.558C206.775 229.161 206.231 228.6 205.835 227.875C205.438 227.138 205.24 226.288 205.24 225.325C205.24 224.362 205.432 223.517 205.818 222.792C206.203 222.067 206.741 221.511 207.433 221.126C208.135 220.729 208.94 220.531 209.847 220.531C210.731 220.531 211.513 220.724 212.193 221.109C212.873 221.494 213.394 222.027 213.757 222.707C214.131 223.376 214.318 224.135 214.318 224.985ZM212.72 224.662C212.72 224.073 212.589 223.568 212.329 223.149C212.068 222.718 211.711 222.395 211.258 222.18C210.816 221.953 210.323 221.84 209.779 221.84C208.997 221.84 208.328 222.089 207.773 222.588C207.229 223.087 206.917 223.778 206.838 224.662H212.72ZM217.907 222.197C218.179 221.664 218.564 221.251 219.063 220.956C219.573 220.661 220.19 220.514 220.916 220.514V222.112H220.508C218.774 222.112 217.907 223.053 217.907 224.934V230H216.36V220.684H217.907V222.197ZM235.734 224.985C235.734 225.28 235.717 225.591 235.683 225.92H228.237C228.293 226.838 228.605 227.558 229.172 228.079C229.75 228.589 230.447 228.844 231.263 228.844C231.931 228.844 232.487 228.691 232.929 228.385C233.382 228.068 233.699 227.648 233.881 227.127H235.547C235.297 228.022 234.799 228.753 234.051 229.32C233.303 229.875 232.373 230.153 231.263 230.153C230.379 230.153 229.585 229.955 228.883 229.558C228.191 229.161 227.647 228.6 227.251 227.875C226.854 227.138 226.656 226.288 226.656 225.325C226.656 224.362 226.848 223.517 227.234 222.792C227.619 222.067 228.157 221.511 228.849 221.126C229.551 220.729 230.356 220.531 231.263 220.531C232.147 220.531 232.929 220.724 233.609 221.109C234.289 221.494 234.81 222.027 235.173 222.707C235.547 223.376 235.734 224.135 235.734 224.985ZM234.136 224.662C234.136 224.073 234.005 223.568 233.745 223.149C233.484 222.718 233.127 222.395 232.674 222.18C232.232 221.953 231.739 221.84 231.195 221.84C230.413 221.84 229.744 222.089 229.189 222.588C228.645 223.087 228.333 223.778 228.254 224.662H234.136ZM242.315 220.514C243.448 220.514 244.366 220.86 245.069 221.551C245.771 222.231 246.123 223.217 246.123 224.509V230H244.593V224.73C244.593 223.801 244.36 223.092 243.896 222.605C243.431 222.106 242.796 221.857 241.992 221.857C241.176 221.857 240.524 222.112 240.037 222.622C239.561 223.132 239.323 223.874 239.323 224.849V230H237.776V220.684H239.323V222.01C239.629 221.534 240.042 221.166 240.564 220.905C241.096 220.644 241.68 220.514 242.315 220.514ZM72.0067 249.959H70.0517V258H68.5047V249.959H67.2977V248.684H68.5047V248.021C68.5047 246.978 68.7711 246.219 69.3037 245.743C69.8477 245.256 70.7147 245.012 71.9047 245.012V246.304C71.2247 246.304 70.7431 246.44 70.4597 246.712C70.1877 246.973 70.0517 247.409 70.0517 248.021V248.684H72.0067V249.959ZM73.2325 253.308C73.2325 252.356 73.4251 251.523 73.8105 250.809C74.1958 250.084 74.7228 249.523 75.3915 249.126C76.0715 248.729 76.8251 248.531 77.6525 248.531C78.4685 248.531 79.1768 248.707 79.7775 249.058C80.3781 249.409 80.8258 249.851 81.1205 250.384V248.684H82.6845V258H81.1205V256.266C80.8145 256.81 80.3555 257.263 79.7435 257.626C79.1428 257.977 78.4401 258.153 77.6355 258.153C76.8081 258.153 76.0601 257.949 75.3915 257.541C74.7228 257.133 74.1958 256.561 73.8105 255.824C73.4251 255.087 73.2325 254.249 73.2325 253.308ZM81.1205 253.325C81.1205 252.622 80.9788 252.01 80.6955 251.489C80.4121 250.968 80.0268 250.571 79.5395 250.299C79.0635 250.016 78.5365 249.874 77.9585 249.874C77.3805 249.874 76.8535 250.01 76.3775 250.282C75.9015 250.554 75.5218 250.951 75.2385 251.472C74.9551 251.993 74.8135 252.605 74.8135 253.308C74.8135 254.022 74.9551 254.645 75.2385 255.178C75.5218 255.699 75.9015 256.102 76.3775 256.385C76.8535 256.657 77.3805 256.793 77.9585 256.793C78.5365 256.793 79.0635 256.657 79.5395 256.385C80.0268 256.102 80.4121 255.699 80.6955 255.178C80.9788 254.645 81.1205 254.028 81.1205 253.325ZM96.5017 248.514C97.2271 248.514 97.8731 248.667 98.4397 248.973C99.0064 249.268 99.4541 249.715 99.7827 250.316C100.111 250.917 100.276 251.648 100.276 252.509V258H98.7457V252.73C98.7457 251.801 98.5134 251.092 98.0487 250.605C97.5954 250.106 96.9777 249.857 96.1957 249.857C95.3911 249.857 94.7507 250.118 94.2747 250.639C93.7987 251.149 93.5607 251.891 93.5607 252.866V258H92.0307V252.73C92.0307 251.801 91.7984 251.092 91.3337 250.605C90.8804 250.106 90.2627 249.857 89.4807 249.857C88.6761 249.857 88.0357 250.118 87.5597 250.639C87.0837 251.149 86.8457 251.891 86.8457 252.866V258H85.2987V248.684H86.8457V250.027C87.1517 249.54 87.5597 249.166 88.0697 248.905C88.5911 248.644 89.1634 248.514 89.7867 248.514C90.5687 248.514 91.2601 248.69 91.8607 249.041C92.4614 249.392 92.9091 249.908 93.2037 250.588C93.4644 249.931 93.8951 249.421 94.4957 249.058C95.0964 248.695 95.7651 248.514 96.5017 248.514ZM103.612 247.171C103.318 247.171 103.068 247.069 102.864 246.865C102.66 246.661 102.558 246.412 102.558 246.117C102.558 245.822 102.66 245.573 102.864 245.369C103.068 245.165 103.318 245.063 103.612 245.063C103.896 245.063 104.134 245.165 104.326 245.369C104.53 245.573 104.632 245.822 104.632 246.117C104.632 246.412 104.53 246.661 104.326 246.865C104.134 247.069 103.896 247.171 103.612 247.171ZM104.36 248.684V258H102.813V248.684H104.36ZM108.544 245.42V258H106.997V245.42H108.544ZM112.728 245.42V258H111.181V245.42H112.728ZM123.864 252.985C123.864 253.28 123.847 253.591 123.813 253.92H116.367C116.424 254.838 116.736 255.558 117.302 256.079C117.88 256.589 118.577 256.844 119.393 256.844C120.062 256.844 120.617 256.691 121.059 256.385C121.513 256.068 121.83 255.648 122.011 255.127H123.677C123.428 256.022 122.929 256.753 122.181 257.32C121.433 257.875 120.504 258.153 119.393 258.153C118.509 258.153 117.716 257.955 117.013 257.558C116.322 257.161 115.778 256.6 115.381 255.875C114.985 255.138 114.786 254.288 114.786 253.325C114.786 252.362 114.979 251.517 115.364 250.792C115.75 250.067 116.288 249.511 116.979 249.126C117.682 248.729 118.487 248.531 119.393 248.531C120.277 248.531 121.059 248.724 121.739 249.109C122.419 249.494 122.941 250.027 123.303 250.707C123.677 251.376 123.864 252.135 123.864 252.985ZM122.266 252.662C122.266 252.073 122.136 251.568 121.875 251.149C121.615 250.718 121.258 250.395 120.804 250.18C120.362 249.953 119.869 249.84 119.325 249.84C118.543 249.84 117.875 250.089 117.319 250.588C116.775 251.087 116.464 251.778 116.384 252.662H122.266ZM127.504 255.858L125.6 260.431H124.563L125.804 255.858H127.504ZM142.309 252.985C142.309 253.28 142.292 253.591 142.258 253.92H134.812C134.868 254.838 135.18 255.558 135.747 256.079C136.325 256.589 137.022 256.844 137.838 256.844C138.506 256.844 139.062 256.691 139.504 256.385C139.957 256.068 140.274 255.648 140.456 255.127H142.122C141.872 256.022 141.374 256.753 140.626 257.32C139.878 257.875 138.948 258.153 137.838 258.153C136.954 258.153 136.16 257.955 135.458 257.558C134.766 257.161 134.222 256.6 133.826 255.875C133.429 255.138 133.231 254.288 133.231 253.325C133.231 252.362 133.423 251.517 133.809 250.792C134.194 250.067 134.732 249.511 135.424 249.126C136.126 248.729 136.931 248.531 137.838 248.531C138.722 248.531 139.504 248.724 140.184 249.109C140.864 249.494 141.385 250.027 141.748 250.707C142.122 251.376 142.309 252.135 142.309 252.985ZM140.711 252.662C140.711 252.073 140.58 251.568 140.32 251.149C140.059 250.718 139.702 250.395 139.249 250.18C138.807 249.953 138.314 249.84 137.77 249.84C136.988 249.84 136.319 250.089 135.764 250.588C135.22 251.087 134.908 251.778 134.829 252.662H140.711ZM148.89 248.514C150.023 248.514 150.941 248.86 151.644 249.551C152.346 250.231 152.698 251.217 152.698 252.509V258H151.168V252.73C151.168 251.801 150.935 251.092 150.471 250.605C150.006 250.106 149.371 249.857 148.567 249.857C147.751 249.857 147.099 250.112 146.612 250.622C146.136 251.132 145.898 251.874 145.898 252.849V258H144.351V248.684H145.898V250.01C146.204 249.534 146.617 249.166 147.139 248.905C147.671 248.644 148.255 248.514 148.89 248.514ZM157.112 249.959V255.45C157.112 255.903 157.208 256.226 157.401 256.419C157.593 256.6 157.928 256.691 158.404 256.691H159.543V258H158.149C157.287 258 156.641 257.802 156.211 257.405C155.78 257.008 155.565 256.357 155.565 255.45V249.959H154.358V248.684H155.565V246.338H157.112V248.684H159.543V249.959H157.112ZM162.964 250.197C163.236 249.664 163.621 249.251 164.12 248.956C164.63 248.661 165.248 248.514 165.973 248.514V250.112H165.565C163.831 250.112 162.964 251.053 162.964 252.934V258H161.417V248.684H162.964V250.197ZM176.259 252.985C176.259 253.28 176.242 253.591 176.208 253.92H168.762C168.818 254.838 169.13 255.558 169.697 256.079C170.275 256.589 170.972 256.844 171.788 256.844C172.456 256.844 173.012 256.691 173.454 256.385C173.907 256.068 174.224 255.648 174.406 255.127H176.072C175.822 256.022 175.324 256.753 174.576 257.32C173.828 257.875 172.898 258.153 171.788 258.153C170.904 258.153 170.11 257.955 169.408 257.558C168.716 257.161 168.172 256.6 167.776 255.875C167.379 255.138 167.181 254.288 167.181 253.325C167.181 252.362 167.373 251.517 167.759 250.792C168.144 250.067 168.682 249.511 169.374 249.126C170.076 248.729 170.881 248.531 171.788 248.531C172.672 248.531 173.454 248.724 174.134 249.109C174.814 249.494 175.335 250.027 175.698 250.707C176.072 251.376 176.259 252.135 176.259 252.985ZM174.661 252.662C174.661 252.073 174.53 251.568 174.27 251.149C174.009 250.718 173.652 250.395 173.199 250.18C172.757 249.953 172.264 249.84 171.72 249.84C170.938 249.84 170.269 250.089 169.714 250.588C169.17 251.087 168.858 251.778 168.779 252.662H174.661ZM182.255 253.308C182.255 252.356 182.448 251.523 182.833 250.809C183.218 250.084 183.745 249.523 184.414 249.126C185.094 248.729 185.848 248.531 186.675 248.531C187.491 248.531 188.199 248.707 188.8 249.058C189.401 249.409 189.848 249.851 190.143 250.384V248.684H191.707V258H190.143V256.266C189.837 256.81 189.378 257.263 188.766 257.626C188.165 257.977 187.463 258.153 186.658 258.153C185.831 258.153 185.083 257.949 184.414 257.541C183.745 257.133 183.218 256.561 182.833 255.824C182.448 255.087 182.255 254.249 182.255 253.308ZM190.143 253.325C190.143 252.622 190.001 252.01 189.718 251.489C189.435 250.968 189.049 250.571 188.562 250.299C188.086 250.016 187.559 249.874 186.981 249.874C186.403 249.874 185.876 250.01 185.4 250.282C184.924 250.554 184.544 250.951 184.261 251.472C183.978 251.993 183.836 252.605 183.836 253.308C183.836 254.022 183.978 254.645 184.261 255.178C184.544 255.699 184.924 256.102 185.4 256.385C185.876 256.657 186.403 256.793 186.981 256.793C187.559 256.793 188.086 256.657 188.562 256.385C189.049 256.102 189.435 255.699 189.718 255.178C190.001 254.645 190.143 254.028 190.143 253.325ZM205.524 248.514C206.25 248.514 206.896 248.667 207.462 248.973C208.029 249.268 208.477 249.715 208.805 250.316C209.134 250.917 209.298 251.648 209.298 252.509V258H207.768V252.73C207.768 251.801 207.536 251.092 207.071 250.605C206.618 250.106 206 249.857 205.218 249.857C204.414 249.857 203.773 250.118 203.297 250.639C202.821 251.149 202.583 251.891 202.583 252.866V258H201.053V252.73C201.053 251.801 200.821 251.092 200.356 250.605C199.903 250.106 199.285 249.857 198.503 249.857C197.699 249.857 197.058 250.118 196.582 250.639C196.106 251.149 195.868 251.891 195.868 252.866V258H194.321V248.684H195.868V250.027C196.174 249.54 196.582 249.166 197.092 248.905C197.614 248.644 198.186 248.514 198.809 248.514C199.591 248.514 200.283 248.69 200.883 249.041C201.484 249.392 201.932 249.908 202.226 250.588C202.487 249.931 202.918 249.421 203.518 249.058C204.119 248.695 204.788 248.514 205.524 248.514ZM212.635 247.171C212.34 247.171 212.091 247.069 211.887 246.865C211.683 246.661 211.581 246.412 211.581 246.117C211.581 245.822 211.683 245.573 211.887 245.369C212.091 245.165 212.34 245.063 212.635 245.063C212.918 245.063 213.156 245.165 213.349 245.369C213.553 245.573 213.655 245.822 213.655 246.117C213.655 246.412 213.553 246.661 213.349 246.865C213.156 247.069 212.918 247.171 212.635 247.171ZM213.383 248.684V258H211.836V248.684H213.383ZM219.317 258.153C218.603 258.153 217.963 258.034 217.396 257.796C216.83 257.547 216.382 257.207 216.053 256.776C215.725 256.334 215.543 255.83 215.509 255.263H217.107C217.153 255.728 217.368 256.107 217.753 256.402C218.15 256.697 218.666 256.844 219.3 256.844C219.89 256.844 220.354 256.714 220.694 256.453C221.034 256.192 221.204 255.864 221.204 255.467C221.204 255.059 221.023 254.759 220.66 254.566C220.298 254.362 219.737 254.164 218.977 253.971C218.286 253.79 217.719 253.608 217.277 253.427C216.847 253.234 216.473 252.957 216.155 252.594C215.849 252.22 215.696 251.733 215.696 251.132C215.696 250.656 215.838 250.22 216.121 249.823C216.405 249.426 216.807 249.115 217.328 248.888C217.85 248.65 218.445 248.531 219.113 248.531C220.145 248.531 220.978 248.792 221.612 249.313C222.247 249.834 222.587 250.548 222.632 251.455H221.085C221.051 250.968 220.853 250.577 220.49 250.282C220.139 249.987 219.663 249.84 219.062 249.84C218.507 249.84 218.065 249.959 217.736 250.197C217.408 250.435 217.243 250.747 217.243 251.132C217.243 251.438 217.34 251.693 217.532 251.897C217.736 252.09 217.986 252.248 218.28 252.373C218.586 252.486 219.006 252.617 219.538 252.764C220.207 252.945 220.751 253.127 221.17 253.308C221.59 253.478 221.947 253.739 222.241 254.09C222.547 254.441 222.706 254.9 222.717 255.467C222.717 255.977 222.576 256.436 222.292 256.844C222.009 257.252 221.607 257.575 221.085 257.813C220.575 258.04 219.986 258.153 219.317 258.153ZM226.499 255.858L224.595 260.431H223.558L224.799 255.858H226.499ZM236.368 258.153C235.462 258.153 234.646 257.955 233.92 257.558C233.195 257.15 232.623 256.578 232.203 255.841C231.795 255.104 231.591 254.254 231.591 253.291C231.591 252.328 231.801 251.478 232.22 250.741C232.651 250.004 233.235 249.438 233.971 249.041C234.708 248.633 235.53 248.429 236.436 248.429C237.343 248.429 238.165 248.633 238.901 249.041C239.638 249.438 240.216 250.004 240.635 250.741C241.066 251.478 241.281 252.328 241.281 253.291C241.281 254.254 241.06 255.104 240.618 255.841C240.188 256.578 239.598 257.15 238.85 257.558C238.114 257.955 237.286 258.153 236.368 258.153ZM236.368 256.079C236.799 256.079 237.201 255.977 237.575 255.773C237.961 255.558 238.267 255.24 238.493 254.821C238.72 254.402 238.833 253.892 238.833 253.291C238.833 252.396 238.595 251.71 238.119 251.234C237.655 250.747 237.082 250.503 236.402 250.503C235.722 250.503 235.15 250.747 234.685 251.234C234.232 251.71 234.005 252.396 234.005 253.291C234.005 254.186 234.226 254.878 234.668 255.365C235.122 255.841 235.688 256.079 236.368 256.079ZM251.918 248.582V258H249.521V256.81C249.215 257.218 248.813 257.541 248.314 257.779C247.827 258.006 247.294 258.119 246.716 258.119C245.979 258.119 245.328 257.966 244.761 257.66C244.194 257.343 243.747 256.884 243.418 256.283C243.101 255.671 242.942 254.946 242.942 254.107V248.582H245.322V253.767C245.322 254.515 245.509 255.093 245.883 255.501C246.257 255.898 246.767 256.096 247.413 256.096C248.07 256.096 248.586 255.898 248.96 255.501C249.334 255.093 249.521 254.515 249.521 253.767V248.582H251.918ZM87.7171 277.942C88.0231 277.511 88.4424 277.154 88.9751 276.871C89.5191 276.576 90.1367 276.429 90.8281 276.429C91.6327 276.429 92.3581 276.627 93.0041 277.024C93.6614 277.421 94.1771 277.987 94.5511 278.724C94.9364 279.449 95.1291 280.294 95.1291 281.257C95.1291 282.22 94.9364 283.076 94.5511 283.824C94.1771 284.561 93.6614 285.133 93.0041 285.541C92.3581 285.949 91.6327 286.153 90.8281 286.153C90.1367 286.153 89.5247 286.011 88.9921 285.728C88.4707 285.445 88.0457 285.088 87.7171 284.657V290.488H85.3371V276.582H87.7171V277.942ZM92.6981 281.257C92.6981 280.69 92.5791 280.203 92.3411 279.795C92.1144 279.376 91.8084 279.058 91.4231 278.843C91.0491 278.628 90.6411 278.52 90.1991 278.52C89.7684 278.52 89.3604 278.633 88.9751 278.86C88.6011 279.075 88.2951 279.393 88.0571 279.812C87.8304 280.231 87.7171 280.724 87.7171 281.291C87.7171 281.858 87.8304 282.351 88.0571 282.77C88.2951 283.189 88.6011 283.512 88.9751 283.739C89.3604 283.954 89.7684 284.062 90.1991 284.062C90.6411 284.062 91.0491 283.949 91.4231 283.722C91.8084 283.495 92.1144 283.172 92.3411 282.753C92.5791 282.334 92.6981 281.835 92.6981 281.257ZM101.041 286.153C100.134 286.153 99.3179 285.955 98.5925 285.558C97.8672 285.15 97.2949 284.578 96.8755 283.841C96.4675 283.104 96.2635 282.254 96.2635 281.291C96.2635 280.328 96.4732 279.478 96.8925 278.741C97.3232 278.004 97.9069 277.438 98.6435 277.041C99.3802 276.633 100.202 276.429 101.109 276.429C102.015 276.429 102.837 276.633 103.574 277.041C104.31 277.438 104.888 278.004 105.308 278.741C105.738 279.478 105.954 280.328 105.954 281.291C105.954 282.254 105.733 283.104 105.291 283.841C104.86 284.578 104.271 285.15 103.523 285.558C102.786 285.955 101.959 286.153 101.041 286.153ZM101.041 284.079C101.471 284.079 101.874 283.977 102.248 283.773C102.633 283.558 102.939 283.24 103.166 282.821C103.392 282.402 103.506 281.892 103.506 281.291C103.506 280.396 103.268 279.71 102.792 279.234C102.327 278.747 101.755 278.503 101.075 278.503C100.395 278.503 99.8222 278.747 99.3575 279.234C98.9042 279.71 98.6775 280.396 98.6775 281.291C98.6775 282.186 98.8985 282.878 99.3405 283.365C99.7939 283.841 100.361 284.079 101.041 284.079ZM116.59 276.582V286H114.193V284.81C113.887 285.218 113.485 285.541 112.986 285.779C112.499 286.006 111.966 286.119 111.388 286.119C110.652 286.119 110 285.966 109.433 285.66C108.867 285.343 108.419 284.884 108.09 284.283C107.773 283.671 107.614 282.946 107.614 282.107V276.582H109.994V281.767C109.994 282.515 110.181 283.093 110.555 283.501C110.929 283.898 111.439 284.096 112.085 284.096C112.743 284.096 113.258 283.898 113.632 283.501C114.006 283.093 114.193 282.515 114.193 281.767V276.582H116.59ZM121.319 278.044C121.625 277.545 122.021 277.154 122.509 276.871C123.007 276.588 123.574 276.446 124.209 276.446V278.945H123.58C122.832 278.945 122.265 279.121 121.88 279.472C121.506 279.823 121.319 280.435 121.319 281.308V286H118.939V276.582H121.319V278.044ZM133.789 283.807L136.169 276.582H138.702L135.217 286H132.327L128.859 276.582H131.409L133.789 283.807ZM144.221 286.153C143.315 286.153 142.499 285.955 141.773 285.558C141.048 285.15 140.476 284.578 140.056 283.841C139.648 283.104 139.444 282.254 139.444 281.291C139.444 280.328 139.654 279.478 140.073 278.741C140.504 278.004 141.088 277.438 141.824 277.041C142.561 276.633 143.383 276.429 144.289 276.429C145.196 276.429 146.018 276.633 146.754 277.041C147.491 277.438 148.069 278.004 148.488 278.741C148.919 279.478 149.134 280.328 149.134 281.291C149.134 282.254 148.913 283.104 148.471 283.841C148.041 284.578 147.451 285.15 146.703 285.558C145.967 285.955 145.139 286.153 144.221 286.153ZM144.221 284.079C144.652 284.079 145.054 283.977 145.428 283.773C145.814 283.558 146.12 283.24 146.346 282.821C146.573 282.402 146.686 281.892 146.686 281.291C146.686 280.396 146.448 279.71 145.972 279.234C145.508 278.747 144.935 278.503 144.255 278.503C143.575 278.503 143.003 278.747 142.538 279.234C142.085 279.71 141.858 280.396 141.858 281.291C141.858 282.186 142.079 282.878 142.521 283.365C142.975 283.841 143.541 284.079 144.221 284.079ZM153.651 278.537V283.093C153.651 283.41 153.725 283.643 153.872 283.79C154.031 283.926 154.291 283.994 154.654 283.994H155.759V286H154.263C152.257 286 151.254 285.025 151.254 283.076V278.537H150.132V276.582H151.254V274.253H153.651V276.582H155.759V278.537H153.651ZM159.851 278.044C160.157 277.545 160.554 277.154 161.041 276.871C161.54 276.588 162.106 276.446 162.741 276.446V278.945H162.112C161.364 278.945 160.797 279.121 160.412 279.472C160.038 279.823 159.851 280.435 159.851 281.308V286H157.471V276.582H159.851V278.044ZM173.099 281.087C173.099 281.427 173.076 281.733 173.031 282.005H166.146C166.203 282.685 166.441 283.218 166.86 283.603C167.279 283.988 167.795 284.181 168.407 284.181C169.291 284.181 169.92 283.801 170.294 283.042H172.861C172.589 283.949 172.068 284.697 171.297 285.286C170.526 285.864 169.58 286.153 168.458 286.153C167.551 286.153 166.735 285.955 166.01 285.558C165.296 285.15 164.735 284.578 164.327 283.841C163.93 283.104 163.732 282.254 163.732 281.291C163.732 280.316 163.93 279.461 164.327 278.724C164.724 277.987 165.279 277.421 165.993 277.024C166.707 276.627 167.529 276.429 168.458 276.429C169.353 276.429 170.152 276.622 170.855 277.007C171.569 277.392 172.119 277.942 172.504 278.656C172.901 279.359 173.099 280.169 173.099 281.087ZM170.634 280.407C170.623 279.795 170.402 279.308 169.971 278.945C169.54 278.571 169.013 278.384 168.39 278.384C167.801 278.384 167.302 278.565 166.894 278.928C166.497 279.279 166.254 279.772 166.163 280.407H170.634ZM181.267 277.942C181.573 277.511 181.992 277.154 182.525 276.871C183.069 276.576 183.687 276.429 184.378 276.429C185.183 276.429 185.908 276.627 186.554 277.024C187.211 277.421 187.727 277.987 188.101 278.724C188.486 279.449 188.679 280.294 188.679 281.257C188.679 282.22 188.486 283.076 188.101 283.824C187.727 284.561 187.211 285.133 186.554 285.541C185.908 285.949 185.183 286.153 184.378 286.153C183.687 286.153 183.075 286.011 182.542 285.728C182.021 285.445 181.596 285.088 181.267 284.657V290.488H178.887V276.582H181.267V277.942ZM186.248 281.257C186.248 280.69 186.129 280.203 185.891 279.795C185.664 279.376 185.358 279.058 184.973 278.843C184.599 278.628 184.191 278.52 183.749 278.52C183.318 278.52 182.91 278.633 182.525 278.86C182.151 279.075 181.845 279.393 181.607 279.812C181.38 280.231 181.267 280.724 181.267 281.291C181.267 281.858 181.38 282.351 181.607 282.77C181.845 283.189 182.151 283.512 182.525 283.739C182.91 283.954 183.318 284.062 183.749 284.062C184.191 284.062 184.599 283.949 184.973 283.722C185.358 283.495 185.664 283.172 185.891 282.753C186.129 282.334 186.248 281.835 186.248 281.257ZM192.788 278.044C193.094 277.545 193.491 277.154 193.978 276.871C194.477 276.588 195.044 276.446 195.678 276.446V278.945H195.049C194.301 278.945 193.735 279.121 193.349 279.472C192.975 279.823 192.788 280.435 192.788 281.308V286H190.408V276.582H192.788V278.044ZM201.463 286.153C200.557 286.153 199.741 285.955 199.015 285.558C198.29 285.15 197.718 284.578 197.298 283.841C196.89 283.104 196.686 282.254 196.686 281.291C196.686 280.328 196.896 279.478 197.315 278.741C197.746 278.004 198.33 277.438 199.066 277.041C199.803 276.633 200.625 276.429 201.531 276.429C202.438 276.429 203.26 276.633 203.996 277.041C204.733 277.438 205.311 278.004 205.73 278.741C206.161 279.478 206.376 280.328 206.376 281.291C206.376 282.254 206.155 283.104 205.713 283.841C205.283 284.578 204.693 285.15 203.945 285.558C203.209 285.955 202.381 286.153 201.463 286.153ZM201.463 284.079C201.894 284.079 202.296 283.977 202.67 283.773C203.056 283.558 203.362 283.24 203.588 282.821C203.815 282.402 203.928 281.892 203.928 281.291C203.928 280.396 203.69 279.71 203.214 279.234C202.75 278.747 202.177 278.503 201.497 278.503C200.817 278.503 200.245 278.747 199.78 279.234C199.327 279.71 199.1 280.396 199.1 281.291C199.1 282.186 199.321 282.878 199.763 283.365C200.217 283.841 200.783 284.079 201.463 284.079ZM210.502 277.942C210.808 277.511 211.228 277.154 211.76 276.871C212.304 276.576 212.922 276.429 213.613 276.429C214.418 276.429 215.143 276.627 215.789 277.024C216.447 277.421 216.962 277.987 217.336 278.724C217.722 279.449 217.914 280.294 217.914 281.257C217.914 282.22 217.722 283.076 217.336 283.824C216.962 284.561 216.447 285.133 215.789 285.541C215.143 285.949 214.418 286.153 213.613 286.153C212.922 286.153 212.31 286.011 211.777 285.728C211.256 285.445 210.831 285.088 210.502 284.657V290.488H208.122V276.582H210.502V277.942ZM215.483 281.257C215.483 280.69 215.364 280.203 215.126 279.795C214.9 279.376 214.594 279.058 214.208 278.843C213.834 278.628 213.426 278.52 212.984 278.52C212.554 278.52 212.146 278.633 211.76 278.86C211.386 279.075 211.08 279.393 210.842 279.812C210.616 280.231 210.502 280.724 210.502 281.291C210.502 281.858 210.616 282.351 210.842 282.77C211.08 283.189 211.386 283.512 211.76 283.739C212.146 283.954 212.554 284.062 212.984 284.062C213.426 284.062 213.834 283.949 214.208 283.722C214.594 283.495 214.9 283.172 215.126 282.753C215.364 282.334 215.483 281.835 215.483 281.257ZM222.024 278.044C222.33 277.545 222.726 277.154 223.214 276.871C223.712 276.588 224.279 276.446 224.914 276.446V278.945H224.285C223.537 278.945 222.97 279.121 222.585 279.472C222.211 279.823 222.024 280.435 222.024 281.308V286H219.644V276.582H222.024V278.044ZM235.272 281.087C235.272 281.427 235.249 281.733 235.204 282.005H228.319C228.375 282.685 228.613 283.218 229.033 283.603C229.452 283.988 229.968 284.181 230.58 284.181C231.464 284.181 232.093 283.801 232.467 283.042H235.034C234.762 283.949 234.24 284.697 233.47 285.286C232.699 285.864 231.753 286.153 230.631 286.153C229.724 286.153 228.908 285.955 228.183 285.558C227.469 285.15 226.908 284.578 226.5 283.841C226.103 283.104 225.905 282.254 225.905 281.291C225.905 280.316 226.103 279.461 226.5 278.724C226.896 277.987 227.452 277.421 228.166 277.024C228.88 276.627 229.701 276.429 230.631 276.429C231.526 276.429 232.325 276.622 233.028 277.007C233.742 277.392 234.291 277.942 234.677 278.656C235.073 279.359 235.272 280.169 235.272 281.087ZM232.807 280.407C232.795 279.795 232.574 279.308 232.144 278.945C231.713 278.571 231.186 278.384 230.563 278.384C229.973 278.384 229.475 278.565 229.067 278.928C228.67 279.279 228.426 279.772 228.336 280.407H232.807ZM101.303 304.429C102.006 304.429 102.623 304.571 103.156 304.854C103.689 305.126 104.108 305.483 104.414 305.925V304.582H106.811V314.068C106.811 314.941 106.635 315.717 106.284 316.397C105.933 317.088 105.406 317.632 104.703 318.029C104 318.437 103.15 318.641 102.153 318.641C100.816 318.641 99.7163 318.329 98.8549 317.706C98.0049 317.083 97.5233 316.233 97.4099 315.156H99.7729C99.8976 315.587 100.164 315.927 100.572 316.176C100.991 316.437 101.496 316.567 102.085 316.567C102.776 316.567 103.337 316.357 103.768 315.938C104.199 315.53 104.414 314.907 104.414 314.068V312.606C104.108 313.048 103.683 313.416 103.139 313.711C102.606 314.006 101.994 314.153 101.303 314.153C100.51 314.153 99.7843 313.949 99.1269 313.541C98.4696 313.133 97.9483 312.561 97.5629 311.824C97.1889 311.076 97.0019 310.22 97.0019 309.257C97.0019 308.305 97.1889 307.461 97.5629 306.724C97.9483 305.987 98.4639 305.421 99.1099 305.024C99.7673 304.627 100.498 304.429 101.303 304.429ZM104.414 309.291C104.414 308.713 104.301 308.22 104.074 307.812C103.847 307.393 103.541 307.075 103.156 306.86C102.771 306.633 102.357 306.52 101.915 306.52C101.473 306.52 101.065 306.628 100.691 306.843C100.317 307.058 100.011 307.376 99.7729 307.795C99.5463 308.203 99.4329 308.69 99.4329 309.257C99.4329 309.824 99.5463 310.322 99.7729 310.753C100.011 311.172 100.317 311.495 100.691 311.722C101.076 311.949 101.484 312.062 101.915 312.062C102.357 312.062 102.771 311.954 103.156 311.739C103.541 311.512 103.847 311.195 104.074 310.787C104.301 310.368 104.414 309.869 104.414 309.291ZM113.317 314.153C112.411 314.153 111.595 313.955 110.869 313.558C110.144 313.15 109.572 312.578 109.152 311.841C108.744 311.104 108.54 310.254 108.54 309.291C108.54 308.328 108.75 307.478 109.169 306.741C109.6 306.004 110.184 305.438 110.92 305.041C111.657 304.633 112.479 304.429 113.385 304.429C114.292 304.429 115.114 304.633 115.85 305.041C116.587 305.438 117.165 306.004 117.584 306.741C118.015 307.478 118.23 308.328 118.23 309.291C118.23 310.254 118.009 311.104 117.567 311.841C117.137 312.578 116.547 313.15 115.799 313.558C115.063 313.955 114.235 314.153 113.317 314.153ZM113.317 312.079C113.748 312.079 114.15 311.977 114.524 311.773C114.91 311.558 115.216 311.24 115.442 310.821C115.669 310.402 115.782 309.892 115.782 309.291C115.782 308.396 115.544 307.71 115.068 307.234C114.604 306.747 114.031 306.503 113.351 306.503C112.671 306.503 112.099 306.747 111.634 307.234C111.181 307.71 110.954 308.396 110.954 309.291C110.954 310.186 111.175 310.878 111.617 311.365C112.071 311.841 112.637 312.079 113.317 312.079ZM128.867 304.582V314H126.47V312.81C126.164 313.218 125.762 313.541 125.263 313.779C124.776 314.006 124.243 314.119 123.665 314.119C122.929 314.119 122.277 313.966 121.71 313.66C121.144 313.343 120.696 312.884 120.367 312.283C120.05 311.671 119.891 310.946 119.891 310.107V304.582H122.271V309.767C122.271 310.515 122.458 311.093 122.832 311.501C123.206 311.898 123.716 312.096 124.362 312.096C125.02 312.096 125.535 311.898 125.909 311.501C126.283 311.093 126.47 310.515 126.47 309.767V304.582H128.867ZM133.595 306.044C133.901 305.545 134.298 305.154 134.785 304.871C135.284 304.588 135.851 304.446 136.485 304.446V306.945H135.856C135.108 306.945 134.542 307.121 134.156 307.472C133.782 307.823 133.595 308.435 133.595 309.308V314H131.215V304.582H133.595V306.044ZM149.785 304.446C150.941 304.446 151.87 304.803 152.573 305.517C153.287 306.22 153.644 307.206 153.644 308.475V314H151.264V308.798C151.264 308.061 151.077 307.5 150.703 307.115C150.329 306.718 149.819 306.52 149.173 306.52C148.527 306.52 148.011 306.718 147.626 307.115C147.252 307.5 147.065 308.061 147.065 308.798V314H144.685V308.798C144.685 308.061 144.498 307.5 144.124 307.115C143.75 306.718 143.24 306.52 142.594 306.52C141.936 306.52 141.415 306.718 141.03 307.115C140.656 307.5 140.469 308.061 140.469 308.798V314H138.089V304.582H140.469V305.721C140.775 305.324 141.166 305.013 141.642 304.786C142.129 304.559 142.662 304.446 143.24 304.446C143.976 304.446 144.634 304.605 145.212 304.922C145.79 305.228 146.237 305.67 146.555 306.248C146.861 305.704 147.303 305.268 147.881 304.939C148.47 304.61 149.105 304.446 149.785 304.446ZM155.29 309.257C155.29 308.305 155.477 307.461 155.851 306.724C156.236 305.987 156.752 305.421 157.398 305.024C158.055 304.627 158.786 304.429 159.591 304.429C160.294 304.429 160.906 304.571 161.427 304.854C161.96 305.137 162.385 305.494 162.702 305.925V304.582H165.099V314H162.702V312.623C162.396 313.065 161.971 313.433 161.427 313.728C160.894 314.011 160.277 314.153 159.574 314.153C158.781 314.153 158.055 313.949 157.398 313.541C156.752 313.133 156.236 312.561 155.851 311.824C155.477 311.076 155.29 310.22 155.29 309.257ZM162.702 309.291C162.702 308.713 162.589 308.22 162.362 307.812C162.135 307.393 161.829 307.075 161.444 306.86C161.059 306.633 160.645 306.52 160.203 306.52C159.761 306.52 159.353 306.628 158.979 306.843C158.605 307.058 158.299 307.376 158.061 307.795C157.834 308.203 157.721 308.69 157.721 309.257C157.721 309.824 157.834 310.322 158.061 310.753C158.299 311.172 158.605 311.495 158.979 311.722C159.364 311.949 159.772 312.062 160.203 312.062C160.645 312.062 161.059 311.954 161.444 311.739C161.829 311.512 162.135 311.195 162.362 310.787C162.589 310.368 162.702 309.869 162.702 309.291ZM172.642 304.446C173.764 304.446 174.671 304.803 175.362 305.517C176.054 306.22 176.399 307.206 176.399 308.475V314H174.019V308.798C174.019 308.05 173.832 307.478 173.458 307.081C173.084 306.673 172.574 306.469 171.928 306.469C171.271 306.469 170.75 306.673 170.364 307.081C169.99 307.478 169.803 308.05 169.803 308.798V314H167.423V304.582H169.803V305.755C170.121 305.347 170.523 305.03 171.01 304.803C171.509 304.565 172.053 304.446 172.642 304.446ZM178.051 309.257C178.051 308.305 178.238 307.461 178.612 306.724C178.997 305.987 179.518 305.421 180.176 305.024C180.833 304.627 181.564 304.429 182.369 304.429C182.981 304.429 183.564 304.565 184.12 304.837C184.675 305.098 185.117 305.449 185.446 305.891V301.42H187.86V314H185.446V312.606C185.151 313.071 184.737 313.445 184.205 313.728C183.672 314.011 183.054 314.153 182.352 314.153C181.558 314.153 180.833 313.949 180.176 313.541C179.518 313.133 178.997 312.561 178.612 311.824C178.238 311.076 178.051 310.22 178.051 309.257ZM185.463 309.291C185.463 308.713 185.349 308.22 185.123 307.812C184.896 307.393 184.59 307.075 184.205 306.86C183.819 306.633 183.406 306.52 182.964 306.52C182.522 306.52 182.114 306.628 181.74 306.843C181.366 307.058 181.06 307.376 180.822 307.795C180.595 308.203 180.482 308.69 180.482 309.257C180.482 309.824 180.595 310.322 180.822 310.753C181.06 311.172 181.366 311.495 181.74 311.722C182.125 311.949 182.533 312.062 182.964 312.062C183.406 312.062 183.819 311.954 184.205 311.739C184.59 311.512 184.896 311.195 185.123 310.787C185.349 310.368 185.463 309.869 185.463 309.291ZM191.391 303.46C190.972 303.46 190.621 303.33 190.337 303.069C190.065 302.797 189.929 302.463 189.929 302.066C189.929 301.669 190.065 301.341 190.337 301.08C190.621 300.808 190.972 300.672 191.391 300.672C191.811 300.672 192.156 300.808 192.428 301.08C192.712 301.341 192.853 301.669 192.853 302.066C192.853 302.463 192.712 302.797 192.428 303.069C192.156 303.33 191.811 303.46 191.391 303.46ZM192.564 304.582V314H190.184V304.582H192.564ZM198.52 314.153C197.749 314.153 197.058 314.017 196.446 313.745C195.834 313.462 195.346 313.082 194.984 312.606C194.632 312.13 194.44 311.603 194.406 311.025H196.803C196.848 311.388 197.024 311.688 197.33 311.926C197.647 312.164 198.038 312.283 198.503 312.283C198.956 312.283 199.307 312.192 199.557 312.011C199.817 311.83 199.948 311.597 199.948 311.314C199.948 311.008 199.789 310.781 199.472 310.634C199.166 310.475 198.673 310.305 197.993 310.124C197.29 309.954 196.712 309.778 196.259 309.597C195.817 309.416 195.431 309.138 195.103 308.764C194.785 308.39 194.627 307.886 194.627 307.251C194.627 306.73 194.774 306.254 195.069 305.823C195.375 305.392 195.805 305.052 196.361 304.803C196.927 304.554 197.59 304.429 198.35 304.429C199.472 304.429 200.367 304.712 201.036 305.279C201.704 305.834 202.073 306.588 202.141 307.54H199.863C199.829 307.166 199.67 306.871 199.387 306.656C199.115 306.429 198.746 306.316 198.282 306.316C197.851 306.316 197.517 306.395 197.279 306.554C197.052 306.713 196.939 306.934 196.939 307.217C196.939 307.534 197.097 307.778 197.415 307.948C197.732 308.107 198.225 308.271 198.894 308.441C199.574 308.611 200.135 308.787 200.577 308.968C201.019 309.149 201.398 309.433 201.716 309.818C202.044 310.192 202.214 310.691 202.226 311.314C202.226 311.858 202.073 312.345 201.767 312.776C201.472 313.207 201.041 313.547 200.475 313.796C199.919 314.034 199.268 314.153 198.52 314.153ZM212.934 309.087C212.934 309.427 212.912 309.733 212.866 310.005H205.981C206.038 310.685 206.276 311.218 206.695 311.603C207.115 311.988 207.63 312.181 208.242 312.181C209.126 312.181 209.755 311.801 210.129 311.042H212.696C212.424 311.949 211.903 312.697 211.132 313.286C210.362 313.864 209.415 314.153 208.293 314.153C207.387 314.153 206.571 313.955 205.845 313.558C205.131 313.15 204.57 312.578 204.162 311.841C203.766 311.104 203.567 310.254 203.567 309.291C203.567 308.316 203.766 307.461 204.162 306.724C204.559 305.987 205.114 305.421 205.828 305.024C206.542 304.627 207.364 304.429 208.293 304.429C209.189 304.429 209.988 304.622 210.69 305.007C211.404 305.392 211.954 305.942 212.339 306.656C212.736 307.359 212.934 308.169 212.934 309.087ZM210.469 308.407C210.458 307.795 210.237 307.308 209.806 306.945C209.376 306.571 208.849 306.384 208.225 306.384C207.636 306.384 207.137 306.565 206.729 306.928C206.333 307.279 206.089 307.772 205.998 308.407H210.469ZM221.799 301.93L221.527 310.141H219.521L219.232 301.93H221.799ZM220.575 314.119C220.145 314.119 219.788 313.989 219.504 313.728C219.232 313.456 219.096 313.122 219.096 312.725C219.096 312.328 219.232 312 219.504 311.739C219.788 311.467 220.145 311.331 220.575 311.331C220.995 311.331 221.34 311.467 221.612 311.739C221.884 312 222.02 312.328 222.02 312.725C222.02 313.122 221.884 313.456 221.612 313.728C221.34 313.989 220.995 314.119 220.575 314.119Z" fill="#1A00E1"/>
</svg>
