<svg width="358" height="362" viewBox="0 0 358 362" fill="none" xmlns="http://www.w3.org/2000/svg">
<path fill-rule="evenodd" clip-rule="evenodd" d="M177.905 7.00307C269.798 6.41504 327.493 90.4958 348.682 171.397C364.946 233.493 319.13 288.914 261.315 325.469C207.459 359.522 137.979 372.406 83.6491 338.975C24.0667 302.312 -3.52403 236.679 14.404 173.536C36.9778 94.0305 87.1774 7.58363 177.905 7.00307Z" fill="#1A00E1"/>
<path fill-rule="evenodd" clip-rule="evenodd" d="M171.905 2.00307C263.798 1.41504 321.493 85.4958 342.682 166.397C358.946 228.493 313.13 283.914 255.315 320.469C201.459 354.522 131.979 367.406 77.6491 333.975C18.0667 297.312 -9.52403 231.679 8.40397 168.536C30.9778 89.0305 81.1774 2.58363 171.905 2.00307Z" fill="white" stroke="#FF0090" stroke-width="4"/>
<path d="M111.474 81.229C111.474 82.218 112.256 83 113.245 83H117.753C122.813 83 126.309 79.481 126.309 74.95V74.904C126.309 70.373 122.813 66.9 117.753 66.9H113.245C112.256 66.9 111.474 67.682 111.474 68.671V81.229ZM115.016 79.803V70.097H117.753C120.651 70.097 122.606 72.098 122.606 74.95V74.996C122.606 77.848 120.651 79.803 117.753 79.803H115.016ZM136.181 83.253C140.505 83.253 143.242 80.861 143.242 75.985V68.533C143.242 67.544 142.46 66.762 141.471 66.762C140.482 66.762 139.7 67.544 139.7 68.533V76.123C139.7 78.676 138.389 79.987 136.227 79.987C134.065 79.987 132.754 78.63 132.754 76.008V68.533C132.754 67.544 131.972 66.762 130.983 66.762C129.994 66.762 129.212 67.544 129.212 68.533V76.1C129.212 80.838 131.857 83.253 136.181 83.253ZM161.496 83.276C163.911 83.276 165.82 82.471 167.131 81.666C167.982 81.16 168.373 80.447 168.373 79.412V75.502C168.373 74.513 167.591 73.731 166.602 73.731H162.554C161.703 73.731 161.013 74.421 161.013 75.272C161.013 76.123 161.703 76.79 162.554 76.79H164.946V79.09C164.049 79.734 162.899 80.056 161.611 80.056C158.759 80.056 156.735 77.894 156.735 74.95V74.904C156.735 72.167 158.782 69.89 161.358 69.89C162.876 69.89 163.911 70.304 164.877 70.994C165.13 71.178 165.452 71.362 165.958 71.362C166.924 71.362 167.706 70.58 167.706 69.614C167.706 68.924 167.315 68.441 166.97 68.188C165.521 67.176 163.911 66.624 161.473 66.624C156.597 66.624 153.032 70.373 153.032 74.95V74.996C153.032 79.757 156.482 83.276 161.496 83.276ZM173.553 83H182.592C183.466 83 184.179 82.31 184.179 81.436C184.179 80.562 183.466 79.849 182.592 79.849H175.301V76.468H181.442C182.316 76.468 183.029 75.778 183.029 74.904C183.029 74.03 182.316 73.317 181.442 73.317H175.301V70.051H182.477C183.351 70.051 184.064 69.361 184.064 68.487C184.064 67.613 183.351 66.9 182.477 66.9H173.553C172.564 66.9 171.782 67.682 171.782 68.671V81.229C171.782 82.218 172.564 83 173.553 83ZM187.19 81.39C187.19 82.356 187.972 83.138 188.938 83.138C189.904 83.138 190.686 82.356 190.686 81.39V72.765L197.77 82.057C198.253 82.678 198.759 83.092 199.61 83.092H199.725C200.714 83.092 201.496 82.31 201.496 81.321V68.51C201.496 67.544 200.714 66.762 199.748 66.762C198.782 66.762 198 67.544 198 68.51V76.813L191.169 67.843C190.686 67.222 190.18 66.808 189.329 66.808H188.961C187.972 66.808 187.19 67.59 187.19 68.579V81.39ZM205.361 81.367C205.361 82.356 206.143 83.138 207.132 83.138C208.121 83.138 208.903 82.356 208.903 81.367V77.848H211.732L215.182 82.218C215.596 82.747 216.125 83.138 216.93 83.138C217.781 83.138 218.609 82.494 218.609 81.505C218.609 80.953 218.379 80.585 218.034 80.148L215.573 77.158C217.528 76.353 218.793 74.789 218.793 72.259V72.213C218.793 70.695 218.31 69.43 217.413 68.533C216.355 67.475 214.768 66.9 212.721 66.9H207.132C206.143 66.9 205.361 67.682 205.361 68.671V81.367ZM208.903 74.72V70.097H212.422C214.147 70.097 215.205 70.879 215.205 72.397V72.443C215.205 73.8 214.216 74.72 212.491 74.72H208.903ZM223.753 83H232.792C233.666 83 234.379 82.31 234.379 81.436C234.379 80.562 233.666 79.849 232.792 79.849H225.501V76.468H231.642C232.516 76.468 233.229 75.778 233.229 74.904C233.229 74.03 232.516 73.317 231.642 73.317H225.501V70.051H232.677C233.551 70.051 234.264 69.361 234.264 68.487C234.264 67.613 233.551 66.9 232.677 66.9H223.753C222.764 66.9 221.982 67.682 221.982 68.671V81.229C221.982 82.218 222.764 83 223.753 83ZM118.47 111.23C121.943 111.23 124.381 109.436 124.381 106.239V106.193C124.381 103.387 122.541 102.214 119.275 101.363C116.492 100.65 115.802 100.305 115.802 99.247V99.201C115.802 98.419 116.515 97.798 117.872 97.798C118.976 97.798 120.08 98.189 121.253 98.879C121.529 99.04 121.805 99.132 122.15 99.132C123.07 99.132 123.806 98.419 123.806 97.499C123.806 96.809 123.415 96.326 123.024 96.096C121.575 95.176 119.873 94.67 117.918 94.67C114.629 94.67 112.283 96.602 112.283 99.523V99.569C112.283 102.766 114.376 103.663 117.619 104.491C120.31 105.181 120.862 105.641 120.862 106.538V106.584C120.862 107.527 119.988 108.102 118.539 108.102C116.975 108.102 115.641 107.55 114.422 106.653C114.192 106.492 113.87 106.331 113.41 106.331C112.49 106.331 111.754 107.044 111.754 107.964C111.754 108.516 112.03 109.022 112.421 109.298C114.215 110.586 116.354 111.23 118.47 111.23ZM127.455 109.367C127.455 110.356 128.237 111.138 129.226 111.138C130.215 111.138 130.997 110.356 130.997 109.367V106.17H133.688C137.299 106.17 140.197 104.238 140.197 100.512V100.466C140.197 97.177 137.874 94.9 134.033 94.9H129.226C128.237 94.9 127.455 95.682 127.455 96.671V109.367ZM130.997 103.019V98.097H133.734C135.505 98.097 136.609 98.948 136.609 100.535V100.581C136.609 101.961 135.574 103.019 133.803 103.019H130.997ZM150.638 111.276C155.606 111.276 159.217 107.527 159.217 102.95V102.904C159.217 98.327 155.652 94.624 150.684 94.624C145.716 94.624 142.105 98.373 142.105 102.95V102.996C142.105 107.573 145.67 111.276 150.638 111.276ZM150.684 108.01C147.832 108.01 145.808 105.71 145.808 102.95V102.904C145.808 100.144 147.786 97.89 150.638 97.89C153.49 97.89 155.514 100.19 155.514 102.95V102.996C155.514 105.756 153.536 108.01 150.684 108.01ZM162.359 109.367C162.359 110.356 163.141 111.138 164.13 111.138C165.119 111.138 165.901 110.356 165.901 109.367V105.848H168.73L172.18 110.218C172.594 110.747 173.123 111.138 173.928 111.138C174.779 111.138 175.607 110.494 175.607 109.505C175.607 108.953 175.377 108.585 175.032 108.148L172.571 105.158C174.526 104.353 175.791 102.789 175.791 100.259V100.213C175.791 98.695 175.308 97.43 174.411 96.533C173.353 95.475 171.766 94.9 169.719 94.9H164.13C163.141 94.9 162.359 95.682 162.359 96.671V109.367ZM165.901 102.72V98.097H169.42C171.145 98.097 172.203 98.879 172.203 100.397V100.443C172.203 101.8 171.214 102.72 169.489 102.72H165.901ZM182.729 109.367C182.729 110.356 183.511 111.138 184.5 111.138C185.489 111.138 186.271 110.356 186.271 109.367V98.166H189.675C190.572 98.166 191.308 97.43 191.308 96.533C191.308 95.636 190.572 94.9 189.675 94.9H179.325C178.428 94.9 177.692 95.636 177.692 96.533C177.692 97.43 178.428 98.166 179.325 98.166H182.729V109.367ZM194.055 109.367C194.055 110.356 194.837 111.138 195.826 111.138C196.815 111.138 197.597 110.356 197.597 109.367V96.533C197.597 95.544 196.815 94.762 195.826 94.762C194.837 94.762 194.055 95.544 194.055 96.533V109.367ZM201.621 109.367C201.621 110.356 202.403 111.138 203.392 111.138C204.381 111.138 205.163 110.356 205.163 109.367V104.767H211.373C212.27 104.767 212.983 104.054 212.983 103.157C212.983 102.26 212.27 101.547 211.373 101.547H205.163V98.12H212.408C213.305 98.12 214.018 97.407 214.018 96.51C214.018 95.613 213.305 94.9 212.408 94.9H203.392C202.403 94.9 201.621 95.682 201.621 96.671V109.367ZM227.497 105.664C228.164 105.664 228.647 105.135 228.739 104.537L228.808 104.123C231.315 103.617 233.339 102.421 233.339 99.5V99.454C233.339 96.395 231.085 94.693 227.773 94.693C225.749 94.693 224.208 95.337 222.989 96.349C222.575 96.694 222.391 97.154 222.391 97.591C222.391 98.465 223.127 99.201 224.001 99.201C224.392 99.201 224.76 99.04 225.036 98.833C225.864 98.212 226.715 97.913 227.704 97.913C229.038 97.913 229.82 98.511 229.82 99.546V99.592C229.82 100.719 228.9 101.34 226.899 101.593C226.163 101.685 225.726 102.214 225.841 102.973L226.071 104.537C226.163 105.158 226.646 105.664 227.313 105.664H227.497ZM225.312 109.137V109.183C225.312 110.287 226.163 111.138 227.313 111.138C228.463 111.138 229.314 110.287 229.314 109.183V109.137C229.314 108.033 228.463 107.182 227.313 107.182C226.163 107.182 225.312 108.033 225.312 109.137Z" fill="#FF0090"/>
<path d="M112.594 156.619C112.594 157.605 112.254 158.427 111.574 159.084C110.905 159.73 109.879 160.053 108.497 160.053H106.219V165H104.672V153.151H108.497C109.834 153.151 110.848 153.474 111.54 154.12C112.242 154.766 112.594 155.599 112.594 156.619ZM108.497 158.778C109.358 158.778 109.993 158.591 110.401 158.217C110.809 157.843 111.013 157.31 111.013 156.619C111.013 155.157 110.174 154.426 108.497 154.426H106.219V158.778H108.497ZM116.064 157.197C116.336 156.664 116.721 156.251 117.22 155.956C117.73 155.661 118.347 155.514 119.073 155.514V157.112H118.665C116.931 157.112 116.064 158.053 116.064 159.934V165H114.517V155.684H116.064V157.197ZM124.921 165.153C124.049 165.153 123.255 164.955 122.541 164.558C121.839 164.161 121.283 163.6 120.875 162.875C120.479 162.138 120.28 161.288 120.28 160.325C120.28 159.373 120.484 158.534 120.892 157.809C121.312 157.072 121.878 156.511 122.592 156.126C123.306 155.729 124.105 155.531 124.989 155.531C125.873 155.531 126.672 155.729 127.386 156.126C128.1 156.511 128.661 157.067 129.069 157.792C129.489 158.517 129.698 159.362 129.698 160.325C129.698 161.288 129.483 162.138 129.052 162.875C128.633 163.6 128.061 164.161 127.335 164.558C126.61 164.955 125.805 165.153 124.921 165.153ZM124.921 163.793C125.477 163.793 125.998 163.663 126.485 163.402C126.973 163.141 127.364 162.75 127.658 162.229C127.964 161.708 128.117 161.073 128.117 160.325C128.117 159.577 127.97 158.942 127.675 158.421C127.381 157.9 126.995 157.514 126.519 157.265C126.043 157.004 125.528 156.874 124.972 156.874C124.406 156.874 123.884 157.004 123.408 157.265C122.944 157.514 122.57 157.9 122.286 158.421C122.003 158.942 121.861 159.577 121.861 160.325C121.861 161.084 121.997 161.725 122.269 162.246C122.553 162.767 122.927 163.158 123.391 163.419C123.856 163.668 124.366 163.793 124.921 163.793ZM135.523 156.959H133.568V165H132.021V156.959H130.814V155.684H132.021V155.021C132.021 153.978 132.288 153.219 132.82 152.743C133.364 152.256 134.231 152.012 135.421 152.012V153.304C134.741 153.304 134.26 153.44 133.976 153.712C133.704 153.973 133.568 154.409 133.568 155.021V155.684H135.523V156.959ZM138.126 154.171C137.831 154.171 137.582 154.069 137.378 153.865C137.174 153.661 137.072 153.412 137.072 153.117C137.072 152.822 137.174 152.573 137.378 152.369C137.582 152.165 137.831 152.063 138.126 152.063C138.409 152.063 138.647 152.165 138.84 152.369C139.044 152.573 139.146 152.822 139.146 153.117C139.146 153.412 139.044 153.661 138.84 153.865C138.647 154.069 138.409 154.171 138.126 154.171ZM138.874 155.684V165H137.327V155.684H138.874ZM143.398 156.959V162.45C143.398 162.903 143.494 163.226 143.687 163.419C143.879 163.6 144.214 163.691 144.69 163.691H145.829V165H144.435C143.573 165 142.927 164.802 142.497 164.405C142.066 164.008 141.851 163.357 141.851 162.45V156.959H140.644V155.684H141.851V153.338H143.398V155.684H145.829V156.959H143.398ZM156.203 159.985C156.203 160.28 156.186 160.591 156.152 160.92H148.706C148.763 161.838 149.074 162.558 149.641 163.079C150.219 163.589 150.916 163.844 151.732 163.844C152.401 163.844 152.956 163.691 153.398 163.385C153.851 163.068 154.169 162.648 154.35 162.127H156.016C155.767 163.022 155.268 163.753 154.52 164.32C153.772 164.875 152.843 165.153 151.732 165.153C150.848 165.153 150.055 164.955 149.352 164.558C148.661 164.161 148.117 163.6 147.72 162.875C147.323 162.138 147.125 161.288 147.125 160.325C147.125 159.362 147.318 158.517 147.703 157.792C148.088 157.067 148.627 156.511 149.318 156.126C150.021 155.729 150.825 155.531 151.732 155.531C152.616 155.531 153.398 155.724 154.078 156.109C154.758 156.494 155.279 157.027 155.642 157.707C156.016 158.376 156.203 159.135 156.203 159.985ZM154.605 159.662C154.605 159.073 154.475 158.568 154.214 158.149C153.953 157.718 153.596 157.395 153.143 157.18C152.701 156.953 152.208 156.84 151.664 156.84C150.882 156.84 150.213 157.089 149.658 157.588C149.114 158.087 148.802 158.778 148.723 159.662H154.605ZM159.401 163.725H163.974V165H157.633V163.725L162.155 156.942H157.667V155.684H163.94V156.942L159.401 163.725ZM169.936 160.308C169.936 159.356 170.128 158.523 170.514 157.809C170.899 157.084 171.426 156.523 172.095 156.126C172.775 155.729 173.534 155.531 174.373 155.531C175.098 155.531 175.772 155.701 176.396 156.041C177.019 156.37 177.495 156.806 177.824 157.35V152.42H179.388V165H177.824V163.249C177.518 163.804 177.064 164.263 176.464 164.626C175.863 164.977 175.16 165.153 174.356 165.153C173.528 165.153 172.775 164.949 172.095 164.541C171.426 164.133 170.899 163.561 170.514 162.824C170.128 162.087 169.936 161.249 169.936 160.308ZM177.824 160.325C177.824 159.622 177.682 159.01 177.399 158.489C177.115 157.968 176.73 157.571 176.243 157.299C175.767 157.016 175.24 156.874 174.662 156.874C174.084 156.874 173.557 157.01 173.081 157.282C172.605 157.554 172.225 157.951 171.942 158.472C171.658 158.993 171.517 159.605 171.517 160.308C171.517 161.022 171.658 161.645 171.942 162.178C172.225 162.699 172.605 163.102 173.081 163.385C173.557 163.657 174.084 163.793 174.662 163.793C175.24 163.793 175.767 163.657 176.243 163.385C176.73 163.102 177.115 162.699 177.399 162.178C177.682 161.645 177.824 161.028 177.824 160.325ZM190.502 159.985C190.502 160.28 190.485 160.591 190.451 160.92H183.005C183.062 161.838 183.373 162.558 183.94 163.079C184.518 163.589 185.215 163.844 186.031 163.844C186.7 163.844 187.255 163.691 187.697 163.385C188.15 163.068 188.468 162.648 188.649 162.127H190.315C190.066 163.022 189.567 163.753 188.819 164.32C188.071 164.875 187.142 165.153 186.031 165.153C185.147 165.153 184.354 164.955 183.651 164.558C182.96 164.161 182.416 163.6 182.019 162.875C181.622 162.138 181.424 161.288 181.424 160.325C181.424 159.362 181.617 158.517 182.002 157.792C182.387 157.067 182.926 156.511 183.617 156.126C184.32 155.729 185.124 155.531 186.031 155.531C186.915 155.531 187.697 155.724 188.377 156.109C189.057 156.494 189.578 157.027 189.941 157.707C190.315 158.376 190.502 159.135 190.502 159.985ZM188.904 159.662C188.904 159.073 188.774 158.568 188.513 158.149C188.252 157.718 187.895 157.395 187.442 157.18C187 156.953 186.507 156.84 185.963 156.84C185.181 156.84 184.512 157.089 183.957 157.588C183.413 158.087 183.101 158.778 183.022 159.662H188.904ZM196.498 160.325C196.498 159.362 196.691 158.523 197.076 157.809C197.461 157.084 197.994 156.523 198.674 156.126C199.365 155.729 200.153 155.531 201.037 155.531C202.182 155.531 203.122 155.809 203.859 156.364C204.607 156.919 205.1 157.69 205.338 158.676H203.672C203.513 158.109 203.202 157.662 202.737 157.333C202.284 157.004 201.717 156.84 201.037 156.84C200.153 156.84 199.439 157.146 198.895 157.758C198.351 158.359 198.079 159.214 198.079 160.325C198.079 161.447 198.351 162.314 198.895 162.926C199.439 163.538 200.153 163.844 201.037 163.844C201.717 163.844 202.284 163.685 202.737 163.368C203.19 163.051 203.502 162.597 203.672 162.008H205.338C205.089 162.96 204.59 163.725 203.842 164.303C203.094 164.87 202.159 165.153 201.037 165.153C200.153 165.153 199.365 164.955 198.674 164.558C197.994 164.161 197.461 163.6 197.076 162.875C196.691 162.15 196.498 161.3 196.498 160.325ZM215.902 159.985C215.902 160.28 215.885 160.591 215.851 160.92H208.405C208.462 161.838 208.774 162.558 209.34 163.079C209.918 163.589 210.615 163.844 211.431 163.844C212.1 163.844 212.655 163.691 213.097 163.385C213.551 163.068 213.868 162.648 214.049 162.127H215.715C215.466 163.022 214.967 163.753 214.219 164.32C213.471 164.875 212.542 165.153 211.431 165.153C210.547 165.153 209.754 164.955 209.051 164.558C208.36 164.161 207.816 163.6 207.419 162.875C207.023 162.138 206.824 161.288 206.824 160.325C206.824 159.362 207.017 158.517 207.402 157.792C207.788 157.067 208.326 156.511 209.017 156.126C209.72 155.729 210.525 155.531 211.431 155.531C212.315 155.531 213.097 155.724 213.777 156.109C214.457 156.494 214.979 157.027 215.341 157.707C215.715 158.376 215.902 159.135 215.902 159.985ZM214.304 159.662C214.304 159.073 214.174 158.568 213.913 158.149C213.653 157.718 213.296 157.395 212.842 157.18C212.4 156.953 211.907 156.84 211.363 156.84C210.581 156.84 209.913 157.089 209.357 157.588C208.813 158.087 208.502 158.778 208.422 159.662H214.304ZM221.242 165.153C220.528 165.153 219.888 165.034 219.321 164.796C218.755 164.547 218.307 164.207 217.978 163.776C217.65 163.334 217.468 162.83 217.434 162.263H219.032C219.078 162.728 219.293 163.107 219.678 163.402C220.075 163.697 220.591 163.844 221.225 163.844C221.815 163.844 222.279 163.714 222.619 163.453C222.959 163.192 223.129 162.864 223.129 162.467C223.129 162.059 222.948 161.759 222.585 161.566C222.223 161.362 221.662 161.164 220.902 160.971C220.211 160.79 219.644 160.608 219.202 160.427C218.772 160.234 218.398 159.957 218.08 159.594C217.774 159.22 217.621 158.733 217.621 158.132C217.621 157.656 217.763 157.22 218.046 156.823C218.33 156.426 218.732 156.115 219.253 155.888C219.775 155.65 220.37 155.531 221.038 155.531C222.07 155.531 222.903 155.792 223.537 156.313C224.172 156.834 224.512 157.548 224.557 158.455H223.01C222.976 157.968 222.778 157.577 222.415 157.282C222.064 156.987 221.588 156.84 220.987 156.84C220.432 156.84 219.99 156.959 219.661 157.197C219.333 157.435 219.168 157.747 219.168 158.132C219.168 158.438 219.265 158.693 219.457 158.897C219.661 159.09 219.911 159.248 220.205 159.373C220.511 159.486 220.931 159.617 221.463 159.764C222.132 159.945 222.676 160.127 223.095 160.308C223.515 160.478 223.872 160.739 224.166 161.09C224.472 161.441 224.631 161.9 224.642 162.467C224.642 162.977 224.501 163.436 224.217 163.844C223.934 164.252 223.532 164.575 223.01 164.813C222.5 165.04 221.911 165.153 221.242 165.153ZM230.695 154.12V152.709H233.891V165H232.327V154.12H230.695ZM236.549 158.727C236.549 156.778 236.866 155.259 237.501 154.171C238.135 153.072 239.246 152.522 240.833 152.522C242.408 152.522 243.513 153.072 244.148 154.171C244.782 155.259 245.1 156.778 245.1 158.727C245.1 160.71 244.782 162.252 244.148 163.351C243.513 164.45 242.408 165 240.833 165C239.246 165 238.135 164.45 237.501 163.351C236.866 162.252 236.549 160.71 236.549 158.727ZM243.57 158.727C243.57 157.741 243.502 156.908 243.366 156.228C243.241 155.537 242.975 154.981 242.567 154.562C242.17 154.143 241.592 153.933 240.833 153.933C240.062 153.933 239.473 154.143 239.065 154.562C238.668 154.981 238.402 155.537 238.266 156.228C238.141 156.908 238.079 157.741 238.079 158.727C238.079 159.747 238.141 160.603 238.266 161.294C238.402 161.985 238.668 162.541 239.065 162.96C239.473 163.379 240.062 163.589 240.833 163.589C241.592 163.589 242.17 163.379 242.567 162.96C242.975 162.541 243.241 161.985 243.366 161.294C243.502 160.603 243.57 159.747 243.57 158.727ZM106.08 183.514C106.805 183.514 107.451 183.667 108.018 183.973C108.585 184.268 109.032 184.715 109.361 185.316C109.69 185.917 109.854 186.648 109.854 187.509V193H108.324V187.73C108.324 186.801 108.092 186.092 107.627 185.605C107.174 185.106 106.556 184.857 105.774 184.857C104.969 184.857 104.329 185.118 103.853 185.639C103.377 186.149 103.139 186.891 103.139 187.866V193H101.609V187.73C101.609 186.801 101.377 186.092 100.912 185.605C100.459 185.106 99.8409 184.857 99.0589 184.857C98.2542 184.857 97.6139 185.118 97.1379 185.639C96.6619 186.149 96.4239 186.891 96.4239 187.866V193H94.8769V183.684H96.4239V185.027C96.7299 184.54 97.1379 184.166 97.6479 183.905C98.1692 183.644 98.7415 183.514 99.3649 183.514C100.147 183.514 100.838 183.69 101.439 184.041C102.04 184.392 102.487 184.908 102.782 185.588C103.043 184.931 103.473 184.421 104.074 184.058C104.675 183.695 105.343 183.514 106.08 183.514ZM113.191 182.171C112.896 182.171 112.647 182.069 112.443 181.865C112.239 181.661 112.137 181.412 112.137 181.117C112.137 180.822 112.239 180.573 112.443 180.369C112.647 180.165 112.896 180.063 113.191 180.063C113.474 180.063 113.712 180.165 113.905 180.369C114.109 180.573 114.211 180.822 114.211 181.117C114.211 181.412 114.109 181.661 113.905 181.865C113.712 182.069 113.474 182.171 113.191 182.171ZM113.939 183.684V193H112.392V183.684H113.939ZM121.114 183.514C122.247 183.514 123.165 183.86 123.868 184.551C124.571 185.231 124.922 186.217 124.922 187.509V193H123.392V187.73C123.392 186.801 123.16 186.092 122.695 185.605C122.23 185.106 121.596 184.857 120.791 184.857C119.975 184.857 119.323 185.112 118.836 185.622C118.36 186.132 118.122 186.874 118.122 187.849V193H116.575V183.684H118.122V185.01C118.428 184.534 118.842 184.166 119.363 183.905C119.896 183.644 120.479 183.514 121.114 183.514ZM135.711 183.684V193H134.164V191.623C133.869 192.099 133.456 192.473 132.923 192.745C132.402 193.006 131.824 193.136 131.189 193.136C130.464 193.136 129.812 192.989 129.234 192.694C128.656 192.388 128.197 191.935 127.857 191.334C127.528 190.733 127.364 190.002 127.364 189.141V183.684H128.894V188.937C128.894 189.855 129.126 190.563 129.591 191.062C130.056 191.549 130.69 191.793 131.495 191.793C132.322 191.793 132.974 191.538 133.45 191.028C133.926 190.518 134.164 189.776 134.164 188.801V183.684H135.711ZM140.21 184.959V190.45C140.21 190.903 140.306 191.226 140.499 191.419C140.692 191.6 141.026 191.691 141.502 191.691H142.641V193H141.247C140.386 193 139.74 192.802 139.309 192.405C138.878 192.008 138.663 191.357 138.663 190.45V184.959H137.456V183.684H138.663V181.338H140.21V183.684H142.641V184.959H140.21ZM153.016 187.985C153.016 188.28 152.999 188.591 152.965 188.92H145.519C145.575 189.838 145.887 190.558 146.454 191.079C147.032 191.589 147.729 191.844 148.545 191.844C149.213 191.844 149.769 191.691 150.211 191.385C150.664 191.068 150.981 190.648 151.163 190.127H152.829C152.579 191.022 152.081 191.753 151.333 192.32C150.585 192.875 149.655 193.153 148.545 193.153C147.661 193.153 146.867 192.955 146.165 192.558C145.473 192.161 144.929 191.6 144.533 190.875C144.136 190.138 143.938 189.288 143.938 188.325C143.938 187.362 144.13 186.517 144.516 185.792C144.901 185.067 145.439 184.511 146.131 184.126C146.833 183.729 147.638 183.531 148.545 183.531C149.429 183.531 150.211 183.724 150.891 184.109C151.571 184.494 152.092 185.027 152.455 185.707C152.829 186.376 153.016 187.135 153.016 187.985ZM151.418 187.662C151.418 187.073 151.287 186.568 151.027 186.149C150.766 185.718 150.409 185.395 149.956 185.18C149.514 184.953 149.021 184.84 148.477 184.84C147.695 184.84 147.026 185.089 146.471 185.588C145.927 186.087 145.615 186.778 145.536 187.662H151.418ZM158.356 193.153C157.642 193.153 157.001 193.034 156.435 192.796C155.868 192.547 155.42 192.207 155.092 191.776C154.763 191.334 154.582 190.83 154.548 190.263H156.146C156.191 190.728 156.406 191.107 156.792 191.402C157.188 191.697 157.704 191.844 158.339 191.844C158.928 191.844 159.393 191.714 159.733 191.453C160.073 191.192 160.243 190.864 160.243 190.467C160.243 190.059 160.061 189.759 159.699 189.566C159.336 189.362 158.775 189.164 158.016 188.971C157.324 188.79 156.758 188.608 156.316 188.427C155.885 188.234 155.511 187.957 155.194 187.594C154.888 187.22 154.735 186.733 154.735 186.132C154.735 185.656 154.876 185.22 155.16 184.823C155.443 184.426 155.845 184.115 156.367 183.888C156.888 183.65 157.483 183.531 158.152 183.531C159.183 183.531 160.016 183.792 160.651 184.313C161.285 184.834 161.625 185.548 161.671 186.455H160.124C160.09 185.968 159.891 185.577 159.529 185.282C159.177 184.987 158.701 184.84 158.101 184.84C157.545 184.84 157.103 184.959 156.775 185.197C156.446 185.435 156.282 185.747 156.282 186.132C156.282 186.438 156.378 186.693 156.571 186.897C156.775 187.09 157.024 187.248 157.319 187.373C157.625 187.486 158.044 187.617 158.577 187.764C159.245 187.945 159.789 188.127 160.209 188.308C160.628 188.478 160.985 188.739 161.28 189.09C161.586 189.441 161.744 189.9 161.756 190.467C161.756 190.977 161.614 191.436 161.331 191.844C161.047 192.252 160.645 192.575 160.124 192.813C159.614 193.04 159.024 193.153 158.356 193.153ZM170.019 185.401C170.325 184.868 170.778 184.426 171.379 184.075C171.991 183.712 172.699 183.531 173.504 183.531C174.331 183.531 175.079 183.729 175.748 184.126C176.428 184.523 176.96 185.084 177.346 185.809C177.731 186.523 177.924 187.356 177.924 188.308C177.924 189.249 177.731 190.087 177.346 190.824C176.96 191.561 176.428 192.133 175.748 192.541C175.079 192.949 174.331 193.153 173.504 193.153C172.71 193.153 172.008 192.977 171.396 192.626C170.795 192.263 170.336 191.816 170.019 191.283V197.42H168.472V183.684H170.019V185.401ZM176.343 188.308C176.343 187.605 176.201 186.993 175.918 186.472C175.634 185.951 175.249 185.554 174.762 185.282C174.286 185.01 173.759 184.874 173.181 184.874C172.614 184.874 172.087 185.016 171.6 185.299C171.124 185.571 170.738 185.973 170.444 186.506C170.16 187.027 170.019 187.634 170.019 188.325C170.019 189.028 170.16 189.645 170.444 190.178C170.738 190.699 171.124 191.102 171.6 191.385C172.087 191.657 172.614 191.793 173.181 191.793C173.759 191.793 174.286 191.657 174.762 191.385C175.249 191.102 175.634 190.699 175.918 190.178C176.201 189.645 176.343 189.022 176.343 188.308ZM184.023 193.153C183.15 193.153 182.357 192.955 181.643 192.558C180.94 192.161 180.385 191.6 179.977 190.875C179.58 190.138 179.382 189.288 179.382 188.325C179.382 187.373 179.586 186.534 179.994 185.809C180.413 185.072 180.98 184.511 181.694 184.126C182.408 183.729 183.207 183.531 184.091 183.531C184.975 183.531 185.774 183.729 186.488 184.126C187.202 184.511 187.763 185.067 188.171 185.792C188.59 186.517 188.8 187.362 188.8 188.325C188.8 189.288 188.585 190.138 188.154 190.875C187.735 191.6 187.162 192.161 186.437 192.558C185.712 192.955 184.907 193.153 184.023 193.153ZM184.023 191.793C184.578 191.793 185.1 191.663 185.587 191.402C186.074 191.141 186.465 190.75 186.76 190.229C187.066 189.708 187.219 189.073 187.219 188.325C187.219 187.577 187.072 186.942 186.777 186.421C186.482 185.9 186.097 185.514 185.621 185.265C185.145 185.004 184.629 184.874 184.074 184.874C183.507 184.874 182.986 185.004 182.51 185.265C182.045 185.514 181.671 185.9 181.388 186.421C181.105 186.942 180.963 187.577 180.963 188.325C180.963 189.084 181.099 189.725 181.371 190.246C181.654 190.767 182.028 191.158 182.493 191.419C182.958 191.668 183.468 191.793 184.023 191.793ZM199.096 183.684V193H197.549V191.623C197.254 192.099 196.841 192.473 196.308 192.745C195.787 193.006 195.209 193.136 194.574 193.136C193.849 193.136 193.197 192.989 192.619 192.694C192.041 192.388 191.582 191.935 191.242 191.334C190.913 190.733 190.749 190.002 190.749 189.141V183.684H192.279V188.937C192.279 189.855 192.511 190.563 192.976 191.062C193.441 191.549 194.075 191.793 194.88 191.793C195.707 191.793 196.359 191.538 196.835 191.028C197.311 190.518 197.549 189.776 197.549 188.801V183.684H199.096ZM203.255 185.197C203.527 184.664 203.912 184.251 204.411 183.956C204.921 183.661 205.539 183.514 206.264 183.514V185.112H205.856C204.122 185.112 203.255 186.053 203.255 187.934V193H201.708V183.684H203.255V185.197ZM216.05 191.572L218.94 183.684H220.589L216.934 193H215.132L211.477 183.684H213.143L216.05 191.572ZM226.174 193.153C225.302 193.153 224.508 192.955 223.794 192.558C223.092 192.161 222.536 191.6 222.128 190.875C221.732 190.138 221.533 189.288 221.533 188.325C221.533 187.373 221.737 186.534 222.145 185.809C222.565 185.072 223.131 184.511 223.845 184.126C224.559 183.729 225.358 183.531 226.242 183.531C227.126 183.531 227.925 183.729 228.639 184.126C229.353 184.511 229.914 185.067 230.322 185.792C230.742 186.517 230.951 187.362 230.951 188.325C230.951 189.288 230.736 190.138 230.305 190.875C229.886 191.6 229.314 192.161 228.588 192.558C227.863 192.955 227.058 193.153 226.174 193.153ZM226.174 191.793C226.73 191.793 227.251 191.663 227.738 191.402C228.226 191.141 228.617 190.75 228.911 190.229C229.217 189.708 229.37 189.073 229.37 188.325C229.37 187.577 229.223 186.942 228.928 186.421C228.634 185.9 228.248 185.514 227.772 185.265C227.296 185.004 226.781 184.874 226.225 184.874C225.659 184.874 225.137 185.004 224.661 185.265C224.197 185.514 223.823 185.9 223.539 186.421C223.256 186.942 223.114 187.577 223.114 188.325C223.114 189.084 223.25 189.725 223.522 190.246C223.806 190.767 224.18 191.158 224.644 191.419C225.109 191.668 225.619 191.793 226.174 191.793ZM241.247 183.684V193H239.7V191.623C239.406 192.099 238.992 192.473 238.459 192.745C237.938 193.006 237.36 193.136 236.725 193.136C236 193.136 235.348 192.989 234.77 192.694C234.192 192.388 233.733 191.935 233.393 191.334C233.065 190.733 232.9 190.002 232.9 189.141V183.684H234.43V188.937C234.43 189.855 234.663 190.563 235.127 191.062C235.592 191.549 236.227 191.793 237.031 191.793C237.859 191.793 238.51 191.538 238.986 191.028C239.462 190.518 239.7 189.776 239.7 188.801V183.684H241.247ZM247.157 193.153C246.443 193.153 245.803 193.034 245.236 192.796C244.67 192.547 244.222 192.207 243.893 191.776C243.565 191.334 243.383 190.83 243.349 190.263H244.947C244.993 190.728 245.208 191.107 245.593 191.402C245.99 191.697 246.506 191.844 247.14 191.844C247.73 191.844 248.194 191.714 248.534 191.453C248.874 191.192 249.044 190.864 249.044 190.467C249.044 190.059 248.863 189.759 248.5 189.566C248.138 189.362 247.577 189.164 246.817 188.971C246.126 188.79 245.559 188.608 245.117 188.427C244.687 188.234 244.313 187.957 243.995 187.594C243.689 187.22 243.536 186.733 243.536 186.132C243.536 185.656 243.678 185.22 243.961 184.823C244.245 184.426 244.647 184.115 245.168 183.888C245.69 183.65 246.285 183.531 246.953 183.531C247.985 183.531 248.818 183.792 249.452 184.313C250.087 184.834 250.427 185.548 250.472 186.455H248.925C248.891 185.968 248.693 185.577 248.33 185.282C247.979 184.987 247.503 184.84 246.902 184.84C246.347 184.84 245.905 184.959 245.576 185.197C245.248 185.435 245.083 185.747 245.083 186.132C245.083 186.438 245.18 186.693 245.372 186.897C245.576 187.09 245.826 187.248 246.12 187.373C246.426 187.486 246.846 187.617 247.378 187.764C248.047 187.945 248.591 188.127 249.01 188.308C249.43 188.478 249.787 188.739 250.081 189.09C250.387 189.441 250.546 189.9 250.557 190.467C250.557 190.977 250.416 191.436 250.132 191.844C249.849 192.252 249.447 192.575 248.925 192.813C248.415 193.04 247.826 193.153 247.157 193.153ZM84.7503 213.384C85.9743 213.384 86.9603 214.166 86.9943 215.407H82.5233C82.7103 214.115 83.6113 213.384 84.7503 213.384ZM89.2213 218.042H86.6543C86.3483 218.671 85.7873 219.181 84.7673 219.181C83.5773 219.181 82.6253 218.399 82.5063 217.005H89.3913C89.4423 216.699 89.4593 216.393 89.4593 216.087C89.4593 213.282 87.5383 211.429 84.8183 211.429C82.0302 211.429 80.0922 213.316 80.0922 216.291C80.0922 219.249 82.0813 221.153 84.8183 221.153C87.1473 221.153 88.7113 219.776 89.2213 218.042ZM82.7273 209.185V210.885L86.6373 209.1V207.162L82.7273 209.185ZM90.5844 216.291C90.5844 219.249 92.5224 221.153 95.2424 221.153C97.5884 221.153 99.1694 219.827 99.6794 217.821H97.1124C96.8234 218.671 96.2114 219.113 95.2254 219.113C93.8994 219.113 93.0154 218.127 93.0154 216.291C93.0154 214.455 93.8994 213.452 95.2254 213.452C96.2114 213.452 96.8404 213.962 97.1124 214.761H99.6794C99.1694 212.653 97.5884 211.429 95.2424 211.429C92.5224 211.429 90.5844 213.333 90.5844 216.291ZM101.423 221H103.803V215.798C103.803 214.285 104.636 213.469 105.928 213.469C107.186 213.469 108.019 214.285 108.019 215.798V221H110.399V215.475C110.399 212.874 108.852 211.446 106.727 211.446C105.469 211.446 104.415 211.956 103.803 212.755V208.42H101.423V221ZM112.05 216.257C112.05 219.198 113.954 221.153 116.334 221.153C117.83 221.153 118.901 220.439 119.462 219.623V221H121.859V211.582H119.462V212.925C118.901 212.143 117.864 211.429 116.351 211.429C113.954 211.429 112.05 213.316 112.05 216.257ZM119.462 216.291C119.462 218.076 118.272 219.062 116.963 219.062C115.688 219.062 114.481 218.042 114.481 216.257C114.481 214.472 115.688 213.52 116.963 213.52C118.272 213.52 119.462 214.506 119.462 216.291ZM133.075 211.582H130.678V216.767C130.678 218.28 129.862 219.096 128.57 219.096C127.312 219.096 126.479 218.28 126.479 216.767V211.582H124.099V217.107C124.099 219.691 125.68 221.119 127.873 221.119C129.046 221.119 130.083 220.609 130.678 219.81V221H133.075V211.582ZM135.678 221H138.092V213.537H139.741V211.582H138.092V211.191C138.092 210.137 138.483 209.763 139.639 209.797V207.791C136.987 207.723 135.678 208.794 135.678 211.106V211.582H134.607V213.537H135.678V221ZM141.538 221H143.952V213.537H145.601V211.582H143.952V211.191C143.952 210.137 144.343 209.763 145.499 209.797V207.791C142.847 207.723 141.538 208.794 141.538 211.106V211.582H140.467V213.537H141.538V221ZM151.19 213.384C152.414 213.384 153.4 214.166 153.434 215.407H148.963C149.15 214.115 150.051 213.384 151.19 213.384ZM155.661 218.042H153.094C152.788 218.671 152.227 219.181 151.207 219.181C150.017 219.181 149.065 218.399 148.946 217.005H155.831C155.882 216.699 155.899 216.393 155.899 216.087C155.899 213.282 153.978 211.429 151.258 211.429C148.47 211.429 146.532 213.316 146.532 216.291C146.532 219.249 148.521 221.153 151.258 221.153C153.587 221.153 155.151 219.776 155.661 218.042ZM160.016 216.308C160.016 214.489 160.866 213.945 162.277 213.945H162.906V211.446C161.597 211.446 160.611 212.075 160.016 213.044V211.582H157.636V221H160.016V216.308ZM177.655 216.291C177.655 213.316 175.53 211.429 172.81 211.429C170.09 211.429 167.965 213.316 167.965 216.291C167.965 219.249 170.022 221.153 172.742 221.153C175.479 221.153 177.655 219.249 177.655 216.291ZM170.379 216.291C170.379 214.404 171.518 213.503 172.776 213.503C174.034 213.503 175.207 214.404 175.207 216.291C175.207 218.161 174 219.079 172.742 219.079C171.467 219.079 170.379 218.161 170.379 216.291ZM188.292 211.582H185.895V216.767C185.895 218.28 185.079 219.096 183.787 219.096C182.529 219.096 181.696 218.28 181.696 216.767V211.582H179.316V217.107C179.316 219.691 180.897 221.119 183.09 221.119C184.263 221.119 185.3 220.609 185.895 219.81V221H188.292V211.582ZM194.079 216.257C194.079 219.198 195.983 221.153 198.363 221.153C199.859 221.153 200.93 220.439 201.491 219.623V221H203.888V211.582H201.491V212.925C200.93 212.143 199.893 211.429 198.38 211.429C195.983 211.429 194.079 213.316 194.079 216.257ZM201.491 216.291C201.491 218.076 200.301 219.062 198.992 219.062C197.717 219.062 196.51 218.042 196.51 216.257C196.51 214.472 197.717 213.52 198.992 213.52C200.301 213.52 201.491 214.506 201.491 216.291ZM206.212 221H208.592V208.42H206.212V221ZM210.944 221H213.324V208.42H210.944V221ZM224.77 216.291C224.77 213.316 222.645 211.429 219.925 211.429C217.205 211.429 215.08 213.316 215.08 216.291C215.08 219.249 217.137 221.153 219.857 221.153C222.594 221.153 224.77 219.249 224.77 216.291ZM217.494 216.291C217.494 214.404 218.633 213.503 219.891 213.503C221.149 213.503 222.322 214.404 222.322 216.291C222.322 218.161 221.115 219.079 219.857 219.079C218.582 219.079 217.494 218.161 217.494 216.291ZM233.112 221H235.492V215.475C235.492 212.874 233.928 211.446 231.735 211.446C230.528 211.446 229.508 211.956 228.896 212.755V211.582H226.516V221H228.896V215.798C228.896 214.285 229.729 213.469 231.021 213.469C232.279 213.469 233.112 214.285 233.112 215.798V221ZM237.143 216.257C237.143 219.198 239.047 221.153 241.444 221.153C242.923 221.153 243.994 220.422 244.555 219.606V221.068C244.555 222.819 243.535 223.567 242.226 223.567C241.036 223.567 240.152 223.006 239.914 222.156H237.551C237.789 224.315 239.642 225.641 242.294 225.641C245.388 225.641 246.952 223.618 246.952 221.068V211.582H244.555V212.925C243.994 212.109 242.923 211.429 241.444 211.429C239.047 211.429 237.143 213.316 237.143 216.257ZM244.555 216.291C244.555 218.076 243.365 219.062 242.056 219.062C240.781 219.062 239.574 218.042 239.574 216.257C239.574 214.472 240.781 213.52 242.056 213.52C243.365 213.52 244.555 214.506 244.555 216.291ZM253.323 213.384C254.547 213.384 255.533 214.166 255.567 215.407H251.096C251.283 214.115 252.184 213.384 253.323 213.384ZM257.794 218.042H255.227C254.921 218.671 254.36 219.181 253.34 219.181C252.15 219.181 251.198 218.399 251.079 217.005H257.964C258.015 216.699 258.032 216.393 258.032 216.087C258.032 213.282 256.111 211.429 253.391 211.429C250.603 211.429 248.665 213.316 248.665 216.291C248.665 219.249 250.654 221.153 253.391 221.153C255.72 221.153 257.284 219.776 257.794 218.042ZM262.149 216.308C262.149 214.489 262.999 213.945 264.41 213.945H265.039V211.446C263.73 211.446 262.744 212.075 262.149 213.044V211.582H259.769V221H262.149V216.308ZM85.1632 239.582L88.6312 249H91.5212L95.0062 239.582H92.4732L90.0932 246.807L87.7132 239.582H85.1632ZM105.438 244.291C105.438 241.316 103.313 239.429 100.593 239.429C97.8729 239.429 95.7479 241.316 95.7479 244.291C95.7479 247.249 97.8049 249.153 100.525 249.153C103.262 249.153 105.438 247.249 105.438 244.291ZM98.1619 244.291C98.1619 242.404 99.3009 241.503 100.559 241.503C101.817 241.503 102.99 242.404 102.99 244.291C102.99 246.161 101.783 247.079 100.525 247.079C99.2499 247.079 98.1619 246.161 98.1619 244.291ZM107.558 246.076C107.558 248.235 108.765 249 110.567 249H112.063V246.994H110.958C110.21 246.994 109.955 246.722 109.955 246.093V241.537H112.063V239.582H109.955V237.253H107.558V239.582H106.436V241.537H107.558V246.076ZM116.155 244.308C116.155 242.489 117.005 241.945 118.416 241.945H119.045V239.446C117.736 239.446 116.75 240.075 116.155 241.044V239.582H113.775V249H116.155V244.308ZM124.694 241.384C125.918 241.384 126.904 242.166 126.938 243.407H122.467C122.654 242.115 123.555 241.384 124.694 241.384ZM129.165 246.042H126.598C126.292 246.671 125.731 247.181 124.711 247.181C123.521 247.181 122.569 246.399 122.45 245.005H129.335C129.386 244.699 129.403 244.393 129.403 244.087C129.403 241.282 127.482 239.429 124.762 239.429C121.974 239.429 120.036 241.316 120.036 244.291C120.036 247.249 122.025 249.153 124.762 249.153C127.091 249.153 128.655 247.776 129.165 246.042ZM142.501 246.314C142.433 242.863 137.214 243.934 137.214 242.217C137.214 241.673 137.673 241.316 138.557 241.316C139.492 241.316 140.07 241.809 140.138 242.54H142.416C142.28 240.67 140.903 239.429 138.625 239.429C136.296 239.429 134.902 240.687 134.902 242.251C134.902 245.702 140.223 244.631 140.223 246.314C140.223 246.858 139.713 247.283 138.778 247.283C137.826 247.283 137.163 246.739 137.078 246.025H134.681C134.783 247.776 136.432 249.153 138.795 249.153C141.09 249.153 142.501 247.929 142.501 246.314ZM148.5 241.384C149.724 241.384 150.71 242.166 150.744 243.407H146.273C146.46 242.115 147.361 241.384 148.5 241.384ZM152.971 246.042H150.404C150.098 246.671 149.537 247.181 148.517 247.181C147.327 247.181 146.375 246.399 146.256 245.005H153.141C153.192 244.699 153.209 244.393 153.209 244.087C153.209 241.282 151.288 239.429 148.568 239.429C145.78 239.429 143.842 241.316 143.842 244.291C143.842 247.249 145.831 249.153 148.568 249.153C150.897 249.153 152.461 247.776 152.971 246.042ZM146.477 237.185V238.885L150.387 237.1V235.162L146.477 237.185ZM154.334 244.257C154.334 247.198 156.238 249.153 158.618 249.153C160.114 249.153 161.185 248.439 161.746 247.623V249H164.143V239.582H161.746V240.925C161.185 240.143 160.148 239.429 158.635 239.429C156.238 239.429 154.334 241.316 154.334 244.257ZM161.746 244.291C161.746 246.076 160.556 247.062 159.247 247.062C157.972 247.062 156.765 246.042 156.765 244.257C156.765 242.472 157.972 241.52 159.247 241.52C160.556 241.52 161.746 242.506 161.746 244.291ZM173.064 249H175.444V243.475C175.444 240.874 173.88 239.446 171.687 239.446C170.48 239.446 169.46 239.956 168.848 240.755V239.582H166.468V249H168.848V243.798C168.848 242.285 169.681 241.469 170.973 241.469C172.231 241.469 173.064 242.285 173.064 243.798V249ZM177.095 244.291C177.095 247.249 179.033 249.153 181.753 249.153C184.099 249.153 185.68 247.827 186.19 245.821H183.623C183.334 246.671 182.722 247.113 181.736 247.113C180.41 247.113 179.526 246.127 179.526 244.291C179.526 242.455 180.41 241.452 181.736 241.452C182.722 241.452 183.351 241.962 183.623 242.761H186.19C185.68 240.653 184.099 239.429 181.753 239.429C179.033 239.429 177.095 241.333 177.095 244.291ZM191.98 241.384C193.204 241.384 194.19 242.166 194.224 243.407H189.753C189.94 242.115 190.841 241.384 191.98 241.384ZM196.451 246.042H193.884C193.578 246.671 193.017 247.181 191.997 247.181C190.807 247.181 189.855 246.399 189.736 245.005H196.621C196.672 244.699 196.689 244.393 196.689 244.087C196.689 241.282 194.768 239.429 192.048 239.429C189.26 239.429 187.322 241.316 187.322 244.291C187.322 247.249 189.311 249.153 192.048 249.153C194.377 249.153 195.941 247.776 196.451 246.042ZM202.035 244.308C202.035 243.356 202.227 242.523 202.613 241.809C202.998 241.084 203.525 240.523 204.194 240.126C204.874 239.729 205.627 239.531 206.455 239.531C207.271 239.531 207.979 239.707 208.58 240.058C209.18 240.409 209.628 240.851 209.923 241.384V239.684H211.487V249H209.923V247.266C209.617 247.81 209.158 248.263 208.546 248.626C207.945 248.977 207.242 249.153 206.438 249.153C205.61 249.153 204.862 248.949 204.194 248.541C203.525 248.133 202.998 247.561 202.613 246.824C202.227 246.087 202.035 245.249 202.035 244.308ZM209.923 244.325C209.923 243.622 209.781 243.01 209.498 242.489C209.214 241.968 208.829 241.571 208.342 241.299C207.866 241.016 207.339 240.874 206.761 240.874C206.183 240.874 205.656 241.01 205.18 241.282C204.704 241.554 204.324 241.951 204.041 242.472C203.757 242.993 203.616 243.605 203.616 244.308C203.616 245.022 203.757 245.645 204.041 246.178C204.324 246.699 204.704 247.102 205.18 247.385C205.656 247.657 206.183 247.793 206.761 247.793C207.339 247.793 207.866 247.657 208.342 247.385C208.829 247.102 209.214 246.699 209.498 246.178C209.781 245.645 209.923 245.028 209.923 244.325ZM217.892 240.959H215.937V249H214.39V240.959H213.183V239.684H214.39V239.021C214.39 237.978 214.656 237.219 215.189 236.743C215.733 236.256 216.6 236.012 217.79 236.012V237.304C217.11 237.304 216.628 237.44 216.345 237.712C216.073 237.973 215.937 238.409 215.937 239.021V239.684H217.892V240.959ZM220.495 238.171C220.2 238.171 219.951 238.069 219.747 237.865C219.543 237.661 219.441 237.412 219.441 237.117C219.441 236.822 219.543 236.573 219.747 236.369C219.951 236.165 220.2 236.063 220.495 236.063C220.778 236.063 221.016 236.165 221.209 236.369C221.413 236.573 221.515 236.822 221.515 237.117C221.515 237.412 221.413 237.661 221.209 237.865C221.016 238.069 220.778 238.171 220.495 238.171ZM221.243 239.684V249H219.696V239.684H221.243ZM228.418 239.514C229.552 239.514 230.47 239.86 231.172 240.551C231.875 241.231 232.226 242.217 232.226 243.509V249H230.696V243.73C230.696 242.801 230.464 242.092 229.999 241.605C229.535 241.106 228.9 240.857 228.095 240.857C227.279 240.857 226.628 241.112 226.14 241.622C225.664 242.132 225.426 242.874 225.426 243.849V249H223.879V239.684H225.426V241.01C225.732 240.534 226.146 240.166 226.667 239.905C227.2 239.644 227.784 239.514 228.418 239.514ZM238.708 244.308C238.708 243.356 238.9 242.523 239.286 241.809C239.671 241.084 240.198 240.523 240.867 240.126C241.547 239.729 242.306 239.531 243.145 239.531C243.87 239.531 244.544 239.701 245.168 240.041C245.791 240.37 246.267 240.806 246.596 241.35V236.42H248.16V249H246.596V247.249C246.29 247.804 245.836 248.263 245.236 248.626C244.635 248.977 243.932 249.153 243.128 249.153C242.3 249.153 241.547 248.949 240.867 248.541C240.198 248.133 239.671 247.561 239.286 246.824C238.9 246.087 238.708 245.249 238.708 244.308ZM246.596 244.325C246.596 243.622 246.454 243.01 246.171 242.489C245.887 241.968 245.502 241.571 245.015 241.299C244.539 241.016 244.012 240.874 243.434 240.874C242.856 240.874 242.329 241.01 241.853 241.282C241.377 241.554 240.997 241.951 240.714 242.472C240.43 242.993 240.289 243.605 240.289 244.308C240.289 245.022 240.43 245.645 240.714 246.178C240.997 246.699 241.377 247.102 241.853 247.385C242.329 247.657 242.856 247.793 243.434 247.793C244.012 247.793 244.539 247.657 245.015 247.385C245.502 247.102 245.887 246.699 246.171 246.178C246.454 245.645 246.596 245.028 246.596 244.325ZM259.274 243.985C259.274 244.28 259.257 244.591 259.223 244.92H251.777C251.834 245.838 252.145 246.558 252.712 247.079C253.29 247.589 253.987 247.844 254.803 247.844C255.472 247.844 256.027 247.691 256.469 247.385C256.922 247.068 257.24 246.648 257.421 246.127H259.087C258.838 247.022 258.339 247.753 257.591 248.32C256.843 248.875 255.914 249.153 254.803 249.153C253.919 249.153 253.126 248.955 252.423 248.558C251.732 248.161 251.188 247.6 250.791 246.875C250.394 246.138 250.196 245.288 250.196 244.325C250.196 243.362 250.389 242.517 250.774 241.792C251.159 241.067 251.698 240.511 252.389 240.126C253.092 239.729 253.896 239.531 254.803 239.531C255.687 239.531 256.469 239.724 257.149 240.109C257.829 240.494 258.35 241.027 258.713 241.707C259.087 242.376 259.274 243.135 259.274 243.985ZM257.676 243.662C257.676 243.073 257.546 242.568 257.285 242.149C257.024 241.718 256.667 241.395 256.214 241.18C255.772 240.953 255.279 240.84 254.735 240.84C253.953 240.84 253.284 241.089 252.729 241.588C252.185 242.087 251.873 242.778 251.794 243.662H257.676ZM87.6037 275.572L90.4937 267.684H92.1427L88.4877 277H86.6857L83.0307 267.684H84.6967L87.6037 275.572ZM97.728 277.153C96.8553 277.153 96.062 276.955 95.348 276.558C94.6453 276.161 94.09 275.6 93.682 274.875C93.2853 274.138 93.087 273.288 93.087 272.325C93.087 271.373 93.291 270.534 93.699 269.809C94.1183 269.072 94.685 268.511 95.399 268.126C96.113 267.729 96.912 267.531 97.796 267.531C98.68 267.531 99.479 267.729 100.193 268.126C100.907 268.511 101.468 269.067 101.876 269.792C102.295 270.517 102.505 271.362 102.505 272.325C102.505 273.288 102.29 274.138 101.859 274.875C101.44 275.6 100.867 276.161 100.142 276.558C99.4166 276.955 98.612 277.153 97.728 277.153ZM97.728 275.793C98.2833 275.793 98.8046 275.663 99.292 275.402C99.7793 275.141 100.17 274.75 100.465 274.229C100.771 273.708 100.924 273.073 100.924 272.325C100.924 271.577 100.777 270.942 100.482 270.421C100.187 269.9 99.802 269.514 99.326 269.265C98.85 269.004 98.3343 268.874 97.779 268.874C97.2123 268.874 96.691 269.004 96.215 269.265C95.7503 269.514 95.3763 269.9 95.093 270.421C94.8096 270.942 94.668 271.577 94.668 272.325C94.668 273.084 94.804 273.725 95.076 274.246C95.3593 274.767 95.7333 275.158 96.198 275.419C96.6626 275.668 97.1726 275.793 97.728 275.793ZM112.801 267.684V277H111.254V275.623C110.959 276.099 110.546 276.473 110.013 276.745C109.492 277.006 108.914 277.136 108.279 277.136C107.554 277.136 106.902 276.989 106.324 276.694C105.746 276.388 105.287 275.935 104.947 275.334C104.618 274.733 104.454 274.002 104.454 273.141V267.684H105.984V272.937C105.984 273.855 106.216 274.563 106.681 275.062C107.146 275.549 107.78 275.793 108.585 275.793C109.412 275.793 110.064 275.538 110.54 275.028C111.016 274.518 111.254 273.776 111.254 272.801V267.684H112.801ZM118.711 277.153C117.997 277.153 117.357 277.034 116.79 276.796C116.223 276.547 115.776 276.207 115.447 275.776C115.118 275.334 114.937 274.83 114.903 274.263H116.501C116.546 274.728 116.762 275.107 117.147 275.402C117.544 275.697 118.059 275.844 118.694 275.844C119.283 275.844 119.748 275.714 120.088 275.453C120.428 275.192 120.598 274.864 120.598 274.467C120.598 274.059 120.417 273.759 120.054 273.566C119.691 273.362 119.13 273.164 118.371 272.971C117.68 272.79 117.113 272.608 116.671 272.427C116.24 272.234 115.866 271.957 115.549 271.594C115.243 271.22 115.09 270.733 115.09 270.132C115.09 269.656 115.232 269.22 115.515 268.823C115.798 268.426 116.201 268.115 116.722 267.888C117.243 267.65 117.838 267.531 118.507 267.531C119.538 267.531 120.371 267.792 121.006 268.313C121.641 268.834 121.981 269.548 122.026 270.455H120.479C120.445 269.968 120.247 269.577 119.884 269.282C119.533 268.987 119.057 268.84 118.456 268.84C117.901 268.84 117.459 268.959 117.13 269.197C116.801 269.435 116.637 269.747 116.637 270.132C116.637 270.438 116.733 270.693 116.926 270.897C117.13 271.09 117.379 271.248 117.674 271.373C117.98 271.486 118.399 271.617 118.932 271.764C119.601 271.945 120.145 272.127 120.564 272.308C120.983 272.478 121.34 272.739 121.635 273.09C121.941 273.441 122.1 273.9 122.111 274.467C122.111 274.977 121.969 275.436 121.686 275.844C121.403 276.252 121 276.575 120.479 276.813C119.969 277.04 119.38 277.153 118.711 277.153ZM128.249 272.308C128.249 271.356 128.442 270.523 128.827 269.809C129.212 269.084 129.739 268.523 130.408 268.126C131.088 267.729 131.847 267.531 132.686 267.531C133.411 267.531 134.086 267.701 134.709 268.041C135.332 268.37 135.808 268.806 136.137 269.35V264.42H137.701V277H136.137V275.249C135.831 275.804 135.378 276.263 134.777 276.626C134.176 276.977 133.474 277.153 132.669 277.153C131.842 277.153 131.088 276.949 130.408 276.541C129.739 276.133 129.212 275.561 128.827 274.824C128.442 274.087 128.249 273.249 128.249 272.308ZM136.137 272.325C136.137 271.622 135.995 271.01 135.712 270.489C135.429 269.968 135.043 269.571 134.556 269.299C134.08 269.016 133.553 268.874 132.975 268.874C132.397 268.874 131.87 269.01 131.394 269.282C130.918 269.554 130.538 269.951 130.255 270.472C129.972 270.993 129.83 271.605 129.83 272.308C129.83 273.022 129.972 273.645 130.255 274.178C130.538 274.699 130.918 275.102 131.394 275.385C131.87 275.657 132.397 275.793 132.975 275.793C133.553 275.793 134.08 275.657 134.556 275.385C135.043 275.102 135.429 274.699 135.712 274.178C135.995 273.645 136.137 273.028 136.137 272.325ZM144.378 277.153C143.506 277.153 142.712 276.955 141.998 276.558C141.296 276.161 140.74 275.6 140.332 274.875C139.936 274.138 139.737 273.288 139.737 272.325C139.737 271.373 139.941 270.534 140.349 269.809C140.769 269.072 141.335 268.511 142.049 268.126C142.763 267.729 143.562 267.531 144.446 267.531C145.33 267.531 146.129 267.729 146.843 268.126C147.557 268.511 148.118 269.067 148.526 269.792C148.946 270.517 149.155 271.362 149.155 272.325C149.155 273.288 148.94 274.138 148.509 274.875C148.09 275.6 147.518 276.161 146.792 276.558C146.067 276.955 145.262 277.153 144.378 277.153ZM144.378 275.793C144.934 275.793 145.455 275.663 145.942 275.402C146.43 275.141 146.821 274.75 147.115 274.229C147.421 273.708 147.574 273.073 147.574 272.325C147.574 271.577 147.427 270.942 147.132 270.421C146.838 269.9 146.452 269.514 145.976 269.265C145.5 269.004 144.985 268.874 144.429 268.874C143.863 268.874 143.341 269.004 142.865 269.265C142.401 269.514 142.027 269.9 141.743 270.421C141.46 270.942 141.318 271.577 141.318 272.325C141.318 273.084 141.454 273.725 141.726 274.246C142.01 274.767 142.384 275.158 142.848 275.419C143.313 275.668 143.823 275.793 144.378 275.793ZM155.728 267.514C156.862 267.514 157.78 267.86 158.482 268.551C159.185 269.231 159.536 270.217 159.536 271.509V277H158.006V271.73C158.006 270.801 157.774 270.092 157.309 269.605C156.845 269.106 156.21 268.857 155.405 268.857C154.589 268.857 153.938 269.112 153.45 269.622C152.974 270.132 152.736 270.874 152.736 271.849V277H151.189V267.684H152.736V269.01C153.042 268.534 153.456 268.166 153.977 267.905C154.51 267.644 155.094 267.514 155.728 267.514ZM166.602 267.514C167.736 267.514 168.654 267.86 169.356 268.551C170.059 269.231 170.41 270.217 170.41 271.509V277H168.88V271.73C168.88 270.801 168.648 270.092 168.183 269.605C167.719 269.106 167.084 268.857 166.279 268.857C165.463 268.857 164.812 269.112 164.324 269.622C163.848 270.132 163.61 270.874 163.61 271.849V277H162.063V267.684H163.61V269.01C163.916 268.534 164.33 268.166 164.851 267.905C165.384 267.644 165.968 267.514 166.602 267.514ZM181.437 271.985C181.437 272.28 181.42 272.591 181.386 272.92H173.94C173.997 273.838 174.309 274.558 174.875 275.079C175.453 275.589 176.15 275.844 176.966 275.844C177.635 275.844 178.19 275.691 178.632 275.385C179.086 275.068 179.403 274.648 179.584 274.127H181.25C181.001 275.022 180.502 275.753 179.754 276.32C179.006 276.875 178.077 277.153 176.966 277.153C176.082 277.153 175.289 276.955 174.586 276.558C173.895 276.161 173.351 275.6 172.954 274.875C172.558 274.138 172.359 273.288 172.359 272.325C172.359 271.362 172.552 270.517 172.937 269.792C173.323 269.067 173.861 268.511 174.552 268.126C175.255 267.729 176.06 267.531 176.966 267.531C177.85 267.531 178.632 267.724 179.312 268.109C179.992 268.494 180.514 269.027 180.876 269.707C181.25 270.376 181.437 271.135 181.437 271.985ZM179.839 271.662C179.839 271.073 179.709 270.568 179.448 270.149C179.188 269.718 178.831 269.395 178.377 269.18C177.935 268.953 177.442 268.84 176.898 268.84C176.116 268.84 175.448 269.089 174.892 269.588C174.348 270.087 174.037 270.778 173.957 271.662H179.839ZM185.026 269.197C185.298 268.664 185.684 268.251 186.182 267.956C186.692 267.661 187.31 267.514 188.035 267.514V269.112H187.627C185.893 269.112 185.026 270.053 185.026 271.934V277H183.479V267.684H185.026V269.197ZM196.24 268.959V274.45C196.24 274.903 196.337 275.226 196.529 275.419C196.722 275.6 197.056 275.691 197.532 275.691H198.671V277H197.277C196.416 277 195.77 276.802 195.339 276.405C194.909 276.008 194.693 275.357 194.693 274.45V268.959H193.486V267.684H194.693V265.338H196.24V267.684H198.671V268.959H196.24ZM204.609 277.153C203.736 277.153 202.943 276.955 202.229 276.558C201.526 276.161 200.971 275.6 200.563 274.875C200.166 274.138 199.968 273.288 199.968 272.325C199.968 271.373 200.172 270.534 200.58 269.809C200.999 269.072 201.566 268.511 202.28 268.126C202.994 267.729 203.793 267.531 204.677 267.531C205.561 267.531 206.36 267.729 207.074 268.126C207.788 268.511 208.349 269.067 208.757 269.792C209.176 270.517 209.386 271.362 209.386 272.325C209.386 273.288 209.17 274.138 208.74 274.875C208.32 275.6 207.748 276.161 207.023 276.558C206.297 276.955 205.493 277.153 204.609 277.153ZM204.609 275.793C205.164 275.793 205.685 275.663 206.173 275.402C206.66 275.141 207.051 274.75 207.346 274.229C207.652 273.708 207.805 273.073 207.805 272.325C207.805 271.577 207.657 270.942 207.363 270.421C207.068 269.9 206.683 269.514 206.207 269.265C205.731 269.004 205.215 268.874 204.66 268.874C204.093 268.874 203.572 269.004 203.096 269.265C202.631 269.514 202.257 269.9 201.974 270.421C201.69 270.942 201.549 271.577 201.549 272.325C201.549 273.084 201.685 273.725 201.957 274.246C202.24 274.767 202.614 275.158 203.079 275.419C203.543 275.668 204.053 275.793 204.609 275.793ZM219.682 267.684V277H218.135V275.623C217.84 276.099 217.427 276.473 216.894 276.745C216.373 277.006 215.795 277.136 215.16 277.136C214.435 277.136 213.783 276.989 213.205 276.694C212.627 276.388 212.168 275.935 211.828 275.334C211.499 274.733 211.335 274.002 211.335 273.141V267.684H212.865V272.937C212.865 273.855 213.097 274.563 213.562 275.062C214.027 275.549 214.661 275.793 215.466 275.793C216.293 275.793 216.945 275.538 217.421 275.028C217.897 274.518 218.135 273.776 218.135 272.801V267.684H219.682ZM223.127 266.171C222.832 266.171 222.583 266.069 222.379 265.865C222.186 265.661 222.09 265.412 222.09 265.117C222.09 264.822 222.186 264.573 222.379 264.369C222.583 264.165 222.832 264.063 223.127 264.063C223.422 264.063 223.665 264.165 223.858 264.369C224.062 264.573 224.164 264.822 224.164 265.117C224.164 265.412 224.062 265.661 223.858 265.865C223.665 266.069 223.422 266.171 223.127 266.171ZM223.892 279.023C223.892 279.85 223.682 280.457 223.263 280.842C222.844 281.227 222.232 281.42 221.427 281.42H220.526V280.111H221.172C221.603 280.111 221.903 280.026 222.073 279.856C222.254 279.686 222.345 279.397 222.345 278.989V267.684H223.892V279.023ZM230.574 277.153C229.701 277.153 228.908 276.955 228.194 276.558C227.491 276.161 226.936 275.6 226.528 274.875C226.131 274.138 225.933 273.288 225.933 272.325C225.933 271.373 226.137 270.534 226.545 269.809C226.964 269.072 227.531 268.511 228.245 268.126C228.959 267.729 229.758 267.531 230.642 267.531C231.526 267.531 232.325 267.729 233.039 268.126C233.753 268.511 234.314 269.067 234.722 269.792C235.141 270.517 235.351 271.362 235.351 272.325C235.351 273.288 235.135 274.138 234.705 274.875C234.285 275.6 233.713 276.161 232.988 276.558C232.262 276.955 231.458 277.153 230.574 277.153ZM230.574 275.793C231.129 275.793 231.65 275.663 232.138 275.402C232.625 275.141 233.016 274.75 233.311 274.229C233.617 273.708 233.77 273.073 233.77 272.325C233.77 271.577 233.622 270.942 233.328 270.421C233.033 269.9 232.648 269.514 232.172 269.265C231.696 269.004 231.18 268.874 230.625 268.874C230.058 268.874 229.537 269.004 229.061 269.265C228.596 269.514 228.222 269.9 227.939 270.421C227.655 270.942 227.514 271.577 227.514 272.325C227.514 273.084 227.65 273.725 227.922 274.246C228.205 274.767 228.579 275.158 229.044 275.419C229.508 275.668 230.018 275.793 230.574 275.793ZM245.647 267.684V277H244.1V275.623C243.805 276.099 243.391 276.473 242.859 276.745C242.337 277.006 241.759 277.136 241.125 277.136C240.399 277.136 239.748 276.989 239.17 276.694C238.592 276.388 238.133 275.935 237.793 275.334C237.464 274.733 237.3 274.002 237.3 273.141V267.684H238.83V272.937C238.83 273.855 239.062 274.563 239.527 275.062C239.991 275.549 240.626 275.793 241.431 275.793C242.258 275.793 242.91 275.538 243.386 275.028C243.862 274.518 244.1 273.776 244.1 272.801V267.684H245.647ZM249.806 269.197C250.078 268.664 250.463 268.251 250.962 267.956C251.472 267.661 252.089 267.514 252.815 267.514V269.112H252.407C250.673 269.112 249.806 270.053 249.806 271.934V277H248.259V267.684H249.806V269.197ZM257.899 277.153C257.185 277.153 256.544 277.034 255.978 276.796C255.411 276.547 254.963 276.207 254.635 275.776C254.306 275.334 254.125 274.83 254.091 274.263H255.689C255.734 274.728 255.949 275.107 256.335 275.402C256.731 275.697 257.247 275.844 257.882 275.844C258.471 275.844 258.936 275.714 259.276 275.453C259.616 275.192 259.786 274.864 259.786 274.467C259.786 274.059 259.604 273.759 259.242 273.566C258.879 273.362 258.318 273.164 257.559 272.971C256.867 272.79 256.301 272.608 255.859 272.427C255.428 272.234 255.054 271.957 254.737 271.594C254.431 271.22 254.278 270.733 254.278 270.132C254.278 269.656 254.419 269.22 254.703 268.823C254.986 268.426 255.388 268.115 255.91 267.888C256.431 267.65 257.026 267.531 257.695 267.531C258.726 267.531 259.559 267.792 260.194 268.313C260.828 268.834 261.168 269.548 261.214 270.455H259.667C259.633 269.968 259.434 269.577 259.072 269.282C258.72 268.987 258.244 268.84 257.644 268.84C257.088 268.84 256.646 268.959 256.318 269.197C255.989 269.435 255.825 269.747 255.825 270.132C255.825 270.438 255.921 270.693 256.114 270.897C256.318 271.09 256.567 271.248 256.862 271.373C257.168 271.486 257.587 271.617 258.12 271.764C258.788 271.945 259.332 272.127 259.752 272.308C260.171 272.478 260.528 272.739 260.823 273.09C261.129 273.441 261.287 273.9 261.299 274.467C261.299 274.977 261.157 275.436 260.874 275.844C260.59 276.252 260.188 276.575 259.667 276.813C259.157 277.04 258.567 277.153 257.899 277.153ZM152.844 297.401C153.15 296.868 153.604 296.426 154.204 296.075C154.816 295.712 155.525 295.531 156.329 295.531C157.157 295.531 157.905 295.729 158.573 296.126C159.253 296.523 159.786 297.084 160.171 297.809C160.557 298.523 160.749 299.356 160.749 300.308C160.749 301.249 160.557 302.087 160.171 302.824C159.786 303.561 159.253 304.133 158.573 304.541C157.905 304.949 157.157 305.153 156.329 305.153C155.536 305.153 154.833 304.977 154.221 304.626C153.621 304.263 153.162 303.816 152.844 303.283V309.42H151.297V295.684H152.844V297.401ZM159.168 300.308C159.168 299.605 159.027 298.993 158.743 298.472C158.46 297.951 158.075 297.554 157.587 297.282C157.111 297.01 156.584 296.874 156.006 296.874C155.44 296.874 154.913 297.016 154.425 297.299C153.949 297.571 153.564 297.973 153.269 298.506C152.986 299.027 152.844 299.634 152.844 300.325C152.844 301.028 152.986 301.645 153.269 302.178C153.564 302.699 153.949 303.102 154.425 303.385C154.913 303.657 155.44 303.793 156.006 303.793C156.584 303.793 157.111 303.657 157.587 303.385C158.075 303.102 158.46 302.699 158.743 302.178C159.027 301.645 159.168 301.022 159.168 300.308ZM164.333 292.42V305H162.786V292.42H164.333ZM175.231 295.684V305H173.684V303.623C173.389 304.099 172.976 304.473 172.443 304.745C171.922 305.006 171.344 305.136 170.709 305.136C169.984 305.136 169.332 304.989 168.754 304.694C168.176 304.388 167.717 303.935 167.377 303.334C167.048 302.733 166.884 302.002 166.884 301.141V295.684H168.414V300.937C168.414 301.855 168.646 302.563 169.111 303.062C169.576 303.549 170.21 303.793 171.015 303.793C171.842 303.793 172.494 303.538 172.97 303.028C173.446 302.518 173.684 301.776 173.684 300.801V295.684H175.231ZM181.141 305.153C180.427 305.153 179.787 305.034 179.22 304.796C178.654 304.547 178.206 304.207 177.877 303.776C177.549 303.334 177.367 302.83 177.333 302.263H178.931C178.977 302.728 179.192 303.107 179.577 303.402C179.974 303.697 180.49 303.844 181.124 303.844C181.714 303.844 182.178 303.714 182.518 303.453C182.858 303.192 183.028 302.864 183.028 302.467C183.028 302.059 182.847 301.759 182.484 301.566C182.122 301.362 181.561 301.164 180.801 300.971C180.11 300.79 179.543 300.608 179.101 300.427C178.671 300.234 178.297 299.957 177.979 299.594C177.673 299.22 177.52 298.733 177.52 298.132C177.52 297.656 177.662 297.22 177.945 296.823C178.229 296.426 178.631 296.115 179.152 295.888C179.674 295.65 180.269 295.531 180.937 295.531C181.969 295.531 182.802 295.792 183.436 296.313C184.071 296.834 184.411 297.548 184.456 298.455H182.909C182.875 297.968 182.677 297.577 182.314 297.282C181.963 296.987 181.487 296.84 180.886 296.84C180.331 296.84 179.889 296.959 179.56 297.197C179.232 297.435 179.067 297.747 179.067 298.132C179.067 298.438 179.164 298.693 179.356 298.897C179.56 299.09 179.81 299.248 180.104 299.373C180.41 299.486 180.83 299.617 181.362 299.764C182.031 299.945 182.575 300.127 182.994 300.308C183.414 300.478 183.771 300.739 184.065 301.09C184.371 301.441 184.53 301.9 184.541 302.467C184.541 302.977 184.4 303.436 184.116 303.844C183.833 304.252 183.431 304.575 182.909 304.813C182.399 305.04 181.81 305.153 181.141 305.153ZM193.263 293.151L193.076 301.651H191.784L191.597 293.151H193.263ZM192.498 305.102C192.204 305.102 191.954 305 191.75 304.796C191.546 304.592 191.444 304.343 191.444 304.048C191.444 303.753 191.546 303.504 191.75 303.3C191.954 303.096 192.204 302.994 192.498 302.994C192.782 302.994 193.02 303.096 193.212 303.3C193.416 303.504 193.518 303.753 193.518 304.048C193.518 304.343 193.416 304.592 193.212 304.796C193.02 305 192.782 305.102 192.498 305.102Z" fill="#1A00E1"/>
</svg>
