<svg width="59" height="93" viewBox="0 0 59 93" fill="none" xmlns="http://www.w3.org/2000/svg">
<rect x="2.79688" y="2.79699" width="55.9398" height="90.203" rx="20" fill="#1A00E1"/>
<rect x="1.04887" y="1.04887" width="53.8421" height="88.1053" rx="18.9511" fill="white" stroke="#FF0090" stroke-width="2.09774"/>
<path d="M26.9438 51.1547C30.2303 51.1547 32.3105 49.3367 32.3105 45.6306V39.9667C32.3105 39.215 31.7162 38.6207 30.9645 38.6207C30.2128 38.6207 29.6184 39.215 29.6184 39.9667V45.7355C29.6184 47.6759 28.622 48.6724 26.9788 48.6724C25.3355 48.6724 24.3391 47.641 24.3391 45.6481V39.9667C24.3391 39.215 23.7447 38.6207 22.9931 38.6207C22.2414 38.6207 21.647 39.215 21.647 39.9667V45.718C21.647 49.3192 23.6573 51.1547 26.9438 51.1547ZM22.6075 70.7212C22.6075 71.4729 23.2019 72.0673 23.9536 72.0673C24.7053 72.0673 25.2996 71.4729 25.2996 70.7212V68.2913H27.3449C30.0895 68.2913 32.2921 66.8229 32.2921 63.991V63.956C32.2921 61.4562 30.5265 59.7256 27.6071 59.7256H23.9536C23.2019 59.7256 22.6075 60.3199 22.6075 61.0716V70.7212ZM25.2996 65.8964V62.1554H27.3799C28.7259 62.1554 29.565 62.8023 29.565 64.0085V64.0434C29.565 65.0923 28.7784 65.8964 27.4323 65.8964H25.2996Z" fill="#FF0090"/>
<path d="M37.0601 25.8722L27.2278 17.4812L18.8796 25.8722" stroke="#1A00E1" stroke-width="3.49624" stroke-linecap="round"/>
</svg>
