<svg width="69" height="70" viewBox="0 0 69 70" fill="none" xmlns="http://www.w3.org/2000/svg">
<path d="M34.5 0.222168C29.9694 0.222168 25.4832 1.11454 21.2974 2.84832C17.1117 4.58211 13.3084 7.12336 10.1048 10.327C3.63481 16.797 0 25.5722 0 34.7222C0 43.8721 3.63481 52.6473 10.1048 59.1174C13.3084 62.321 17.1117 64.8622 21.2974 66.596C25.4832 68.3298 29.9694 69.2222 34.5 69.2222C43.65 69.2222 52.4252 65.5874 58.8952 59.1174C65.3652 52.6473 69 43.8721 69 34.7222C69 30.1916 68.1076 25.7053 66.3738 21.5196C64.6401 17.3339 62.0988 13.5306 58.8952 10.327C55.6916 7.12336 51.8883 4.58211 47.7026 2.84832C43.5168 1.11454 39.0306 0.222168 34.5 0.222168ZM17.25 26.0972C17.25 23.3372 19.665 20.9222 22.425 20.9222C25.185 20.9222 27.6 23.3372 27.6 26.0972C27.6 28.8572 25.185 31.2722 22.425 31.2722C19.665 31.2722 17.25 28.8572 17.25 26.0972ZM34.5 52.7657C28.4625 52.7657 23.1495 50.2472 20.0445 46.5212L24.9435 41.6222C26.496 44.1062 30.1875 45.8657 34.5 45.8657C38.8125 45.8657 42.504 44.1062 44.0565 41.6222L48.9555 46.5212C45.8505 50.2472 40.5375 52.7657 34.5 52.7657ZM46.575 31.2722C43.815 31.2722 41.4 28.8572 41.4 26.0972C41.4 23.3372 43.815 20.9222 46.575 20.9222C49.335 20.9222 51.75 23.3372 51.75 26.0972C51.75 28.8572 49.335 31.2722 46.575 31.2722Z" fill="#1A00E1"/>
</svg>
