<svg width="71" height="71" viewBox="0 0 71 71" fill="none" xmlns="http://www.w3.org/2000/svg">
<rect x="3.36816" y="2.13535" width="67.3685" height="68.8647" rx="20" fill="#1A00E1"/>
<rect x="1.04887" y="1.04887" width="65.2707" height="66.7669" rx="18.9511" fill="white" stroke="#FF0090" stroke-width="2.09774"/>
<path fill-rule="evenodd" clip-rule="evenodd" d="M17.3086 23.5C17.3086 22.1193 17.8049 21 18.4171 21H49.0861C49.6983 21 50.1946 22.1193 50.1946 23.5C50.1946 24.8807 49.6983 26 49.0861 26H18.4171C17.8049 26 17.3086 24.8807 17.3086 23.5Z" fill="#1A00E1"/>
<path fill-rule="evenodd" clip-rule="evenodd" d="M17.3086 45.5C17.3086 44.1193 17.8049 43 18.4171 43H49.0861C49.6983 43 50.1946 44.1193 50.1946 45.5C50.1946 46.8807 49.6983 48 49.0861 48H18.4171C17.8049 48 17.3086 46.8807 17.3086 45.5Z" fill="#1A00E1"/>
<path fill-rule="evenodd" clip-rule="evenodd" d="M13.8467 34.5C13.8467 33.1193 14.4344 32 15.1594 32H51.4779C52.2029 32 52.7907 33.1193 52.7907 34.5C52.7907 35.8807 52.2029 37 51.4779 37H15.1594C14.4344 37 13.8467 35.8807 13.8467 34.5Z" fill="#1A00E1"/>
</svg>
