<svg width="390" height="346" viewBox="0 0 390 346" fill="none" xmlns="http://www.w3.org/2000/svg">
<path d="M39.126 285.077L39.126 163.568" stroke="#FF0090" stroke-opacity="0.4" stroke-linecap="round" stroke-linejoin="round"/>
<path d="M18.5967 285.077L18.5967 163.568" stroke="#FF0090" stroke-opacity="0.4" stroke-linecap="round" stroke-linejoin="round"/>
<path d="M382.571 305.052V163.568" stroke="#FF0090" stroke-opacity="0.4" stroke-linecap="round" stroke-linejoin="round"/>
<path d="M362.597 305.052V163.568" stroke="#FF0090" stroke-opacity="0.4" stroke-linecap="round" stroke-linejoin="round"/>
<path d="M342.067 285.077V163.568" stroke="#FF0090" stroke-opacity="0.4" stroke-linecap="round" stroke-linejoin="round"/>
<path d="M321.539 285.077V163.568" stroke="#FF0090" stroke-opacity="0.4" stroke-linecap="round" stroke-linejoin="round"/>
<path d="M301.565 285.077V163.568" stroke="#FF0090" stroke-opacity="0.4" stroke-linecap="round" stroke-linejoin="round"/>
<path d="M200.584 285.077L200.584 163.568" stroke="#FF0090" stroke-opacity="0.4" stroke-linecap="round" stroke-linejoin="round"/>
<path d="M281.036 285.077V163.568" stroke="#FF0090" stroke-opacity="0.4" stroke-linecap="round" stroke-linejoin="round"/>
<path d="M180.61 285.077L180.61 163.568" stroke="#FF0090" stroke-opacity="0.4" stroke-linecap="round" stroke-linejoin="round"/>
<path d="M261.061 285.077V163.568" stroke="#FF0090" stroke-opacity="0.4" stroke-linecap="round" stroke-linejoin="round"/>
<path d="M160.081 285.077L160.081 163.568" stroke="#FF0090" stroke-opacity="0.4" stroke-linecap="round" stroke-linejoin="round"/>
<path d="M240.533 285.077L240.533 163.568" stroke="#FF0090" stroke-opacity="0.4" stroke-linecap="round" stroke-linejoin="round"/>
<path d="M140.107 285.077L140.107 163.568" stroke="#FF0090" stroke-opacity="0.4" stroke-linecap="round" stroke-linejoin="round"/>
<path d="M220.558 285.077L220.558 163.568" stroke="#FF0090" stroke-opacity="0.4" stroke-linecap="round" stroke-linejoin="round"/>
<path d="M634.468 204.071L-202.229 204.071" stroke="#FF0090" stroke-opacity="0.4" stroke-linecap="round" stroke-linejoin="round"/>
<path d="M119.578 285.077L119.578 163.568" stroke="#FF0090" stroke-opacity="0.4" stroke-linecap="round" stroke-linejoin="round"/>
<path d="M634.468 224.6L-202.229 224.6" stroke="#FF0090" stroke-opacity="0.4" stroke-linecap="round" stroke-linejoin="round"/>
<path d="M99.6025 285.077L99.6025 163.568" stroke="#FF0090" stroke-opacity="0.4" stroke-linecap="round" stroke-linejoin="round"/>
<path d="M634.468 244.574L-143.416 244.574" stroke="#FF0090" stroke-opacity="0.4" stroke-linecap="round" stroke-linejoin="round"/>
<path d="M79.0742 285.077L79.0742 163.568" stroke="#FF0090" stroke-opacity="0.4" stroke-linecap="round" stroke-linejoin="round"/>
<path d="M634.468 265.103L-62.4096 265.103" stroke="#FF0090" stroke-opacity="0.4" stroke-linecap="round" stroke-linejoin="round"/>
<path d="M634.468 285.077L18.5969 285.077" stroke="#FF0090" stroke-opacity="0.4" stroke-linecap="round" stroke-linejoin="round"/>
<path d="M634.468 305.052L362.597 305.052" stroke="#FF0090" stroke-opacity="0.4" stroke-linecap="round" stroke-linejoin="round"/>
<path d="M634.468 163.568L-202.229 163.568" stroke="#FF0090" stroke-opacity="0.4" stroke-linecap="round" stroke-linejoin="round"/>
<path d="M59.0996 285.077L59.0996 163.568" stroke="#FF0090" stroke-opacity="0.4" stroke-linecap="round" stroke-linejoin="round"/>
<path d="M634.468 183.542L-202.229 183.542" stroke="#FF0090" stroke-opacity="0.4" stroke-linecap="round" stroke-linejoin="round"/>
</svg>
