<svg width="390" height="491" viewBox="0 0 390 491" fill="none" xmlns="http://www.w3.org/2000/svg">
<rect y="0.0566406" width="392" height="522" fill="#FFE6F4"/>
<path d="M57 2.05664V553.057" stroke="#FF0090" stroke-opacity="0.3" stroke-linecap="round" stroke-linejoin="round"/>
<path d="M88 2.05664V553.057" stroke="#FF0090" stroke-opacity="0.3" stroke-linecap="round" stroke-linejoin="round"/>
<path d="M118 2.05664V553.057" stroke="#FF0090" stroke-opacity="0.3" stroke-linecap="round" stroke-linejoin="round"/>
<path d="M149 2.05664V553.057" stroke="#FF0090" stroke-opacity="0.3" stroke-linecap="round" stroke-linejoin="round"/>
<path d="M179 2.05664V553.057" stroke="#FF0090" stroke-opacity="0.3" stroke-linecap="round" stroke-linejoin="round"/>
<path d="M209 2.05664V553.057" stroke="#FF0090" stroke-opacity="0.3" stroke-linecap="round" stroke-linejoin="round"/>
<path d="M240 2.05664V553.057" stroke="#FF0090" stroke-opacity="0.3" stroke-linecap="round" stroke-linejoin="round"/>
<path d="M270 2.05664V553.057" stroke="#FF0090" stroke-opacity="0.3" stroke-linecap="round" stroke-linejoin="round"/>
<path d="M301 2.05664V553.057" stroke="#FF0090" stroke-opacity="0.3" stroke-linecap="round" stroke-linejoin="round"/>
<path d="M331 2.05664V553.057" stroke="#FF0090" stroke-opacity="0.3" stroke-linecap="round" stroke-linejoin="round"/>
<path d="M362 2.05664V553.057" stroke="#FF0090" stroke-opacity="0.3" stroke-linecap="round" stroke-linejoin="round"/>
<path d="M-95 398.196L419.564 398.196" stroke="#FF0090" stroke-opacity="0.3" stroke-linecap="round" stroke-linejoin="round"/>
<path d="M-95 93.7939L419.564 93.7939" stroke="#FF0090" stroke-opacity="0.3" stroke-linecap="round" stroke-linejoin="round"/>
<path d="M-95 246.412L419.564 246.412" stroke="#FF0090" stroke-opacity="0.3" stroke-linecap="round" stroke-linejoin="round"/>
<path d="M-95 367.338L419.564 367.338" stroke="#FF0090" stroke-opacity="0.3" stroke-linecap="round" stroke-linejoin="round"/>
<path d="M-95 62.937L419.564 62.937" stroke="#FF0090" stroke-opacity="0.3" stroke-linecap="round" stroke-linejoin="round"/>
<path d="M-95 215.555L419.564 215.555" stroke="#FF0090" stroke-opacity="0.3" stroke-linecap="round" stroke-linejoin="round"/>
<path d="M-95 337.315L419.564 337.315" stroke="#FF0090" stroke-opacity="0.3" stroke-linecap="round" stroke-linejoin="round"/>
<path d="M-95 32.9141L419.564 32.914" stroke="#FF0090" stroke-opacity="0.3" stroke-linecap="round" stroke-linejoin="round"/>
<path d="M-95 185.532L419.564 185.532" stroke="#FF0090" stroke-opacity="0.3" stroke-linecap="round" stroke-linejoin="round"/>
<path d="M-95 306.458L419.564 306.458" stroke="#FF0090" stroke-opacity="0.3" stroke-linecap="round" stroke-linejoin="round"/>
<path d="M-95 2.05664L419.564 2.05659" stroke="#FF0090" stroke-opacity="0.3" stroke-linecap="round" stroke-linejoin="round"/>
<path d="M-95 154.674L419.564 154.674" stroke="#FF0090" stroke-opacity="0.3" stroke-linecap="round" stroke-linejoin="round"/>
<path d="M27 2.05664V553.057" stroke="#FF0090" stroke-opacity="0.3" stroke-linecap="round" stroke-linejoin="round"/>
<path d="M-95 276.435L419.564 276.435" stroke="#FF0090" stroke-opacity="0.3" stroke-linecap="round" stroke-linejoin="round"/>
<path d="M-95 429.053L419.564 429.053" stroke="#FF0090" stroke-opacity="0.3" stroke-linecap="round" stroke-linejoin="round"/>
<path d="M-95 460.057L419.564 460.057" stroke="#FF0090" stroke-opacity="0.3" stroke-linecap="round" stroke-linejoin="round"/>
<path d="M-95 491.057L419.564 491.057" stroke="#FF0090" stroke-opacity="0.3" stroke-linecap="round" stroke-linejoin="round"/>
<path d="M-95 124.651L419.564 124.651" stroke="#FF0090" stroke-opacity="0.3" stroke-linecap="round" stroke-linejoin="round"/>
</svg>
