<svg width="48" height="48" viewBox="0 0 48 48" fill="none" xmlns="http://www.w3.org/2000/svg">
<path d="M24.001 4.32432C30.4135 4.32432 31.1729 4.35244 33.6947 4.46494C36.0385 4.56807 37.3041 4.96182 38.1479 5.28994C39.2635 5.72119 40.0697 6.24619 40.9041 7.08057C41.7479 7.92432 42.2635 8.72119 42.6947 9.83682C43.0229 10.6806 43.4166 11.9556 43.5197 14.2899C43.6322 16.8212 43.6604 17.5806 43.6604 23.9837C43.6604 30.3962 43.6322 31.1556 43.5197 33.6774C43.4166 36.0212 43.0229 37.2868 42.6947 38.1306C42.2635 39.2462 41.7385 40.0524 40.9041 40.8868C40.0604 41.7306 39.2635 42.2462 38.1479 42.6774C37.3041 43.0056 36.0291 43.3993 33.6947 43.5024C31.1635 43.6149 30.4041 43.6431 24.001 43.6431C17.5885 43.6431 16.8291 43.6149 14.3072 43.5024C11.9635 43.3993 10.6979 43.0056 9.8541 42.6774C8.73848 42.2462 7.93223 41.7212 7.09785 40.8868C6.2541 40.0431 5.73848 39.2462 5.30723 38.1306C4.9791 37.2868 4.58535 36.0118 4.48223 33.6774C4.36973 31.1462 4.3416 30.3868 4.3416 23.9837C4.3416 17.5712 4.36973 16.8118 4.48223 14.2899C4.58535 11.9462 4.9791 10.6806 5.30723 9.83682C5.73848 8.72119 6.26348 7.91494 7.09785 7.08057C7.9416 6.23682 8.73848 5.72119 9.8541 5.28994C10.6979 4.96182 11.9729 4.56807 14.3072 4.46494C16.8291 4.35244 17.5885 4.32432 24.001 4.32432ZM24.001 0.00244141C17.4854 0.00244141 16.6697 0.0305664 14.1104 0.143066C11.5604 0.255566 9.80723 0.668066 8.28848 1.25869C6.7041 1.87744 5.36348 2.69307 4.03223 4.03369C2.6916 5.36494 1.87598 6.70557 1.25723 8.28057C0.666602 9.80869 0.254102 11.5524 0.141602 14.1024C0.0291016 16.6712 0.000976562 17.4868 0.000976562 24.0024C0.000976562 30.5181 0.0291016 31.3337 0.141602 33.8931C0.254102 36.4431 0.666602 38.1962 1.25723 39.7149C1.87598 41.2993 2.6916 42.6399 4.03223 43.9712C5.36348 45.3024 6.7041 46.1274 8.2791 46.7368C9.80723 47.3274 11.551 47.7399 14.101 47.8524C16.6604 47.9649 17.476 47.9931 23.9916 47.9931C30.5072 47.9931 31.3229 47.9649 33.8822 47.8524C36.4322 47.7399 38.1854 47.3274 39.7041 46.7368C41.2791 46.1274 42.6197 45.3024 43.951 43.9712C45.2822 42.6399 46.1072 41.2993 46.7166 39.7243C47.3072 38.1962 47.7197 36.4524 47.8322 33.9024C47.9447 31.3431 47.9729 30.5274 47.9729 24.0118C47.9729 17.4962 47.9447 16.6806 47.8322 14.1212C47.7197 11.5712 47.3072 9.81807 46.7166 8.29932C46.126 6.70557 45.3104 5.36494 43.9697 4.03369C42.6385 2.70244 41.2979 1.87744 39.7229 1.26807C38.1947 0.677441 36.451 0.264941 33.901 0.152441C31.3322 0.0305664 30.5166 0.00244141 24.001 0.00244141Z" fill="#FF0090"/>
<path d="M24.001 11.6743C17.1947 11.6743 11.6729 17.1962 11.6729 24.0024C11.6729 30.8087 17.1947 36.3306 24.001 36.3306C30.8072 36.3306 36.3291 30.8087 36.3291 24.0024C36.3291 17.1962 30.8072 11.6743 24.001 11.6743ZM24.001 31.9993C19.5854 31.9993 16.0041 28.4181 16.0041 24.0024C16.0041 19.5868 19.5854 16.0056 24.001 16.0056C28.4166 16.0056 31.9979 19.5868 31.9979 24.0024C31.9979 28.4181 28.4166 31.9993 24.001 31.9993Z" fill="#FF0090"/>
<path d="M39.6947 11.1867C39.6947 12.7805 38.401 14.0649 36.8166 14.0649C35.2229 14.0649 33.9385 12.7711 33.9385 11.1867C33.9385 9.59297 35.2322 8.30859 36.8166 8.30859C38.401 8.30859 39.6947 9.60235 39.6947 11.1867Z" fill="#FF0090"/>
</svg>
