<svg width="336" height="513" viewBox="0 0 336 513" fill="none" xmlns="http://www.w3.org/2000/svg">
<g style="mix-blend-mode:multiply">
<path d="M194.678 490.592C272.463 478.217 333.96 458.382 332.037 446.29C330.113 434.198 265.496 434.428 187.712 446.804C109.927 459.18 48.4297 479.014 50.3535 491.106C52.2773 503.198 116.894 502.968 194.678 490.592Z" fill="#1A00E1" fill-opacity="0.2"/>
</g>
<path d="M227.536 27.6123L294.834 421.559C295.213 423.822 295.365 426.069 295.304 428.271C295.274 429.379 295.168 430.457 295.031 431.536C294.94 432.082 294.864 432.629 294.773 433.16C294.196 436.349 293.133 439.401 291.675 442.241C290.946 443.668 290.111 445.035 289.185 446.34C288.274 447.631 287.241 448.861 286.163 450.03C285.434 450.79 284.66 451.534 283.855 452.247C283.05 452.946 282.215 453.614 281.35 454.236C280.044 455.178 278.647 456.013 277.204 456.757C276.233 457.243 275.246 457.698 274.213 458.093C272.148 458.898 269.961 459.505 267.714 459.885L106.12 487.49C103.737 487.9 101.353 488.037 99.0293 487.931C98.6345 487.916 98.2701 487.9 97.8753 487.855C97.4501 487.825 97.025 487.779 96.5998 487.733C94.8232 487.521 93.077 487.172 91.3915 486.686C90.5412 486.428 89.706 486.154 88.9013 485.851C88.5216 485.714 88.142 485.562 87.7776 485.41C86.988 485.091 86.2136 484.712 85.4392 484.332C83.0704 483.117 80.8535 481.614 78.8491 479.898C78.0443 479.2 77.2699 478.486 76.5411 477.697C75.4326 476.542 74.4152 475.313 73.4738 473.991C72.2135 472.245 71.1354 470.362 70.2547 468.373C69.131 465.853 68.3111 463.18 67.8251 460.371L0.481829 66.3936C-2.61581 48.3392 9.54699 31.1655 27.6317 28.083L189.225 0.477578C207.31 -2.60488 224.453 9.55792 227.551 27.6123H227.536Z" fill="#1A00E1"/>
<path d="M220.338 28.8422L287.636 422.789C287.939 424.536 288.061 426.297 288 428.058C288 428.848 287.909 429.638 287.803 430.518L287.56 431.991C287.15 434.284 286.345 436.653 285.176 438.93C284.614 440.039 283.946 441.117 283.217 442.134C282.549 443.091 281.744 444.078 280.833 445.05C280.408 445.49 279.891 445.991 279.284 446.538L279.041 446.75C278.54 447.191 278.024 447.616 277.462 448.026L277.082 448.284C276.171 448.937 275.215 449.544 274.197 450.061L273.863 450.243C273.058 450.653 272.299 450.987 271.555 451.291C269.9 451.913 268.184 452.384 266.453 452.688L104.86 480.293C103.037 480.612 101.17 480.733 99.3324 480.642C98.7098 480.612 98.0721 480.582 97.4799 480.506C96.0829 480.339 94.7163 480.065 93.3345 479.67C92.6816 479.473 92.0135 479.26 91.4516 479.033C91.1176 478.911 90.8746 478.82 90.6469 478.729L90.4646 478.653C89.9787 478.456 89.4169 478.198 88.7184 477.848C86.9115 476.907 85.1804 475.738 83.5557 474.356C82.9027 473.794 82.3106 473.232 81.7791 472.67C80.8984 471.744 80.0936 470.757 79.3799 469.77C78.4689 468.495 77.6793 467.158 77.0263 465.746L76.8593 465.382C75.9634 463.393 75.3257 461.297 74.9612 459.126L7.66347 65.1636C5.26432 51.0876 14.7698 37.6644 28.8459 35.2653L190.455 7.65984C201.205 5.82252 211.561 10.9397 216.936 19.7163C218.592 22.4192 219.791 25.5016 220.353 28.8271L220.338 28.8422Z" fill="#F8F8FE"/>
<g style="mix-blend-mode:multiply" opacity="0.2">
<path d="M275.473 312.474C275.397 310.971 275.321 309.194 275.291 307.174L280.59 338.227C278.085 333.611 276.324 330.194 275.898 328.904C274.836 325.76 275.018 318.669 275.458 312.474H275.473Z" fill="#020202"/>
</g>
<path d="M244.587 127.359L236.646 80.8492C240.275 80.2267 243.707 82.6714 244.329 86.3005L250.039 119.691C250.661 123.32 248.217 126.752 244.603 127.375L244.587 127.359Z" fill="#1A00E1"/>
<path d="M16.8389 142.324L13.8004 142.843C11.8546 143.175 9.99705 141.859 9.6648 139.913L6.8994 123.718C6.56715 121.772 7.88283 119.915 9.82865 119.582L12.8671 119.064L16.8389 142.324Z" fill="#1A00E1"/>
<path d="M21.6313 170.393L18.5929 170.912C16.647 171.244 14.7895 169.928 14.4573 167.982L11.6919 151.787C11.3596 149.841 12.6753 147.984 14.6211 147.652L17.6596 147.133L21.6313 170.393Z" fill="#1A00E1"/>
<path d="M135.396 27.2023L87.3523 35.4171C79.2741 36.7989 71.5908 31.3629 70.209 23.2847L147.529 10.0742C148.91 18.1524 143.474 25.8357 135.396 27.2175V27.2023Z" fill="#1A00E1"/>
<path d="M37.5924 95.6417L77.1884 89.4836C79.1089 89.1849 80.897 90.505 81.1933 92.4106L87.3514 132.006C87.6501 133.927 86.33 135.715 84.4245 136.011L44.8286 142.17C42.908 142.468 41.1199 141.148 40.8236 139.243L34.6655 99.6467C34.3668 97.7262 35.6869 95.9381 37.5924 95.6417Z" fill="#1A00E1" fill-opacity="0.2"/>
<path d="M93.7649 95.3809L210.527 77.2216C211.397 77.0863 212.212 77.6818 212.348 78.5521L212.376 78.7321C212.511 79.6023 211.915 80.4172 211.045 80.5526L94.2829 98.7118C93.4127 98.8471 92.5978 98.2516 92.4625 97.3814L92.4345 97.2013C92.2991 96.3311 92.8946 95.5162 93.7649 95.3809Z" fill="#FF0090"/>
<path d="M201.543 87.0389L95.0588 103.6C94.1887 103.735 93.5931 104.55 93.7284 105.42L93.7541 105.585C93.8894 106.455 94.7044 107.051 95.5745 106.916L202.059 90.3548C202.929 90.2195 203.525 89.4045 203.389 88.5344L203.364 88.3693C203.228 87.4993 202.413 86.9036 201.543 87.0389Z" fill="#FF0090"/>
<path d="M96.2981 111.74L170.464 100.205C171.334 100.07 172.149 100.665 172.284 101.536L172.312 101.716C172.447 102.586 171.852 103.401 170.982 103.536L96.8161 115.071C95.9459 115.206 95.131 114.61 94.9957 113.74L94.9677 113.56C94.8323 112.69 95.4278 111.875 96.2981 111.74Z" fill="#FF0090"/>
<path d="M97.6003 120.067L146.919 112.396C147.789 112.261 148.604 112.856 148.739 113.727L148.767 113.907C148.903 114.777 148.307 115.592 147.437 115.727L98.1184 123.397C97.2481 123.533 96.4333 122.937 96.2979 122.067L96.2699 121.887C96.1346 121.017 96.7301 120.202 97.6003 120.067Z" fill="#FF0090"/>
<path d="M47.7824 158.876L87.3783 152.718C89.2988 152.42 91.0869 153.74 91.3833 155.645L97.5414 195.241C97.8401 197.162 96.52 198.95 94.6145 199.246L55.0185 205.404C53.098 205.703 51.3099 204.383 51.0135 202.477L44.8554 162.881C44.5568 160.961 45.8768 159.173 47.7824 158.876Z" fill="#1A00E1" fill-opacity="0.2"/>
<path d="M220.703 140.459L103.955 158.615C103.085 158.751 102.49 159.566 102.625 160.436L102.651 160.601C102.786 161.471 103.601 162.067 104.471 161.931L221.218 143.774C222.088 143.639 222.684 142.824 222.549 141.954L222.523 141.789C222.388 140.919 221.573 140.323 220.703 140.459Z" fill="#FF0090"/>
<path d="M211.72 150.291L105.235 166.852C104.365 166.987 103.769 167.802 103.905 168.672L103.93 168.837C104.066 169.707 104.881 170.303 105.751 170.168L212.235 153.607C213.105 153.472 213.701 152.657 213.566 151.786L213.54 151.621C213.405 150.751 212.59 150.156 211.72 150.291Z" fill="#FF0090"/>
<path d="M180.637 163.427L106.487 174.959C105.616 175.095 105.021 175.91 105.156 176.78L105.182 176.945C105.317 177.815 106.132 178.411 107.002 178.275L181.153 166.743C182.023 166.608 182.618 165.793 182.483 164.923L182.458 164.758C182.322 163.887 181.507 163.292 180.637 163.427Z" fill="#FF0090"/>
<path d="M157.094 175.633L107.79 183.301C106.92 183.436 106.325 184.251 106.46 185.121L106.486 185.287C106.621 186.157 107.436 186.752 108.306 186.617L157.61 178.949C158.48 178.814 159.075 177.999 158.94 177.129L158.914 176.964C158.779 176.094 157.964 175.498 157.094 175.633Z" fill="#FF0090"/>
<path d="M58.2223 222.387L97.8182 216.229C99.7388 215.93 101.527 217.25 101.823 219.156L107.981 258.752C108.28 260.672 106.96 262.46 105.054 262.757L65.4585 268.915C63.5379 269.213 61.7498 267.893 61.4535 265.988L55.2954 226.392C54.9967 224.471 56.3168 222.683 58.2223 222.387V222.387Z" stroke="#1A00E1" stroke-opacity="0.2" stroke-miterlimit="10"/>
<path d="M114.409 222.126L231.172 203.967C232.042 203.832 232.857 204.427 232.992 205.297L233.02 205.477C233.155 206.348 232.56 207.162 231.69 207.298L114.927 225.457C114.057 225.592 113.242 224.997 113.107 224.127L113.079 223.947C112.944 223.076 113.539 222.261 114.409 222.126Z" fill="#FF0090"/>
<path d="M115.674 230.347L222.173 213.784C223.044 213.649 223.859 214.244 223.994 215.115L224.022 215.295C224.157 216.165 223.562 216.98 222.692 217.115L116.192 233.678C115.322 233.814 114.507 233.218 114.372 232.348L114.344 232.168C114.208 231.297 114.804 230.483 115.674 230.347Z" fill="#FF0090"/>
<path d="M116.942 238.47L191.108 226.935C191.978 226.8 192.793 227.395 192.928 228.266L192.956 228.446C193.091 229.316 192.496 230.131 191.626 230.266L117.46 241.801C116.59 241.936 115.775 241.34 115.64 240.47L115.612 240.29C115.476 239.42 116.072 238.605 116.942 238.47Z" fill="#FF0090"/>
<path d="M118.23 246.812L167.548 239.141C168.419 239.006 169.233 239.602 169.369 240.472L169.397 240.652C169.532 241.522 168.937 242.337 168.066 242.472L118.748 250.143C117.878 250.278 117.063 249.682 116.927 248.812L116.899 248.632C116.764 247.762 117.359 246.947 118.23 246.812Z" fill="#FF0090"/>
<path d="M219.167 402.882L143.229 416.436C137.128 417.525 133.065 423.353 134.154 429.454L134.386 430.755C135.475 436.856 141.304 440.919 147.405 439.83L223.342 426.276C229.443 425.187 233.506 419.359 232.417 413.258L232.185 411.957C231.096 405.856 225.268 401.793 219.167 402.882Z" fill="#FF0090"/>
<path d="M232.603 281.416L80.407 305.903C74.8182 306.802 71.0165 312.062 71.9157 317.65L74.6606 334.711C75.5598 340.3 80.8193 344.101 86.4081 343.202L238.604 318.715C244.193 317.816 247.995 312.557 247.095 306.968L244.35 289.907C243.451 284.319 238.192 280.517 232.603 281.416Z" fill="#1A00E1" fill-opacity="0.2"/>
<path d="M241.452 332.867L89.2561 357.354C83.6673 358.253 79.8657 363.512 80.7648 369.101L83.5097 386.162C84.4089 391.751 89.6684 395.552 95.2572 394.653L247.453 370.166C253.042 369.267 256.844 364.007 255.944 358.419L253.2 341.358C252.3 335.769 247.041 331.968 241.452 332.867Z" stroke="#1A00E1" stroke-opacity="0.2" stroke-miterlimit="10"/>
</svg>
