<svg width="70" height="70" viewBox="0 0 70 70" fill="none" xmlns="http://www.w3.org/2000/svg">
<path d="M35 0.735596C30.4037 0.735596 25.8525 1.62796 21.6061 3.36175C17.3597 5.09554 13.5013 7.63679 10.2513 10.8404C3.68749 17.3104 0 26.0856 0 35.2356C0 44.3856 3.68749 53.1608 10.2513 59.6308C13.5013 62.8344 17.3597 65.3757 21.6061 67.1094C25.8525 68.8432 30.4037 69.7356 35 69.7356C44.2826 69.7356 53.185 66.1008 59.7487 59.6308C66.3125 53.1608 70 44.3856 70 35.2356C70 30.705 69.0947 26.2188 67.3358 22.033C65.5769 17.8473 62.9988 14.044 59.7487 10.8404C56.4987 7.63679 52.6403 5.09554 48.3939 3.36175C44.1475 1.62796 39.5963 0.735596 35 0.735596ZM17.5 26.6106C17.5 23.8506 19.95 21.4356 22.75 21.4356C25.55 21.4356 28 23.8506 28 26.6106C28 29.3706 25.55 31.7856 22.75 31.7856C19.95 31.7856 17.5 29.3706 17.5 26.6106ZM44.695 53.2791C43.12 50.7606 39.375 49.0356 35 49.0356C30.625 49.0356 26.88 50.7606 25.305 53.2791L20.335 48.3801C23.485 44.6196 28.875 42.1356 35 42.1356C41.125 42.1356 46.515 44.6196 49.665 48.3801L44.695 53.2791ZM47.25 31.7856C44.45 31.7856 42 29.3706 42 26.6106C42 23.8506 44.45 21.4356 47.25 21.4356C50.05 21.4356 52.5 23.8506 52.5 26.6106C52.5 29.3706 50.05 31.7856 47.25 31.7856Z" fill="#FF0090"/>
</svg>
