<svg width="518" height="655" viewBox="0 0 518 655" fill="none" xmlns="http://www.w3.org/2000/svg">
<path fill-rule="evenodd" clip-rule="evenodd" d="M28.5133 10.0147C97.883 22.8294 126.474 100.096 176.649 149.699C230.464 202.901 319.446 231.473 328.531 306.613C338.121 385.927 281.963 459.443 220.227 510.125C162.401 557.596 86.6368 564.492 11.8621 566.578C-69.5126 568.848 -173.28 589.842 -218.867 522.374C-264.477 454.872 -180.877 372.762 -173.948 291.58C-167.814 219.709 -223.52 142.111 -181.414 83.5539C-136.406 20.961 -47.2799 -3.98665 28.5133 10.0147Z" fill="#1A00E1"/>
<path fill-rule="evenodd" clip-rule="evenodd" d="M7.93483 6.16393C77.6568 16.8985 108.545 93.2753 160.181 141.356C215.563 192.924 305.36 218.823 316.688 293.658C328.645 372.649 274.711 447.812 214.518 500.317C158.137 549.497 82.6137 558.655 7.93483 562.976C-73.3355 567.679 -176.429 591.767 -224.013 525.692C-271.621 459.584 -190.514 375.01 -186.016 293.658C-182.034 221.636 -240.035 145.738 -199.699 85.948C-156.583 22.0372 -68.2432 -5.56458 7.93483 6.16393Z" fill="#FF0090"/>
<path d="M252.829 59.0761L91.3492 152.34C88.1135 154.215 85.4844 158.774 85.4844 162.524V526.866C85.4844 530.603 88.1135 532.141 91.3492 530.252L252.829 436.988C256.064 435.113 258.693 430.554 258.693 426.804V62.4619C258.693 58.7254 256.064 57.1876 252.829 59.0761ZM250.24 393.243C250.24 396.453 247.988 398.49 245.211 400.095L98.3871 484.902C95.6097 486.507 93.3581 485.212 93.3581 481.988V196.571C93.3581 193.347 95.6232 189.449 98.3871 187.844L245.211 103.051C248.002 101.432 250.24 102.741 250.24 105.951V393.243Z" fill="#4C35FF"/>
<path d="M90.6212 530.63C87.3585 532.127 82.6262 531.992 79.6061 530.266L72.8918 526.381C69.6291 524.506 67 519.96 67 516.197V151.868C67 150.438 67.3775 148.927 68.0112 147.471C68.2134 146.985 68.4426 146.526 68.7123 146.054C68.7257 146.054 68.7258 146.041 68.7258 146.041L87.2102 156.711H87.2237C86.8327 157.412 86.4821 158.141 86.2125 158.869C85.7676 160.097 85.4979 161.337 85.4979 162.511V526.88C85.4979 530.333 87.736 531.898 90.6347 530.63H90.6212Z" fill="#1A00E1"/>
<path d="M173.485 451.61C178.608 448.656 182.761 451.044 182.761 456.966C182.761 462.887 178.608 470.077 173.485 473.031C168.362 475.985 164.209 473.598 164.209 467.676C164.209 461.754 168.362 454.565 173.485 451.61Z" fill="#FF0090"/>
<path d="M172.096 113.559C174.266 112.305 176.032 113.316 176.032 115.839C176.032 118.361 174.266 121.41 172.096 122.664C169.925 123.919 168.159 122.907 168.159 120.385C168.159 117.876 169.925 114.814 172.096 113.559Z" fill="white"/>
<path d="M156.888 137.516L187.277 119.953C189.084 118.901 190.567 119.642 190.567 121.612C190.567 123.581 189.097 126.023 187.277 127.062L156.888 144.624C155.068 145.677 153.598 144.921 153.611 142.965C153.611 140.996 155.081 138.554 156.901 137.516H156.888Z" fill="white"/>
<path d="M250.24 392.946C250.24 396.156 247.988 398.193 245.211 399.799L98.3869 484.605C95.6095 486.21 93.3579 484.915 93.3579 481.691V196.274C93.3579 193.05 95.623 189.152 98.3869 187.547L245.211 102.754C248.002 101.135 250.24 102.444 250.24 105.654V392.946Z" fill="white" stroke="white" stroke-miterlimit="10"/>
<path d="M258.639 61.5312C258.221 58.4826 255.781 57.3765 252.842 59.0762L91.3491 152.34C89.7312 153.271 88.2617 154.89 87.21 156.738L68.7256 146.068C69.8042 144.22 71.2603 142.641 72.8782 141.711L234.344 48.4062C237.566 46.5313 242.838 46.5313 246.087 48.4062L252.828 52.2776C255.795 54.0042 258.248 57.9835 258.626 61.5312H258.639Z" fill="#5F4CF1"/>
<path d="M102.783 321.966L246.924 238.711V258.688L102.783 341.943V321.966Z" fill="#455A64"/>
<path d="M108.553 325.298V331.962L241.153 255.357V248.706L108.553 325.298Z" fill="#1A00E1"/>
<path d="M102.782 321.966L97.0254 318.634L241.153 235.379L246.923 238.711L102.782 321.966Z" fill="#1A00E1"/>
<path d="M97.0254 318.634L102.782 321.966V341.943L97.0254 338.625V318.634Z" fill="#1A00E1"/>
<path d="M517.893 581.767L391.05 655V651.749L517.879 578.516L517.893 581.767Z" fill="#1A00E1"/>
<path d="M269.979 381.615L242.043 397.748L224.866 407.663C224.314 407.946 223.774 408.256 223.248 408.593C216.844 412.546 212.328 419.574 212.328 428.193V508.521C212.314 516.331 208.593 522.86 203.106 526.947C199.142 529.915 194.261 531.615 189.205 531.615C185.376 531.615 181.439 530.63 177.718 528.485C156.308 516.116 143.136 493.265 143.136 468.539V385.217C143.136 372.847 139.846 360.95 133.873 350.617C127.901 340.271 119.258 331.463 108.553 325.284L235.396 252.011C246.115 258.203 254.757 267.038 260.73 277.371C266.702 287.717 269.992 299.615 269.992 311.971V348.27C269.992 358.657 269.992 381.588 269.992 381.588L269.979 381.615Z" fill="#F5F5F5"/>
<path d="M131.41 337.271C134.584 339.982 140.18 340.575 144.22 338.234L251.842 276.063C255.882 273.737 256.828 269.374 253.67 266.647C250.511 263.921 244.467 263.873 240.427 266.214L132.757 328.417C128.717 330.743 128.252 334.56 131.426 337.271H131.41Z" fill="#FF0090"/>
<path opacity="0.4" d="M204.048 305.928C203.698 305.928 203.361 305.752 203.172 305.428C202.889 304.943 203.064 304.336 203.536 304.053L245.857 279.61C246.343 279.327 246.95 279.502 247.233 279.974C247.516 280.46 247.341 281.067 246.869 281.35L204.547 305.793C204.385 305.887 204.21 305.928 204.048 305.928Z" fill="#FF0090"/>
<path opacity="0.4" d="M207.312 311.377C206.961 311.377 206.624 311.202 206.436 310.878C206.153 310.392 206.328 309.785 206.8 309.502L249.121 285.06C249.606 284.776 250.213 284.952 250.496 285.424C250.779 285.91 250.604 286.517 250.132 286.8L207.811 311.242C207.649 311.337 207.474 311.377 207.312 311.377Z" fill="#FF0090"/>
<path opacity="0.4" d="M225.326 326.989C224.909 326.989 224.508 326.781 224.284 326.396C223.947 325.819 224.155 325.097 224.717 324.76L275.041 295.696C275.618 295.359 276.339 295.567 276.676 296.129C277.013 296.706 276.804 297.428 276.243 297.765L225.919 326.829C225.727 326.941 225.518 326.989 225.326 326.989Z" fill="#FF0090"/>
<path opacity="0.4" d="M212.259 322.951C211.909 322.951 211.572 322.776 211.383 322.452C211.1 321.966 211.275 321.359 211.747 321.076L254.068 296.634C254.554 296.364 255.16 296.526 255.444 296.998C255.727 297.483 255.551 298.09 255.08 298.374L212.758 322.816C212.596 322.91 212.421 322.951 212.259 322.951Z" fill="#FF0090"/>
<path opacity="0.4" d="M229.862 340.88C229.446 340.88 229.045 340.671 228.82 340.287C228.484 339.709 228.692 338.987 229.253 338.65L279.577 309.586C280.155 309.249 280.876 309.458 281.213 310.019C281.549 310.597 281.341 311.318 280.78 311.655L230.456 340.72C230.263 340.832 230.055 340.88 229.862 340.88Z" fill="#FF0090"/>
<path opacity="0.4" d="M231.16 348.274C230.743 348.274 230.343 348.066 230.118 347.681C229.782 347.103 229.99 346.382 230.551 346.045L280.875 316.98C281.453 316.66 282.174 316.852 282.511 317.413C282.847 317.991 282.639 318.713 282.078 319.05L231.753 348.114C231.561 348.226 231.353 348.274 231.16 348.274Z" fill="#FF0090"/>
<path opacity="0.4" d="M231.866 356.182C231.45 356.182 231.049 355.974 230.824 355.589C230.488 355.011 230.696 354.289 231.257 353.953L281.581 324.888C282.159 324.551 282.88 324.76 283.217 325.321C283.553 325.899 283.345 326.621 282.784 326.957L232.46 356.022C232.267 356.134 232.059 356.182 231.866 356.182Z" fill="#FF0090"/>
<path opacity="0.4" d="M155.216 388.926C154.973 388.926 154.73 388.805 154.595 388.576C154.393 388.238 154.515 387.807 154.852 387.604L257.534 328.293C257.871 328.09 258.302 328.212 258.505 328.549C258.707 328.886 258.586 329.318 258.249 329.52L155.566 388.832C155.458 388.899 155.337 388.926 155.216 388.926Z" fill="#FF0090"/>
<path opacity="0.4" d="M155.216 395.266C154.973 395.266 154.73 395.145 154.595 394.915C154.393 394.578 154.515 394.146 154.852 393.944L257.534 334.632C257.871 334.43 258.302 334.551 258.505 334.889C258.707 335.226 258.586 335.657 258.249 335.86L155.566 395.172C155.458 395.239 155.337 395.266 155.216 395.266Z" fill="#FF0090"/>
<path opacity="0.4" d="M155.216 401.606C154.973 401.606 154.73 401.485 154.595 401.255C154.393 400.918 154.515 400.486 154.852 400.284L257.534 340.972C257.871 340.77 258.302 340.891 258.505 341.229C258.707 341.566 258.586 341.997 258.249 342.2L155.566 401.512C155.458 401.579 155.337 401.606 155.216 401.606Z" fill="#FF0090"/>
<path opacity="0.4" d="M155.216 407.946C154.973 407.946 154.73 407.825 154.595 407.595C154.393 407.258 154.515 406.826 154.852 406.624L257.534 347.312C257.871 347.11 258.302 347.231 258.505 347.568C258.707 347.906 258.586 348.337 258.249 348.54L155.566 407.851C155.458 407.919 155.337 407.946 155.216 407.946Z" fill="#FF0090"/>
<path opacity="0.4" d="M155.216 379.713C154.973 379.713 154.731 379.592 154.596 379.363C154.394 379.025 154.515 378.594 154.852 378.391L209.213 346.989C209.55 346.786 209.982 346.908 210.184 347.245C210.386 347.582 210.265 348.014 209.928 348.216L155.567 379.619C155.459 379.686 155.337 379.713 155.216 379.713Z" fill="#FF0090"/>
<path d="M153.692 343.292C155.849 347.595 157.602 351.885 158.721 356.148C159.934 360.059 160.649 364.875 161.08 370.217C161.161 371.188 161.903 371.593 162.752 371.094L165.772 369.353C166.621 368.868 167.269 367.667 167.188 366.696C166.81 361.746 165.988 356.903 164.639 352.222C163.183 347.555 161.592 343.292 159.772 339.785C159.327 338.908 158.235 338.625 157.386 339.111L154.42 340.824C153.57 341.309 153.247 342.416 153.692 343.292Z" fill="#FF0090"/>
<path d="M162.658 330.748C165.422 335.037 167.849 340.19 169.939 346.26C171.611 351.13 172.716 356.768 173.188 363.243C173.256 364.214 173.984 364.619 174.833 364.133L177.853 362.393C178.703 361.908 179.35 360.707 179.282 359.736C178.864 353.962 177.745 348.324 175.979 342.793C174.092 337.088 171.665 331.975 168.752 327.375C168.227 326.552 167.094 326.283 166.231 326.755L163.225 328.427C162.362 328.9 162.133 329.938 162.658 330.761V330.748Z" fill="#FF0090"/>
<path d="M186.522 336.683L183.556 338.396C182.707 338.881 182.275 340.028 182.572 340.972C183.947 345.451 184.85 350.523 185.268 356.269C185.336 357.24 186.064 357.645 186.913 357.146L189.933 355.406C190.783 354.92 191.43 353.719 191.363 352.748C190.998 347.568 190.041 342.483 188.572 337.492C188.289 336.548 187.358 336.197 186.509 336.683H186.522Z" fill="#FF0090"/>
<path d="M198.602 324.61C198.238 323.693 197.24 323.355 196.378 323.841L193.385 325.541C192.535 326.026 192.158 327.146 192.522 328.063C193.061 329.426 193.587 330.828 194.086 332.299C195.757 337.168 196.863 342.807 197.335 349.282C197.402 350.253 198.13 350.658 198.98 350.172L202 348.432C202.849 347.946 203.496 346.746 203.429 345.774C203.011 340.001 201.892 334.363 200.126 328.832C199.654 327.402 199.141 325.999 198.589 324.637L198.602 324.61Z" fill="#FF0090"/>
<path opacity="0.4" d="M157.305 367.519C157.17 367.276 156.86 367.195 156.617 367.33L155.35 368.058C155.067 366.318 154.743 364.592 154.352 362.879L156.065 361.894C156.307 361.759 156.388 361.449 156.253 361.206C156.119 360.963 155.809 360.882 155.566 361.017L154.096 361.867C153.665 360.154 153.193 358.468 152.64 356.795L154.272 355.851C154.514 355.716 154.595 355.406 154.46 355.163C154.325 354.92 154.015 354.839 153.773 354.974L152.303 355.824C151.737 354.205 151.144 352.613 150.456 351.049C150.443 351.008 150.416 350.968 150.402 350.914L152.02 349.983C152.263 349.848 152.344 349.538 152.209 349.295C152.074 349.052 151.764 348.971 151.521 349.106L149.998 349.983C149.297 348.405 148.515 346.827 147.665 345.262L149.27 344.331C149.512 344.196 149.593 343.886 149.458 343.643C149.323 343.4 149.013 343.319 148.771 343.454L147.18 344.371C146.33 342.861 145.4 341.377 144.416 339.893L146.223 338.854C146.465 338.72 146.546 338.409 146.411 338.166C146.276 337.924 145.966 337.843 145.724 337.978L143.85 339.057C142.784 337.506 141.652 335.968 140.439 334.457C140.263 334.241 139.953 334.201 139.737 334.376C139.522 334.551 139.481 334.862 139.657 335.077C140.83 336.548 141.935 338.045 142.973 339.556L141.247 340.554C141.005 340.689 140.924 340.999 141.059 341.242C141.153 341.404 141.315 341.498 141.49 341.498C141.571 341.498 141.665 341.471 141.746 341.431L143.54 340.392C144.524 341.876 145.454 343.36 146.303 344.871L144.295 346.031C144.052 346.166 143.971 346.476 144.106 346.719C144.2 346.88 144.362 346.975 144.537 346.975C144.618 346.975 144.712 346.948 144.793 346.907L146.789 345.761C147.638 347.326 148.42 348.89 149.121 350.482L147.045 351.683C146.802 351.818 146.721 352.128 146.856 352.371C146.951 352.532 147.112 352.627 147.288 352.627C147.369 352.627 147.463 352.6 147.544 352.559L149.526 351.413C149.526 351.413 149.526 351.413 149.526 351.426C150.213 353.032 150.834 354.664 151.4 356.323L149.283 357.55C149.04 357.685 148.959 357.996 149.094 358.238C149.189 358.4 149.35 358.495 149.526 358.495C149.607 358.495 149.701 358.468 149.782 358.427L151.737 357.294C152.276 358.953 152.748 360.653 153.166 362.366L151.063 363.58C150.82 363.715 150.739 364.025 150.874 364.268C150.968 364.43 151.13 364.524 151.305 364.524C151.386 364.524 151.481 364.497 151.562 364.457L153.422 363.378C153.813 365.077 154.123 366.817 154.393 368.571L152.114 369.879C151.872 370.014 151.791 370.325 151.926 370.567C152.02 370.729 152.182 370.824 152.357 370.824C152.438 370.824 152.532 370.797 152.613 370.756L154.555 369.637C154.851 371.754 155.054 373.913 155.161 376.098C155.175 376.368 155.391 376.57 155.66 376.57C155.66 376.57 155.674 376.57 155.687 376.57C155.97 376.557 156.173 376.314 156.159 376.044C156.038 373.697 155.809 371.377 155.471 369.097L157.062 368.18C157.305 368.045 157.386 367.735 157.251 367.492L157.305 367.519Z" fill="#FF0090"/>
<g opacity="0.15">
<path d="M162.455 466.111C162.037 462.321 161.888 458.476 161.996 454.672C162.414 453.215 168.535 432.186 179.793 425.63C180.589 425.158 181.344 424.848 182.018 424.699C182.341 424.632 182.651 424.592 182.935 424.592C185.928 424.592 187.262 428.746 188.557 432.766C189.096 434.439 189.649 436.179 190.336 437.595C191.105 439.214 192.413 441.359 194.894 441.359C195.837 441.359 196.848 441.048 197.981 440.401C203.401 437.312 204.951 428.949 206.61 420.1C207.351 416.107 208.12 411.979 209.266 408.378C210.911 403.211 213.041 400.014 215.967 398.315C216.91 397.775 217.746 397.492 218.474 397.492C221.616 397.492 222.802 403.09 223.948 408.499C224.582 411.467 225.229 414.529 226.227 416.781C227.373 419.385 228.883 420.653 230.824 420.653C231.822 420.653 232.887 420.315 234.074 419.627C240.72 415.783 242.729 409.281 244.671 402.982C246.329 397.64 247.88 392.595 252.261 390.046C253.421 389.371 254.526 389.021 255.524 389.021C256.023 389.021 256.495 389.102 256.953 389.277C257.169 391.004 257.169 392.272 257.169 392.285L257.236 405.032C257.358 407.474 257.52 409.389 257.749 411.035L162.428 466.098L162.455 466.111Z" fill="#FF0090"/>
<path d="M258.544 411.426C258.261 409.524 258.086 407.366 257.978 405.046L257.911 392.312C257.911 392.312 257.911 390.801 257.641 388.805C257.007 388.508 256.306 388.333 255.551 388.333C254.473 388.333 253.273 388.67 251.938 389.452C242.163 395.145 245.898 412.02 233.737 419.034C232.631 419.668 231.674 419.965 230.852 419.965C229.045 419.965 227.818 418.589 226.901 416.512C224.043 410.064 224.124 396.79 218.488 396.79C217.666 396.79 216.722 397.074 215.63 397.708C212.151 399.718 210.062 403.576 208.605 408.175C204.992 419.533 205.194 435.491 197.644 439.794C196.593 440.387 195.689 440.657 194.907 440.657C193.114 440.657 191.928 439.268 190.984 437.298C188.651 432.402 187.829 423.877 182.948 423.877C182.611 423.877 182.261 423.917 181.87 423.998C181.142 424.16 180.333 424.484 179.443 425.01C167.43 431.997 161.296 454.565 161.296 454.565C161.161 458.895 161.363 463.13 161.875 467.258L163.264 466.448C163.197 466.057 163.129 465.707 163.048 464.938C162.725 461.565 162.603 458.153 162.711 454.767C163.277 452.784 169.304 432.55 180.171 426.224C180.899 425.792 181.587 425.509 182.193 425.374C182.463 425.32 182.719 425.28 182.948 425.28C185.416 425.28 186.67 429.191 187.896 432.968C188.449 434.668 189.002 436.422 189.703 437.892C190.188 438.917 191.685 442.06 194.907 442.06C195.986 442.06 197.105 441.723 198.345 441.008C204.048 437.757 205.639 429.245 207.311 420.221C208.053 416.242 208.821 412.141 209.954 408.58C211.545 403.589 213.567 400.513 216.331 398.908C217.167 398.423 217.895 398.18 218.488 398.18C221.05 398.18 222.236 403.724 223.274 408.62C223.908 411.615 224.569 414.718 225.593 417.051C226.847 419.911 228.613 421.354 230.838 421.354C231.957 421.354 233.144 420.99 234.438 420.235C241.327 416.255 243.471 409.308 245.372 403.184C246.977 397.977 248.5 393.067 252.653 390.653C253.704 390.032 254.688 389.722 255.551 389.722C255.821 389.722 256.077 389.749 256.333 389.803C256.482 391.246 256.482 392.258 256.482 392.285L256.549 405.086C256.657 407.285 256.805 409.079 256.994 410.644C257.088 411.318 257.183 411.831 257.264 412.128L258.531 411.399" fill="#FF0090"/>
</g>
<g opacity="0.4">
<path d="M161.295 448.144V454.578C161.174 458.975 161.349 463.144 161.875 467.271L258.531 411.44C258.247 409.538 258.072 407.379 257.964 405.059L257.897 392.325C257.897 392.325 257.897 373.306 245.817 380.28C233.116 387.618 236.716 410.9 227.696 416.107C218.595 421.354 221.656 400.567 209.576 407.555C197.495 414.529 203.536 430.068 191.455 437.042C179.375 444.016 185.415 408.823 173.335 415.797C161.255 422.77 161.255 440.104 161.295 448.144Z" fill="#FF0090"/>
</g>
<path opacity="0.4" d="M156.59 476.713C156.42 476.713 156.263 476.622 156.171 476.467C156.041 476.234 156.119 475.935 156.355 475.806L256.092 419.225C256.327 419.095 256.628 419.173 256.759 419.406C256.889 419.64 256.811 419.938 256.576 420.067L156.838 476.648C156.76 476.687 156.681 476.713 156.59 476.713Z" fill="#FF0090"/>
<path d="M173.336 419.182C173.053 419.182 172.837 418.953 172.837 418.683V417.672C172.837 417.388 173.066 417.172 173.336 417.172C173.605 417.172 173.835 417.402 173.835 417.672V418.683C173.835 418.967 173.605 419.182 173.336 419.182Z" fill="white"/>
<path d="M173.632 457.869C173.376 457.869 173.16 457.667 173.133 457.411C173.079 456.763 173.026 456.116 172.985 455.468C172.972 455.185 173.174 454.956 173.457 454.929C173.781 454.888 173.969 455.118 173.996 455.401C174.037 456.048 174.091 456.682 174.145 457.316C174.172 457.6 173.969 457.842 173.686 457.869C173.673 457.869 173.659 457.869 173.646 457.869H173.632ZM173.403 454.012C173.133 454.012 172.904 453.796 172.904 453.512C172.904 452.959 172.891 452.312 172.877 451.57C172.877 451.287 173.093 451.071 173.376 451.057C173.673 451.004 173.875 451.273 173.888 451.557C173.888 452.285 173.888 452.932 173.915 453.486C173.915 453.769 173.7 453.998 173.417 453.998L173.403 454.012ZM173.376 450.14C173.106 450.14 172.877 449.911 172.877 449.641V447.699C172.877 447.415 173.093 447.2 173.363 447.2C173.646 447.2 173.861 447.429 173.861 447.699V449.628C173.861 449.911 173.646 450.127 173.376 450.14ZM173.363 446.269C173.079 446.269 172.864 446.039 172.864 445.77V443.841C172.864 443.557 173.079 443.342 173.363 443.342C173.646 443.342 173.861 443.571 173.861 443.841V445.77C173.861 446.053 173.646 446.269 173.363 446.269ZM173.363 442.397C173.079 442.397 172.864 442.168 172.864 441.898V439.969C172.864 439.686 173.093 439.47 173.363 439.47C173.632 439.47 173.861 439.7 173.861 439.969V441.898C173.861 442.182 173.632 442.397 173.363 442.397ZM173.363 438.526C173.079 438.526 172.864 438.297 172.864 438.027V436.098C172.864 435.815 173.093 435.599 173.363 435.599C173.632 435.599 173.861 435.828 173.861 436.098V438.027C173.861 438.31 173.632 438.526 173.363 438.526ZM173.363 434.655C173.079 434.655 172.864 434.425 172.864 434.156V432.227C172.864 431.943 173.093 431.727 173.363 431.727C173.632 431.727 173.861 431.957 173.861 432.227V434.156C173.861 434.439 173.632 434.655 173.363 434.655ZM173.363 430.783C173.079 430.783 172.864 430.554 172.864 430.284V428.355C172.864 428.072 173.093 427.856 173.363 427.856C173.632 427.856 173.861 428.085 173.861 428.355V430.298C173.861 430.581 173.632 430.797 173.363 430.797V430.783ZM173.363 426.912C173.079 426.912 172.864 426.683 172.864 426.413V424.484C172.864 424.201 173.093 423.985 173.363 423.985C173.632 423.985 173.861 424.214 173.861 424.484V426.426C173.861 426.71 173.632 426.925 173.363 426.925V426.912ZM173.363 423.04C173.079 423.04 172.864 422.811 172.864 422.541V420.612C172.864 420.329 173.093 420.1 173.376 420.1C173.659 420.1 173.875 420.316 173.875 420.599V422.528C173.875 422.811 173.646 423.027 173.363 423.027V423.04Z" fill="white"/>
<path d="M173.956 460.797C173.713 460.797 173.497 460.608 173.457 460.365C173.416 460.028 173.376 459.69 173.336 459.353C173.309 459.083 173.497 458.827 173.78 458.8C174.064 458.773 174.306 458.962 174.333 459.245C174.374 459.569 174.414 459.906 174.455 460.23C174.495 460.5 174.293 460.756 174.023 460.797C173.996 460.797 173.983 460.797 173.956 460.797Z" fill="white"/>
<path d="M245.83 381.777C245.547 381.777 245.331 381.548 245.331 381.278V380.266C245.331 379.997 245.56 379.767 245.83 379.767C246.113 379.767 246.329 379.997 246.329 380.266V381.278C246.329 381.561 246.1 381.777 245.83 381.777Z" fill="white"/>
<path d="M246.127 420.464C245.871 420.464 245.655 420.262 245.628 420.005C245.574 419.358 245.52 418.711 245.48 418.063C245.466 417.78 245.668 417.55 245.951 417.523C246.262 417.51 246.464 417.712 246.491 417.996C246.531 418.643 246.585 419.277 246.639 419.911C246.666 420.194 246.464 420.437 246.181 420.451C246.167 420.451 246.154 420.451 246.14 420.451L246.127 420.464ZM245.898 416.606C245.628 416.606 245.399 416.39 245.399 416.107C245.399 415.554 245.385 414.907 245.372 414.165C245.372 413.881 245.587 413.666 245.871 413.652C246.14 413.652 246.369 413.881 246.369 414.151C246.369 414.88 246.369 415.527 246.396 416.08C246.396 416.363 246.181 416.593 245.898 416.593V416.606ZM245.857 412.735C245.587 412.735 245.358 412.506 245.358 412.236V410.293C245.358 410.01 245.574 409.794 245.844 409.794C246.127 409.794 246.342 410.024 246.342 410.293V412.222C246.342 412.506 246.127 412.721 245.857 412.735ZM245.844 408.863C245.56 408.863 245.345 408.634 245.345 408.364V406.435C245.345 406.152 245.56 405.936 245.844 405.936C246.127 405.936 246.342 406.166 246.342 406.435V408.364C246.342 408.648 246.127 408.863 245.844 408.863ZM245.844 404.992C245.56 404.992 245.345 404.763 245.345 404.493V402.564C245.345 402.281 245.574 402.065 245.844 402.065C246.113 402.065 246.342 402.294 246.342 402.564V404.493C246.342 404.776 246.113 404.992 245.844 404.992ZM245.844 401.121C245.56 401.121 245.345 400.891 245.345 400.622V398.693C245.345 398.409 245.574 398.194 245.844 398.194C246.113 398.194 246.342 398.423 246.342 398.693V400.622C246.342 400.905 246.113 401.121 245.844 401.121ZM245.844 397.249C245.56 397.249 245.345 397.02 245.345 396.75V394.821C245.345 394.538 245.574 394.322 245.844 394.322C246.113 394.322 246.342 394.551 246.342 394.821V396.75C246.342 397.033 246.113 397.249 245.844 397.249ZM245.844 393.378C245.56 393.378 245.345 393.149 245.345 392.879V390.95C245.345 390.667 245.574 390.451 245.844 390.451C246.113 390.451 246.342 390.68 246.342 390.95V392.892C246.342 393.176 246.113 393.391 245.844 393.391V393.378ZM245.844 389.507C245.56 389.507 245.345 389.277 245.345 389.007V387.078C245.345 386.795 245.574 386.579 245.844 386.579C246.113 386.579 246.342 386.809 246.342 387.078V389.021C246.342 389.304 246.113 389.52 245.844 389.52V389.507ZM245.844 385.635C245.56 385.635 245.345 385.406 245.345 385.136V383.207C245.345 382.924 245.574 382.708 245.844 382.708C246.113 382.708 246.342 382.937 246.342 383.207V385.15C246.342 385.433 246.113 385.649 245.844 385.649V385.635Z" fill="white"/>
<path d="M246.451 423.391C246.208 423.391 245.992 423.202 245.952 422.959C245.912 422.622 245.871 422.285 245.831 421.961C245.804 421.691 245.992 421.435 246.262 421.395C246.559 421.354 246.788 421.556 246.828 421.826C246.869 422.163 246.909 422.487 246.95 422.811C246.99 423.081 246.788 423.337 246.518 423.377C246.491 423.377 246.478 423.377 246.451 423.377V423.391Z" fill="white"/>
<path d="M209.576 410.806C209.293 410.806 209.077 410.576 209.077 410.307V409.295C209.077 409.012 209.306 408.796 209.576 408.796C209.846 408.796 210.075 409.025 210.075 409.295V410.307C210.075 410.59 209.846 410.806 209.576 410.806Z" fill="white"/>
<path d="M209.873 437.217C209.616 437.217 209.401 437.028 209.374 436.759C209.32 436.125 209.266 435.504 209.225 434.857C209.212 434.573 209.414 434.344 209.697 434.317C210.021 434.29 210.21 434.506 210.237 434.789C210.277 435.41 210.331 436.044 210.385 436.651C210.412 436.934 210.21 437.177 209.927 437.204C209.913 437.204 209.9 437.204 209.886 437.204L209.873 437.217ZM209.63 433.454C209.36 433.454 209.131 433.238 209.131 432.955L209.104 431.066C209.104 430.783 209.32 430.554 209.603 430.554C209.873 430.554 210.102 430.769 210.102 431.053L210.129 432.941C210.129 433.224 209.913 433.44 209.63 433.454ZM209.589 429.677C209.32 429.677 209.091 429.448 209.091 429.178V427.289C209.091 427.006 209.306 426.79 209.576 426.777C209.859 426.777 210.075 427.006 210.075 427.276V429.164C210.075 429.448 209.859 429.663 209.589 429.677ZM209.576 425.9C209.293 425.9 209.077 425.671 209.077 425.401V423.512C209.077 423.229 209.293 423.013 209.576 423.013C209.859 423.013 210.075 423.242 210.075 423.512V425.401C210.075 425.684 209.859 425.9 209.576 425.9ZM209.576 422.123C209.293 422.123 209.077 421.894 209.077 421.624V419.735C209.077 419.452 209.306 419.236 209.576 419.236C209.846 419.236 210.075 419.466 210.075 419.735V421.624C210.075 421.907 209.846 422.123 209.576 422.123ZM209.576 418.346C209.293 418.346 209.077 418.117 209.077 417.847V415.958C209.077 415.675 209.306 415.459 209.576 415.459C209.846 415.459 210.075 415.689 210.075 415.958V417.847C210.075 418.13 209.846 418.346 209.576 418.346ZM209.576 414.569C209.293 414.569 209.077 414.34 209.077 414.07V412.181C209.077 411.898 209.306 411.682 209.576 411.682C209.846 411.682 210.075 411.912 210.075 412.181V414.07C210.075 414.353 209.846 414.569 209.576 414.569Z" fill="white"/>
<path d="M210.196 440.091C209.954 440.091 209.738 439.902 209.698 439.659C209.657 439.322 209.617 438.984 209.576 438.647C209.549 438.377 209.738 438.121 210.021 438.094C210.291 438.054 210.547 438.256 210.574 438.539C210.614 438.877 210.655 439.2 210.695 439.537C210.736 439.807 210.534 440.064 210.264 440.104C210.237 440.104 210.223 440.104 210.196 440.104V440.091Z" fill="white"/>
<path opacity="0.4" d="M173.335 413.8C174.293 413.247 175.075 413.611 175.075 414.623C175.075 415.635 174.293 416.903 173.335 417.456C172.378 418.009 171.596 417.645 171.596 416.633C171.596 415.621 172.378 414.353 173.335 413.8Z" fill="#FF0090"/>
<path d="M517.88 578.516L391.037 651.735L316.101 608.435C294.691 596.079 281.519 573.228 281.519 548.516V468.134C281.519 458.732 279.604 449.627 276.072 441.25C274.953 438.593 273.672 436.03 272.243 433.521C266.27 423.189 257.628 414.38 246.923 408.202C239.616 403.966 231.432 404.263 224.866 407.649L242.042 397.735L276.598 377.771L350.563 335.05L350.751 334.943C357.466 331.071 366.094 330.532 373.766 334.956C384.471 341.134 393.113 349.942 399.086 360.289C405.059 370.635 408.348 382.546 408.348 394.888V475.257C408.348 499.982 421.534 522.833 442.944 535.202L517.88 578.503V578.516Z" fill="#FAFAFA"/>
<path opacity="0.4" d="M209.576 405.41C210.533 404.857 211.315 405.221 211.315 406.233C211.315 407.244 210.533 408.512 209.576 409.065C208.619 409.619 207.837 409.254 207.837 408.243C207.837 407.231 208.619 405.963 209.576 405.41Z" fill="#FF0090"/>
<path opacity="0.4" d="M245.817 378.445C246.774 377.892 247.556 378.256 247.556 379.268C247.556 380.28 246.774 381.548 245.817 382.101C244.86 382.654 244.078 382.289 244.078 381.278C244.078 380.266 244.86 378.998 245.817 378.445Z" fill="#FF0090"/>
<path opacity="0.4" d="M157.534 425.522C157.777 425.387 157.858 425.077 157.723 424.834C157.588 424.592 157.278 424.511 157.036 424.646L155.728 425.401V420.208L157.548 419.156C157.791 419.021 157.871 418.71 157.737 418.468C157.602 418.225 157.292 418.144 157.049 418.279L155.728 419.034V413.571C155.728 413.288 155.499 413.072 155.229 413.072C154.959 413.072 154.73 413.301 154.73 413.571V419.628L152.91 420.68C152.667 420.815 152.586 421.125 152.721 421.368C152.816 421.53 152.977 421.624 153.153 421.624C153.233 421.624 153.328 421.597 153.409 421.557L154.73 420.788V425.981L152.91 427.033C152.667 427.168 152.586 427.478 152.721 427.721C152.816 427.883 152.977 427.977 153.153 427.977C153.233 427.977 153.328 427.95 153.409 427.91L154.73 427.141V432.334L152.91 433.387C152.667 433.521 152.586 433.832 152.721 434.075C152.816 434.236 152.977 434.331 153.153 434.331C153.233 434.331 153.328 434.304 153.409 434.263L154.73 433.494V438.688L152.91 439.74C152.667 439.875 152.586 440.185 152.721 440.428C152.816 440.59 152.977 440.684 153.153 440.684C153.233 440.684 153.328 440.657 153.409 440.617L154.73 439.848V445.041L152.91 446.093C152.667 446.228 152.586 446.538 152.721 446.781C152.816 446.943 152.977 447.038 153.153 447.038C153.233 447.038 153.328 447.011 153.409 446.97L154.73 446.201V451.395L152.896 452.447C152.654 452.582 152.573 452.892 152.708 453.135C152.802 453.297 152.964 453.391 153.139 453.391C153.22 453.391 153.314 453.364 153.395 453.324L154.717 452.555V457.748L152.883 458.8C152.64 458.935 152.559 459.245 152.694 459.488C152.789 459.65 152.95 459.744 153.126 459.744C153.206 459.744 153.301 459.717 153.382 459.677L154.703 458.922C154.676 460.648 154.69 462.375 154.757 464.074L152.869 465.167C152.627 465.302 152.546 465.612 152.681 465.855C152.775 466.017 152.937 466.111 153.112 466.111C153.193 466.111 153.287 466.084 153.368 466.044L154.811 465.207C154.919 467.096 155.081 468.971 155.31 470.819C155.337 471.075 155.566 471.264 155.809 471.264C155.836 471.264 155.849 471.264 155.876 471.264C156.146 471.224 156.348 470.981 156.307 470.698C156.051 468.701 155.876 466.691 155.782 464.654L157.507 463.656C157.75 463.521 157.831 463.211 157.696 462.968C157.561 462.725 157.251 462.645 157.009 462.779L155.741 463.508C155.674 461.795 155.66 460.068 155.701 458.341L157.507 457.289C157.75 457.154 157.831 456.844 157.696 456.601C157.561 456.359 157.251 456.278 157.009 456.413L155.701 457.168V451.975L157.507 450.922C157.75 450.788 157.831 450.477 157.696 450.234C157.561 449.992 157.251 449.911 157.009 450.046L155.701 450.801V445.608L157.507 444.556C157.75 444.421 157.831 444.11 157.696 443.868C157.561 443.625 157.251 443.544 157.009 443.679L155.701 444.434V439.241L157.507 438.189C157.75 438.054 157.831 437.744 157.696 437.501C157.561 437.258 157.251 437.177 157.009 437.312L155.701 438.067V432.874L157.521 431.822C157.764 431.687 157.844 431.377 157.71 431.134C157.575 430.891 157.265 430.81 157.022 430.945L155.714 431.7V426.507L157.534 425.455V425.522Z" fill="#FF0090"/>
<path d="M273.273 457.961L186.192 512.836C183.129 514.76 178.691 514.535 176.503 512.08C174.315 509.611 175.202 505.869 178.266 503.931L265.322 449.07C268.386 447.145 272.459 447.769 274.659 450.224C276.859 452.679 276.337 456.037 273.273 457.961Z" fill="#FF0090"/>
<path opacity="0.4" d="M158.689 484.386C158.465 484.386 158.242 484.27 158.117 484.051C157.931 483.729 158.042 483.317 158.353 483.123L258.712 423.093C259.023 422.9 259.421 423.016 259.608 423.338C259.795 423.66 259.683 424.073 259.372 424.266L159.013 484.296C158.913 484.361 158.801 484.386 158.689 484.386Z" fill="#FF0090"/>
<path opacity="0.4" d="M160.607 490.141C160.383 490.141 160.159 490.026 160.035 489.807C159.849 489.484 159.96 489.072 160.271 488.879L260.63 428.848C260.941 428.655 261.339 428.771 261.526 429.093C261.713 429.415 261.601 429.828 261.29 430.021L160.931 490.051C160.831 490.116 160.719 490.141 160.607 490.141Z" fill="#FF0090"/>
<path opacity="0.4" d="M163.486 495.897C163.262 495.897 163.038 495.779 162.913 495.556C162.727 495.229 162.839 494.81 163.15 494.614L263.509 433.646C263.82 433.449 264.218 433.567 264.404 433.894C264.591 434.222 264.479 434.64 264.168 434.837L163.809 495.805C163.709 495.87 163.597 495.897 163.486 495.897Z" fill="#FF0090"/>
<path opacity="0.4" d="M166.363 500.692C166.139 500.692 165.915 500.576 165.791 500.357C165.604 500.035 165.716 499.623 166.027 499.43L266.387 439.399C266.697 439.206 267.095 439.322 267.282 439.644C267.468 439.966 267.356 440.378 267.046 440.571L166.686 500.602C166.587 500.667 166.475 500.692 166.363 500.692Z" fill="#FF0090"/>
<path d="M261.835 396.615L351.345 344.925C354.743 342.969 360.149 341.795 363.183 343.023C366.23 344.25 365.65 347.434 362.252 349.39L271.704 401.687C268.307 403.643 263.48 403.859 260.783 402.389C258.073 400.932 258.451 398.571 261.848 396.602L261.835 396.615Z" fill="#FF0090"/>
<path opacity="0.4" d="M272.216 410.833C271.973 410.833 271.731 410.711 271.596 410.482C271.394 410.145 271.515 409.713 271.852 409.511L375.02 349.929C375.357 349.727 375.788 349.848 375.991 350.186C376.193 350.523 376.071 350.954 375.734 351.157L272.567 410.738C272.459 410.806 272.337 410.833 272.216 410.833Z" fill="#FF0090"/>
<path opacity="0.4" d="M276.49 415.446C276.247 415.446 276.005 415.325 275.87 415.095C275.668 414.758 275.789 414.326 276.126 414.124L379.456 354.448C379.793 354.246 380.224 354.367 380.426 354.704C380.628 355.042 380.507 355.473 380.17 355.676L276.841 415.352C276.733 415.419 276.611 415.446 276.49 415.446Z" fill="#FF0090"/>
<path opacity="0.4" d="M293.586 468.216C293.303 468.216 293.087 467.986 293.087 467.716V462.24C293.114 459.488 293.087 457.186 293.006 455.333L292.979 454.875C292.588 448.198 291.348 441.912 289.298 436.206C287.505 430.797 284.458 425.482 279.995 419.951C279.82 419.736 279.861 419.425 280.076 419.25C280.292 419.075 280.616 419.115 280.777 419.331C285.321 424.956 288.408 430.378 290.242 435.896C292.318 441.669 293.572 448.049 293.977 454.834L294.004 455.306C294.085 457.177 294.121 459.497 294.112 462.267V467.743C294.098 468.027 293.869 468.243 293.586 468.243V468.216Z" fill="#FF0090"/>
<path d="M292.562 425.145C292.103 424.335 291.605 423.539 291.079 422.77C290.526 421.961 290.742 420.922 291.591 420.437L331.014 397.667C331.863 397.182 333.009 397.424 333.521 398.261C333.993 399.043 334.438 399.852 334.883 400.702C335.328 401.579 334.978 402.685 334.128 403.184L294.921 425.832C294.072 426.318 293.034 426.008 292.548 425.158L292.562 425.145Z" fill="#FF0090"/>
<path d="M296.39 434.223C296.687 435.127 296.957 436.031 297.199 436.907C297.455 437.852 298.332 438.229 299.181 437.744L392.709 383.733C393.558 383.248 394.057 382.074 393.801 381.13C393.545 380.199 393.275 379.295 393.006 378.432C392.709 377.501 391.752 377.15 390.902 377.636L297.348 431.66C296.498 432.146 296.08 433.292 296.377 434.223H296.39Z" fill="#FF0090"/>
<path opacity="0.7" d="M296.39 434.223C296.687 435.127 296.957 436.031 297.199 436.907C297.455 437.852 298.332 438.229 299.181 437.744L392.709 383.733C393.558 383.248 394.057 382.074 393.801 381.13C393.545 380.199 393.275 379.295 393.006 378.432C392.709 377.501 391.752 377.15 390.902 377.636L297.348 431.66C296.498 432.146 296.08 433.292 296.377 434.223H296.39Z" fill="white"/>
<path d="M299.113 446.687C299.235 447.685 299.342 448.656 299.41 449.587C299.491 450.558 300.205 450.963 301.055 450.477L364.422 413.881C365.272 413.396 365.919 412.195 365.838 411.224C365.757 410.253 365.663 409.281 365.541 408.324C365.42 407.353 364.611 406.961 363.762 407.447L300.421 444.03C299.572 444.515 298.992 445.702 299.113 446.673V446.687Z" fill="#FF0090"/>
<path opacity="0.15" d="M299.113 446.687C299.235 447.685 299.342 448.656 299.41 449.587C299.491 450.558 300.205 450.963 301.055 450.477L364.422 413.881C365.272 413.396 365.919 412.195 365.838 411.224C365.757 410.253 365.663 409.281 365.541 408.324C365.42 407.353 364.611 406.961 363.762 407.447L300.421 444.03C299.572 444.515 298.992 445.702 299.113 446.673V446.687Z" fill="#FF0090"/>
<path d="M299.626 459.61V462.456C299.626 463.44 300.314 463.832 301.163 463.346L328.29 447.685C329.14 447.2 329.827 445.999 329.827 445.028V442.182C329.827 441.197 329.14 440.806 328.29 441.291L301.163 456.952C300.314 457.438 299.626 458.638 299.626 459.61Z" fill="#FF0090"/>
<path opacity="0.5" d="M299.626 459.61V462.456C299.626 463.44 300.314 463.832 301.163 463.346L328.29 447.685C329.14 447.2 329.827 445.999 329.827 445.028V442.182C329.827 441.197 329.14 440.806 328.29 441.291L301.163 456.952C300.314 457.438 299.626 458.638 299.626 459.61Z" fill="white"/>
<path opacity="0.4" d="M396.268 414.542C395.985 414.542 395.769 414.772 395.769 415.041V417.483L388.543 421.665V419.843C388.543 419.56 388.313 419.344 388.044 419.344C387.774 419.344 387.545 419.574 387.545 419.843V422.245L380.318 426.426V424.632C380.318 424.349 380.089 424.133 379.819 424.133C379.55 424.133 379.321 424.362 379.321 424.632V427.006L372.094 431.188V429.421C372.094 429.137 371.865 428.922 371.595 428.922C371.325 428.922 371.096 429.151 371.096 429.421V431.768L363.87 435.95V434.223C363.87 433.94 363.64 433.724 363.371 433.724C363.101 433.724 362.872 433.953 362.872 434.223V436.53L355.645 440.711V439.012C355.645 438.728 355.416 438.512 355.146 438.512C354.877 438.512 354.648 438.742 354.648 439.012V441.291L347.421 445.473V443.814C347.421 443.53 347.192 443.315 346.922 443.315C346.653 443.315 346.423 443.544 346.423 443.814V446.053L339.197 450.235V448.602C339.197 448.319 338.968 448.103 338.698 448.103C338.428 448.103 338.199 448.333 338.199 448.602V450.815L330.972 454.996V453.404C330.972 453.121 330.743 452.905 330.474 452.905C330.204 452.905 329.975 453.135 329.975 453.404V455.59L322.748 459.771V458.207C322.748 457.923 322.519 457.708 322.249 457.708C321.98 457.708 321.75 457.937 321.75 458.207V460.351L314.524 464.533V462.995C314.524 462.712 314.295 462.496 314.025 462.496C313.755 462.496 313.526 462.725 313.526 462.995V465.113L306.3 469.295V467.797C306.3 467.514 306.07 467.298 305.801 467.298C305.531 467.298 305.302 467.528 305.302 467.797V469.875L299.033 473.503C298.79 473.638 298.709 473.948 298.844 474.191C298.938 474.353 299.1 474.448 299.275 474.448C299.356 474.448 299.45 474.421 299.531 474.38L305.302 471.048V473.085C305.302 473.368 305.531 473.584 305.801 473.584C306.07 473.584 306.3 473.355 306.3 473.085V470.455L313.526 466.273V468.283C313.526 468.566 313.755 468.782 314.025 468.782C314.295 468.782 314.524 468.553 314.524 468.283V465.693L321.75 461.511V463.494C321.75 463.778 321.98 463.993 322.249 463.993C322.519 463.993 322.748 463.764 322.748 463.494V460.931L329.975 456.75V458.692C329.975 458.976 330.204 459.191 330.474 459.191C330.743 459.191 330.972 458.962 330.972 458.692V456.17L338.199 451.988V453.904C338.199 454.187 338.428 454.403 338.698 454.403C338.968 454.403 339.197 454.173 339.197 453.904V451.408L346.423 447.226V449.101C346.423 449.385 346.653 449.601 346.922 449.601C347.192 449.601 347.421 449.371 347.421 449.101V446.646L354.648 442.465V444.313C354.648 444.596 354.877 444.812 355.146 444.812C355.416 444.812 355.645 444.583 355.645 444.313V441.885L362.872 437.703V439.524C362.872 439.807 363.101 440.023 363.371 440.023C363.64 440.023 363.87 439.794 363.87 439.524V437.123L371.096 432.941V434.722C371.096 435.005 371.325 435.221 371.595 435.221C371.865 435.221 372.094 434.992 372.094 434.722V432.361L379.321 428.18V429.933C379.321 430.217 379.55 430.432 379.819 430.432C380.089 430.432 380.318 430.203 380.318 429.933V427.6L387.545 423.418V425.131C387.545 425.414 387.774 425.63 388.044 425.63C388.313 425.63 388.543 425.401 388.543 425.131V422.838L395.769 418.656V420.343C395.769 420.626 395.998 420.842 396.268 420.842C396.538 420.842 396.767 420.612 396.767 420.343V415.055C396.767 414.772 396.538 414.556 396.268 414.556V414.542Z" fill="#FF0090"/>
<path d="M316.991 480.896C315.333 481.246 313.553 481.948 311.72 483.027C301.716 488.908 293.613 503.611 293.613 515.886C293.613 516.21 293.613 516.52 293.626 516.844L311.706 508.562L316.991 480.896Z" fill="#FF0090"/>
<path d="M316.992 480.895L311.707 508.562L329.639 498.148C329.76 497.028 329.841 495.909 329.841 494.803C329.841 484.713 324.434 479.344 316.992 480.895Z" fill="#FF0090"/>
<path d="M327.374 507.482C328.52 504.407 329.315 501.237 329.639 498.148L311.707 508.562L327.36 507.482H327.374Z" fill="#FF0090"/>
<path d="M293.626 516.83C294.044 528.431 301.985 533.274 311.719 527.649C318.407 523.791 324.245 515.954 327.359 507.469L311.706 508.548L293.626 516.83Z" fill="#FF0090"/>
<path opacity="0.7" d="M316.992 480.895L311.707 508.562L329.639 498.148C329.76 497.028 329.841 495.909 329.841 494.803C329.841 484.713 324.434 479.344 316.992 480.895Z" fill="white"/>
<path opacity="0.15" d="M327.374 507.483C328.52 504.407 329.315 501.237 329.639 498.148L311.707 508.562L327.36 507.483H327.374Z" fill="#FF0090"/>
<path opacity="0.5" d="M293.626 516.83C294.044 528.431 301.985 533.274 311.719 527.649C318.407 523.791 324.245 515.954 327.359 507.469L311.706 508.548L293.626 516.83Z" fill="white"/>
<path d="M316.991 480.896C315.333 481.246 313.553 481.948 311.72 483.027C301.716 488.908 293.613 503.611 293.613 515.886C293.613 516.21 293.613 516.52 293.626 516.844L311.706 508.562L316.991 480.896V480.896Z" stroke="white" stroke-width="1.05" stroke-linecap="round" stroke-linejoin="round"/>
<path d="M316.992 480.895L311.707 508.562L329.639 498.148C329.76 497.028 329.841 495.909 329.841 494.803C329.841 484.713 324.434 479.344 316.992 480.895V480.895Z" stroke="white" stroke-width="1.05" stroke-linecap="round" stroke-linejoin="round"/>
<path d="M327.374 507.482C328.52 504.407 329.315 501.237 329.639 498.148L311.707 508.562L327.36 507.482H327.374Z" stroke="white" stroke-width="1.05" stroke-linecap="round" stroke-linejoin="round"/>
<path d="M293.626 516.83C294.044 528.431 301.985 533.274 311.719 527.649C318.407 523.791 324.245 515.954 327.359 507.469L311.706 508.548L293.626 516.83Z" stroke="white" stroke-width="1.05" stroke-linecap="round" stroke-linejoin="round"/>
<path d="M369.965 451.624C364.073 458.719 360.042 468.634 360.042 477.361C360.042 481.327 360.877 484.578 362.32 486.965L378.148 466.88L369.965 451.624Z" fill="#FF0090"/>
<path d="M386.332 442.128C383.878 442.02 381.101 442.748 378.161 444.461C375.209 446.161 372.431 448.656 369.978 451.638L378.161 466.894L386.332 442.141V442.128Z" fill="#FF0090"/>
<path d="M394.583 447.928C392.871 444.353 389.945 442.303 386.318 442.128L378.148 466.88L394.583 447.928Z" fill="#FF0090"/>
<path d="M394.583 447.928L378.148 466.88L362.32 486.966C365.434 492.024 371.353 493.238 378.148 489.313C388.152 483.539 396.269 468.809 396.269 456.413C396.269 453.027 395.662 450.181 394.583 447.941V447.928Z" fill="#FF0090"/>
<path opacity="0.7" d="M386.332 442.128C383.878 442.02 381.101 442.748 378.161 444.461C375.209 446.161 372.431 448.656 369.978 451.638L378.161 466.894L386.332 442.141V442.128Z" fill="white"/>
<path opacity="0.15" d="M394.583 447.928C392.87 444.353 389.945 442.303 386.318 442.128L378.147 466.88L394.583 447.928Z" fill="#FF0090"/>
<path opacity="0.5" d="M394.583 447.928L378.148 466.88L362.319 486.966C365.434 492.024 371.353 493.238 378.148 489.313C388.152 483.539 396.268 468.809 396.268 456.413C396.268 453.027 395.661 450.181 394.583 447.941V447.928Z" fill="white"/>
<path d="M369.965 451.624C364.073 458.719 360.042 468.634 360.042 477.361C360.042 481.327 360.877 484.578 362.32 486.965L378.148 466.88L369.965 451.624Z" stroke="white" stroke-width="1.05" stroke-linecap="round" stroke-linejoin="round"/>
<path d="M386.332 442.128C383.878 442.02 381.101 442.748 378.161 444.461C375.209 446.161 372.431 448.656 369.978 451.638L378.161 466.894L386.332 442.141V442.128Z" stroke="white" stroke-width="1.05" stroke-linecap="round" stroke-linejoin="round"/>
<path d="M394.583 447.928C392.871 444.353 389.945 442.303 386.318 442.128L378.148 466.88L394.583 447.928Z" stroke="white" stroke-width="1.05" stroke-linecap="round" stroke-linejoin="round"/>
<path d="M394.583 447.928L378.148 466.88L362.32 486.966C365.434 492.024 371.353 493.238 378.148 489.313C388.152 483.539 396.269 468.809 396.269 456.413C396.269 453.027 395.662 450.181 394.583 447.941V447.928Z" stroke="white" stroke-width="1.05" stroke-linecap="round" stroke-linejoin="round"/>
<path d="M337.418 468.04L340.384 466.327C341.233 465.841 341.921 466.233 341.921 467.217V470.064C341.921 471.048 341.233 472.235 340.384 472.721L337.418 474.434C336.568 474.92 335.881 474.528 335.881 473.544V470.698C335.881 469.713 336.568 468.526 337.418 468.04Z" fill="#FF0090"/>
<path d="M337.418 480.828L340.384 479.115C341.233 478.629 341.921 479.02 341.921 480.005V482.851C341.921 483.836 341.233 485.023 340.384 485.509L337.418 487.222C336.568 487.707 335.881 487.316 335.881 486.331V483.485C335.881 482.5 336.568 481.313 337.418 480.828Z" fill="#FF0090"/>
<path opacity="0.7" d="M337.418 480.828L340.384 479.115C341.233 478.629 341.921 479.02 341.921 480.005V482.851C341.921 483.836 341.233 485.023 340.384 485.509L337.418 487.222C336.568 487.707 335.881 487.316 335.881 486.331V483.485C335.881 482.5 336.568 481.313 337.418 480.828Z" fill="white"/>
<path d="M337.418 493.629L340.384 491.916C341.233 491.43 341.921 491.822 341.921 492.806V495.653C341.921 496.637 341.233 497.824 340.384 498.31L337.418 500.023C336.568 500.509 335.881 500.117 335.881 499.133V496.287C335.881 495.302 336.568 494.115 337.418 493.629Z" fill="#FF0090"/>
<path opacity="0.15" d="M337.418 493.629L340.384 491.916C341.233 491.43 341.921 491.822 341.921 492.806V495.653C341.921 496.637 341.233 497.824 340.384 498.31L337.418 500.023C336.568 500.509 335.881 500.117 335.881 499.133V496.287C335.881 495.302 336.568 494.115 337.418 493.629Z" fill="#FF0090"/>
<path d="M337.418 506.417L340.384 504.704C341.233 504.218 341.921 504.609 341.921 505.594V508.44C341.921 509.425 341.233 510.612 340.384 511.097L337.418 512.811C336.568 513.296 335.881 512.905 335.881 511.92V509.074C335.881 508.089 336.568 506.902 337.418 506.417Z" fill="#FF0090"/>
<path opacity="0.5" d="M337.418 506.417L340.384 504.704C341.233 504.218 341.921 504.609 341.921 505.594V508.44C341.921 509.425 341.233 510.612 340.384 511.097L337.418 512.811C336.568 513.296 335.881 512.905 335.881 511.92V509.074C335.881 508.089 336.568 506.902 337.418 506.417Z" fill="white"/>
<path opacity="0.4" d="M344.968 467.743C344.617 467.743 344.28 467.568 344.091 467.244C343.808 466.759 343.984 466.152 344.455 465.868L353.489 460.648C353.974 460.365 354.581 460.54 354.864 461.012C355.147 461.498 354.972 462.105 354.5 462.388L345.467 467.609C345.305 467.703 345.13 467.743 344.968 467.743Z" fill="#FF0090"/>
<path opacity="0.4" d="M344.833 480.666C344.482 480.666 344.145 480.491 343.957 480.167C343.674 479.682 343.849 479.075 344.321 478.791L353.354 473.571C353.839 473.288 354.446 473.463 354.729 473.935C355.012 474.421 354.837 475.028 354.365 475.311L345.332 480.531C345.17 480.626 344.995 480.666 344.833 480.666Z" fill="#FF0090"/>
<path opacity="0.4" d="M344.685 493.589C344.334 493.589 343.997 493.413 343.808 493.09C343.525 492.604 343.7 491.997 344.172 491.714L353.205 486.493C353.691 486.224 354.298 486.385 354.581 486.858C354.864 487.343 354.689 487.95 354.217 488.233L345.183 493.454C345.022 493.548 344.846 493.589 344.685 493.589Z" fill="#FF0090"/>
<path opacity="0.4" d="M344.549 506.511C344.198 506.511 343.861 506.336 343.672 506.012C343.389 505.527 343.565 504.92 344.037 504.636L353.07 499.43C353.555 499.16 354.162 499.322 354.445 499.794C354.728 500.279 354.553 500.886 354.081 501.17L345.048 506.376C344.886 506.471 344.711 506.511 344.549 506.511Z" fill="#FF0090"/>
<path opacity="0.4" d="M294.745 551.956C294.395 551.956 294.058 551.781 293.869 551.457C293.586 550.971 293.761 550.364 294.233 550.081L336.514 525.666C336.999 525.396 337.606 525.558 337.889 526.03C338.172 526.516 337.997 527.123 337.525 527.406L295.244 551.821C295.082 551.916 294.907 551.956 294.745 551.956Z" fill="#FF0090"/>
<path opacity="0.4" d="M296.107 558.229C295.756 558.229 295.419 558.053 295.231 557.73C294.947 557.244 295.123 556.637 295.595 556.354L337.876 531.938C338.361 531.655 338.968 531.83 339.251 532.303C339.534 532.788 339.359 533.395 338.887 533.678L296.606 558.094C296.444 558.188 296.269 558.229 296.107 558.229Z" fill="#FF0090"/>
<path opacity="0.4" d="M298.049 564.285C297.698 564.285 297.361 564.11 297.172 563.786C296.889 563.301 297.065 562.694 297.537 562.41L339.817 537.995C340.303 537.712 340.91 537.887 341.193 538.359C341.476 538.845 341.301 539.452 340.829 539.735L298.548 564.15C298.386 564.245 298.211 564.285 298.049 564.285Z" fill="#FF0090"/>
<path opacity="0.4" d="M361.106 513.647C360.755 513.647 360.418 513.472 360.23 513.148C359.946 512.662 360.122 512.055 360.594 511.772L402.875 487.357C403.36 487.087 403.967 487.249 404.25 487.721C404.533 488.207 404.358 488.814 403.886 489.097L361.605 513.512C361.443 513.607 361.268 513.647 361.106 513.647Z" fill="#FF0090"/>
<path opacity="0.4" d="M362.468 519.906C362.118 519.906 361.781 519.731 361.592 519.407C361.309 518.921 361.484 518.314 361.956 518.031L404.237 493.616C404.722 493.332 405.329 493.508 405.612 493.98C405.895 494.466 405.72 495.073 405.248 495.356L362.967 519.771C362.805 519.866 362.63 519.906 362.468 519.906Z" fill="#FF0090"/>
<path opacity="0.4" d="M364.409 525.963C364.059 525.963 363.722 525.787 363.533 525.464C363.25 524.978 363.425 524.371 363.897 524.088L406.178 499.672C406.663 499.389 407.27 499.565 407.553 500.037C407.836 500.522 407.661 501.129 407.189 501.413L364.908 525.828C364.746 525.922 364.571 525.963 364.409 525.963Z" fill="#FF0090"/>
<path d="M309.657 571.151L406.043 515.495C409.44 513.539 413.633 514.403 415.696 517.222C417.772 520.041 416.923 523.751 413.525 525.706L317.099 581.376C313.701 583.332 309.036 582.82 306.974 579.987C304.911 577.154 306.246 573.094 309.643 571.138L309.657 571.151Z" fill="#FF0090"/>
<path opacity="0.4" d="M325.566 598.413C325.216 598.413 324.879 598.237 324.69 597.914C324.407 597.428 324.582 596.821 325.054 596.538L367.335 572.123C367.82 571.853 368.427 572.015 368.71 572.487C368.993 572.972 368.818 573.579 368.346 573.863L326.065 598.278C325.903 598.372 325.728 598.413 325.566 598.413Z" fill="#FF0090"/>
<path opacity="0.4" d="M320.269 594.69C319.918 594.69 319.581 594.515 319.392 594.191C319.109 593.705 319.284 593.098 319.756 592.815L362.037 568.413C362.523 568.143 363.129 568.305 363.412 568.777C363.696 569.263 363.52 569.87 363.048 570.153L320.767 594.555C320.606 594.649 320.43 594.69 320.269 594.69Z" fill="#FF0090"/>
<path opacity="0.4" d="M331.122 601.704C330.771 601.704 330.434 601.529 330.245 601.205C329.962 600.72 330.137 600.112 330.609 599.829L372.89 575.414C373.376 575.144 373.982 575.306 374.265 575.778C374.549 576.264 374.373 576.871 373.901 577.154L331.62 601.569C331.459 601.664 331.283 601.704 331.122 601.704Z" fill="#FF0090"/>
<path opacity="0.4" d="M385.927 563.571C385.576 563.571 385.239 563.395 385.05 563.071C384.767 562.586 384.943 561.979 385.414 561.696L427.695 537.28C428.181 537.01 428.787 537.172 429.071 537.644C429.354 538.13 429.178 538.737 428.707 539.02L386.426 563.436C386.264 563.53 386.089 563.571 385.927 563.571Z" fill="#FF0090"/>
<path opacity="0.4" d="M380.628 559.834C380.278 559.834 379.941 559.659 379.752 559.335C379.469 558.849 379.644 558.242 380.116 557.959L422.397 533.557C422.882 533.287 423.489 533.449 423.772 533.921C424.055 534.407 423.88 535.014 423.408 535.297L381.127 559.699C380.966 559.793 380.79 559.834 380.628 559.834Z" fill="#FF0090"/>
<path opacity="0.4" d="M391.482 566.862C391.132 566.862 390.795 566.686 390.606 566.363C390.323 565.877 390.498 565.27 390.97 564.987L433.251 540.571C433.736 540.302 434.343 540.464 434.626 540.936C434.909 541.421 434.734 542.028 434.262 542.312L391.981 566.727C391.819 566.821 391.644 566.862 391.482 566.862Z" fill="#FF0090"/>
<path d="M392.116 597.293C382.934 591.992 367.389 592.37 357.372 598.157C347.368 603.93 346.694 612.914 355.875 618.215C365.057 623.516 380.602 623.139 390.619 617.352C400.623 611.578 401.297 602.595 392.116 597.293ZM385.874 614.613C378.728 618.741 367.618 619.011 361.066 615.22C354.513 611.43 354.985 605.009 362.131 600.895C369.277 596.767 380.386 596.497 386.939 600.288C393.491 604.078 393.019 610.499 385.874 614.613Z" fill="#FF0090"/>
<path d="M366.878 603.633C371.165 601.151 377.826 600.989 381.762 603.269C385.699 605.549 385.403 609.393 381.115 611.861C376.828 614.33 370.168 614.505 366.231 612.226C362.294 609.946 362.59 606.102 366.878 603.633Z" fill="#FF0090"/>
<path opacity="0.5" d="M366.877 603.633C371.165 601.151 377.825 600.989 381.762 603.269C385.699 605.548 385.402 609.393 381.115 611.861C376.827 614.33 370.167 614.505 366.23 612.226C362.293 609.946 362.59 606.102 366.877 603.633Z" fill="#FF0090"/>
<path opacity="0.15" d="M392.116 597.293C382.934 591.992 367.389 592.37 357.372 598.157C347.368 603.93 346.694 612.914 355.875 618.215C365.057 623.516 380.602 623.139 390.619 617.352C400.623 611.578 401.297 602.595 392.116 597.293ZM385.874 614.613C378.728 618.741 367.618 619.011 361.066 615.22C354.513 611.43 354.985 605.009 362.131 600.895C369.277 596.767 380.386 596.497 386.939 600.288C393.491 604.078 393.019 610.499 385.874 614.613Z" fill="#FF0090"/>
<path d="M366.634 594.636L368.737 598.386C372.768 597.455 377.15 597.374 381.033 598.156L383.864 594.312C378.431 593.206 372.296 593.327 366.634 594.636Z" fill="#FF0090"/>
<path opacity="0.7" d="M366.634 594.636L368.737 598.386C372.768 597.455 377.15 597.374 381.033 598.156L383.864 594.312C378.431 593.206 372.296 593.327 366.634 594.636Z" fill="white"/>
<path opacity="0.4" d="M375.263 592.775C375.263 592.775 375.222 592.775 375.196 592.775C374.643 592.748 374.225 592.262 374.252 591.709L374.521 587.096L393.114 576.358C393.599 576.088 394.206 576.25 394.489 576.722C394.772 577.208 394.597 577.815 394.125 578.098L376.476 588.283L376.261 591.817C376.234 592.356 375.789 592.761 375.263 592.761V592.775Z" fill="#FF0090"/>
<path d="M446.463 565.931C437.282 560.63 421.736 561.007 411.719 566.794C401.715 572.568 401.041 581.551 410.222 586.853C419.404 592.154 434.949 591.776 444.967 585.989C454.971 580.216 455.645 571.232 446.463 565.931ZM440.221 583.251C433.075 587.379 421.965 587.649 415.413 583.858C408.861 580.068 409.332 573.647 416.478 569.533C423.624 565.405 434.733 565.135 441.286 568.926C447.838 572.716 447.366 579.137 440.221 583.251Z" fill="#FF0090"/>
<path d="M421.21 572.271C425.498 569.789 432.158 569.627 436.095 571.907C440.032 574.186 439.735 578.031 435.448 580.499C431.16 582.968 424.5 583.143 420.563 580.864C416.626 578.584 416.923 574.74 421.21 572.271Z" fill="#FF0090"/>
<path opacity="0.5" d="M421.21 572.271C425.498 569.789 432.158 569.627 436.095 571.907C440.032 574.187 439.735 578.031 435.448 580.499C431.16 582.968 424.5 583.143 420.563 580.864C416.626 578.584 416.923 574.74 421.21 572.271Z" fill="#FF0090"/>
<path opacity="0.15" d="M446.463 565.931C437.282 560.63 421.736 561.007 411.719 566.794C401.715 572.568 401.041 581.551 410.222 586.853C419.404 592.154 434.949 591.776 444.967 585.989C454.971 580.216 455.645 571.232 446.463 565.931ZM440.221 583.251C433.075 587.379 421.965 587.649 415.413 583.858C408.861 580.068 409.332 573.647 416.478 569.533C423.624 565.405 434.733 565.135 441.286 568.926C447.838 572.716 447.366 579.137 440.221 583.251Z" fill="#FF0090"/>
<path d="M446.463 565.931C438.71 561.453 426.414 561.048 416.748 564.501L420.064 567.901C426.967 565.432 435.744 565.715 441.286 568.912C442.297 569.492 443.119 570.153 443.807 570.841L449.995 568.629C449.038 567.658 447.892 566.74 446.463 565.918V565.931Z" fill="#FF0090"/>
<path opacity="0.7" d="M446.463 565.931C438.71 561.453 426.414 561.048 416.748 564.501L420.064 567.901C426.967 565.432 435.744 565.715 441.286 568.912C442.297 569.492 443.119 570.153 443.807 570.841L449.995 568.629C449.038 567.658 447.892 566.74 446.463 565.918V565.931Z" fill="white"/>
<path opacity="0.4" d="M429.744 561.304C429.744 561.304 429.704 561.304 429.677 561.304C429.124 561.277 428.706 560.792 428.733 560.239L429.003 555.612L447.595 544.875C448.08 544.605 448.687 544.767 448.97 545.239C449.253 545.724 449.078 546.331 448.606 546.615L430.958 556.799L430.742 560.333C430.715 560.873 430.27 561.277 429.744 561.277V561.304Z" fill="#FF0090"/>
<path opacity="0.4" d="M380.979 630.517C380.628 630.517 380.291 630.342 380.103 630.018C379.82 629.532 379.995 628.925 380.467 628.642L483.136 569.371C483.621 569.101 484.228 569.263 484.511 569.735C484.794 570.221 484.619 570.828 484.147 571.111L381.478 630.382C381.316 630.477 381.141 630.517 380.979 630.517Z" fill="#FF0090"/>
<path opacity="0.4" d="M386.534 633.714C386.183 633.714 385.846 633.539 385.657 633.215C385.374 632.729 385.55 632.122 386.021 631.839L488.69 572.568C489.176 572.298 489.782 572.46 490.065 572.932C490.349 573.418 490.173 574.025 489.701 574.308L387.033 633.579C386.871 633.674 386.695 633.714 386.534 633.714Z" fill="#FF0090"/>
<path opacity="0.4" d="M392.076 636.911C391.725 636.911 391.388 636.736 391.199 636.412C390.916 635.926 391.091 635.319 391.563 635.036L494.232 575.765C494.718 575.495 495.324 575.657 495.607 576.129C495.891 576.614 495.715 577.221 495.243 577.505L392.575 636.776C392.413 636.871 392.237 636.911 392.076 636.911Z" fill="#FF0090"/>
<path d="M316.102 608.449C294.692 596.093 281.519 573.242 281.519 548.53V468.148C281.519 458.746 279.605 449.641 276.072 441.264C274.953 438.607 273.672 436.044 272.243 433.535C266.271 423.202 257.628 414.394 246.923 408.216C231.553 399.34 212.341 410.455 212.354 428.207V436.395V428.193V508.521V491.808V508.494C212.354 526.26 193.142 537.361 177.758 528.499C156.348 516.129 143.176 493.279 143.176 468.553V385.231C143.176 372.861 139.886 360.964 133.913 350.631C127.941 340.285 119.298 331.476 108.593 325.298V328.617C128.224 340.635 140.344 362.137 140.344 385.231V468.553C140.344 494.209 154.137 518.112 176.356 530.954C184.459 535.635 194.139 535.635 202.256 530.954C202.755 530.671 203.24 530.374 203.712 530.05L203.752 530.023C210.952 525.207 215.186 517.289 215.186 508.521V428.193C215.199 420.882 218.974 414.313 225.311 410.671C231.648 407.002 239.211 407.002 245.535 410.671C258.329 418.05 268.091 429.434 273.605 442.694C276.908 450.653 278.701 459.286 278.701 468.135V486.79V548.517C278.701 574.16 292.494 598.076 314.713 610.917L391.078 655V651.749L316.142 608.449H316.102Z" fill="#CBC6F8"/>
<path d="M278.675 468.135C278.675 459.272 276.882 450.639 273.578 442.694C268.051 429.434 258.289 418.063 245.508 410.671C239.171 407.002 231.608 407.002 225.284 410.671C218.948 414.326 215.172 420.882 215.172 428.193V508.521C215.159 517.289 210.912 525.207 203.712 530.023L203.672 530.05C203.187 530.374 202.701 530.67 202.216 530.954L278.675 486.79V468.135Z" fill="#FAFAFA"/>
<path d="M107.001 247.964C106.798 247.009 107.475 245.788 108.528 245.181L113.661 242.273C117.769 239.952 120.712 240.747 121.397 243.911L121.404 243.955C122.168 247.541 119.474 251.155 115.615 253.349L112.74 254.977L113.398 258.056C113.601 259.01 112.924 260.232 111.871 260.838C110.818 261.445 109.823 261.147 109.607 260.21L107.001 247.964ZM115.102 250.248C116.99 249.172 117.887 247.53 117.597 246.201L117.59 246.157C117.255 244.626 115.91 244.471 114.007 245.549L111.076 247.2L112.089 251.941L115.088 250.25L115.102 250.248Z" fill="#FF0090"/>
<path d="M122.489 246.03L122.483 245.986C121.535 241.577 124.628 235.783 129.925 232.776C135.222 229.768 139.803 231.181 140.753 235.604L140.759 235.648C141.707 240.056 138.614 245.85 133.317 248.858C128.021 251.865 123.439 250.453 122.489 246.03ZM136.824 237.928L136.817 237.884C136.238 235.226 133.607 234.235 130.555 235.964C127.502 237.693 125.855 241.06 126.435 243.718L126.441 243.762C127.021 246.42 129.652 247.411 132.707 245.697C135.761 243.982 137.406 240.601 136.826 237.942L136.824 237.928Z" fill="#FF0090"/>
<path d="M141.33 228.399C141.127 227.445 141.804 226.223 142.857 225.617C143.91 225.01 144.905 225.308 145.121 226.245L147.44 237.087L154.45 233.12C155.407 232.572 156.324 232.837 156.497 233.691C156.671 234.545 156.069 235.681 155.11 236.213L146.21 241.242C145.155 241.834 144.162 241.551 143.946 240.614L141.328 228.384L141.33 228.399Z" fill="#FF0090"/>
<path d="M155.075 220.625C154.872 219.67 155.549 218.449 156.602 217.842C157.655 217.236 158.651 217.533 158.866 218.471L161.186 229.313L168.195 225.345C169.152 224.798 170.069 225.063 170.242 225.917C170.416 226.771 169.814 227.906 168.855 228.439L159.955 233.468C158.9 234.06 157.907 233.777 157.691 232.839L155.073 220.61L155.075 220.625Z" fill="#FF0090"/>
<path d="M169.615 220.58L168.055 213.294C167.852 212.34 168.53 211.119 169.582 210.512C170.635 209.906 171.631 210.203 171.846 211.14L173.393 218.338C173.938 220.868 175.619 221.375 177.934 220.071C180.248 218.767 181.378 216.701 180.844 214.245L179.279 206.93C179.076 205.976 179.754 204.754 180.806 204.148C181.859 203.541 182.855 203.839 183.07 204.776L184.615 211.96C185.621 216.658 183.188 220.621 178.573 223.227C173.959 225.834 170.626 225.113 169.654 220.544L169.615 220.58Z" fill="#FF0090"/>
<path d="M189.766 202.766L186.123 204.823C185.166 205.37 184.235 205.108 184.045 204.241C183.854 203.375 184.497 202.218 185.457 201.685L196.52 195.435C197.477 194.888 198.408 195.15 198.599 196.017C198.789 196.883 198.146 198.04 197.186 198.573L193.544 200.629L195.857 211.427C196.06 212.382 195.383 213.603 194.33 214.21C193.277 214.816 192.282 214.519 192.066 213.581L189.753 202.783L189.766 202.766Z" fill="#FF0090"/>
<path d="M200.048 195.186C199.845 194.232 200.522 193.011 201.575 192.404C202.627 191.798 203.623 192.095 203.839 193.032L206.493 205.406C206.697 206.36 206.019 207.581 204.967 208.188C203.914 208.794 202.918 208.497 202.702 207.559L200.048 195.186Z" fill="#FF0090"/>
<path d="M207.236 198.116L207.229 198.072C206.282 193.664 209.375 187.87 214.672 184.862C219.968 181.854 224.55 183.267 225.499 187.69L225.506 187.734C226.453 192.142 223.36 197.936 218.064 200.944C212.767 203.952 208.186 202.539 207.236 198.116ZM221.571 190.014L221.564 189.97C220.985 187.312 218.354 186.321 215.301 188.05C212.248 189.779 210.602 193.146 211.181 195.804L211.188 195.848C211.767 198.506 214.398 199.497 217.453 197.783C220.508 196.069 222.152 192.687 221.573 190.028L221.571 190.014Z" fill="#FF0090"/>
<path d="M226.095 180.512C225.892 179.558 226.569 178.336 227.622 177.73L228.019 177.506C228.923 176.996 229.56 177.079 230.2 177.386L239.351 181.899L237.637 173.891C237.438 172.966 238.113 171.73 239.141 171.157C240.169 170.584 241.175 170.85 241.377 171.79L244.027 184.134C244.23 185.088 243.552 186.309 242.5 186.916L242.376 186.979C241.472 187.489 240.835 187.406 240.195 187.099L230.708 182.427L232.482 190.74C232.681 191.665 232.006 192.901 230.978 193.474C229.95 194.047 228.944 193.781 228.743 192.841L226.093 180.497L226.095 180.512Z" fill="#FF0090"/>
</svg>
