<svg width="500" height="1246" viewBox="0 0 500 1246" fill="none" xmlns="http://www.w3.org/2000/svg">
<path d="M534.149 725.35H368.14L342.739 654.634C338.164 642.317 328.801 632.414 316.829 626.996C305.553 621.893 290.377 612.633 275.668 596.121C247.04 563.988 231.849 529.516 231.849 529.516L328.338 529.042C328.338 529.042 319.654 475.07 367.608 403.386C372.742 395.712 375.077 386.505 374.275 377.309L369.731 325.03C369.731 325.03 337.142 288.611 357.137 243.429C357.137 243.429 376.257 216.957 383.84 226.647C383.84 226.647 441.593 364.172 446.852 384.622C452.111 405.071 459.12 417.924 452.111 482.193C450.254 499.206 449.59 513.395 449.612 525.063C449.658 547.46 454.658 569.565 464.238 589.814L534.149 725.353V725.35Z" fill="#F4D2E5"/>
<g style="mix-blend-mode:multiply" opacity="0.2">
<path d="M315.512 626.385C315.284 626.279 315.056 626.169 314.825 626.059C314.692 625.994 314.559 625.933 314.426 625.869C314.213 625.766 314.001 625.664 313.788 625.558C313.644 625.489 313.503 625.417 313.359 625.345C313.15 625.242 312.942 625.136 312.733 625.03C312.585 624.954 312.437 624.882 312.285 624.806C312.068 624.696 311.852 624.582 311.632 624.468C311.487 624.392 311.347 624.32 311.203 624.244C310.884 624.077 310.557 623.906 310.234 623.731C310.056 623.636 309.874 623.534 309.691 623.435C309.486 623.321 309.281 623.211 309.073 623.097C308.883 622.995 308.693 622.885 308.503 622.778C308.325 622.68 308.15 622.581 307.971 622.478C307.766 622.364 307.561 622.247 307.356 622.129C307.189 622.034 307.026 621.939 306.859 621.84C306.643 621.715 306.426 621.586 306.206 621.461C306.058 621.373 305.906 621.282 305.754 621.195C305.519 621.054 305.283 620.914 305.048 620.774C304.934 620.705 304.824 620.637 304.71 620.568C303.799 620.014 302.876 619.433 301.946 618.83C301.87 618.78 301.79 618.731 301.714 618.681C301.43 618.495 301.141 618.306 300.852 618.116C300.754 618.047 300.651 617.983 300.552 617.915C300.268 617.725 299.979 617.527 299.691 617.334C299.592 617.269 299.497 617.201 299.398 617.136C299.098 616.931 298.798 616.726 298.498 616.513C298.43 616.464 298.362 616.419 298.293 616.369C296.862 615.367 295.412 614.304 293.95 613.18C293.935 613.168 293.916 613.153 293.9 613.142C293.555 612.876 293.213 612.607 292.864 612.337C292.807 612.291 292.75 612.25 292.693 612.204C292.355 611.938 292.017 611.669 291.679 611.395C291.626 611.354 291.569 611.308 291.516 611.262C291.163 610.978 290.81 610.689 290.457 610.397C290.453 610.393 290.445 610.389 290.441 610.385C288.919 609.129 287.385 607.804 285.847 606.406C285.817 606.38 285.79 606.353 285.76 606.327C285.411 606.008 285.061 605.685 284.712 605.362C284.651 605.305 284.591 605.248 284.53 605.191C284.188 604.872 283.843 604.546 283.497 604.219C283.44 604.166 283.387 604.113 283.33 604.06C282.973 603.718 282.616 603.373 282.259 603.023C325.141 621.047 351.684 616.24 366.135 600.195C380.586 584.149 400.664 586.682 421.774 579.365C442.884 572.049 449.658 519.28 449.658 519.28V519.273C449.658 519.273 449.658 519.284 449.658 519.292C449.643 520.108 449.635 520.909 449.628 521.703C449.628 521.93 449.624 522.162 449.62 522.39C449.62 522.678 449.62 522.963 449.616 523.248C449.616 523.859 449.612 524.463 449.616 525.059C449.662 547.457 454.662 569.562 464.242 589.81L534.153 725.35H368.144L342.743 654.634C338.168 642.317 328.805 632.415 316.833 626.997C316.507 626.848 316.173 626.697 315.838 626.541C315.728 626.492 315.618 626.438 315.508 626.385H315.512Z" fill="#F4D2E5"/>
</g>
<path d="M144.803 134.949C144.803 134.949 111.824 112.878 104.294 127.42C96.7654 141.962 147.138 193.417 147.138 193.417L144.803 134.949V134.949Z" fill="#F4D2E5"/>
<path d="M144.803 231.119C144.803 231.119 111.824 209.048 104.294 223.59C96.7654 238.132 147.138 289.587 147.138 289.587L144.803 231.119V231.119Z" fill="#F4D2E5"/>
<path d="M144.803 296.641C144.803 296.641 111.824 274.57 104.294 289.112C96.7654 303.654 147.138 355.109 147.138 355.109L144.803 296.641V296.641Z" fill="#F4D2E5"/>
<g style="mix-blend-mode:multiply" opacity="0.2">
<path d="M356.541 421.318C356.541 421.318 389.288 501.477 386.11 516.634C382.932 531.791 363.064 552.058 314.308 545.304C265.553 538.549 231.856 529.517 231.856 529.517C231.856 529.517 229.817 421.333 231.856 415.847C233.895 410.361 321.557 371.42 325.004 371.42C328.452 371.42 356.544 421.318 356.544 421.318H356.541Z" fill="#F4D2E5"/>
</g>
<path d="M299.528 132.417H215.709C214.49 132.417 213.503 131.43 213.503 130.211C213.503 128.992 214.49 128.005 215.709 128.005H299.528C300.747 128.005 301.734 128.992 301.734 130.211C301.734 131.43 300.747 132.417 299.528 132.417Z" fill="white"/>
<path d="M377.139 356.578C377.139 356.578 375.894 361.203 373.08 363.477L369.739 325.027C369.739 325.027 345.766 298.236 351.56 262.102C353.542 249.732 359.696 238.349 369.105 230.079C374.477 225.36 380.374 222.205 383.852 226.647C383.852 226.647 411.01 291.318 429.774 338.563L377.143 356.578H377.139Z" fill="#F4D2E5"/>
<path opacity="0.3" d="M267.456 512.742C267.456 518.335 262.923 522.868 257.33 522.868C251.737 522.868 247.204 518.335 247.204 512.742C247.204 507.149 251.737 502.616 257.33 502.616C262.923 502.616 267.456 507.149 267.456 512.742Z" fill="#FF0090"/>
<path d="M260.348 516.96H254.307C253.647 516.96 253.107 516.421 253.107 515.76V509.72C253.107 509.059 253.647 508.52 254.307 508.52H260.348C261.009 508.52 261.548 509.059 261.548 509.72V515.76C261.548 516.421 261.009 516.96 260.348 516.96ZM254.307 508.846C253.825 508.846 253.434 509.237 253.434 509.72V515.76C253.434 516.243 253.825 516.634 254.307 516.634H260.348C260.83 516.634 261.221 516.243 261.221 515.76V509.72C261.221 509.237 260.83 508.846 260.348 508.846H254.307Z" fill="#DAEEF7"/>
<path d="M378.965 264.63C371.462 261.179 367.544 241.652 366.139 232.878C372.161 226.818 379.717 221.366 383.848 226.647C383.848 226.647 389.828 240.889 398.116 260.887C392.451 264.042 384.577 267.216 378.965 264.634V264.63Z" fill="#F4D2E5"/>
<path d="M466.493 597.533C450.019 607.656 396.981 637.92 342.14 644.371C338.927 644.747 336.668 647.693 337.617 650.237L347.197 675.896C347.831 677.594 349.741 678.585 351.882 678.326C368.045 676.363 434.729 666.325 481.65 630.031C483.249 628.797 483.921 626.921 483.325 625.323L473.548 599.136C472.629 596.672 469.174 595.886 466.493 597.533V597.533Z" fill="#FF0090"/>
<path d="M470.939 622.209L471.851 621.867C472.61 621.582 472.997 620.736 472.712 619.976L469.489 611.346C469.204 610.587 468.358 610.199 467.598 610.484L466.687 610.826C465.928 611.111 465.54 611.957 465.825 612.717L469.049 621.347C469.333 622.106 470.18 622.494 470.939 622.209Z" fill="#1A00E1"/>
<path d="M461.201 628.242L461.865 627.995C462.693 627.688 463.114 626.761 462.807 625.933L459.678 617.55C459.367 616.722 458.444 616.301 457.616 616.608L456.952 616.855C456.124 617.163 455.703 618.089 456.01 618.917L459.139 627.3C459.45 628.128 460.373 628.549 461.201 628.242Z" fill="#1A00E1"/>
<path d="M451.322 634.283L451.986 634.036C452.814 633.728 453.235 632.802 452.928 631.974L449.799 623.591C449.488 622.763 448.565 622.342 447.737 622.649L447.073 622.896C446.245 623.204 445.824 624.13 446.131 624.958L449.26 633.341C449.571 634.169 450.494 634.59 451.322 634.283Z" fill="#1A00E1"/>
<path d="M441.153 639.192L441.814 638.945C442.641 638.634 443.063 637.711 442.755 636.884L439.627 628.504C439.315 627.676 438.393 627.255 437.565 627.562L436.904 627.809C436.077 628.117 435.655 629.043 435.963 629.871L439.091 638.254C439.399 639.082 440.325 639.503 441.153 639.196V639.192Z" fill="#1A00E1"/>
<path d="M431.148 644.899L431.813 644.652C432.64 644.34 433.062 643.418 432.754 642.59L429.626 634.207C429.314 633.379 428.392 632.958 427.564 633.265L426.9 633.512C426.072 633.819 425.65 634.746 425.958 635.574L429.087 643.957C429.394 644.785 430.321 645.206 431.148 644.899Z" fill="#1A00E1"/>
<path d="M421.357 649.196L420.696 649.443C419.867 649.752 418.943 649.33 418.634 648.502L415.507 640.121C415.198 639.292 415.62 638.369 416.448 638.059L417.11 637.812C417.939 637.503 418.862 637.925 419.171 638.754L422.298 647.135C422.608 647.963 422.186 648.887 421.357 649.196Z" fill="#1A00E1"/>
<path d="M409.928 653.449L410.839 653.108C411.599 652.823 411.986 651.976 411.701 651.217L408.478 642.587C408.193 641.827 407.346 641.44 406.587 641.725L405.676 642.066C404.916 642.351 404.529 643.198 404.814 643.957L408.037 652.587C408.322 653.347 409.169 653.734 409.928 653.449Z" fill="#1A00E1"/>
<path d="M399.199 656.828L399.863 656.581C400.691 656.27 401.112 655.347 400.805 654.519L397.676 646.14C397.368 645.312 396.442 644.891 395.614 645.198L394.95 645.445C394.122 645.756 393.701 646.679 394.008 647.507L397.137 655.89C397.448 656.718 398.371 657.139 399.199 656.832V656.828Z" fill="#1A00E1"/>
<path d="M387.777 659.118L388.688 658.776C389.448 658.492 389.835 657.645 389.55 656.885L386.327 648.255C386.042 647.496 385.195 647.109 384.436 647.393L383.525 647.735C382.765 648.02 382.378 648.863 382.663 649.626L385.886 658.256C386.171 659.015 387.018 659.403 387.777 659.118Z" fill="#1A00E1"/>
<path d="M376.778 662.159L377.689 661.817C378.449 661.533 378.836 660.686 378.551 659.926L375.328 651.296C375.043 650.537 374.196 650.15 373.437 650.434L372.526 650.776C371.766 651.061 371.379 651.908 371.664 652.667L374.887 661.297C375.172 662.057 376.019 662.444 376.778 662.159Z" fill="#1A00E1"/>
<path d="M366.142 663.788L365.48 664.035C364.652 664.345 363.728 663.923 363.419 663.095L360.291 654.714C359.981 653.885 360.403 652.962 361.231 652.653L361.893 652.406C362.722 652.096 363.645 652.518 363.954 653.346L367.083 661.727C367.392 662.556 366.971 663.479 366.142 663.788Z" fill="#1A00E1"/>
<path d="M353.925 665.948L354.836 665.606C355.595 665.322 355.983 664.475 355.698 663.716L352.474 655.085C352.19 654.326 351.343 653.939 350.583 654.223L349.672 654.565C348.913 654.85 348.526 655.697 348.81 656.456L352.034 665.086C352.319 665.846 353.165 666.233 353.925 665.948Z" fill="#1A00E1"/>
<path d="M433.94 656.953L433.894 656.832C434.069 656.809 434.243 656.767 434.411 656.707L447.388 651.862C448.668 651.384 449.29 649.869 448.774 648.483L437.072 617.136C436.556 615.75 435.094 615.014 433.811 615.492L420.833 620.337C420.074 620.622 419.55 621.271 419.352 622.042C418.335 622.486 417.31 622.93 416.269 623.374C415.924 620.739 417.275 618.18 419.69 617.277L432.668 612.432C435.512 611.369 438.758 613.005 439.905 616.081L451.606 647.427C452.753 650.499 451.375 653.863 448.527 654.926L435.55 659.771C433.602 660.496 431.468 659.961 429.945 658.563C431.271 658.039 432.603 657.504 433.932 656.957L433.94 656.953Z" fill="#DDE8FE"/>
<path d="M436.787 632.08L442.433 629.973C443.446 629.597 444.597 630.174 445.003 631.267C445.413 632.361 444.923 633.553 443.909 633.933L438.264 636.04L436.787 632.08V632.08Z" fill="#BED1F9"/>
<path d="M150.388 75.3657C150.388 75.3657 149.921 79.9865 146.272 80.3054C149.917 80.6243 150.388 85.2451 150.388 85.2451C150.388 85.2451 150.855 80.6243 154.504 80.3054C150.859 79.9865 150.388 75.3657 150.388 75.3657V75.3657Z" fill="white"/>
<path fill-rule="evenodd" clip-rule="evenodd" d="M368.938 723.688C415.389 669.854 497.164 684.298 565.855 665.886C639.529 646.138 709.671 583.258 779.67 613.592C853.557 645.61 888.942 731.882 901.621 811.387C913.496 885.856 880.941 955.284 844.704 1021.4C805.268 1093.36 770.728 1194.33 688.829 1199.65C606.888 1204.99 577.991 1090.47 510.885 1043.12C451.475 1001.21 355.613 1010.19 326.092 943.758C294.537 872.746 318.186 782.507 368.938 723.688Z" fill="#1A00E1"/>
<path fill-rule="evenodd" clip-rule="evenodd" d="M369.392 715.225C414.212 660.025 496.383 672.018 564.492 651.56C637.542 629.617 705.772 564.668 776.647 592.895C851.458 622.689 889.408 707.865 904.458 786.955C918.556 861.036 888.091 931.406 853.847 998.579C816.581 1071.68 785.076 1173.64 703.372 1181.41C621.628 1189.19 589.319 1075.59 520.828 1030.27C460.191 990.158 364.64 1002 333.146 936.478C299.481 866.441 320.421 775.535 369.392 715.225Z" fill="#FF0090"/>
<path d="M366.395 106.847L387.037 505.968C387.149 508.259 387.036 510.509 386.717 512.688C386.557 513.785 386.325 514.844 386.063 515.898C385.909 516.43 385.769 516.964 385.616 517.482C384.669 520.581 383.256 523.487 381.475 526.136C380.584 527.468 379.594 528.727 378.521 529.916C377.465 531.091 376.296 532.191 375.088 533.226C374.275 533.894 373.419 534.542 372.536 535.157C371.655 535.756 370.747 536.322 369.814 536.838C368.407 537.62 366.922 538.286 365.402 538.856C364.38 539.224 363.346 539.561 362.275 539.832C360.13 540.389 357.887 540.736 355.61 540.849L191.895 549.317C189.479 549.444 187.096 549.3 184.801 548.923C184.411 548.861 184.05 548.803 183.664 548.712C183.245 548.632 182.828 548.537 182.411 548.442C180.672 548.022 178.979 547.471 177.362 546.79C176.548 546.434 175.75 546.065 174.987 545.669C174.626 545.489 174.266 545.293 173.922 545.1C173.176 544.691 172.451 544.223 171.726 543.755C169.516 542.271 167.491 540.518 165.702 538.579C164.984 537.791 164.299 536.992 163.668 536.122C162.702 534.846 161.836 533.505 161.056 532.083C160.009 530.201 159.159 528.205 158.518 526.126C157.698 523.491 157.197 520.741 157.043 517.894L136.36 118.738C135.401 100.445 149.493 84.8158 167.815 83.8751L331.531 75.4076C349.852 74.4669 365.451 88.5559 366.41 106.849L366.395 106.847Z" fill="#1A00E1"/>
<path d="M359.103 107.224L379.744 506.345C379.841 508.115 379.755 509.878 379.488 511.62C379.396 512.405 379.213 513.178 379.004 514.04L378.59 515.474C377.914 517.703 376.837 519.962 375.409 522.086C374.721 523.121 373.931 524.114 373.088 525.039C372.312 525.91 371.397 526.796 370.378 527.654C369.904 528.042 369.333 528.479 368.666 528.951L368.4 529.133C367.85 529.512 367.288 529.873 366.682 530.215L366.274 530.427C365.293 530.968 364.272 531.459 363.201 531.853L362.848 531.994C362.001 532.307 361.207 532.55 360.433 532.764C358.716 533.188 356.957 533.455 355.202 533.553L191.486 542.021C189.639 542.124 187.77 542.026 185.956 541.72C185.342 541.616 184.712 541.512 184.133 541.367C182.765 541.037 181.44 540.605 180.114 540.051C179.489 539.779 178.85 539.489 178.319 539.197C178.001 539.037 177.771 538.918 177.555 538.801L177.383 538.704C176.924 538.451 176.396 538.129 175.743 537.7C174.059 536.554 172.477 535.189 171.026 533.627C170.443 532.992 169.921 532.365 169.459 531.745C168.693 530.721 168.009 529.647 167.416 528.583C166.661 527.209 166.034 525.79 165.551 524.311L165.428 523.929C164.771 521.849 164.384 519.693 164.276 517.494L143.636 118.358C142.904 104.098 153.918 91.8822 168.178 91.15L331.909 82.6843C342.801 82.1202 352.486 88.4163 356.795 97.7627C358.122 100.641 358.951 103.843 359.119 107.211L359.103 107.224Z" fill="#F8F8FE"/>
<g style="mix-blend-mode:multiply" opacity="0.2">
<path d="M380.6 395.365C380.701 393.863 380.834 392.09 381.041 390.081L382.663 421.54C380.716 416.662 379.367 413.063 379.096 411.731C378.409 408.485 379.422 401.464 380.585 395.363L380.6 395.365Z" fill="#020202"/>
</g>
<path d="M371.634 207.906L369.201 160.785C372.878 160.592 375.999 163.423 376.192 167.1L377.947 200.93C378.139 204.607 375.309 207.728 371.647 207.923L371.634 207.906Z" fill="#1A00E1"/>
<path d="M143.701 196.062L140.623 196.221C138.651 196.323 136.961 194.799 136.859 192.827L136.012 176.419C135.91 174.448 137.434 172.758 139.406 172.656L142.484 172.497L143.701 196.062Z" fill="#1A00E1"/>
<path d="M145.169 224.5L142.091 224.658C140.12 224.76 138.429 223.236 138.327 221.265L137.48 204.857C137.378 202.885 138.903 201.195 140.874 201.093L143.952 200.934L145.169 224.5Z" fill="#1A00E1"/>
<path d="M274.939 95.6363L226.263 98.1612C218.079 98.5862 211.086 92.2868 210.661 84.1023L288.996 80.0489C289.421 88.2334 283.122 95.2264 274.937 95.6514L274.939 95.6363Z" fill="#1A00E1"/>
<path d="M169.785 152.136L209.83 150.663C211.772 150.592 213.393 152.112 213.464 154.039L214.937 194.084C215.008 196.027 213.488 197.648 211.561 197.719L171.516 199.191C169.573 199.263 167.952 197.742 167.882 195.815L166.409 155.77C166.337 153.828 167.858 152.207 169.785 152.136Z" fill="#1A00E1" fill-opacity="0.2"/>
<path d="M225.601 158.463L343.687 154.12C344.567 154.088 345.306 154.775 345.339 155.655L345.345 155.837C345.378 156.717 344.691 157.456 343.811 157.489L225.725 161.832C224.844 161.864 224.105 161.177 224.073 160.297L224.066 160.115C224.034 159.235 224.721 158.495 225.601 158.463Z" fill="#FF0090"/>
<path d="M333.614 162.816L225.922 166.777C225.042 166.809 224.355 167.549 224.388 168.429L224.394 168.596C224.426 169.476 225.166 170.163 226.046 170.131L333.737 166.17C334.617 166.137 335.304 165.398 335.272 164.518L335.266 164.351C335.234 163.471 334.494 162.784 333.614 162.816Z" fill="#FF0090"/>
<path d="M226.198 175.006L301.205 172.248C302.085 172.215 302.824 172.902 302.857 173.782L302.863 173.964C302.896 174.845 302.209 175.584 301.329 175.616L226.322 178.375C225.442 178.407 224.703 177.72 224.67 176.84L224.664 176.658C224.631 175.778 225.318 175.039 226.198 175.006Z" fill="#FF0090"/>
<path d="M226.515 183.428L276.393 181.594C277.273 181.561 278.012 182.248 278.045 183.128L278.052 183.311C278.084 184.191 277.397 184.93 276.517 184.962L226.639 186.797C225.759 186.829 225.02 186.142 224.987 185.262L224.98 185.08C224.948 184.2 225.635 183.461 226.515 183.428Z" fill="#FF0090"/>
<path d="M172.49 216.129L212.535 214.656C214.477 214.584 216.098 216.105 216.169 218.032L217.642 258.077C217.713 260.019 216.193 261.64 214.266 261.711L174.221 263.184C172.278 263.255 170.657 261.735 170.587 259.808L169.114 219.763C169.042 217.821 170.563 216.2 172.49 216.129V216.129Z" fill="#1A00E1" fill-opacity="0.2"/>
<path d="M346.377 218.113L228.306 222.456C227.426 222.488 226.739 223.228 226.771 224.108L226.778 224.275C226.81 225.155 227.55 225.842 228.43 225.81L346.5 221.467C347.38 221.435 348.067 220.695 348.035 219.815L348.029 219.648C347.997 218.768 347.257 218.081 346.377 218.113Z" fill="#FF0090"/>
<path d="M336.303 226.825L228.611 230.786C227.731 230.818 227.044 231.558 227.077 232.438L227.083 232.604C227.115 233.484 227.855 234.172 228.735 234.139L336.426 230.178C337.306 230.146 337.993 229.406 337.961 228.526L337.955 228.36C337.923 227.48 337.183 226.792 336.303 226.825Z" fill="#FF0090"/>
<path d="M303.895 236.226L228.903 238.984C228.023 239.016 227.336 239.756 227.369 240.636L227.375 240.803C227.407 241.683 228.147 242.37 229.027 242.338L304.018 239.58C304.898 239.547 305.585 238.808 305.553 237.928L305.546 237.761C305.514 236.881 304.774 236.194 303.895 236.226Z" fill="#FF0090"/>
<path d="M279.083 245.587L229.22 247.421C228.34 247.454 227.653 248.193 227.686 249.073L227.692 249.24C227.724 250.12 228.464 250.807 229.344 250.775L279.206 248.941C280.086 248.908 280.773 248.169 280.741 247.289L280.735 247.122C280.702 246.242 279.963 245.555 279.083 245.587Z" fill="#FF0090"/>
<path d="M175.411 280.426L215.456 278.953C217.398 278.882 219.019 280.402 219.09 282.329L220.563 322.374C220.634 324.316 219.114 325.937 217.187 326.008L177.142 327.481C175.199 327.553 173.578 326.032 173.508 324.105L172.035 284.06C171.963 282.118 173.484 280.497 175.411 280.426V280.426Z" stroke="#1A00E1" stroke-opacity="0.2" stroke-miterlimit="10"/>
<path d="M231.241 286.755L349.327 282.412C350.207 282.379 350.947 283.066 350.979 283.946L350.986 284.129C351.018 285.009 350.331 285.748 349.451 285.78L231.365 290.124C230.485 290.156 229.746 289.469 229.713 288.589L229.707 288.407C229.674 287.527 230.361 286.787 231.241 286.755Z" fill="#FF0090"/>
<path d="M231.533 295.067L339.24 291.106C340.12 291.074 340.86 291.761 340.892 292.641L340.899 292.823C340.931 293.703 340.244 294.442 339.364 294.475L231.657 298.436C230.777 298.468 230.038 297.781 230.005 296.901L229.999 296.719C229.966 295.839 230.653 295.1 231.533 295.067Z" fill="#FF0090"/>
<path d="M231.84 303.283L306.847 300.524C307.727 300.492 308.466 301.179 308.499 302.059L308.505 302.241C308.538 303.121 307.851 303.86 306.971 303.893L231.964 306.651C231.084 306.684 230.345 305.997 230.312 305.117L230.306 304.935C230.273 304.055 230.96 303.315 231.84 303.283V303.283Z" fill="#FF0090"/>
<path d="M232.141 311.718L282.018 309.884C282.899 309.851 283.638 310.538 283.67 311.418L283.677 311.6C283.709 312.48 283.022 313.22 282.142 313.252L232.265 315.087C231.384 315.119 230.645 314.432 230.613 313.552L230.606 313.37C230.574 312.49 231.261 311.75 232.141 311.718Z" fill="#FF0090"/>
<path d="M314.082 478.547L237.079 483.103C230.893 483.469 226.174 488.781 226.54 494.968L226.618 496.287C226.984 502.473 232.296 507.192 238.483 506.826L315.486 502.269C321.672 501.903 326.391 496.591 326.024 490.405L325.946 489.086C325.58 482.899 320.268 478.181 314.082 478.547Z" fill="#FF0090"/>
<path d="M341.668 359.494L187.651 365.967C181.995 366.204 177.603 370.982 177.84 376.637L178.566 393.902C178.804 399.558 183.581 403.95 189.237 403.712L343.254 397.24C348.91 397.002 353.302 392.225 353.064 386.569L352.339 369.304C352.101 363.649 347.324 359.257 341.668 359.494Z" fill="#1A00E1" fill-opacity="0.2"/>
<path d="M344.423 411.628L190.406 418.1C184.75 418.338 180.358 423.115 180.595 428.771L181.321 446.036C181.559 451.691 186.336 456.084 191.992 455.846L346.009 449.374C351.665 449.136 356.057 444.358 355.819 438.703L355.094 421.438C354.856 415.782 350.078 411.39 344.423 411.628Z" stroke="#1A00E1" stroke-opacity="0.2" stroke-miterlimit="10"/>
</svg>
