<svg width="917" height="690" viewBox="0 0 917 690" fill="none" xmlns="http://www.w3.org/2000/svg">
<path d="M334.357 211.846C113.487 200.265 18.0359 62.0852 0 -1L925.841 8.1143L921.217 689.006C812.077 662.413 727.909 537.458 708.949 484.202C676.114 398.242 555.227 223.426 334.357 211.846Z" fill="#1A00E1"/>
<path d="M347.742 205.269C126.807 193.544 35.4904 62.8709 17.4492 -1H932V690C822.827 663.077 741.411 534.937 722.444 481.017C689.6 393.986 568.678 216.993 347.742 205.269Z" fill="#FF0090"/>
<g style="mix-blend-mode:multiply">
<path d="M607.678 621.592C685.463 609.217 746.96 589.382 745.037 577.29C743.113 565.198 678.496 565.429 600.712 577.804C522.927 590.18 461.43 610.014 463.353 622.106C465.277 634.198 529.894 633.968 607.678 621.592Z" fill="#1A00E1" fill-opacity="0.2"/>
</g>
<path d="M640.536 158.612L707.834 552.559C708.213 554.822 708.365 557.069 708.304 559.271C708.274 560.379 708.168 561.457 708.031 562.536C707.94 563.082 707.864 563.629 707.773 564.16C707.196 567.349 706.133 570.401 704.675 573.241C703.946 574.668 703.111 576.035 702.185 577.34C701.274 578.631 700.241 579.861 699.163 581.03C698.434 581.79 697.66 582.534 696.855 583.247C696.05 583.946 695.215 584.614 694.35 585.236C693.044 586.178 691.647 587.013 690.204 587.757C689.233 588.243 688.246 588.698 687.213 589.093C685.148 589.898 682.961 590.505 680.714 590.885L519.12 618.49C516.737 618.9 514.353 619.037 512.029 618.931C511.635 618.916 511.27 618.9 510.875 618.855C510.45 618.825 510.025 618.779 509.6 618.733C507.823 618.521 506.077 618.172 504.392 617.686C503.541 617.428 502.706 617.154 501.901 616.851C501.522 616.714 501.142 616.562 500.778 616.41C499.988 616.091 499.214 615.712 498.439 615.332C496.07 614.117 493.853 612.614 491.849 610.898C491.044 610.2 490.27 609.486 489.541 608.697C488.433 607.542 487.415 606.313 486.474 604.991C485.213 603.245 484.135 601.362 483.255 599.373C482.131 596.853 481.311 594.18 480.825 591.371L413.482 197.394C410.384 179.339 422.547 162.165 440.632 159.083L602.225 131.478C620.31 128.395 637.453 140.558 640.551 158.612H640.536Z" fill="#1A00E1"/>
<path d="M633.338 159.842L700.636 553.789C700.939 555.536 701.061 557.297 701 559.058C701 559.848 700.909 560.638 700.803 561.518L700.56 562.991C700.15 565.284 699.345 567.653 698.176 569.93C697.614 571.039 696.946 572.117 696.217 573.134C695.549 574.091 694.744 575.078 693.833 576.05C693.408 576.49 692.891 576.991 692.284 577.538L692.041 577.75C691.54 578.191 691.024 578.616 690.462 579.026L690.082 579.284C689.171 579.937 688.215 580.544 687.197 581.061L686.863 581.243C686.058 581.653 685.299 581.987 684.555 582.291C682.9 582.913 681.184 583.384 679.453 583.688L517.86 611.293C516.037 611.612 514.17 611.733 512.332 611.642C511.71 611.612 511.072 611.582 510.48 611.506C509.083 611.339 507.716 611.065 506.335 610.671C505.682 610.473 505.013 610.261 504.452 610.033C504.118 609.911 503.875 609.82 503.647 609.729L503.465 609.653C502.979 609.456 502.417 609.198 501.718 608.848C499.911 607.907 498.18 606.738 496.556 605.356C495.903 604.794 495.311 604.232 494.779 603.67C493.898 602.744 493.094 601.757 492.38 600.77C491.469 599.495 490.679 598.158 490.026 596.746L489.859 596.382C488.963 594.393 488.326 592.297 487.961 590.126L420.663 196.164C418.264 182.088 427.77 168.664 441.846 166.265L603.455 138.66C614.205 136.823 624.561 141.94 629.936 150.716C631.592 153.419 632.791 156.502 633.353 159.827L633.338 159.842Z" fill="#F8F8FE"/>
<g style="mix-blend-mode:multiply" opacity="0.2">
<path d="M688.473 443.474C688.397 441.971 688.321 440.194 688.291 438.174L693.59 469.227C691.085 464.611 689.324 461.194 688.898 459.904C687.836 456.76 688.018 449.669 688.458 443.474H688.473Z" fill="#020202"/>
</g>
<path d="M657.587 258.359L649.646 211.849C653.275 211.227 656.707 213.671 657.329 217.301L663.039 250.691C663.661 254.32 661.217 257.752 657.603 258.375L657.587 258.359Z" fill="#1A00E1"/>
<path d="M429.839 273.324L426.8 273.843C424.855 274.175 422.997 272.859 422.665 270.913L419.899 254.718C419.567 252.772 420.883 250.915 422.829 250.582L425.867 250.064L429.839 273.324Z" fill="#1A00E1"/>
<path d="M434.631 301.393L431.593 301.912C429.647 302.244 427.79 300.928 427.457 298.982L424.692 282.787C424.36 280.841 425.675 278.984 427.621 278.652L430.66 278.133L434.631 301.393Z" fill="#1A00E1"/>
<path d="M548.396 158.202L500.352 166.417C492.274 167.799 484.591 162.363 483.209 154.285L560.529 141.074C561.91 149.152 556.474 156.836 548.396 158.217V158.202Z" fill="#1A00E1"/>
<path d="M450.592 226.642L490.188 220.484C492.109 220.185 493.897 221.505 494.193 223.411L500.351 263.007C500.65 264.927 499.33 266.715 497.425 267.012L457.829 273.17C455.908 273.468 454.12 272.148 453.824 270.243L447.666 230.647C447.367 228.726 448.687 226.938 450.592 226.642Z" fill="#1A00E1" fill-opacity="0.2"/>
<path d="M506.765 226.381L623.527 208.222C624.397 208.086 625.212 208.682 625.348 209.552L625.376 209.732C625.511 210.602 624.915 211.417 624.045 211.553L507.283 229.712C506.413 229.847 505.598 229.252 505.462 228.381L505.434 228.201C505.299 227.331 505.895 226.516 506.765 226.381Z" fill="#FF0090"/>
<path d="M614.543 218.039L508.059 234.6C507.189 234.735 506.593 235.55 506.728 236.42L506.754 236.585C506.889 237.455 507.704 238.051 508.575 237.916L615.059 221.355C615.929 221.22 616.525 220.404 616.389 219.534L616.364 219.369C616.228 218.499 615.413 217.904 614.543 218.039Z" fill="#FF0090"/>
<path d="M509.298 242.74L583.464 231.205C584.334 231.07 585.149 231.665 585.284 232.536L585.312 232.716C585.447 233.586 584.852 234.401 583.982 234.536L509.816 246.071C508.946 246.206 508.131 245.61 507.996 244.74L507.968 244.56C507.832 243.69 508.428 242.875 509.298 242.74Z" fill="#FF0090"/>
<path d="M510.6 251.067L559.919 243.396C560.789 243.261 561.604 243.856 561.739 244.727L561.767 244.907C561.903 245.777 561.307 246.592 560.437 246.727L511.118 254.397C510.248 254.533 509.433 253.937 509.298 253.067L509.27 252.887C509.135 252.017 509.73 251.202 510.6 251.067Z" fill="#FF0090"/>
<path d="M460.782 289.876L500.378 283.718C502.299 283.42 504.087 284.74 504.383 286.645L510.541 326.241C510.84 328.162 509.52 329.95 507.614 330.246L468.019 336.404C466.098 336.703 464.31 335.383 464.014 333.477L457.855 293.881C457.557 291.961 458.877 290.173 460.782 289.876Z" fill="#1A00E1" fill-opacity="0.2"/>
<path d="M633.703 271.459L516.955 289.615C516.085 289.751 515.49 290.566 515.625 291.436L515.651 291.601C515.786 292.471 516.601 293.067 517.471 292.931L634.218 274.774C635.088 274.639 635.684 273.824 635.549 272.954L635.523 272.789C635.388 271.919 634.573 271.323 633.703 271.459Z" fill="#FF0090"/>
<path d="M624.72 281.291L518.235 297.852C517.365 297.987 516.769 298.802 516.905 299.672L516.93 299.837C517.066 300.707 517.881 301.303 518.751 301.168L625.235 284.607C626.105 284.472 626.701 283.657 626.566 282.786L626.54 282.621C626.405 281.751 625.59 281.156 624.72 281.291Z" fill="#FF0090"/>
<path d="M593.637 294.427L519.487 305.959C518.616 306.095 518.021 306.91 518.156 307.78L518.182 307.945C518.317 308.815 519.132 309.411 520.002 309.275L594.153 297.743C595.023 297.608 595.618 296.793 595.483 295.923L595.458 295.758C595.322 294.887 594.507 294.292 593.637 294.427Z" fill="#FF0090"/>
<path d="M570.094 306.633L520.79 314.301C519.92 314.436 519.325 315.251 519.46 316.122L519.486 316.287C519.621 317.157 520.436 317.752 521.306 317.617L570.61 309.949C571.48 309.814 572.075 308.999 571.94 308.129L571.914 307.964C571.779 307.094 570.964 306.498 570.094 306.633Z" fill="#FF0090"/>
<path d="M471.222 353.387L510.818 347.229C512.739 346.93 514.527 348.25 514.823 350.156L520.981 389.752C521.28 391.672 519.96 393.46 518.054 393.757L478.458 399.915C476.538 400.214 474.75 398.893 474.453 396.988L468.295 357.392C467.997 355.471 469.317 353.683 471.222 353.387V353.387Z" stroke="#1A00E1" stroke-opacity="0.2" stroke-miterlimit="10"/>
<path d="M527.409 353.126L644.172 334.967C645.042 334.832 645.857 335.427 645.992 336.297L646.02 336.477C646.155 337.348 645.56 338.162 644.69 338.298L527.927 356.457C527.057 356.592 526.242 355.997 526.107 355.127L526.079 354.947C525.944 354.076 526.539 353.261 527.409 353.126Z" fill="#FF0090"/>
<path d="M528.674 361.347L635.173 344.784C636.044 344.649 636.859 345.244 636.994 346.115L637.022 346.295C637.157 347.165 636.562 347.98 635.692 348.115L529.192 364.678C528.322 364.814 527.507 364.218 527.372 363.348L527.344 363.168C527.208 362.297 527.804 361.483 528.674 361.347Z" fill="#FF0090"/>
<path d="M529.942 369.47L604.108 357.935C604.978 357.8 605.793 358.396 605.928 359.266L605.956 359.446C606.091 360.316 605.496 361.131 604.626 361.266L530.46 372.801C529.59 372.936 528.775 372.341 528.64 371.47L528.612 371.29C528.476 370.42 529.072 369.605 529.942 369.47Z" fill="#FF0090"/>
<path d="M531.23 377.812L580.548 370.142C581.419 370.006 582.233 370.602 582.369 371.472L582.397 371.652C582.532 372.522 581.937 373.337 581.066 373.472L531.748 381.143C530.878 381.278 530.063 380.682 529.927 379.812L529.899 379.632C529.764 378.762 530.359 377.947 531.23 377.812Z" fill="#FF0090"/>
<path d="M632.167 533.882L556.229 547.436C550.128 548.525 546.065 554.353 547.154 560.454L547.386 561.755C548.475 567.856 554.304 571.919 560.405 570.83L636.342 557.276C642.443 556.187 646.506 550.359 645.417 544.258L645.185 542.957C644.096 536.856 638.268 532.793 632.167 533.882Z" fill="#FF0090"/>
<path d="M645.603 412.416L493.407 436.903C487.818 437.802 484.017 443.062 484.916 448.65L487.661 465.711C488.56 471.3 493.819 475.101 499.408 474.202L651.604 449.715C657.193 448.816 660.995 443.557 660.095 437.968L657.35 420.907C656.451 415.319 651.192 411.517 645.603 412.416Z" fill="#1A00E1" fill-opacity="0.2"/>
<path d="M654.452 463.867L502.256 488.354C496.667 489.253 492.866 494.512 493.765 500.101L496.51 517.162C497.409 522.751 502.668 526.552 508.257 525.653L660.453 501.166C666.042 500.267 669.844 495.007 668.944 489.419L666.2 472.358C665.3 466.769 660.041 462.968 654.452 463.867Z" stroke="#1A00E1" stroke-opacity="0.2" stroke-miterlimit="10"/>
</svg>
