<svg width="390" height="458" viewBox="0 0 390 458" fill="none" xmlns="http://www.w3.org/2000/svg">
<rect x="-18" y="-2" width="425" height="66" fill="#FF0090"/>
<path d="M157.989 174.172C41.0736 167.308 -9.45286 85.3962 -19 48L471.087 53.4028L468.639 457.027C410.866 441.264 366.313 367.192 356.276 335.622C338.896 284.666 274.905 181.037 157.989 174.172Z" fill="#1A00E1"/>
<path d="M165.075 170.274C48.1243 163.323 -0.213213 85.8619 -9.76318 48H474.347V457.617C416.557 441.657 373.46 365.697 363.42 333.734C346.034 282.143 282.025 177.224 165.075 170.274Z" fill="#FF0090"/>
<g style="mix-blend-mode:multiply">
<path d="M300.331 291.705C325.653 287.677 345.673 281.22 345.046 277.284C344.42 273.347 323.385 273.422 298.063 277.451C272.742 281.48 252.722 287.936 253.348 291.873C253.975 295.809 275.01 295.734 300.331 291.705Z" fill="#1A00E1" fill-opacity="0.2"/>
</g>
<path d="M323.37 140.989L345.278 269.233C345.401 269.969 345.451 270.701 345.431 271.418C345.421 271.778 345.387 272.129 345.342 272.48C345.312 272.658 345.288 272.836 345.258 273.009C345.07 274.047 344.724 275.041 344.25 275.965C344.012 276.43 343.74 276.875 343.439 277.3C343.142 277.72 342.806 278.12 342.455 278.501C342.218 278.748 341.966 278.99 341.704 279.223C341.442 279.45 341.17 279.668 340.888 279.87C340.463 280.177 340.008 280.449 339.539 280.691C339.222 280.849 338.901 280.997 338.565 281.126C337.893 281.388 337.181 281.586 336.449 281.709L283.845 290.696C283.069 290.829 282.293 290.874 281.536 290.839C281.408 290.834 281.289 290.829 281.161 290.814C281.022 290.804 280.884 290.79 280.746 290.775C280.167 290.706 279.599 290.592 279.05 290.434C278.773 290.35 278.501 290.261 278.239 290.162C278.116 290.117 277.992 290.068 277.874 290.019C277.617 289.915 277.364 289.791 277.112 289.668C276.341 289.272 275.62 288.783 274.967 288.224C274.705 287.997 274.453 287.764 274.216 287.507C273.855 287.132 273.524 286.731 273.217 286.301C272.807 285.733 272.456 285.12 272.169 284.472C271.803 283.652 271.537 282.782 271.378 281.867L249.456 153.613C248.447 147.736 252.407 142.145 258.294 141.142L310.898 132.155C316.786 131.152 322.367 135.111 323.375 140.989H323.37Z" fill="#1A00E1"/>
<path d="M321.027 141.389L342.935 269.633C343.034 270.202 343.073 270.775 343.054 271.348C343.054 271.605 343.024 271.862 342.989 272.149L342.91 272.629C342.777 273.375 342.515 274.146 342.134 274.888C341.951 275.249 341.734 275.599 341.497 275.931C341.279 276.242 341.017 276.563 340.72 276.88C340.582 277.023 340.414 277.186 340.216 277.364L340.137 277.433C339.974 277.577 339.806 277.715 339.623 277.849L339.5 277.933C339.203 278.145 338.892 278.343 338.56 278.511L338.452 278.57C338.19 278.704 337.942 278.812 337.7 278.911C337.161 279.114 336.603 279.267 336.039 279.366L283.435 288.353C282.842 288.456 282.234 288.496 281.635 288.466C281.433 288.457 281.225 288.447 281.032 288.422C280.578 288.368 280.133 288.279 279.683 288.15C279.47 288.086 279.253 288.017 279.07 287.942C278.961 287.903 278.882 287.873 278.808 287.844L278.749 287.819C278.591 287.755 278.408 287.671 278.18 287.557C277.592 287.25 277.029 286.87 276.5 286.42C276.287 286.237 276.094 286.054 275.921 285.871C275.635 285.57 275.373 285.248 275.14 284.927C274.844 284.512 274.587 284.077 274.374 283.617L274.32 283.499C274.028 282.851 273.82 282.169 273.702 281.462L251.794 153.213C251.013 148.631 254.107 144.261 258.69 143.48L311.299 134.494C314.799 133.895 318.17 135.561 319.92 138.418C320.459 139.298 320.849 140.302 321.032 141.384L321.027 141.389Z" fill="#F8F8FE"/>
<g style="mix-blend-mode:multiply" opacity="0.2">
<path d="M338.976 233.722C338.951 233.232 338.927 232.654 338.917 231.996L340.642 242.105C339.826 240.602 339.253 239.49 339.114 239.07C338.768 238.047 338.828 235.738 338.971 233.722H338.976Z" fill="#020202"/>
</g>
<path d="M328.921 173.46L326.336 158.319C327.517 158.117 328.634 158.913 328.837 160.094L330.696 170.964C330.898 172.145 330.103 173.262 328.926 173.465L328.921 173.46Z" fill="#1A00E1"/>
<path d="M254.781 178.332L253.792 178.5C253.159 178.609 252.554 178.18 252.446 177.547L251.546 172.275C251.437 171.641 251.866 171.037 252.499 170.928L253.488 170.76L254.781 178.332Z" fill="#1A00E1"/>
<path d="M256.341 187.469L255.352 187.638C254.719 187.746 254.114 187.318 254.006 186.684L253.106 181.412C252.997 180.779 253.426 180.174 254.059 180.066L255.048 179.897L256.341 187.469Z" fill="#1A00E1"/>
<path d="M293.376 140.855L277.736 143.53C275.106 143.979 272.605 142.21 272.155 139.58L297.325 135.279C297.775 137.909 296.005 140.41 293.376 140.86V140.855Z" fill="#1A00E1"/>
<path d="M261.535 163.135L274.425 161.13C275.05 161.033 275.632 161.463 275.729 162.083L277.733 174.973C277.831 175.598 277.401 176.18 276.781 176.277L263.891 178.281C263.265 178.379 262.683 177.949 262.587 177.329L260.582 164.439C260.485 163.813 260.915 163.231 261.535 163.135Z" fill="#1A00E1" fill-opacity="0.2"/>
<path d="M279.82 163.05L317.831 157.138C318.114 157.094 318.379 157.288 318.423 157.571L318.433 157.63C318.477 157.913 318.283 158.179 317.999 158.223L279.989 164.134C279.706 164.178 279.441 163.984 279.396 163.701L279.387 163.642C279.343 163.359 279.537 163.094 279.82 163.05Z" fill="#FF0090"/>
<path d="M314.908 160.334L280.243 165.725C279.96 165.77 279.766 166.035 279.81 166.318L279.819 166.372C279.863 166.655 280.128 166.849 280.411 166.805L315.076 161.414C315.359 161.37 315.553 161.104 315.509 160.821L315.5 160.767C315.456 160.484 315.191 160.29 314.908 160.334Z" fill="#FF0090"/>
<path d="M280.646 168.375L304.79 164.62C305.073 164.576 305.338 164.77 305.382 165.054L305.391 165.112C305.435 165.395 305.242 165.661 304.958 165.705L280.815 169.46C280.532 169.504 280.266 169.31 280.222 169.027L280.213 168.968C280.169 168.685 280.363 168.419 280.646 168.375Z" fill="#FF0090"/>
<path d="M281.07 171.086L297.124 168.589C297.408 168.545 297.673 168.739 297.717 169.022L297.726 169.081C297.77 169.364 297.576 169.629 297.293 169.673L281.238 172.17C280.955 172.214 280.69 172.021 280.646 171.737L280.636 171.679C280.592 171.395 280.786 171.13 281.07 171.086Z" fill="#FF0090"/>
<path d="M264.85 183.72L277.74 181.715C278.366 181.618 278.948 182.048 279.044 182.668L281.049 195.558C281.146 196.183 280.716 196.765 280.096 196.862L267.206 198.867C266.581 198.964 265.999 198.534 265.902 197.914L263.898 185.024C263.8 184.399 264.23 183.817 264.85 183.72Z" fill="#1A00E1" fill-opacity="0.2"/>
<path d="M321.141 177.724L283.136 183.635C282.853 183.679 282.659 183.944 282.703 184.228L282.711 184.281C282.755 184.565 283.021 184.759 283.304 184.715L321.309 178.804C321.592 178.76 321.786 178.494 321.742 178.211L321.734 178.157C321.69 177.874 321.425 177.68 321.141 177.724Z" fill="#FF0090"/>
<path d="M318.218 180.925L283.553 186.316C283.27 186.36 283.076 186.626 283.12 186.909L283.129 186.963C283.173 187.246 283.438 187.44 283.721 187.396L318.386 182.005C318.669 181.961 318.863 181.695 318.819 181.412L318.811 181.358C318.766 181.075 318.501 180.881 318.218 180.925Z" fill="#FF0090"/>
<path d="M308.099 185.201L283.961 188.956C283.677 189 283.483 189.265 283.528 189.548L283.536 189.602C283.58 189.885 283.845 190.079 284.128 190.035L308.267 186.281C308.55 186.237 308.744 185.972 308.7 185.688L308.692 185.635C308.648 185.351 308.383 185.157 308.099 185.201Z" fill="#FF0090"/>
<path d="M300.435 189.175L284.385 191.671C284.102 191.715 283.908 191.98 283.952 192.264L283.96 192.317C284.004 192.601 284.27 192.795 284.553 192.751L300.603 190.254C300.886 190.21 301.08 189.945 301.036 189.662L301.028 189.608C300.984 189.325 300.718 189.131 300.435 189.175Z" fill="#FF0090"/>
<path d="M268.25 204.395L281.14 202.39C281.765 202.293 282.348 202.723 282.444 203.343L284.449 216.233C284.546 216.858 284.116 217.44 283.496 217.537L270.606 219.541C269.981 219.639 269.399 219.209 269.302 218.589L267.298 205.699C267.2 205.074 267.63 204.491 268.25 204.395V204.395Z" stroke="#1A00E1" stroke-opacity="0.2" stroke-miterlimit="10"/>
<path d="M286.543 204.31L324.553 198.399C324.836 198.354 325.102 198.548 325.146 198.832L325.155 198.89C325.199 199.174 325.005 199.439 324.722 199.483L286.711 205.394C286.428 205.438 286.163 205.245 286.119 204.961L286.11 204.903C286.065 204.619 286.259 204.354 286.543 204.31Z" fill="#FF0090"/>
<path d="M286.954 206.986L321.624 201.594C321.907 201.55 322.172 201.744 322.216 202.028L322.225 202.086C322.269 202.369 322.076 202.635 321.792 202.679L287.123 208.071C286.84 208.115 286.574 207.921 286.53 207.638L286.521 207.579C286.477 207.296 286.671 207.03 286.954 206.986Z" fill="#FF0090"/>
<path d="M287.366 209.631L311.509 205.876C311.793 205.832 312.058 206.025 312.102 206.309L312.111 206.367C312.155 206.651 311.961 206.916 311.678 206.96L287.535 210.715C287.251 210.759 286.986 210.565 286.942 210.282L286.933 210.223C286.889 209.94 287.083 209.675 287.366 209.631Z" fill="#FF0090"/>
<path d="M287.785 212.346L303.84 209.849C304.123 209.805 304.388 209.999 304.432 210.282L304.442 210.341C304.486 210.624 304.292 210.889 304.008 210.933L287.953 213.43C287.67 213.474 287.405 213.281 287.361 212.997L287.352 212.939C287.308 212.655 287.502 212.39 287.785 212.346Z" fill="#FF0090"/>
<path d="M320.644 263.153L295.924 267.565C293.938 267.919 292.615 269.817 292.969 271.803L293.045 272.226C293.4 274.212 295.297 275.535 297.283 275.18L322.003 270.768C323.989 270.414 325.312 268.516 324.958 266.53L324.882 266.107C324.528 264.121 322.63 262.798 320.644 263.153Z" fill="#FF0090"/>
<path d="M325.018 223.611L275.473 231.582C273.654 231.875 272.416 233.587 272.709 235.407L273.602 240.961C273.895 242.78 275.607 244.017 277.427 243.725L326.972 235.753C328.791 235.461 330.029 233.749 329.736 231.929L328.842 226.375C328.55 224.556 326.838 223.318 325.018 223.611Z" fill="#1A00E1" fill-opacity="0.2"/>
<path d="M327.9 240.36L278.355 248.332C276.535 248.624 275.298 250.336 275.591 252.156L276.484 257.71C276.777 259.529 278.489 260.767 280.308 260.474L329.854 252.502C331.673 252.21 332.911 250.498 332.618 248.678L331.724 243.124C331.432 241.305 329.719 240.067 327.9 240.36Z" stroke="#1A00E1" stroke-opacity="0.2" stroke-miterlimit="10"/>
</svg>
